M48
; DRILL file {KiCad (6.0.0)} date Sun Mar  6 00:01:59 2022
; FORMAT={-:-/ absolute / metric / decimal}
; #@! TF.CreationDate,2022-03-06T00:01:59+01:00
; #@! TF.GenerationSoftware,Kicad,Pcbnew,(6.0.0)
; #@! TF.FileFunction,Plated,1,2,PTH
FMAT,2
METRIC
; #@! TA.AperFunction,Plated,PTH,ComponentDrill
T1C0.800
; #@! TA.AperFunction,Plated,PTH,ComponentDrill
T2C0.900
; #@! TA.AperFunction,Plated,PTH,ComponentDrill
T3C1.000
; #@! TA.AperFunction,Plated,PTH,ComponentDrill
T4C1.200
; #@! TA.AperFunction,Plated,PTH,ComponentDrill
T5C1.270
; #@! TA.AperFunction,Plated,PTH,ComponentDrill
T6C2.500
; #@! TA.AperFunction,Plated,PTH,ComponentDrill
T7C3.200
%
G90
G05
T1
X111.76Y-73.66
X111.8Y-99.06
X113.03Y-62.23
X113.03Y-64.77
X113.03Y-67.31
X113.03Y-105.41
X113.03Y-107.95
X113.03Y-110.49
X114.26Y-73.66
X114.3Y-99.06
X119.42Y-73.66
X120.65Y-99.06
X121.92Y-73.66
X123.15Y-99.06
X133.35Y-71.12
X133.35Y-76.12
X133.35Y-96.6
X133.35Y-101.6
X138.43Y-69.85
X138.43Y-77.47
X138.43Y-95.25
X138.43Y-102.87
T2
X137.155Y-90.057
X137.165Y-82.663
X139.695Y-90.057
X139.705Y-82.663
T3
X77.521Y-82.61
X77.521Y-90.11
X81.28Y-82.61
X81.28Y-90.11
X88.9Y-58.42
X88.9Y-114.3
X91.44Y-58.42
X91.44Y-114.3
X93.98Y-58.42
X93.98Y-114.3
T4
X67.31Y-73.406
X67.31Y-99.314
X80.01Y-73.406
X80.01Y-99.314
X91.44Y-73.406
X91.44Y-80.906
X91.44Y-91.694
X91.44Y-99.194
X107.95Y-82.55
X107.95Y-90.05
X118.11Y-62.23
X118.11Y-67.31
X118.11Y-105.41
X118.11Y-110.49
X125.73Y-82.55
X125.73Y-90.05
X133.35Y-62.23
X133.35Y-67.31
X133.35Y-105.41
X133.35Y-110.49
T5
X69.85Y-81.28
X69.85Y-86.36
X69.85Y-91.44
X149.86Y-63.5
X149.86Y-68.58
X149.86Y-73.66
X149.86Y-81.28
X149.86Y-86.36
X149.86Y-91.44
X149.86Y-99.06
X149.86Y-104.14
X149.86Y-109.22
T6
X78.74Y-62.23
X78.74Y-110.49
X104.14Y-62.23
X104.14Y-110.49
T7
X68.58Y-64.77
X68.58Y-109.22
X139.7Y-63.5
X139.7Y-109.22
T0
M30
