G04 #@! TF.GenerationSoftware,KiCad,Pcbnew,(6.0.0)*
G04 #@! TF.CreationDate,2022-03-06T00:02:08+01:00*
G04 #@! TF.ProjectId,PSU - Filter,50535520-2d20-4466-996c-7465722e6b69,rev?*
G04 #@! TF.SameCoordinates,Original*
G04 #@! TF.FileFunction,Soldermask,Top*
G04 #@! TF.FilePolarity,Negative*
%FSLAX46Y46*%
G04 Gerber Fmt 4.6, Leading zero omitted, Abs format (unit mm)*
G04 Created by KiCad (PCBNEW (6.0.0)) date 2022-03-06 00:02:08*
%MOMM*%
%LPD*%
G01*
G04 APERTURE LIST*
G04 Aperture macros list*
%AMRoundRect*
0 Rectangle with rounded corners*
0 $1 Rounding radius*
0 $2 $3 $4 $5 $6 $7 $8 $9 X,Y pos of 4 corners*
0 Add a 4 corners polygon primitive as box body*
4,1,4,$2,$3,$4,$5,$6,$7,$8,$9,$2,$3,0*
0 Add four circle primitives for the rounded corners*
1,1,$1+$1,$2,$3*
1,1,$1+$1,$4,$5*
1,1,$1+$1,$6,$7*
1,1,$1+$1,$8,$9*
0 Add four rect primitives between the rounded corners*
20,1,$1+$1,$2,$3,$4,$5,0*
20,1,$1+$1,$4,$5,$6,$7,0*
20,1,$1+$1,$6,$7,$8,$9,0*
20,1,$1+$1,$8,$9,$2,$3,0*%
G04 Aperture macros list end*
%ADD10C,4.400000*%
%ADD11C,6.000000*%
%ADD12RoundRect,0.200000X-1.200000X1.200000X-1.200000X-1.200000X1.200000X-1.200000X1.200000X1.200000X0*%
%ADD13C,2.800000*%
%ADD14C,2.400000*%
%ADD15C,2.000000*%
%ADD16RoundRect,0.835000X0.905000X-0.635000X0.905000X0.635000X-0.905000X0.635000X-0.905000X-0.635000X0*%
%ADD17RoundRect,0.835000X-0.905000X0.635000X-0.905000X-0.635000X0.905000X-0.635000X0.905000X0.635000X0*%
%ADD18RoundRect,0.200000X-0.900000X-0.900000X0.900000X-0.900000X0.900000X0.900000X-0.900000X0.900000X0*%
%ADD19C,2.200000*%
%ADD20O,2.800000X2.800000*%
%ADD21O,2.000000X2.000000*%
%ADD22C,1.840000*%
%ADD23RoundRect,0.200000X1.000000X1.000000X-1.000000X1.000000X-1.000000X-1.000000X1.000000X-1.000000X0*%
%ADD24RoundRect,0.200000X0.900000X0.900000X-0.900000X0.900000X-0.900000X-0.900000X0.900000X-0.900000X0*%
%ADD25RoundRect,0.200000X-1.000000X-1.000000X1.000000X-1.000000X1.000000X1.000000X-1.000000X1.000000X0*%
%ADD26RoundRect,0.200000X-0.800000X-0.800000X0.800000X-0.800000X0.800000X0.800000X-0.800000X0.800000X0*%
%ADD27RoundRect,0.200000X0.800000X0.800000X-0.800000X0.800000X-0.800000X-0.800000X0.800000X-0.800000X0*%
%ADD28RoundRect,0.200000X1.200000X1.200000X-1.200000X1.200000X-1.200000X-1.200000X1.200000X-1.200000X0*%
%ADD29RoundRect,0.200000X-1.200000X-1.200000X1.200000X-1.200000X1.200000X1.200000X-1.200000X1.200000X0*%
G04 APERTURE END LIST*
D10*
X78740000Y-62230000D03*
X104140000Y-62230000D03*
D11*
X68580000Y-109220000D03*
X139700000Y-109220000D03*
X68580000Y-64770000D03*
X139700000Y-63500000D03*
D12*
X125730000Y-82550000D03*
D13*
X125730000Y-90050000D03*
D12*
X91440000Y-91694000D03*
D13*
X91440000Y-99194000D03*
D12*
X91440000Y-73406000D03*
D13*
X91440000Y-80906000D03*
D12*
X107950000Y-82550000D03*
D13*
X107950000Y-90050000D03*
D14*
X81280000Y-90110000D03*
X81280000Y-82610000D03*
X77520800Y-82610000D03*
X77520800Y-90110000D03*
D15*
X133350000Y-71120000D03*
X133350000Y-76120000D03*
X133350000Y-101600000D03*
X133350000Y-96600000D03*
D16*
X149860000Y-73660000D03*
X149860000Y-68580000D03*
X149860000Y-63500000D03*
X149860000Y-91440000D03*
X149860000Y-86360000D03*
X149860000Y-81280000D03*
X149860000Y-109220000D03*
X149860000Y-104140000D03*
X149860000Y-99060000D03*
D17*
X69850000Y-81280000D03*
X69850000Y-86360000D03*
X69850000Y-91440000D03*
D18*
X137155000Y-90056666D03*
D19*
X139695000Y-90056666D03*
D13*
X133350000Y-67310000D03*
D20*
X118110000Y-67310000D03*
D13*
X118110000Y-62230000D03*
D20*
X133350000Y-62230000D03*
D13*
X133350000Y-105410000D03*
D20*
X118110000Y-105410000D03*
D13*
X118110000Y-110490000D03*
D20*
X133350000Y-110490000D03*
D15*
X138430000Y-77470000D03*
D21*
X138430000Y-69850000D03*
D15*
X138430000Y-102870000D03*
D21*
X138430000Y-95250000D03*
D22*
X113030000Y-62230000D03*
X113030000Y-64770000D03*
X113030000Y-67310000D03*
X113030000Y-110490000D03*
X113030000Y-107950000D03*
X113030000Y-105410000D03*
D23*
X93980000Y-58420000D03*
D14*
X91440000Y-58420000D03*
X88900000Y-58420000D03*
D24*
X139705000Y-82663333D03*
D19*
X137165000Y-82663333D03*
D25*
X88900000Y-114300000D03*
D14*
X91440000Y-114300000D03*
X93980000Y-114300000D03*
D10*
X104140000Y-110490000D03*
X78740000Y-110490000D03*
D26*
X111760000Y-73660000D03*
D15*
X114260000Y-73660000D03*
D27*
X121920000Y-73660000D03*
D15*
X119420000Y-73660000D03*
D26*
X120650000Y-99060000D03*
D15*
X123150000Y-99060000D03*
D27*
X114300000Y-99060000D03*
D15*
X111800000Y-99060000D03*
D28*
X80010000Y-99314000D03*
D20*
X67310000Y-99314000D03*
D29*
X67310000Y-73406000D03*
D20*
X80010000Y-73406000D03*
G36*
X90101919Y-113781735D02*
G01*
X90121595Y-113848747D01*
X90173938Y-113894102D01*
X90242491Y-113903959D01*
X90305564Y-113875154D01*
X90327883Y-113845584D01*
X90329724Y-113844804D01*
X90331321Y-113846009D01*
X90331389Y-113847382D01*
X90268187Y-114050924D01*
X90242419Y-114268638D01*
X90256758Y-114487411D01*
X90310723Y-114699897D01*
X90356919Y-114800103D01*
X90356736Y-114802094D01*
X90354920Y-114802932D01*
X90353290Y-114801785D01*
X90336596Y-114765985D01*
X90290628Y-114713779D01*
X90224024Y-114694795D01*
X90157729Y-114714834D01*
X90112738Y-114767596D01*
X90101956Y-114818123D01*
X90100617Y-114819609D01*
X90098661Y-114819191D01*
X90098000Y-114817706D01*
X90098000Y-113782298D01*
X90099000Y-113780566D01*
X90101000Y-113780566D01*
X90101919Y-113781735D01*
G37*
G36*
X92565690Y-113881805D02*
G01*
X92568996Y-113888896D01*
X92569115Y-113889223D01*
X92591118Y-113971339D01*
X92627320Y-114030733D01*
X92689617Y-114060994D01*
X92758386Y-114052773D01*
X92811890Y-114008596D01*
X92828353Y-113972546D01*
X92829982Y-113971386D01*
X92831801Y-113972217D01*
X92832082Y-113973970D01*
X92808187Y-114050924D01*
X92782419Y-114268638D01*
X92796758Y-114487411D01*
X92832037Y-114626323D01*
X92831495Y-114628248D01*
X92829556Y-114628740D01*
X92828391Y-114627856D01*
X92792680Y-114569267D01*
X92730383Y-114539006D01*
X92661614Y-114547227D01*
X92608110Y-114591404D01*
X92596460Y-114616914D01*
X92594831Y-114618074D01*
X92593012Y-114617243D01*
X92592747Y-114615440D01*
X92604892Y-114579663D01*
X92636359Y-114362633D01*
X92637998Y-114300072D01*
X92617931Y-114081682D01*
X92561952Y-113883193D01*
X92562444Y-113881254D01*
X92564369Y-113880712D01*
X92565690Y-113881805D01*
G37*
G36*
X92781339Y-57900809D02*
G01*
X92782000Y-57902294D01*
X92782000Y-58937702D01*
X92781000Y-58939434D01*
X92779000Y-58939434D01*
X92778081Y-58938265D01*
X92758405Y-58871253D01*
X92706062Y-58825898D01*
X92637509Y-58816041D01*
X92574436Y-58844846D01*
X92547704Y-58880263D01*
X92545863Y-58881043D01*
X92544266Y-58879838D01*
X92544214Y-58878415D01*
X92604892Y-58699663D01*
X92636359Y-58482633D01*
X92637998Y-58420072D01*
X92617931Y-58201682D01*
X92558422Y-57990679D01*
X92543111Y-57959631D01*
X92543242Y-57957635D01*
X92545036Y-57956750D01*
X92546406Y-57957424D01*
X92589372Y-58006221D01*
X92655976Y-58025205D01*
X92722271Y-58005166D01*
X92767262Y-57952404D01*
X92778044Y-57901877D01*
X92779383Y-57900391D01*
X92781339Y-57900809D01*
G37*
G36*
X90025690Y-58001805D02*
G01*
X90028996Y-58008896D01*
X90029115Y-58009223D01*
X90051118Y-58091339D01*
X90087320Y-58150733D01*
X90149617Y-58180994D01*
X90218386Y-58172773D01*
X90271890Y-58128596D01*
X90288353Y-58092546D01*
X90289982Y-58091386D01*
X90291801Y-58092217D01*
X90292082Y-58093970D01*
X90268187Y-58170924D01*
X90242419Y-58388638D01*
X90256758Y-58607411D01*
X90292037Y-58746323D01*
X90291495Y-58748248D01*
X90289556Y-58748740D01*
X90288391Y-58747856D01*
X90252680Y-58689267D01*
X90190383Y-58659006D01*
X90121614Y-58667227D01*
X90068110Y-58711404D01*
X90056460Y-58736914D01*
X90054831Y-58738074D01*
X90053012Y-58737243D01*
X90052747Y-58735440D01*
X90064892Y-58699663D01*
X90096359Y-58482633D01*
X90097998Y-58420072D01*
X90077931Y-58201682D01*
X90021952Y-58003193D01*
X90022444Y-58001254D01*
X90024369Y-58000712D01*
X90025690Y-58001805D01*
G37*
M02*
