G04 #@! TF.GenerationSoftware,KiCad,Pcbnew,(6.0.0)*
G04 #@! TF.CreationDate,2022-03-06T00:02:08+01:00*
G04 #@! TF.ProjectId,PSU - Filter,50535520-2d20-4466-996c-7465722e6b69,rev?*
G04 #@! TF.SameCoordinates,Original*
G04 #@! TF.FileFunction,Legend,Bot*
G04 #@! TF.FilePolarity,Positive*
%FSLAX46Y46*%
G04 Gerber Fmt 4.6, Leading zero omitted, Abs format (unit mm)*
G04 Created by KiCad (PCBNEW (6.0.0)) date 2022-03-06 00:02:08*
%MOMM*%
%LPD*%
G01*
G04 APERTURE LIST*
%ADD10C,0.300000*%
G04 APERTURE END LIST*
D10*
X144124071Y-79538572D02*
X142624071Y-79538572D01*
X144124071Y-80395715D02*
X143266928Y-79752858D01*
X142624071Y-80395715D02*
X143481214Y-79538572D01*
X144124071Y-81038572D02*
X143124071Y-81038572D01*
X143409785Y-81038572D02*
X143266928Y-81110001D01*
X143195500Y-81181429D01*
X143124071Y-81324286D01*
X143124071Y-81467143D01*
X144124071Y-82610001D02*
X143338357Y-82610001D01*
X143195500Y-82538572D01*
X143124071Y-82395715D01*
X143124071Y-82110001D01*
X143195500Y-81967143D01*
X144052642Y-82610001D02*
X144124071Y-82467143D01*
X144124071Y-82110001D01*
X144052642Y-81967143D01*
X143909785Y-81895715D01*
X143766928Y-81895715D01*
X143624071Y-81967143D01*
X143552642Y-82110001D01*
X143552642Y-82467143D01*
X143481214Y-82610001D01*
X144124071Y-83967143D02*
X143338357Y-83967143D01*
X143195500Y-83895715D01*
X143124071Y-83752858D01*
X143124071Y-83467143D01*
X143195500Y-83324286D01*
X144052642Y-83967143D02*
X144124071Y-83824286D01*
X144124071Y-83467143D01*
X144052642Y-83324286D01*
X143909785Y-83252858D01*
X143766928Y-83252858D01*
X143624071Y-83324286D01*
X143552642Y-83467143D01*
X143552642Y-83824286D01*
X143481214Y-83967143D01*
X144124071Y-84681429D02*
X142624071Y-84681429D01*
X143552642Y-84824286D02*
X144124071Y-85252858D01*
X143124071Y-85252858D02*
X143695500Y-84681429D01*
X144052642Y-86467143D02*
X144124071Y-86324286D01*
X144124071Y-86038572D01*
X144052642Y-85895715D01*
X143909785Y-85824286D01*
X143338357Y-85824286D01*
X143195500Y-85895715D01*
X143124071Y-86038572D01*
X143124071Y-86324286D01*
X143195500Y-86467143D01*
X143338357Y-86538572D01*
X143481214Y-86538572D01*
X143624071Y-85824286D01*
X143124071Y-87181429D02*
X144124071Y-87181429D01*
X143266928Y-87181429D02*
X143195500Y-87252858D01*
X143124071Y-87395715D01*
X143124071Y-87610001D01*
X143195500Y-87752858D01*
X143338357Y-87824286D01*
X144124071Y-87824286D01*
X144052642Y-88467143D02*
X144124071Y-88681429D01*
X144124071Y-89038572D01*
X144052642Y-89181429D01*
X143981214Y-89252858D01*
X143838357Y-89324286D01*
X143695500Y-89324286D01*
X143552642Y-89252858D01*
X143481214Y-89181429D01*
X143409785Y-89038572D01*
X143338357Y-88752858D01*
X143266928Y-88610001D01*
X143195500Y-88538572D01*
X143052642Y-88467143D01*
X142909785Y-88467143D01*
X142766928Y-88538572D01*
X142695500Y-88610001D01*
X142624071Y-88752858D01*
X142624071Y-89110001D01*
X142695500Y-89324286D01*
X143124071Y-89752858D02*
X143124071Y-90324286D01*
X142624071Y-89967143D02*
X143909785Y-89967143D01*
X144052642Y-90038572D01*
X144124071Y-90181429D01*
X144124071Y-90324286D01*
X143124071Y-91467143D02*
X144124071Y-91467143D01*
X143124071Y-90824286D02*
X143909785Y-90824286D01*
X144052642Y-90895715D01*
X144124071Y-91038572D01*
X144124071Y-91252858D01*
X144052642Y-91395715D01*
X143981214Y-91467143D01*
X143124071Y-91967143D02*
X143124071Y-92538572D01*
X144124071Y-92181429D02*
X142838357Y-92181429D01*
X142695500Y-92252858D01*
X142624071Y-92395715D01*
X142624071Y-92538572D01*
X143124071Y-92824286D02*
X143124071Y-93395715D01*
X144124071Y-93038572D02*
X142838357Y-93038572D01*
X142695500Y-93110001D01*
X142624071Y-93252858D01*
X142624071Y-93395715D01*
X146539071Y-73145715D02*
X145039071Y-73145715D01*
X145039071Y-73717143D01*
X145110500Y-73860001D01*
X145181928Y-73931429D01*
X145324785Y-74002858D01*
X145539071Y-74002858D01*
X145681928Y-73931429D01*
X145753357Y-73860001D01*
X145824785Y-73717143D01*
X145824785Y-73145715D01*
X146467642Y-74574286D02*
X146539071Y-74788572D01*
X146539071Y-75145715D01*
X146467642Y-75288572D01*
X146396214Y-75360001D01*
X146253357Y-75431429D01*
X146110500Y-75431429D01*
X145967642Y-75360001D01*
X145896214Y-75288572D01*
X145824785Y-75145715D01*
X145753357Y-74860001D01*
X145681928Y-74717143D01*
X145610500Y-74645715D01*
X145467642Y-74574286D01*
X145324785Y-74574286D01*
X145181928Y-74645715D01*
X145110500Y-74717143D01*
X145039071Y-74860001D01*
X145039071Y-75217143D01*
X145110500Y-75431429D01*
X145039071Y-76074286D02*
X146253357Y-76074286D01*
X146396214Y-76145715D01*
X146467642Y-76217143D01*
X146539071Y-76360001D01*
X146539071Y-76645715D01*
X146467642Y-76788572D01*
X146396214Y-76860001D01*
X146253357Y-76931429D01*
X145039071Y-76931429D01*
X147110500Y-79217143D02*
X147039071Y-79145715D01*
X146824785Y-79002858D01*
X146681928Y-78931429D01*
X146467642Y-78860001D01*
X146110500Y-78788572D01*
X145824785Y-78788572D01*
X145467642Y-78860001D01*
X145253357Y-78931429D01*
X145110500Y-79002858D01*
X144896214Y-79145715D01*
X144824785Y-79217143D01*
X145539071Y-79574286D02*
X145539071Y-80145715D01*
X146539071Y-79788572D02*
X145253357Y-79788572D01*
X145110500Y-79860001D01*
X145039071Y-80002858D01*
X145039071Y-80145715D01*
X146539071Y-80645715D02*
X145539071Y-80645715D01*
X145039071Y-80645715D02*
X145110500Y-80574286D01*
X145181928Y-80645715D01*
X145110500Y-80717143D01*
X145039071Y-80645715D01*
X145181928Y-80645715D01*
X146539071Y-81574286D02*
X146467642Y-81431429D01*
X146324785Y-81360001D01*
X145039071Y-81360001D01*
X145539071Y-81931429D02*
X145539071Y-82502858D01*
X145039071Y-82145715D02*
X146324785Y-82145715D01*
X146467642Y-82217143D01*
X146539071Y-82360001D01*
X146539071Y-82502858D01*
X146467642Y-83574286D02*
X146539071Y-83431429D01*
X146539071Y-83145715D01*
X146467642Y-83002858D01*
X146324785Y-82931429D01*
X145753357Y-82931429D01*
X145610500Y-83002858D01*
X145539071Y-83145715D01*
X145539071Y-83431429D01*
X145610500Y-83574286D01*
X145753357Y-83645715D01*
X145896214Y-83645715D01*
X146039071Y-82931429D01*
X146539071Y-84288572D02*
X145539071Y-84288572D01*
X145824785Y-84288572D02*
X145681928Y-84360001D01*
X145610500Y-84431429D01*
X145539071Y-84574286D01*
X145539071Y-84717143D01*
X146539071Y-86360001D02*
X145039071Y-86360001D01*
X145610500Y-86360001D02*
X145539071Y-86502858D01*
X145539071Y-86788572D01*
X145610500Y-86931429D01*
X145681928Y-87002858D01*
X145824785Y-87074286D01*
X146253357Y-87074286D01*
X146396214Y-87002858D01*
X146467642Y-86931429D01*
X146539071Y-86788572D01*
X146539071Y-86502858D01*
X146467642Y-86360001D01*
X146539071Y-87931429D02*
X146467642Y-87788572D01*
X146396214Y-87717143D01*
X146253357Y-87645715D01*
X145824785Y-87645715D01*
X145681928Y-87717143D01*
X145610500Y-87788572D01*
X145539071Y-87931429D01*
X145539071Y-88145715D01*
X145610500Y-88288572D01*
X145681928Y-88360001D01*
X145824785Y-88431429D01*
X146253357Y-88431429D01*
X146396214Y-88360001D01*
X146467642Y-88288572D01*
X146539071Y-88145715D01*
X146539071Y-87931429D01*
X146539071Y-89717143D02*
X145753357Y-89717143D01*
X145610500Y-89645715D01*
X145539071Y-89502858D01*
X145539071Y-89217143D01*
X145610500Y-89074286D01*
X146467642Y-89717143D02*
X146539071Y-89574286D01*
X146539071Y-89217143D01*
X146467642Y-89074286D01*
X146324785Y-89002858D01*
X146181928Y-89002858D01*
X146039071Y-89074286D01*
X145967642Y-89217143D01*
X145967642Y-89574286D01*
X145896214Y-89717143D01*
X146539071Y-90431429D02*
X145539071Y-90431429D01*
X145824785Y-90431429D02*
X145681928Y-90502858D01*
X145610500Y-90574286D01*
X145539071Y-90717143D01*
X145539071Y-90860001D01*
X146539071Y-92002858D02*
X145039071Y-92002858D01*
X146467642Y-92002858D02*
X146539071Y-91860001D01*
X146539071Y-91574286D01*
X146467642Y-91431429D01*
X146396214Y-91360001D01*
X146253357Y-91288572D01*
X145824785Y-91288572D01*
X145681928Y-91360001D01*
X145610500Y-91431429D01*
X145539071Y-91574286D01*
X145539071Y-91860001D01*
X145610500Y-92002858D01*
X147110500Y-92574286D02*
X147039071Y-92645715D01*
X146824785Y-92788572D01*
X146681928Y-92860001D01*
X146467642Y-92931429D01*
X146110500Y-93002858D01*
X145824785Y-93002858D01*
X145467642Y-92931429D01*
X145253357Y-92860001D01*
X145110500Y-92788572D01*
X144896214Y-92645715D01*
X144824785Y-92574286D01*
X145539071Y-94717143D02*
X146539071Y-95074286D01*
X145539071Y-95431429D01*
X146396214Y-96002858D02*
X146467642Y-96074286D01*
X146539071Y-96002858D01*
X146467642Y-95931429D01*
X146396214Y-96002858D01*
X146539071Y-96002858D01*
X145039071Y-97002858D02*
X145039071Y-97145715D01*
X145110500Y-97288572D01*
X145181928Y-97360001D01*
X145324785Y-97431429D01*
X145610500Y-97502858D01*
X145967642Y-97502858D01*
X146253357Y-97431429D01*
X146396214Y-97360001D01*
X146467642Y-97288572D01*
X146539071Y-97145715D01*
X146539071Y-97002858D01*
X146467642Y-96860001D01*
X146396214Y-96788572D01*
X146253357Y-96717143D01*
X145967642Y-96645715D01*
X145610500Y-96645715D01*
X145324785Y-96717143D01*
X145181928Y-96788572D01*
X145110500Y-96860001D01*
X145039071Y-97002858D01*
X146396214Y-98145715D02*
X146467642Y-98217143D01*
X146539071Y-98145715D01*
X146467642Y-98074286D01*
X146396214Y-98145715D01*
X146539071Y-98145715D01*
X145539071Y-99502858D02*
X146539071Y-99502858D01*
X144967642Y-99145715D02*
X146039071Y-98788572D01*
X146039071Y-99717143D01*
M02*
