G04 #@! TF.GenerationSoftware,KiCad,Pcbnew,(5.0.1)-4*
G04 #@! TF.CreationDate,2019-03-08T22:54:25+01:00*
G04 #@! TF.ProjectId,PSU - Transformer,505355202D205472616E73666F726D65,rev?*
G04 #@! TF.SameCoordinates,Original*
G04 #@! TF.FileFunction,Legend,Bot*
G04 #@! TF.FilePolarity,Positive*
%FSLAX46Y46*%
G04 Gerber Fmt 4.6, Leading zero omitted, Abs format (unit mm)*
G04 Created by KiCad (PCBNEW (5.0.1)-4) date 3/8/2019 10:54:25 PM*
%MOMM*%
%LPD*%
G01*
G04 APERTURE LIST*
%ADD10C,0.300000*%
G04 APERTURE END LIST*
D10*
X215989371Y-75703172D02*
X214489371Y-75703172D01*
X215989371Y-76560315D02*
X215132228Y-75917458D01*
X214489371Y-76560315D02*
X215346514Y-75703172D01*
X215989371Y-77203172D02*
X214989371Y-77203172D01*
X215275085Y-77203172D02*
X215132228Y-77274601D01*
X215060800Y-77346029D01*
X214989371Y-77488886D01*
X214989371Y-77631743D01*
X215989371Y-78774601D02*
X215203657Y-78774601D01*
X215060800Y-78703172D01*
X214989371Y-78560315D01*
X214989371Y-78274601D01*
X215060800Y-78131743D01*
X215917942Y-78774601D02*
X215989371Y-78631743D01*
X215989371Y-78274601D01*
X215917942Y-78131743D01*
X215775085Y-78060315D01*
X215632228Y-78060315D01*
X215489371Y-78131743D01*
X215417942Y-78274601D01*
X215417942Y-78631743D01*
X215346514Y-78774601D01*
X215989371Y-80131743D02*
X215203657Y-80131743D01*
X215060800Y-80060315D01*
X214989371Y-79917458D01*
X214989371Y-79631743D01*
X215060800Y-79488886D01*
X215917942Y-80131743D02*
X215989371Y-79988886D01*
X215989371Y-79631743D01*
X215917942Y-79488886D01*
X215775085Y-79417458D01*
X215632228Y-79417458D01*
X215489371Y-79488886D01*
X215417942Y-79631743D01*
X215417942Y-79988886D01*
X215346514Y-80131743D01*
X215989371Y-80846029D02*
X214489371Y-80846029D01*
X215417942Y-80988886D02*
X215989371Y-81417458D01*
X214989371Y-81417458D02*
X215560800Y-80846029D01*
X215917942Y-82631743D02*
X215989371Y-82488886D01*
X215989371Y-82203172D01*
X215917942Y-82060315D01*
X215775085Y-81988886D01*
X215203657Y-81988886D01*
X215060800Y-82060315D01*
X214989371Y-82203172D01*
X214989371Y-82488886D01*
X215060800Y-82631743D01*
X215203657Y-82703172D01*
X215346514Y-82703172D01*
X215489371Y-81988886D01*
X214989371Y-83346029D02*
X215989371Y-83346029D01*
X215132228Y-83346029D02*
X215060800Y-83417458D01*
X214989371Y-83560315D01*
X214989371Y-83774601D01*
X215060800Y-83917458D01*
X215203657Y-83988886D01*
X215989371Y-83988886D01*
X215917942Y-84631743D02*
X215989371Y-84846029D01*
X215989371Y-85203172D01*
X215917942Y-85346029D01*
X215846514Y-85417458D01*
X215703657Y-85488886D01*
X215560800Y-85488886D01*
X215417942Y-85417458D01*
X215346514Y-85346029D01*
X215275085Y-85203172D01*
X215203657Y-84917458D01*
X215132228Y-84774601D01*
X215060800Y-84703172D01*
X214917942Y-84631743D01*
X214775085Y-84631743D01*
X214632228Y-84703172D01*
X214560800Y-84774601D01*
X214489371Y-84917458D01*
X214489371Y-85274601D01*
X214560800Y-85488886D01*
X214989371Y-85917458D02*
X214989371Y-86488886D01*
X214489371Y-86131743D02*
X215775085Y-86131743D01*
X215917942Y-86203172D01*
X215989371Y-86346029D01*
X215989371Y-86488886D01*
X214989371Y-87631743D02*
X215989371Y-87631743D01*
X214989371Y-86988886D02*
X215775085Y-86988886D01*
X215917942Y-87060315D01*
X215989371Y-87203172D01*
X215989371Y-87417458D01*
X215917942Y-87560315D01*
X215846514Y-87631743D01*
X214989371Y-88131743D02*
X214989371Y-88703172D01*
X215989371Y-88346029D02*
X214703657Y-88346029D01*
X214560800Y-88417458D01*
X214489371Y-88560315D01*
X214489371Y-88703172D01*
X214989371Y-88988886D02*
X214989371Y-89560315D01*
X215989371Y-89203172D02*
X214703657Y-89203172D01*
X214560800Y-89274601D01*
X214489371Y-89417458D01*
X214489371Y-89560315D01*
X218539371Y-69310315D02*
X217039371Y-69310315D01*
X217039371Y-69881743D01*
X217110800Y-70024601D01*
X217182228Y-70096029D01*
X217325085Y-70167458D01*
X217539371Y-70167458D01*
X217682228Y-70096029D01*
X217753657Y-70024601D01*
X217825085Y-69881743D01*
X217825085Y-69310315D01*
X218467942Y-70738886D02*
X218539371Y-70953172D01*
X218539371Y-71310315D01*
X218467942Y-71453172D01*
X218396514Y-71524601D01*
X218253657Y-71596029D01*
X218110800Y-71596029D01*
X217967942Y-71524601D01*
X217896514Y-71453172D01*
X217825085Y-71310315D01*
X217753657Y-71024601D01*
X217682228Y-70881743D01*
X217610800Y-70810315D01*
X217467942Y-70738886D01*
X217325085Y-70738886D01*
X217182228Y-70810315D01*
X217110800Y-70881743D01*
X217039371Y-71024601D01*
X217039371Y-71381743D01*
X217110800Y-71596029D01*
X217039371Y-72238886D02*
X218253657Y-72238886D01*
X218396514Y-72310315D01*
X218467942Y-72381743D01*
X218539371Y-72524601D01*
X218539371Y-72810315D01*
X218467942Y-72953172D01*
X218396514Y-73024601D01*
X218253657Y-73096029D01*
X217039371Y-73096029D01*
X219110800Y-75381743D02*
X219039371Y-75310315D01*
X218825085Y-75167458D01*
X218682228Y-75096029D01*
X218467942Y-75024601D01*
X218110800Y-74953172D01*
X217825085Y-74953172D01*
X217467942Y-75024601D01*
X217253657Y-75096029D01*
X217110800Y-75167458D01*
X216896514Y-75310315D01*
X216825085Y-75381743D01*
X218539371Y-75953172D02*
X217539371Y-75953172D01*
X217682228Y-75953172D02*
X217610800Y-76024601D01*
X217539371Y-76167458D01*
X217539371Y-76381743D01*
X217610800Y-76524601D01*
X217753657Y-76596029D01*
X218539371Y-76596029D01*
X217753657Y-76596029D02*
X217610800Y-76667458D01*
X217539371Y-76810315D01*
X217539371Y-77024601D01*
X217610800Y-77167458D01*
X217753657Y-77238886D01*
X218539371Y-77238886D01*
X218539371Y-78596029D02*
X217753657Y-78596029D01*
X217610800Y-78524601D01*
X217539371Y-78381743D01*
X217539371Y-78096029D01*
X217610800Y-77953172D01*
X218467942Y-78596029D02*
X218539371Y-78453172D01*
X218539371Y-78096029D01*
X218467942Y-77953172D01*
X218325085Y-77881743D01*
X218182228Y-77881743D01*
X218039371Y-77953172D01*
X217967942Y-78096029D01*
X217967942Y-78453172D01*
X217896514Y-78596029D01*
X218539371Y-79310315D02*
X217539371Y-79310315D01*
X217039371Y-79310315D02*
X217110800Y-79238886D01*
X217182228Y-79310315D01*
X217110800Y-79381743D01*
X217039371Y-79310315D01*
X217182228Y-79310315D01*
X217539371Y-80024601D02*
X218539371Y-80024601D01*
X217682228Y-80024601D02*
X217610800Y-80096029D01*
X217539371Y-80238886D01*
X217539371Y-80453172D01*
X217610800Y-80596029D01*
X217753657Y-80667458D01*
X218539371Y-80667458D01*
X218539371Y-82524601D02*
X217039371Y-82524601D01*
X217610800Y-82524601D02*
X217539371Y-82667458D01*
X217539371Y-82953172D01*
X217610800Y-83096029D01*
X217682228Y-83167458D01*
X217825085Y-83238886D01*
X218253657Y-83238886D01*
X218396514Y-83167458D01*
X218467942Y-83096029D01*
X218539371Y-82953172D01*
X218539371Y-82667458D01*
X218467942Y-82524601D01*
X218539371Y-84096029D02*
X218467942Y-83953172D01*
X218396514Y-83881743D01*
X218253657Y-83810315D01*
X217825085Y-83810315D01*
X217682228Y-83881743D01*
X217610800Y-83953172D01*
X217539371Y-84096029D01*
X217539371Y-84310315D01*
X217610800Y-84453172D01*
X217682228Y-84524601D01*
X217825085Y-84596029D01*
X218253657Y-84596029D01*
X218396514Y-84524601D01*
X218467942Y-84453172D01*
X218539371Y-84310315D01*
X218539371Y-84096029D01*
X218539371Y-85881743D02*
X217753657Y-85881743D01*
X217610800Y-85810315D01*
X217539371Y-85667458D01*
X217539371Y-85381743D01*
X217610800Y-85238886D01*
X218467942Y-85881743D02*
X218539371Y-85738886D01*
X218539371Y-85381743D01*
X218467942Y-85238886D01*
X218325085Y-85167458D01*
X218182228Y-85167458D01*
X218039371Y-85238886D01*
X217967942Y-85381743D01*
X217967942Y-85738886D01*
X217896514Y-85881743D01*
X218539371Y-86596029D02*
X217539371Y-86596029D01*
X217825085Y-86596029D02*
X217682228Y-86667458D01*
X217610800Y-86738886D01*
X217539371Y-86881743D01*
X217539371Y-87024601D01*
X218539371Y-88167458D02*
X217039371Y-88167458D01*
X218467942Y-88167458D02*
X218539371Y-88024601D01*
X218539371Y-87738886D01*
X218467942Y-87596029D01*
X218396514Y-87524601D01*
X218253657Y-87453172D01*
X217825085Y-87453172D01*
X217682228Y-87524601D01*
X217610800Y-87596029D01*
X217539371Y-87738886D01*
X217539371Y-88024601D01*
X217610800Y-88167458D01*
X219110800Y-88738886D02*
X219039371Y-88810315D01*
X218825085Y-88953172D01*
X218682228Y-89024601D01*
X218467942Y-89096029D01*
X218110800Y-89167458D01*
X217825085Y-89167458D01*
X217467942Y-89096029D01*
X217253657Y-89024601D01*
X217110800Y-88953172D01*
X216896514Y-88810315D01*
X216825085Y-88738886D01*
X217539371Y-90881743D02*
X218539371Y-91238886D01*
X217539371Y-91596029D01*
X218396514Y-92167458D02*
X218467942Y-92238886D01*
X218539371Y-92167458D01*
X218467942Y-92096029D01*
X218396514Y-92167458D01*
X218539371Y-92167458D01*
X217039371Y-93167458D02*
X217039371Y-93310315D01*
X217110800Y-93453172D01*
X217182228Y-93524601D01*
X217325085Y-93596029D01*
X217610800Y-93667458D01*
X217967942Y-93667458D01*
X218253657Y-93596029D01*
X218396514Y-93524601D01*
X218467942Y-93453172D01*
X218539371Y-93310315D01*
X218539371Y-93167458D01*
X218467942Y-93024601D01*
X218396514Y-92953172D01*
X218253657Y-92881743D01*
X217967942Y-92810315D01*
X217610800Y-92810315D01*
X217325085Y-92881743D01*
X217182228Y-92953172D01*
X217110800Y-93024601D01*
X217039371Y-93167458D01*
X218396514Y-94310315D02*
X218467942Y-94381743D01*
X218539371Y-94310315D01*
X218467942Y-94238886D01*
X218396514Y-94310315D01*
X218539371Y-94310315D01*
X217182228Y-94953172D02*
X217110800Y-95024601D01*
X217039371Y-95167458D01*
X217039371Y-95524601D01*
X217110800Y-95667458D01*
X217182228Y-95738886D01*
X217325085Y-95810315D01*
X217467942Y-95810315D01*
X217682228Y-95738886D01*
X218539371Y-94881743D01*
X218539371Y-95810315D01*
M02*
