M48
; DRILL file {KiCad (5.1.0)-1} date 7/24/2019 12:46:01 PM
; FORMAT={-:-/ absolute / inch / decimal}
; #@! TF.CreationDate,2019-07-24T12:46:01+02:00
; #@! TF.GenerationSoftware,Kicad,Pcbnew,(5.1.0)-1
; #@! TF.FileFunction,Plated,1,2,PTH
FMAT,2
INCH
T1C0.0315
T2C0.0354
T3C0.0394
T4C0.0472
T5C0.0500
T6C0.0984
T7C0.1260
%
G90
G05
T1
X4.45Y-2.45
X4.45Y-2.55
X5.25Y-2.8
X5.25Y-2.9969
X5.45Y-2.75
X5.45Y-3.05
X5.45Y-3.75
X5.45Y-4.05
X4.7016Y-2.9
X4.8Y-2.9
X4.45Y-4.15
X4.45Y-4.25
X4.45Y-4.35
X5.25Y-3.8031
X5.25Y-4.0
X4.4016Y-3.9
X4.5Y-3.9
X4.75Y-3.9
X4.8484Y-3.9
X4.45Y-2.65
X4.4Y-2.9
X4.4984Y-2.9
T2
X5.3998Y-3.5455
X5.4998Y-3.5455
X5.4002Y-3.2545
X5.5002Y-3.2545
T3
X3.2Y-3.2524
X3.2Y-3.5476
X3.5Y-2.3
X3.6Y-2.3
X3.7Y-2.3
X3.052Y-3.2524
X3.052Y-3.5476
X3.5Y-4.5
X3.6Y-4.5
X3.7Y-4.5
T4
X3.6Y-3.61
X3.6Y-3.9053
X3.6Y-2.89
X3.6Y-3.1853
X4.65Y-4.15
X5.25Y-4.15
X2.65Y-3.91
X3.15Y-3.91
X4.65Y-4.35
X5.25Y-4.35
X4.95Y-3.25
X4.95Y-3.5453
X4.65Y-2.65
X5.25Y-2.65
X4.25Y-3.25
X4.25Y-3.5453
X4.65Y-2.45
X5.25Y-2.45
X2.65Y-2.89
X3.15Y-2.89
T5
X5.9Y-3.9
X5.9Y-4.1
X5.9Y-4.3
X5.9Y-2.5
X5.9Y-2.7
X5.9Y-2.9
X5.9Y-3.2
X5.9Y-3.4
X5.9Y-3.6
X2.75Y-3.2
X2.75Y-3.4
X2.75Y-3.6
T6
X3.1Y-4.35
X4.1Y-4.35
X3.1Y-2.45
X4.1Y-2.45
T7
X2.7Y-4.3
X2.7Y-2.55
X5.5Y-2.5
X5.5Y-4.3
T0
M30
