M48
;DRILL file {KiCad (5.0.1)-4} date 3/8/2019 10:54:32 PM
;FORMAT={-:-/ absolute / inch / decimal}
FMAT,2
INCH,TZ
T1C0.0500
T2C0.0512
T3C0.0591
T4C0.0677
T5C0.0689
T6C0.1260
%
G90
G05
M72
T1
X8.799Y-4.399
X8.799Y-4.599
X8.799Y-4.799
X8.8Y-2.598
X8.8Y-2.798
X8.8Y-2.998
X8.8Y-1.699
X8.8Y-1.899
X8.8Y-2.099
X8.8Y-3.5
X8.8Y-3.7
X8.8Y-3.9
T2
X7.8Y-4.7197
X7.8Y-4.9205
X7.8Y-5.1213
X7.8Y-5.322
X8.25Y-4.7
X8.25Y-4.9008
X8.25Y-5.1016
X8.25Y-5.3024
T3
X3.Y-4.4339
X3.Y-5.3
X3.75Y-4.4339
X3.75Y-5.3
T4
X3.4Y-3.
X3.4Y-3.8
X8.2Y-2.85
X8.2Y-3.15
X8.2Y-3.65
X8.2Y-3.95
T5
X3.396Y-1.71
X3.396Y-2.084
T6
X8.7Y-5.2
X7.35Y-5.2
X4.2Y-5.2
X7.35Y-1.35
X4.2Y-1.35
X8.7Y-1.35
T0
M30
