G04 #@! TF.GenerationSoftware,KiCad,Pcbnew,(5.1.0)-1*
G04 #@! TF.CreationDate,2019-07-24T12:11:53+02:00*
G04 #@! TF.ProjectId,PSU - Filter,50535520-2d20-4466-996c-7465722e6b69,rev?*
G04 #@! TF.SameCoordinates,Original*
G04 #@! TF.FileFunction,Copper,L1,Top*
G04 #@! TF.FilePolarity,Positive*
%FSLAX46Y46*%
G04 Gerber Fmt 4.6, Leading zero omitted, Abs format (unit mm)*
G04 Created by KiCad (PCBNEW (5.1.0)-1) date 2019-07-24 12:11:53*
%MOMM*%
%LPD*%
G04 APERTURE LIST*
%ADD10C,5.600000*%
%ADD11C,4.000000*%
%ADD12R,2.400000X2.400000*%
%ADD13C,2.400000*%
%ADD14C,2.000000*%
%ADD15C,1.600000*%
%ADD16C,0.100000*%
%ADD17C,2.540000*%
%ADD18C,1.800000*%
%ADD19R,1.800000X1.800000*%
%ADD20O,2.400000X2.400000*%
%ADD21O,1.600000X1.600000*%
%ADD22C,1.440000*%
%ADD23R,2.000000X2.000000*%
%ADD24R,1.600000X1.600000*%
%ADD25C,1.500000*%
%ADD26C,0.254000*%
G04 APERTURE END LIST*
D10*
X139700000Y-63500000D03*
X68580000Y-64770000D03*
X139700000Y-109220000D03*
D11*
X104140000Y-62230000D03*
X78740000Y-62230000D03*
X78740000Y-110490000D03*
X104140000Y-110490000D03*
D10*
X68580000Y-109220000D03*
D12*
X125730000Y-82550000D03*
D13*
X125730000Y-90050000D03*
X91440000Y-99194000D03*
D12*
X91440000Y-91694000D03*
X91440000Y-73406000D03*
D13*
X91440000Y-80906000D03*
X107950000Y-90050000D03*
D12*
X107950000Y-82550000D03*
D14*
X81280000Y-82610000D03*
X81280000Y-90110000D03*
X77520800Y-82610000D03*
X77520800Y-90110000D03*
D15*
X133350000Y-76120000D03*
X133350000Y-71120000D03*
X133350000Y-101600000D03*
X133350000Y-96600000D03*
D16*
G36*
X150827241Y-62233058D02*
G01*
X150888882Y-62242201D01*
X150949331Y-62257343D01*
X151008004Y-62278336D01*
X151064337Y-62304980D01*
X151117787Y-62337017D01*
X151167840Y-62374138D01*
X151214013Y-62415987D01*
X151255862Y-62462160D01*
X151292983Y-62512213D01*
X151325020Y-62565663D01*
X151351664Y-62621996D01*
X151372657Y-62680669D01*
X151387799Y-62741118D01*
X151396942Y-62802759D01*
X151400000Y-62865000D01*
X151400000Y-64135000D01*
X151396942Y-64197241D01*
X151387799Y-64258882D01*
X151372657Y-64319331D01*
X151351664Y-64378004D01*
X151325020Y-64434337D01*
X151292983Y-64487787D01*
X151255862Y-64537840D01*
X151214013Y-64584013D01*
X151167840Y-64625862D01*
X151117787Y-64662983D01*
X151064337Y-64695020D01*
X151008004Y-64721664D01*
X150949331Y-64742657D01*
X150888882Y-64757799D01*
X150827241Y-64766942D01*
X150765000Y-64770000D01*
X148955000Y-64770000D01*
X148892759Y-64766942D01*
X148831118Y-64757799D01*
X148770669Y-64742657D01*
X148711996Y-64721664D01*
X148655663Y-64695020D01*
X148602213Y-64662983D01*
X148552160Y-64625862D01*
X148505987Y-64584013D01*
X148464138Y-64537840D01*
X148427017Y-64487787D01*
X148394980Y-64434337D01*
X148368336Y-64378004D01*
X148347343Y-64319331D01*
X148332201Y-64258882D01*
X148323058Y-64197241D01*
X148320000Y-64135000D01*
X148320000Y-62865000D01*
X148323058Y-62802759D01*
X148332201Y-62741118D01*
X148347343Y-62680669D01*
X148368336Y-62621996D01*
X148394980Y-62565663D01*
X148427017Y-62512213D01*
X148464138Y-62462160D01*
X148505987Y-62415987D01*
X148552160Y-62374138D01*
X148602213Y-62337017D01*
X148655663Y-62304980D01*
X148711996Y-62278336D01*
X148770669Y-62257343D01*
X148831118Y-62242201D01*
X148892759Y-62233058D01*
X148955000Y-62230000D01*
X150765000Y-62230000D01*
X150827241Y-62233058D01*
X150827241Y-62233058D01*
G37*
D17*
X149860000Y-63500000D03*
D16*
G36*
X150827241Y-67313058D02*
G01*
X150888882Y-67322201D01*
X150949331Y-67337343D01*
X151008004Y-67358336D01*
X151064337Y-67384980D01*
X151117787Y-67417017D01*
X151167840Y-67454138D01*
X151214013Y-67495987D01*
X151255862Y-67542160D01*
X151292983Y-67592213D01*
X151325020Y-67645663D01*
X151351664Y-67701996D01*
X151372657Y-67760669D01*
X151387799Y-67821118D01*
X151396942Y-67882759D01*
X151400000Y-67945000D01*
X151400000Y-69215000D01*
X151396942Y-69277241D01*
X151387799Y-69338882D01*
X151372657Y-69399331D01*
X151351664Y-69458004D01*
X151325020Y-69514337D01*
X151292983Y-69567787D01*
X151255862Y-69617840D01*
X151214013Y-69664013D01*
X151167840Y-69705862D01*
X151117787Y-69742983D01*
X151064337Y-69775020D01*
X151008004Y-69801664D01*
X150949331Y-69822657D01*
X150888882Y-69837799D01*
X150827241Y-69846942D01*
X150765000Y-69850000D01*
X148955000Y-69850000D01*
X148892759Y-69846942D01*
X148831118Y-69837799D01*
X148770669Y-69822657D01*
X148711996Y-69801664D01*
X148655663Y-69775020D01*
X148602213Y-69742983D01*
X148552160Y-69705862D01*
X148505987Y-69664013D01*
X148464138Y-69617840D01*
X148427017Y-69567787D01*
X148394980Y-69514337D01*
X148368336Y-69458004D01*
X148347343Y-69399331D01*
X148332201Y-69338882D01*
X148323058Y-69277241D01*
X148320000Y-69215000D01*
X148320000Y-67945000D01*
X148323058Y-67882759D01*
X148332201Y-67821118D01*
X148347343Y-67760669D01*
X148368336Y-67701996D01*
X148394980Y-67645663D01*
X148427017Y-67592213D01*
X148464138Y-67542160D01*
X148505987Y-67495987D01*
X148552160Y-67454138D01*
X148602213Y-67417017D01*
X148655663Y-67384980D01*
X148711996Y-67358336D01*
X148770669Y-67337343D01*
X148831118Y-67322201D01*
X148892759Y-67313058D01*
X148955000Y-67310000D01*
X150765000Y-67310000D01*
X150827241Y-67313058D01*
X150827241Y-67313058D01*
G37*
D17*
X149860000Y-68580000D03*
D16*
G36*
X150827241Y-72393058D02*
G01*
X150888882Y-72402201D01*
X150949331Y-72417343D01*
X151008004Y-72438336D01*
X151064337Y-72464980D01*
X151117787Y-72497017D01*
X151167840Y-72534138D01*
X151214013Y-72575987D01*
X151255862Y-72622160D01*
X151292983Y-72672213D01*
X151325020Y-72725663D01*
X151351664Y-72781996D01*
X151372657Y-72840669D01*
X151387799Y-72901118D01*
X151396942Y-72962759D01*
X151400000Y-73025000D01*
X151400000Y-74295000D01*
X151396942Y-74357241D01*
X151387799Y-74418882D01*
X151372657Y-74479331D01*
X151351664Y-74538004D01*
X151325020Y-74594337D01*
X151292983Y-74647787D01*
X151255862Y-74697840D01*
X151214013Y-74744013D01*
X151167840Y-74785862D01*
X151117787Y-74822983D01*
X151064337Y-74855020D01*
X151008004Y-74881664D01*
X150949331Y-74902657D01*
X150888882Y-74917799D01*
X150827241Y-74926942D01*
X150765000Y-74930000D01*
X148955000Y-74930000D01*
X148892759Y-74926942D01*
X148831118Y-74917799D01*
X148770669Y-74902657D01*
X148711996Y-74881664D01*
X148655663Y-74855020D01*
X148602213Y-74822983D01*
X148552160Y-74785862D01*
X148505987Y-74744013D01*
X148464138Y-74697840D01*
X148427017Y-74647787D01*
X148394980Y-74594337D01*
X148368336Y-74538004D01*
X148347343Y-74479331D01*
X148332201Y-74418882D01*
X148323058Y-74357241D01*
X148320000Y-74295000D01*
X148320000Y-73025000D01*
X148323058Y-72962759D01*
X148332201Y-72901118D01*
X148347343Y-72840669D01*
X148368336Y-72781996D01*
X148394980Y-72725663D01*
X148427017Y-72672213D01*
X148464138Y-72622160D01*
X148505987Y-72575987D01*
X148552160Y-72534138D01*
X148602213Y-72497017D01*
X148655663Y-72464980D01*
X148711996Y-72438336D01*
X148770669Y-72417343D01*
X148831118Y-72402201D01*
X148892759Y-72393058D01*
X148955000Y-72390000D01*
X150765000Y-72390000D01*
X150827241Y-72393058D01*
X150827241Y-72393058D01*
G37*
D17*
X149860000Y-73660000D03*
D16*
G36*
X150827241Y-90173058D02*
G01*
X150888882Y-90182201D01*
X150949331Y-90197343D01*
X151008004Y-90218336D01*
X151064337Y-90244980D01*
X151117787Y-90277017D01*
X151167840Y-90314138D01*
X151214013Y-90355987D01*
X151255862Y-90402160D01*
X151292983Y-90452213D01*
X151325020Y-90505663D01*
X151351664Y-90561996D01*
X151372657Y-90620669D01*
X151387799Y-90681118D01*
X151396942Y-90742759D01*
X151400000Y-90805000D01*
X151400000Y-92075000D01*
X151396942Y-92137241D01*
X151387799Y-92198882D01*
X151372657Y-92259331D01*
X151351664Y-92318004D01*
X151325020Y-92374337D01*
X151292983Y-92427787D01*
X151255862Y-92477840D01*
X151214013Y-92524013D01*
X151167840Y-92565862D01*
X151117787Y-92602983D01*
X151064337Y-92635020D01*
X151008004Y-92661664D01*
X150949331Y-92682657D01*
X150888882Y-92697799D01*
X150827241Y-92706942D01*
X150765000Y-92710000D01*
X148955000Y-92710000D01*
X148892759Y-92706942D01*
X148831118Y-92697799D01*
X148770669Y-92682657D01*
X148711996Y-92661664D01*
X148655663Y-92635020D01*
X148602213Y-92602983D01*
X148552160Y-92565862D01*
X148505987Y-92524013D01*
X148464138Y-92477840D01*
X148427017Y-92427787D01*
X148394980Y-92374337D01*
X148368336Y-92318004D01*
X148347343Y-92259331D01*
X148332201Y-92198882D01*
X148323058Y-92137241D01*
X148320000Y-92075000D01*
X148320000Y-90805000D01*
X148323058Y-90742759D01*
X148332201Y-90681118D01*
X148347343Y-90620669D01*
X148368336Y-90561996D01*
X148394980Y-90505663D01*
X148427017Y-90452213D01*
X148464138Y-90402160D01*
X148505987Y-90355987D01*
X148552160Y-90314138D01*
X148602213Y-90277017D01*
X148655663Y-90244980D01*
X148711996Y-90218336D01*
X148770669Y-90197343D01*
X148831118Y-90182201D01*
X148892759Y-90173058D01*
X148955000Y-90170000D01*
X150765000Y-90170000D01*
X150827241Y-90173058D01*
X150827241Y-90173058D01*
G37*
D17*
X149860000Y-91440000D03*
D16*
G36*
X150827241Y-85093058D02*
G01*
X150888882Y-85102201D01*
X150949331Y-85117343D01*
X151008004Y-85138336D01*
X151064337Y-85164980D01*
X151117787Y-85197017D01*
X151167840Y-85234138D01*
X151214013Y-85275987D01*
X151255862Y-85322160D01*
X151292983Y-85372213D01*
X151325020Y-85425663D01*
X151351664Y-85481996D01*
X151372657Y-85540669D01*
X151387799Y-85601118D01*
X151396942Y-85662759D01*
X151400000Y-85725000D01*
X151400000Y-86995000D01*
X151396942Y-87057241D01*
X151387799Y-87118882D01*
X151372657Y-87179331D01*
X151351664Y-87238004D01*
X151325020Y-87294337D01*
X151292983Y-87347787D01*
X151255862Y-87397840D01*
X151214013Y-87444013D01*
X151167840Y-87485862D01*
X151117787Y-87522983D01*
X151064337Y-87555020D01*
X151008004Y-87581664D01*
X150949331Y-87602657D01*
X150888882Y-87617799D01*
X150827241Y-87626942D01*
X150765000Y-87630000D01*
X148955000Y-87630000D01*
X148892759Y-87626942D01*
X148831118Y-87617799D01*
X148770669Y-87602657D01*
X148711996Y-87581664D01*
X148655663Y-87555020D01*
X148602213Y-87522983D01*
X148552160Y-87485862D01*
X148505987Y-87444013D01*
X148464138Y-87397840D01*
X148427017Y-87347787D01*
X148394980Y-87294337D01*
X148368336Y-87238004D01*
X148347343Y-87179331D01*
X148332201Y-87118882D01*
X148323058Y-87057241D01*
X148320000Y-86995000D01*
X148320000Y-85725000D01*
X148323058Y-85662759D01*
X148332201Y-85601118D01*
X148347343Y-85540669D01*
X148368336Y-85481996D01*
X148394980Y-85425663D01*
X148427017Y-85372213D01*
X148464138Y-85322160D01*
X148505987Y-85275987D01*
X148552160Y-85234138D01*
X148602213Y-85197017D01*
X148655663Y-85164980D01*
X148711996Y-85138336D01*
X148770669Y-85117343D01*
X148831118Y-85102201D01*
X148892759Y-85093058D01*
X148955000Y-85090000D01*
X150765000Y-85090000D01*
X150827241Y-85093058D01*
X150827241Y-85093058D01*
G37*
D17*
X149860000Y-86360000D03*
D16*
G36*
X150827241Y-80013058D02*
G01*
X150888882Y-80022201D01*
X150949331Y-80037343D01*
X151008004Y-80058336D01*
X151064337Y-80084980D01*
X151117787Y-80117017D01*
X151167840Y-80154138D01*
X151214013Y-80195987D01*
X151255862Y-80242160D01*
X151292983Y-80292213D01*
X151325020Y-80345663D01*
X151351664Y-80401996D01*
X151372657Y-80460669D01*
X151387799Y-80521118D01*
X151396942Y-80582759D01*
X151400000Y-80645000D01*
X151400000Y-81915000D01*
X151396942Y-81977241D01*
X151387799Y-82038882D01*
X151372657Y-82099331D01*
X151351664Y-82158004D01*
X151325020Y-82214337D01*
X151292983Y-82267787D01*
X151255862Y-82317840D01*
X151214013Y-82364013D01*
X151167840Y-82405862D01*
X151117787Y-82442983D01*
X151064337Y-82475020D01*
X151008004Y-82501664D01*
X150949331Y-82522657D01*
X150888882Y-82537799D01*
X150827241Y-82546942D01*
X150765000Y-82550000D01*
X148955000Y-82550000D01*
X148892759Y-82546942D01*
X148831118Y-82537799D01*
X148770669Y-82522657D01*
X148711996Y-82501664D01*
X148655663Y-82475020D01*
X148602213Y-82442983D01*
X148552160Y-82405862D01*
X148505987Y-82364013D01*
X148464138Y-82317840D01*
X148427017Y-82267787D01*
X148394980Y-82214337D01*
X148368336Y-82158004D01*
X148347343Y-82099331D01*
X148332201Y-82038882D01*
X148323058Y-81977241D01*
X148320000Y-81915000D01*
X148320000Y-80645000D01*
X148323058Y-80582759D01*
X148332201Y-80521118D01*
X148347343Y-80460669D01*
X148368336Y-80401996D01*
X148394980Y-80345663D01*
X148427017Y-80292213D01*
X148464138Y-80242160D01*
X148505987Y-80195987D01*
X148552160Y-80154138D01*
X148602213Y-80117017D01*
X148655663Y-80084980D01*
X148711996Y-80058336D01*
X148770669Y-80037343D01*
X148831118Y-80022201D01*
X148892759Y-80013058D01*
X148955000Y-80010000D01*
X150765000Y-80010000D01*
X150827241Y-80013058D01*
X150827241Y-80013058D01*
G37*
D17*
X149860000Y-81280000D03*
D16*
G36*
X150827241Y-97793058D02*
G01*
X150888882Y-97802201D01*
X150949331Y-97817343D01*
X151008004Y-97838336D01*
X151064337Y-97864980D01*
X151117787Y-97897017D01*
X151167840Y-97934138D01*
X151214013Y-97975987D01*
X151255862Y-98022160D01*
X151292983Y-98072213D01*
X151325020Y-98125663D01*
X151351664Y-98181996D01*
X151372657Y-98240669D01*
X151387799Y-98301118D01*
X151396942Y-98362759D01*
X151400000Y-98425000D01*
X151400000Y-99695000D01*
X151396942Y-99757241D01*
X151387799Y-99818882D01*
X151372657Y-99879331D01*
X151351664Y-99938004D01*
X151325020Y-99994337D01*
X151292983Y-100047787D01*
X151255862Y-100097840D01*
X151214013Y-100144013D01*
X151167840Y-100185862D01*
X151117787Y-100222983D01*
X151064337Y-100255020D01*
X151008004Y-100281664D01*
X150949331Y-100302657D01*
X150888882Y-100317799D01*
X150827241Y-100326942D01*
X150765000Y-100330000D01*
X148955000Y-100330000D01*
X148892759Y-100326942D01*
X148831118Y-100317799D01*
X148770669Y-100302657D01*
X148711996Y-100281664D01*
X148655663Y-100255020D01*
X148602213Y-100222983D01*
X148552160Y-100185862D01*
X148505987Y-100144013D01*
X148464138Y-100097840D01*
X148427017Y-100047787D01*
X148394980Y-99994337D01*
X148368336Y-99938004D01*
X148347343Y-99879331D01*
X148332201Y-99818882D01*
X148323058Y-99757241D01*
X148320000Y-99695000D01*
X148320000Y-98425000D01*
X148323058Y-98362759D01*
X148332201Y-98301118D01*
X148347343Y-98240669D01*
X148368336Y-98181996D01*
X148394980Y-98125663D01*
X148427017Y-98072213D01*
X148464138Y-98022160D01*
X148505987Y-97975987D01*
X148552160Y-97934138D01*
X148602213Y-97897017D01*
X148655663Y-97864980D01*
X148711996Y-97838336D01*
X148770669Y-97817343D01*
X148831118Y-97802201D01*
X148892759Y-97793058D01*
X148955000Y-97790000D01*
X150765000Y-97790000D01*
X150827241Y-97793058D01*
X150827241Y-97793058D01*
G37*
D17*
X149860000Y-99060000D03*
D16*
G36*
X150827241Y-102873058D02*
G01*
X150888882Y-102882201D01*
X150949331Y-102897343D01*
X151008004Y-102918336D01*
X151064337Y-102944980D01*
X151117787Y-102977017D01*
X151167840Y-103014138D01*
X151214013Y-103055987D01*
X151255862Y-103102160D01*
X151292983Y-103152213D01*
X151325020Y-103205663D01*
X151351664Y-103261996D01*
X151372657Y-103320669D01*
X151387799Y-103381118D01*
X151396942Y-103442759D01*
X151400000Y-103505000D01*
X151400000Y-104775000D01*
X151396942Y-104837241D01*
X151387799Y-104898882D01*
X151372657Y-104959331D01*
X151351664Y-105018004D01*
X151325020Y-105074337D01*
X151292983Y-105127787D01*
X151255862Y-105177840D01*
X151214013Y-105224013D01*
X151167840Y-105265862D01*
X151117787Y-105302983D01*
X151064337Y-105335020D01*
X151008004Y-105361664D01*
X150949331Y-105382657D01*
X150888882Y-105397799D01*
X150827241Y-105406942D01*
X150765000Y-105410000D01*
X148955000Y-105410000D01*
X148892759Y-105406942D01*
X148831118Y-105397799D01*
X148770669Y-105382657D01*
X148711996Y-105361664D01*
X148655663Y-105335020D01*
X148602213Y-105302983D01*
X148552160Y-105265862D01*
X148505987Y-105224013D01*
X148464138Y-105177840D01*
X148427017Y-105127787D01*
X148394980Y-105074337D01*
X148368336Y-105018004D01*
X148347343Y-104959331D01*
X148332201Y-104898882D01*
X148323058Y-104837241D01*
X148320000Y-104775000D01*
X148320000Y-103505000D01*
X148323058Y-103442759D01*
X148332201Y-103381118D01*
X148347343Y-103320669D01*
X148368336Y-103261996D01*
X148394980Y-103205663D01*
X148427017Y-103152213D01*
X148464138Y-103102160D01*
X148505987Y-103055987D01*
X148552160Y-103014138D01*
X148602213Y-102977017D01*
X148655663Y-102944980D01*
X148711996Y-102918336D01*
X148770669Y-102897343D01*
X148831118Y-102882201D01*
X148892759Y-102873058D01*
X148955000Y-102870000D01*
X150765000Y-102870000D01*
X150827241Y-102873058D01*
X150827241Y-102873058D01*
G37*
D17*
X149860000Y-104140000D03*
D16*
G36*
X150827241Y-107953058D02*
G01*
X150888882Y-107962201D01*
X150949331Y-107977343D01*
X151008004Y-107998336D01*
X151064337Y-108024980D01*
X151117787Y-108057017D01*
X151167840Y-108094138D01*
X151214013Y-108135987D01*
X151255862Y-108182160D01*
X151292983Y-108232213D01*
X151325020Y-108285663D01*
X151351664Y-108341996D01*
X151372657Y-108400669D01*
X151387799Y-108461118D01*
X151396942Y-108522759D01*
X151400000Y-108585000D01*
X151400000Y-109855000D01*
X151396942Y-109917241D01*
X151387799Y-109978882D01*
X151372657Y-110039331D01*
X151351664Y-110098004D01*
X151325020Y-110154337D01*
X151292983Y-110207787D01*
X151255862Y-110257840D01*
X151214013Y-110304013D01*
X151167840Y-110345862D01*
X151117787Y-110382983D01*
X151064337Y-110415020D01*
X151008004Y-110441664D01*
X150949331Y-110462657D01*
X150888882Y-110477799D01*
X150827241Y-110486942D01*
X150765000Y-110490000D01*
X148955000Y-110490000D01*
X148892759Y-110486942D01*
X148831118Y-110477799D01*
X148770669Y-110462657D01*
X148711996Y-110441664D01*
X148655663Y-110415020D01*
X148602213Y-110382983D01*
X148552160Y-110345862D01*
X148505987Y-110304013D01*
X148464138Y-110257840D01*
X148427017Y-110207787D01*
X148394980Y-110154337D01*
X148368336Y-110098004D01*
X148347343Y-110039331D01*
X148332201Y-109978882D01*
X148323058Y-109917241D01*
X148320000Y-109855000D01*
X148320000Y-108585000D01*
X148323058Y-108522759D01*
X148332201Y-108461118D01*
X148347343Y-108400669D01*
X148368336Y-108341996D01*
X148394980Y-108285663D01*
X148427017Y-108232213D01*
X148464138Y-108182160D01*
X148505987Y-108135987D01*
X148552160Y-108094138D01*
X148602213Y-108057017D01*
X148655663Y-108024980D01*
X148711996Y-107998336D01*
X148770669Y-107977343D01*
X148831118Y-107962201D01*
X148892759Y-107953058D01*
X148955000Y-107950000D01*
X150765000Y-107950000D01*
X150827241Y-107953058D01*
X150827241Y-107953058D01*
G37*
D17*
X149860000Y-109220000D03*
D16*
G36*
X70817241Y-80013058D02*
G01*
X70878882Y-80022201D01*
X70939331Y-80037343D01*
X70998004Y-80058336D01*
X71054337Y-80084980D01*
X71107787Y-80117017D01*
X71157840Y-80154138D01*
X71204013Y-80195987D01*
X71245862Y-80242160D01*
X71282983Y-80292213D01*
X71315020Y-80345663D01*
X71341664Y-80401996D01*
X71362657Y-80460669D01*
X71377799Y-80521118D01*
X71386942Y-80582759D01*
X71390000Y-80645000D01*
X71390000Y-81915000D01*
X71386942Y-81977241D01*
X71377799Y-82038882D01*
X71362657Y-82099331D01*
X71341664Y-82158004D01*
X71315020Y-82214337D01*
X71282983Y-82267787D01*
X71245862Y-82317840D01*
X71204013Y-82364013D01*
X71157840Y-82405862D01*
X71107787Y-82442983D01*
X71054337Y-82475020D01*
X70998004Y-82501664D01*
X70939331Y-82522657D01*
X70878882Y-82537799D01*
X70817241Y-82546942D01*
X70755000Y-82550000D01*
X68945000Y-82550000D01*
X68882759Y-82546942D01*
X68821118Y-82537799D01*
X68760669Y-82522657D01*
X68701996Y-82501664D01*
X68645663Y-82475020D01*
X68592213Y-82442983D01*
X68542160Y-82405862D01*
X68495987Y-82364013D01*
X68454138Y-82317840D01*
X68417017Y-82267787D01*
X68384980Y-82214337D01*
X68358336Y-82158004D01*
X68337343Y-82099331D01*
X68322201Y-82038882D01*
X68313058Y-81977241D01*
X68310000Y-81915000D01*
X68310000Y-80645000D01*
X68313058Y-80582759D01*
X68322201Y-80521118D01*
X68337343Y-80460669D01*
X68358336Y-80401996D01*
X68384980Y-80345663D01*
X68417017Y-80292213D01*
X68454138Y-80242160D01*
X68495987Y-80195987D01*
X68542160Y-80154138D01*
X68592213Y-80117017D01*
X68645663Y-80084980D01*
X68701996Y-80058336D01*
X68760669Y-80037343D01*
X68821118Y-80022201D01*
X68882759Y-80013058D01*
X68945000Y-80010000D01*
X70755000Y-80010000D01*
X70817241Y-80013058D01*
X70817241Y-80013058D01*
G37*
D17*
X69850000Y-81280000D03*
D16*
G36*
X70817241Y-85093058D02*
G01*
X70878882Y-85102201D01*
X70939331Y-85117343D01*
X70998004Y-85138336D01*
X71054337Y-85164980D01*
X71107787Y-85197017D01*
X71157840Y-85234138D01*
X71204013Y-85275987D01*
X71245862Y-85322160D01*
X71282983Y-85372213D01*
X71315020Y-85425663D01*
X71341664Y-85481996D01*
X71362657Y-85540669D01*
X71377799Y-85601118D01*
X71386942Y-85662759D01*
X71390000Y-85725000D01*
X71390000Y-86995000D01*
X71386942Y-87057241D01*
X71377799Y-87118882D01*
X71362657Y-87179331D01*
X71341664Y-87238004D01*
X71315020Y-87294337D01*
X71282983Y-87347787D01*
X71245862Y-87397840D01*
X71204013Y-87444013D01*
X71157840Y-87485862D01*
X71107787Y-87522983D01*
X71054337Y-87555020D01*
X70998004Y-87581664D01*
X70939331Y-87602657D01*
X70878882Y-87617799D01*
X70817241Y-87626942D01*
X70755000Y-87630000D01*
X68945000Y-87630000D01*
X68882759Y-87626942D01*
X68821118Y-87617799D01*
X68760669Y-87602657D01*
X68701996Y-87581664D01*
X68645663Y-87555020D01*
X68592213Y-87522983D01*
X68542160Y-87485862D01*
X68495987Y-87444013D01*
X68454138Y-87397840D01*
X68417017Y-87347787D01*
X68384980Y-87294337D01*
X68358336Y-87238004D01*
X68337343Y-87179331D01*
X68322201Y-87118882D01*
X68313058Y-87057241D01*
X68310000Y-86995000D01*
X68310000Y-85725000D01*
X68313058Y-85662759D01*
X68322201Y-85601118D01*
X68337343Y-85540669D01*
X68358336Y-85481996D01*
X68384980Y-85425663D01*
X68417017Y-85372213D01*
X68454138Y-85322160D01*
X68495987Y-85275987D01*
X68542160Y-85234138D01*
X68592213Y-85197017D01*
X68645663Y-85164980D01*
X68701996Y-85138336D01*
X68760669Y-85117343D01*
X68821118Y-85102201D01*
X68882759Y-85093058D01*
X68945000Y-85090000D01*
X70755000Y-85090000D01*
X70817241Y-85093058D01*
X70817241Y-85093058D01*
G37*
D17*
X69850000Y-86360000D03*
D16*
G36*
X70817241Y-90173058D02*
G01*
X70878882Y-90182201D01*
X70939331Y-90197343D01*
X70998004Y-90218336D01*
X71054337Y-90244980D01*
X71107787Y-90277017D01*
X71157840Y-90314138D01*
X71204013Y-90355987D01*
X71245862Y-90402160D01*
X71282983Y-90452213D01*
X71315020Y-90505663D01*
X71341664Y-90561996D01*
X71362657Y-90620669D01*
X71377799Y-90681118D01*
X71386942Y-90742759D01*
X71390000Y-90805000D01*
X71390000Y-92075000D01*
X71386942Y-92137241D01*
X71377799Y-92198882D01*
X71362657Y-92259331D01*
X71341664Y-92318004D01*
X71315020Y-92374337D01*
X71282983Y-92427787D01*
X71245862Y-92477840D01*
X71204013Y-92524013D01*
X71157840Y-92565862D01*
X71107787Y-92602983D01*
X71054337Y-92635020D01*
X70998004Y-92661664D01*
X70939331Y-92682657D01*
X70878882Y-92697799D01*
X70817241Y-92706942D01*
X70755000Y-92710000D01*
X68945000Y-92710000D01*
X68882759Y-92706942D01*
X68821118Y-92697799D01*
X68760669Y-92682657D01*
X68701996Y-92661664D01*
X68645663Y-92635020D01*
X68592213Y-92602983D01*
X68542160Y-92565862D01*
X68495987Y-92524013D01*
X68454138Y-92477840D01*
X68417017Y-92427787D01*
X68384980Y-92374337D01*
X68358336Y-92318004D01*
X68337343Y-92259331D01*
X68322201Y-92198882D01*
X68313058Y-92137241D01*
X68310000Y-92075000D01*
X68310000Y-90805000D01*
X68313058Y-90742759D01*
X68322201Y-90681118D01*
X68337343Y-90620669D01*
X68358336Y-90561996D01*
X68384980Y-90505663D01*
X68417017Y-90452213D01*
X68454138Y-90402160D01*
X68495987Y-90355987D01*
X68542160Y-90314138D01*
X68592213Y-90277017D01*
X68645663Y-90244980D01*
X68701996Y-90218336D01*
X68760669Y-90197343D01*
X68821118Y-90182201D01*
X68882759Y-90173058D01*
X68945000Y-90170000D01*
X70755000Y-90170000D01*
X70817241Y-90173058D01*
X70817241Y-90173058D01*
G37*
D17*
X69850000Y-91440000D03*
D18*
X137165000Y-82663333D03*
D19*
X139705000Y-82663333D03*
X137155000Y-90056666D03*
D18*
X139695000Y-90056666D03*
D20*
X118110000Y-67310000D03*
D13*
X133350000Y-67310000D03*
X118110000Y-62230000D03*
D20*
X133350000Y-62230000D03*
X118110000Y-105410000D03*
D13*
X133350000Y-105410000D03*
X118110000Y-110490000D03*
D20*
X133350000Y-110490000D03*
D21*
X138430000Y-69850000D03*
D15*
X138430000Y-77470000D03*
X138430000Y-102870000D03*
D21*
X138430000Y-95250000D03*
D22*
X113030000Y-67310000D03*
X113030000Y-64770000D03*
X113030000Y-62230000D03*
X113030000Y-110490000D03*
X113030000Y-107950000D03*
X113030000Y-105410000D03*
D23*
X93980000Y-58420000D03*
D14*
X91440000Y-58420000D03*
X88900000Y-58420000D03*
X93980000Y-114300000D03*
X91440000Y-114300000D03*
D23*
X88900000Y-114300000D03*
D20*
X80010000Y-73406000D03*
D12*
X67310000Y-73406000D03*
X80010000Y-99314000D03*
D20*
X67310000Y-99314000D03*
D15*
X114260000Y-73660000D03*
D24*
X111760000Y-73660000D03*
D15*
X111800000Y-99060000D03*
D24*
X114300000Y-99060000D03*
X121920000Y-73660000D03*
D15*
X119420000Y-73660000D03*
D24*
X120650000Y-99060000D03*
D15*
X123150000Y-99060000D03*
D25*
X113030000Y-64770000D02*
X113030000Y-67310000D01*
X113030000Y-67310000D02*
X118110000Y-67310000D01*
X113030000Y-69215000D02*
X113030000Y-67310000D01*
X111760000Y-73660000D02*
X111760000Y-70485000D01*
X111760000Y-70485000D02*
X113030000Y-69215000D01*
X96520000Y-67310000D02*
X113030000Y-67310000D01*
X93980000Y-58420000D02*
X93980000Y-64770000D01*
X93980000Y-64770000D02*
X96520000Y-67310000D01*
X130890000Y-99060000D02*
X133350000Y-96600000D01*
X127635000Y-104775000D02*
X127635000Y-99060000D01*
X133350000Y-110490000D02*
X127635000Y-104775000D01*
X127635000Y-99060000D02*
X130890000Y-99060000D01*
X133350000Y-93861666D02*
X137155000Y-90056666D01*
X133350000Y-96600000D02*
X133350000Y-93861666D01*
X123150000Y-99060000D02*
X127635000Y-99060000D01*
X130890000Y-73660000D02*
X133350000Y-76120000D01*
X127635000Y-69215000D02*
X127635000Y-73660000D01*
X129540000Y-67310000D02*
X127635000Y-69215000D01*
X133350000Y-67310000D02*
X129540000Y-67310000D01*
X127635000Y-73660000D02*
X130890000Y-73660000D01*
X133350000Y-78848333D02*
X137165000Y-82663333D01*
X133350000Y-76120000D02*
X133350000Y-78848333D01*
X124220000Y-73660000D02*
X127635000Y-73660000D01*
X121920000Y-73660000D02*
X124220000Y-73660000D01*
X149860000Y-63500000D02*
X149860000Y-68580000D01*
X149860000Y-68580000D02*
X149860000Y-73660000D01*
X135890000Y-73660000D02*
X133350000Y-71120000D01*
X149860000Y-73660000D02*
X135890000Y-73660000D01*
X149860000Y-99060000D02*
X149860000Y-104140000D01*
X149860000Y-104140000D02*
X149860000Y-109220000D01*
X135890000Y-99060000D02*
X149860000Y-99060000D01*
X133350000Y-101600000D02*
X135890000Y-99060000D01*
X113030000Y-62230000D02*
X118110000Y-62230000D01*
X113030000Y-105410000D02*
X118110000Y-105410000D01*
X123530000Y-82550000D02*
X119720000Y-78740000D01*
X125730000Y-82550000D02*
X123530000Y-82550000D01*
X81280000Y-87630000D02*
X81280000Y-90170000D01*
X80010000Y-86360000D02*
X81280000Y-87630000D01*
X74930000Y-86360000D02*
X80010000Y-86360000D01*
X88900000Y-62204600D02*
X88900000Y-66040000D01*
X88900000Y-66040000D02*
X91440000Y-68580000D01*
X88900000Y-62204600D02*
X88900000Y-58420000D01*
X91440000Y-73406000D02*
X91440000Y-68580000D01*
X86360000Y-82550000D02*
X81280000Y-87630000D01*
X86360000Y-75786000D02*
X86360000Y-82550000D01*
X88740000Y-73406000D02*
X86360000Y-75786000D01*
X91440000Y-73406000D02*
X88740000Y-73406000D01*
X94140000Y-73406000D02*
X99474000Y-78740000D01*
X91440000Y-73406000D02*
X94140000Y-73406000D01*
X99474000Y-78740000D02*
X119720000Y-78740000D01*
X69850000Y-75946000D02*
X67310000Y-73406000D01*
X69850000Y-81280000D02*
X69850000Y-75946000D01*
X69850000Y-81280000D02*
X74930000Y-86360000D01*
X76190800Y-91440000D02*
X77520800Y-90110000D01*
X69850000Y-91440000D02*
X76190800Y-91440000D01*
X77520800Y-90110000D02*
X81390800Y-93980000D01*
X98806000Y-99194000D02*
X107950000Y-90050000D01*
X91440000Y-99194000D02*
X98806000Y-99194000D01*
X86226000Y-93980000D02*
X91440000Y-99194000D01*
X81390800Y-93980000D02*
X86226000Y-93980000D01*
X85090000Y-105544000D02*
X91440000Y-99194000D01*
X85090000Y-115570000D02*
X85090000Y-105544000D01*
X86304990Y-116784990D02*
X85090000Y-115570000D01*
X90733010Y-116784990D02*
X86304990Y-116784990D01*
X91440000Y-114300000D02*
X91440000Y-116078000D01*
X91440000Y-116078000D02*
X90733010Y-116784990D01*
X69850000Y-96774000D02*
X67310000Y-99314000D01*
X69850000Y-91440000D02*
X69850000Y-96774000D01*
X118110000Y-110490000D02*
X113030000Y-110490000D01*
X113030000Y-110490000D02*
X113030000Y-107950000D01*
X113030000Y-107950000D02*
X111125000Y-107950000D01*
X109220000Y-106045000D02*
X111125000Y-107950000D01*
X110668630Y-99060000D02*
X109220000Y-100508630D01*
X111800000Y-99060000D02*
X110668630Y-99060000D01*
X109220000Y-100508630D02*
X109220000Y-104140000D01*
X109220000Y-104140000D02*
X109220000Y-106045000D01*
X95290000Y-104140000D02*
X109220000Y-104140000D01*
X88900000Y-114300000D02*
X88900000Y-110530000D01*
X88900000Y-110530000D02*
X95290000Y-104140000D01*
X139705000Y-78745000D02*
X139705000Y-82663333D01*
X138430000Y-77470000D02*
X139705000Y-78745000D01*
X139695000Y-93985000D02*
X138430000Y-95250000D01*
X139695000Y-90056666D02*
X139695000Y-93985000D01*
D26*
G36*
X154024785Y-56628191D02*
G01*
X154366060Y-56731228D01*
X154680822Y-56898590D01*
X154957083Y-57123903D01*
X155184317Y-57398582D01*
X155353870Y-57712164D01*
X155459286Y-58052708D01*
X155500001Y-58440082D01*
X155500000Y-115535280D01*
X155461809Y-115924784D01*
X155358771Y-116266063D01*
X155191409Y-116580825D01*
X154966097Y-116857083D01*
X154691418Y-117084317D01*
X154377838Y-117253869D01*
X154037288Y-117359287D01*
X153649928Y-117400000D01*
X92076685Y-117400000D01*
X92371231Y-117105454D01*
X92424081Y-117062081D01*
X92597157Y-116851188D01*
X92725764Y-116610581D01*
X92804960Y-116349507D01*
X92825000Y-116146037D01*
X92825000Y-116146029D01*
X92831700Y-116078000D01*
X92825000Y-116009971D01*
X92825000Y-115457239D01*
X92937748Y-115569987D01*
X93205537Y-115748918D01*
X93503088Y-115872168D01*
X93818967Y-115935000D01*
X94141033Y-115935000D01*
X94456912Y-115872168D01*
X94754463Y-115748918D01*
X95022252Y-115569987D01*
X95249987Y-115342252D01*
X95428918Y-115074463D01*
X95552168Y-114776912D01*
X95615000Y-114461033D01*
X95615000Y-114138967D01*
X95552168Y-113823088D01*
X95428918Y-113525537D01*
X95249987Y-113257748D01*
X95022252Y-113030013D01*
X94754463Y-112851082D01*
X94456912Y-112727832D01*
X94141033Y-112665000D01*
X93818967Y-112665000D01*
X93503088Y-112727832D01*
X93205537Y-112851082D01*
X92937748Y-113030013D01*
X92710013Y-113257748D01*
X92710000Y-113257767D01*
X92709987Y-113257748D01*
X92482252Y-113030013D01*
X92214463Y-112851082D01*
X91916912Y-112727832D01*
X91601033Y-112665000D01*
X91278967Y-112665000D01*
X90963088Y-112727832D01*
X90665537Y-112851082D01*
X90455191Y-112991630D01*
X90430537Y-112945506D01*
X90351185Y-112848815D01*
X90285000Y-112794499D01*
X90285000Y-111103685D01*
X91158210Y-110230475D01*
X101505000Y-110230475D01*
X101505000Y-110749525D01*
X101606261Y-111258601D01*
X101804893Y-111738141D01*
X102093262Y-112169715D01*
X102460285Y-112536738D01*
X102891859Y-112825107D01*
X103371399Y-113023739D01*
X103880475Y-113125000D01*
X104399525Y-113125000D01*
X104908601Y-113023739D01*
X105388141Y-112825107D01*
X105819715Y-112536738D01*
X106186738Y-112169715D01*
X106475107Y-111738141D01*
X106673739Y-111258601D01*
X106775000Y-110749525D01*
X106775000Y-110230475D01*
X106673739Y-109721399D01*
X106475107Y-109241859D01*
X106186738Y-108810285D01*
X105819715Y-108443262D01*
X105388141Y-108154893D01*
X104908601Y-107956261D01*
X104399525Y-107855000D01*
X103880475Y-107855000D01*
X103371399Y-107956261D01*
X102891859Y-108154893D01*
X102460285Y-108443262D01*
X102093262Y-108810285D01*
X101804893Y-109241859D01*
X101606261Y-109721399D01*
X101505000Y-110230475D01*
X91158210Y-110230475D01*
X95863686Y-105525000D01*
X107835001Y-105525000D01*
X107835001Y-105976961D01*
X107828300Y-106045000D01*
X107855040Y-106316507D01*
X107934236Y-106577580D01*
X108062844Y-106818188D01*
X108192548Y-106976233D01*
X108192551Y-106976236D01*
X108235920Y-107029081D01*
X108288764Y-107072449D01*
X110097550Y-108881236D01*
X110140919Y-108934081D01*
X110193764Y-108977450D01*
X110193766Y-108977452D01*
X110300032Y-109064662D01*
X110351812Y-109107157D01*
X110592419Y-109235764D01*
X110853493Y-109314960D01*
X111056963Y-109335000D01*
X111056971Y-109335000D01*
X111125000Y-109341700D01*
X111193029Y-109335000D01*
X111645000Y-109335000D01*
X111645000Y-110421963D01*
X111638299Y-110490000D01*
X111665040Y-110761507D01*
X111744236Y-111022581D01*
X111872843Y-111263188D01*
X112045919Y-111474081D01*
X112147507Y-111557452D01*
X112256812Y-111647157D01*
X112497419Y-111775764D01*
X112758493Y-111854960D01*
X113030000Y-111881701D01*
X113098036Y-111875000D01*
X116899918Y-111875000D01*
X116940256Y-111915338D01*
X117240801Y-112116156D01*
X117574750Y-112254482D01*
X117929268Y-112325000D01*
X118290732Y-112325000D01*
X118645250Y-112254482D01*
X118979199Y-112116156D01*
X119279744Y-111915338D01*
X119535338Y-111659744D01*
X119736156Y-111359199D01*
X119874482Y-111025250D01*
X119945000Y-110670732D01*
X119945000Y-110309268D01*
X119874482Y-109954750D01*
X119736156Y-109620801D01*
X119535338Y-109320256D01*
X119279744Y-109064662D01*
X118979199Y-108863844D01*
X118645250Y-108725518D01*
X118290732Y-108655000D01*
X117929268Y-108655000D01*
X117574750Y-108725518D01*
X117240801Y-108863844D01*
X116940256Y-109064662D01*
X116899918Y-109105000D01*
X114415000Y-109105000D01*
X114415000Y-108018037D01*
X114421701Y-107950000D01*
X114394960Y-107678493D01*
X114315764Y-107417419D01*
X114187157Y-107176812D01*
X114014081Y-106965919D01*
X113805816Y-106795000D01*
X116905100Y-106795000D01*
X117085596Y-106943129D01*
X117404378Y-107113521D01*
X117750277Y-107218448D01*
X118019861Y-107245000D01*
X118200139Y-107245000D01*
X118469723Y-107218448D01*
X118815622Y-107113521D01*
X119134404Y-106943129D01*
X119413819Y-106713819D01*
X119643129Y-106434404D01*
X119813521Y-106115622D01*
X119918448Y-105769723D01*
X119953878Y-105410000D01*
X119918448Y-105050277D01*
X119813521Y-104704378D01*
X119643129Y-104385596D01*
X119413819Y-104106181D01*
X119134404Y-103876871D01*
X118815622Y-103706479D01*
X118469723Y-103601552D01*
X118200139Y-103575000D01*
X118019861Y-103575000D01*
X117750277Y-103601552D01*
X117404378Y-103706479D01*
X117085596Y-103876871D01*
X116905100Y-104025000D01*
X112961963Y-104025000D01*
X112758493Y-104045040D01*
X112497419Y-104124236D01*
X112256812Y-104252843D01*
X112045919Y-104425919D01*
X111872843Y-104636812D01*
X111744236Y-104877419D01*
X111665040Y-105138493D01*
X111638299Y-105410000D01*
X111665040Y-105681507D01*
X111744236Y-105942581D01*
X111872843Y-106183188D01*
X112045919Y-106394081D01*
X112254184Y-106565000D01*
X111698686Y-106565000D01*
X110605000Y-105471315D01*
X110605000Y-104208037D01*
X110611701Y-104140000D01*
X110605000Y-104071963D01*
X110605000Y-101082315D01*
X111242316Y-100445000D01*
X111407301Y-100445000D01*
X111658665Y-100495000D01*
X111941335Y-100495000D01*
X112218574Y-100439853D01*
X112479727Y-100331680D01*
X112714759Y-100174637D01*
X112881339Y-100008057D01*
X112910498Y-100104180D01*
X112969463Y-100214494D01*
X113048815Y-100311185D01*
X113145506Y-100390537D01*
X113255820Y-100449502D01*
X113375518Y-100485812D01*
X113500000Y-100498072D01*
X114014250Y-100495000D01*
X114173000Y-100336250D01*
X114173000Y-99187000D01*
X114427000Y-99187000D01*
X114427000Y-100336250D01*
X114585750Y-100495000D01*
X115100000Y-100498072D01*
X115224482Y-100485812D01*
X115344180Y-100449502D01*
X115454494Y-100390537D01*
X115551185Y-100311185D01*
X115630537Y-100214494D01*
X115689502Y-100104180D01*
X115725812Y-99984482D01*
X115738072Y-99860000D01*
X119211928Y-99860000D01*
X119224188Y-99984482D01*
X119260498Y-100104180D01*
X119319463Y-100214494D01*
X119398815Y-100311185D01*
X119495506Y-100390537D01*
X119605820Y-100449502D01*
X119725518Y-100485812D01*
X119850000Y-100498072D01*
X120364250Y-100495000D01*
X120523000Y-100336250D01*
X120523000Y-99187000D01*
X119373750Y-99187000D01*
X119215000Y-99345750D01*
X119211928Y-99860000D01*
X115738072Y-99860000D01*
X115735000Y-99345750D01*
X115576250Y-99187000D01*
X114427000Y-99187000D01*
X114173000Y-99187000D01*
X114153000Y-99187000D01*
X114153000Y-98933000D01*
X114173000Y-98933000D01*
X114173000Y-97783750D01*
X114427000Y-97783750D01*
X114427000Y-98933000D01*
X115576250Y-98933000D01*
X115735000Y-98774250D01*
X115738072Y-98260000D01*
X119211928Y-98260000D01*
X119215000Y-98774250D01*
X119373750Y-98933000D01*
X120523000Y-98933000D01*
X120523000Y-97783750D01*
X120777000Y-97783750D01*
X120777000Y-98933000D01*
X120797000Y-98933000D01*
X120797000Y-99187000D01*
X120777000Y-99187000D01*
X120777000Y-100336250D01*
X120935750Y-100495000D01*
X121450000Y-100498072D01*
X121574482Y-100485812D01*
X121694180Y-100449502D01*
X121804494Y-100390537D01*
X121901185Y-100311185D01*
X121980537Y-100214494D01*
X122039502Y-100104180D01*
X122068661Y-100008057D01*
X122235241Y-100174637D01*
X122470273Y-100331680D01*
X122731426Y-100439853D01*
X123008665Y-100495000D01*
X123291335Y-100495000D01*
X123542699Y-100445000D01*
X126250001Y-100445000D01*
X126250000Y-104706971D01*
X126243300Y-104775000D01*
X126250000Y-104843029D01*
X126250000Y-104843036D01*
X126265145Y-104996802D01*
X126270040Y-105046507D01*
X126293572Y-105124081D01*
X126349236Y-105307580D01*
X126475315Y-105543456D01*
X126477844Y-105548188D01*
X126582079Y-105675198D01*
X126650919Y-105759080D01*
X126703765Y-105802450D01*
X131518665Y-110617351D01*
X131541552Y-110849723D01*
X131646479Y-111195622D01*
X131816871Y-111514404D01*
X132046181Y-111793819D01*
X132325596Y-112023129D01*
X132644378Y-112193521D01*
X132990277Y-112298448D01*
X133259861Y-112325000D01*
X133440139Y-112325000D01*
X133709723Y-112298448D01*
X134055622Y-112193521D01*
X134374404Y-112023129D01*
X134653819Y-111793819D01*
X134883129Y-111514404D01*
X135053521Y-111195622D01*
X135158448Y-110849723D01*
X135193878Y-110490000D01*
X135158448Y-110130277D01*
X135053521Y-109784378D01*
X134883129Y-109465596D01*
X134653819Y-109186181D01*
X134374404Y-108956871D01*
X134233735Y-108881682D01*
X136265000Y-108881682D01*
X136265000Y-109558318D01*
X136397006Y-110221952D01*
X136655943Y-110847082D01*
X137031862Y-111409685D01*
X137510315Y-111888138D01*
X138072918Y-112264057D01*
X138698048Y-112522994D01*
X139361682Y-112655000D01*
X140038318Y-112655000D01*
X140701952Y-112522994D01*
X141327082Y-112264057D01*
X141889685Y-111888138D01*
X142368138Y-111409685D01*
X142744057Y-110847082D01*
X143002994Y-110221952D01*
X143135000Y-109558318D01*
X143135000Y-108881682D01*
X143002994Y-108218048D01*
X142744057Y-107592918D01*
X142368138Y-107030315D01*
X141889685Y-106551862D01*
X141327082Y-106175943D01*
X140701952Y-105917006D01*
X140038318Y-105785000D01*
X139361682Y-105785000D01*
X138698048Y-105917006D01*
X138072918Y-106175943D01*
X137510315Y-106551862D01*
X137031862Y-107030315D01*
X136655943Y-107592918D01*
X136397006Y-108218048D01*
X136265000Y-108881682D01*
X134233735Y-108881682D01*
X134055622Y-108786479D01*
X133709723Y-108681552D01*
X133477351Y-108658665D01*
X131506666Y-106687980D01*
X132251626Y-106687980D01*
X132371514Y-106972836D01*
X132695210Y-107133699D01*
X133044069Y-107228322D01*
X133404684Y-107253067D01*
X133763198Y-107206985D01*
X134105833Y-107091846D01*
X134328486Y-106972836D01*
X134448374Y-106687980D01*
X133350000Y-105589605D01*
X132251626Y-106687980D01*
X131506666Y-106687980D01*
X130283370Y-105464684D01*
X131506933Y-105464684D01*
X131553015Y-105823198D01*
X131668154Y-106165833D01*
X131787164Y-106388486D01*
X132072020Y-106508374D01*
X133170395Y-105410000D01*
X133529605Y-105410000D01*
X134627980Y-106508374D01*
X134912836Y-106388486D01*
X135073699Y-106064790D01*
X135168322Y-105715931D01*
X135193067Y-105355316D01*
X135146985Y-104996802D01*
X135031846Y-104654167D01*
X134912836Y-104431514D01*
X134627980Y-104311626D01*
X133529605Y-105410000D01*
X133170395Y-105410000D01*
X132072020Y-104311626D01*
X131787164Y-104431514D01*
X131626301Y-104755210D01*
X131531678Y-105104069D01*
X131506933Y-105464684D01*
X130283370Y-105464684D01*
X129020000Y-104201315D01*
X129020000Y-104132020D01*
X132251626Y-104132020D01*
X133350000Y-105230395D01*
X134448374Y-104132020D01*
X134335026Y-103862702D01*
X137616903Y-103862702D01*
X137688486Y-104106671D01*
X137943996Y-104227571D01*
X138218184Y-104296300D01*
X138500512Y-104310217D01*
X138780130Y-104268787D01*
X139046292Y-104173603D01*
X139171514Y-104106671D01*
X139243097Y-103862702D01*
X138430000Y-103049605D01*
X137616903Y-103862702D01*
X134335026Y-103862702D01*
X134328486Y-103847164D01*
X134004790Y-103686301D01*
X133655931Y-103591678D01*
X133295316Y-103566933D01*
X132936802Y-103613015D01*
X132594167Y-103728154D01*
X132371514Y-103847164D01*
X132251626Y-104132020D01*
X129020000Y-104132020D01*
X129020000Y-101458665D01*
X131915000Y-101458665D01*
X131915000Y-101741335D01*
X131970147Y-102018574D01*
X132078320Y-102279727D01*
X132235363Y-102514759D01*
X132435241Y-102714637D01*
X132670273Y-102871680D01*
X132931426Y-102979853D01*
X133208665Y-103035000D01*
X133491335Y-103035000D01*
X133768574Y-102979853D01*
X133863551Y-102940512D01*
X136989783Y-102940512D01*
X137031213Y-103220130D01*
X137126397Y-103486292D01*
X137193329Y-103611514D01*
X137437298Y-103683097D01*
X138250395Y-102870000D01*
X138609605Y-102870000D01*
X139422702Y-103683097D01*
X139666671Y-103611514D01*
X139787571Y-103356004D01*
X139856300Y-103081816D01*
X139870217Y-102799488D01*
X139828787Y-102519870D01*
X139733603Y-102253708D01*
X139666671Y-102128486D01*
X139422702Y-102056903D01*
X138609605Y-102870000D01*
X138250395Y-102870000D01*
X137437298Y-102056903D01*
X137193329Y-102128486D01*
X137072429Y-102383996D01*
X137003700Y-102658184D01*
X136989783Y-102940512D01*
X133863551Y-102940512D01*
X134029727Y-102871680D01*
X134264759Y-102714637D01*
X134464637Y-102514759D01*
X134607025Y-102301660D01*
X135031387Y-101877298D01*
X137616903Y-101877298D01*
X138430000Y-102690395D01*
X139243097Y-101877298D01*
X139171514Y-101633329D01*
X138916004Y-101512429D01*
X138641816Y-101443700D01*
X138359488Y-101429783D01*
X138079870Y-101471213D01*
X137813708Y-101566397D01*
X137688486Y-101633329D01*
X137616903Y-101877298D01*
X135031387Y-101877298D01*
X136463685Y-100445000D01*
X147931538Y-100445000D01*
X148054802Y-100595198D01*
X148247719Y-100753521D01*
X148467816Y-100871165D01*
X148475000Y-100873344D01*
X148475001Y-102326656D01*
X148467816Y-102328835D01*
X148247719Y-102446479D01*
X148054802Y-102604802D01*
X147896479Y-102797719D01*
X147778835Y-103017816D01*
X147706390Y-103256636D01*
X147681928Y-103505000D01*
X147681928Y-104775000D01*
X147706390Y-105023364D01*
X147778835Y-105262184D01*
X147896479Y-105482281D01*
X148054802Y-105675198D01*
X148247719Y-105833521D01*
X148467816Y-105951165D01*
X148475000Y-105953344D01*
X148475001Y-107406656D01*
X148467816Y-107408835D01*
X148247719Y-107526479D01*
X148054802Y-107684802D01*
X147896479Y-107877719D01*
X147778835Y-108097816D01*
X147706390Y-108336636D01*
X147681928Y-108585000D01*
X147681928Y-109855000D01*
X147706390Y-110103364D01*
X147778835Y-110342184D01*
X147896479Y-110562281D01*
X148054802Y-110755198D01*
X148247719Y-110913521D01*
X148467816Y-111031165D01*
X148706636Y-111103610D01*
X148955000Y-111128072D01*
X150765000Y-111128072D01*
X151013364Y-111103610D01*
X151252184Y-111031165D01*
X151472281Y-110913521D01*
X151665198Y-110755198D01*
X151823521Y-110562281D01*
X151941165Y-110342184D01*
X152013610Y-110103364D01*
X152038072Y-109855000D01*
X152038072Y-108585000D01*
X152013610Y-108336636D01*
X151941165Y-108097816D01*
X151823521Y-107877719D01*
X151665198Y-107684802D01*
X151472281Y-107526479D01*
X151252184Y-107408835D01*
X151245000Y-107406656D01*
X151245000Y-105953344D01*
X151252184Y-105951165D01*
X151472281Y-105833521D01*
X151665198Y-105675198D01*
X151823521Y-105482281D01*
X151941165Y-105262184D01*
X152013610Y-105023364D01*
X152038072Y-104775000D01*
X152038072Y-103505000D01*
X152013610Y-103256636D01*
X151941165Y-103017816D01*
X151823521Y-102797719D01*
X151665198Y-102604802D01*
X151472281Y-102446479D01*
X151252184Y-102328835D01*
X151245000Y-102326656D01*
X151245000Y-100873344D01*
X151252184Y-100871165D01*
X151472281Y-100753521D01*
X151665198Y-100595198D01*
X151823521Y-100402281D01*
X151941165Y-100182184D01*
X152013610Y-99943364D01*
X152038072Y-99695000D01*
X152038072Y-98425000D01*
X152013610Y-98176636D01*
X151941165Y-97937816D01*
X151823521Y-97717719D01*
X151665198Y-97524802D01*
X151472281Y-97366479D01*
X151252184Y-97248835D01*
X151013364Y-97176390D01*
X150765000Y-97151928D01*
X148955000Y-97151928D01*
X148706636Y-97176390D01*
X148467816Y-97248835D01*
X148247719Y-97366479D01*
X148054802Y-97524802D01*
X147931538Y-97675000D01*
X135958026Y-97675000D01*
X135889999Y-97668300D01*
X135821972Y-97675000D01*
X135821963Y-97675000D01*
X135618493Y-97695040D01*
X135357419Y-97774236D01*
X135116812Y-97902843D01*
X134905919Y-98075919D01*
X134862548Y-98128767D01*
X132648340Y-100342975D01*
X132435241Y-100485363D01*
X132235363Y-100685241D01*
X132078320Y-100920273D01*
X131970147Y-101181426D01*
X131915000Y-101458665D01*
X129020000Y-101458665D01*
X129020000Y-100445000D01*
X130821971Y-100445000D01*
X130890000Y-100451700D01*
X130958029Y-100445000D01*
X130958037Y-100445000D01*
X131161507Y-100424960D01*
X131422581Y-100345764D01*
X131663188Y-100217157D01*
X131874081Y-100044081D01*
X131917454Y-99991231D01*
X134051663Y-97857023D01*
X134264759Y-97714637D01*
X134464637Y-97514759D01*
X134621680Y-97279727D01*
X134729853Y-97018574D01*
X134785000Y-96741335D01*
X134785000Y-96458665D01*
X134735000Y-96207301D01*
X134735000Y-94435351D01*
X137575614Y-91594738D01*
X138055000Y-91594738D01*
X138179482Y-91582478D01*
X138299180Y-91546168D01*
X138310000Y-91540384D01*
X138310001Y-93411313D01*
X137717726Y-94003589D01*
X137628899Y-94051068D01*
X137410392Y-94230392D01*
X137231068Y-94448899D01*
X137097818Y-94698192D01*
X137015764Y-94968691D01*
X136988057Y-95250000D01*
X137015764Y-95531309D01*
X137097818Y-95801808D01*
X137231068Y-96051101D01*
X137410392Y-96269608D01*
X137628899Y-96448932D01*
X137878192Y-96582182D01*
X138148691Y-96664236D01*
X138359508Y-96685000D01*
X138500492Y-96685000D01*
X138711309Y-96664236D01*
X138981808Y-96582182D01*
X139231101Y-96448932D01*
X139449608Y-96269608D01*
X139628932Y-96051101D01*
X139676411Y-95962274D01*
X140626236Y-95012450D01*
X140679081Y-94969081D01*
X140852157Y-94758188D01*
X140980764Y-94517581D01*
X141059960Y-94256507D01*
X141080000Y-94053037D01*
X141080000Y-94053028D01*
X141086700Y-93985001D01*
X141080000Y-93916974D01*
X141080000Y-92710000D01*
X147681928Y-92710000D01*
X147694188Y-92834482D01*
X147730498Y-92954180D01*
X147789463Y-93064494D01*
X147868815Y-93161185D01*
X147965506Y-93240537D01*
X148075820Y-93299502D01*
X148195518Y-93335812D01*
X148320000Y-93348072D01*
X149574250Y-93345000D01*
X149733000Y-93186250D01*
X149733000Y-91567000D01*
X149987000Y-91567000D01*
X149987000Y-93186250D01*
X150145750Y-93345000D01*
X151400000Y-93348072D01*
X151524482Y-93335812D01*
X151644180Y-93299502D01*
X151754494Y-93240537D01*
X151851185Y-93161185D01*
X151930537Y-93064494D01*
X151989502Y-92954180D01*
X152025812Y-92834482D01*
X152038072Y-92710000D01*
X152035000Y-91725750D01*
X151876250Y-91567000D01*
X149987000Y-91567000D01*
X149733000Y-91567000D01*
X147843750Y-91567000D01*
X147685000Y-91725750D01*
X147681928Y-92710000D01*
X141080000Y-92710000D01*
X141080000Y-90724128D01*
X141171011Y-90504409D01*
X141230000Y-90207850D01*
X141230000Y-90170000D01*
X147681928Y-90170000D01*
X147685000Y-91154250D01*
X147843750Y-91313000D01*
X149733000Y-91313000D01*
X149733000Y-89693750D01*
X149987000Y-89693750D01*
X149987000Y-91313000D01*
X151876250Y-91313000D01*
X152035000Y-91154250D01*
X152038072Y-90170000D01*
X152025812Y-90045518D01*
X151989502Y-89925820D01*
X151930537Y-89815506D01*
X151851185Y-89718815D01*
X151754494Y-89639463D01*
X151644180Y-89580498D01*
X151524482Y-89544188D01*
X151400000Y-89531928D01*
X150145750Y-89535000D01*
X149987000Y-89693750D01*
X149733000Y-89693750D01*
X149574250Y-89535000D01*
X148320000Y-89531928D01*
X148195518Y-89544188D01*
X148075820Y-89580498D01*
X147965506Y-89639463D01*
X147868815Y-89718815D01*
X147789463Y-89815506D01*
X147730498Y-89925820D01*
X147694188Y-90045518D01*
X147681928Y-90170000D01*
X141230000Y-90170000D01*
X141230000Y-89905482D01*
X141171011Y-89608923D01*
X141055299Y-89329571D01*
X140887312Y-89078161D01*
X140673505Y-88864354D01*
X140422095Y-88696367D01*
X140142743Y-88580655D01*
X139846184Y-88521666D01*
X139543816Y-88521666D01*
X139247257Y-88580655D01*
X138967905Y-88696367D01*
X138716495Y-88864354D01*
X138650056Y-88930793D01*
X138644502Y-88912486D01*
X138585537Y-88802172D01*
X138506185Y-88705481D01*
X138409494Y-88626129D01*
X138299180Y-88567164D01*
X138179482Y-88530854D01*
X138055000Y-88518594D01*
X136255000Y-88518594D01*
X136130518Y-88530854D01*
X136010820Y-88567164D01*
X135900506Y-88626129D01*
X135803815Y-88705481D01*
X135724463Y-88802172D01*
X135665498Y-88912486D01*
X135629188Y-89032184D01*
X135616928Y-89156666D01*
X135616928Y-89636052D01*
X132418764Y-92834217D01*
X132365920Y-92877585D01*
X132322551Y-92930430D01*
X132322548Y-92930433D01*
X132192844Y-93088478D01*
X132064236Y-93329086D01*
X131985040Y-93590159D01*
X131958300Y-93861666D01*
X131965001Y-93929705D01*
X131965000Y-96026314D01*
X130316315Y-97675000D01*
X127703037Y-97675000D01*
X127635000Y-97668299D01*
X127566964Y-97675000D01*
X123542699Y-97675000D01*
X123291335Y-97625000D01*
X123008665Y-97625000D01*
X122731426Y-97680147D01*
X122470273Y-97788320D01*
X122235241Y-97945363D01*
X122068661Y-98111943D01*
X122039502Y-98015820D01*
X121980537Y-97905506D01*
X121901185Y-97808815D01*
X121804494Y-97729463D01*
X121694180Y-97670498D01*
X121574482Y-97634188D01*
X121450000Y-97621928D01*
X120935750Y-97625000D01*
X120777000Y-97783750D01*
X120523000Y-97783750D01*
X120364250Y-97625000D01*
X119850000Y-97621928D01*
X119725518Y-97634188D01*
X119605820Y-97670498D01*
X119495506Y-97729463D01*
X119398815Y-97808815D01*
X119319463Y-97905506D01*
X119260498Y-98015820D01*
X119224188Y-98135518D01*
X119211928Y-98260000D01*
X115738072Y-98260000D01*
X115725812Y-98135518D01*
X115689502Y-98015820D01*
X115630537Y-97905506D01*
X115551185Y-97808815D01*
X115454494Y-97729463D01*
X115344180Y-97670498D01*
X115224482Y-97634188D01*
X115100000Y-97621928D01*
X114585750Y-97625000D01*
X114427000Y-97783750D01*
X114173000Y-97783750D01*
X114014250Y-97625000D01*
X113500000Y-97621928D01*
X113375518Y-97634188D01*
X113255820Y-97670498D01*
X113145506Y-97729463D01*
X113048815Y-97808815D01*
X112969463Y-97905506D01*
X112910498Y-98015820D01*
X112881339Y-98111943D01*
X112714759Y-97945363D01*
X112479727Y-97788320D01*
X112218574Y-97680147D01*
X111941335Y-97625000D01*
X111658665Y-97625000D01*
X111407301Y-97675000D01*
X110736656Y-97675000D01*
X110668629Y-97668300D01*
X110600602Y-97675000D01*
X110600593Y-97675000D01*
X110397123Y-97695040D01*
X110136049Y-97774236D01*
X109895442Y-97902843D01*
X109860941Y-97931157D01*
X109737396Y-98032548D01*
X109737395Y-98032549D01*
X109684549Y-98075919D01*
X109641180Y-98128764D01*
X108288765Y-99481180D01*
X108235919Y-99524550D01*
X108192550Y-99577395D01*
X108192548Y-99577397D01*
X108180088Y-99592580D01*
X108062843Y-99735443D01*
X108010597Y-99833189D01*
X107934236Y-99976050D01*
X107861905Y-100214494D01*
X107855040Y-100237124D01*
X107835000Y-100440594D01*
X107835000Y-100440601D01*
X107828300Y-100508630D01*
X107835000Y-100576659D01*
X107835001Y-102755000D01*
X95358029Y-102755000D01*
X95290000Y-102748300D01*
X95221971Y-102755000D01*
X95221963Y-102755000D01*
X95018493Y-102775040D01*
X94757419Y-102854236D01*
X94516812Y-102982843D01*
X94358766Y-103112548D01*
X94358764Y-103112550D01*
X94305919Y-103155919D01*
X94262550Y-103208764D01*
X87968764Y-109502551D01*
X87915920Y-109545919D01*
X87872551Y-109598764D01*
X87872548Y-109598767D01*
X87742844Y-109756812D01*
X87614236Y-109997420D01*
X87535040Y-110258493D01*
X87508300Y-110530000D01*
X87515001Y-110598039D01*
X87515000Y-112794498D01*
X87448815Y-112848815D01*
X87369463Y-112945506D01*
X87310498Y-113055820D01*
X87274188Y-113175518D01*
X87261928Y-113300000D01*
X87261928Y-115300000D01*
X87271776Y-115399990D01*
X86878676Y-115399990D01*
X86475000Y-114996315D01*
X86475000Y-106117685D01*
X91563686Y-101029000D01*
X91620732Y-101029000D01*
X91975250Y-100958482D01*
X92309199Y-100820156D01*
X92609744Y-100619338D01*
X92650082Y-100579000D01*
X98737971Y-100579000D01*
X98806000Y-100585700D01*
X98874029Y-100579000D01*
X98874037Y-100579000D01*
X99077507Y-100558960D01*
X99338581Y-100479764D01*
X99579188Y-100351157D01*
X99790081Y-100178081D01*
X99833454Y-100125231D01*
X108073686Y-91885000D01*
X108130732Y-91885000D01*
X108485250Y-91814482D01*
X108819199Y-91676156D01*
X109119744Y-91475338D01*
X109267102Y-91327980D01*
X124631626Y-91327980D01*
X124751514Y-91612836D01*
X125075210Y-91773699D01*
X125424069Y-91868322D01*
X125784684Y-91893067D01*
X126143198Y-91846985D01*
X126485833Y-91731846D01*
X126708486Y-91612836D01*
X126828374Y-91327980D01*
X125730000Y-90229605D01*
X124631626Y-91327980D01*
X109267102Y-91327980D01*
X109375338Y-91219744D01*
X109576156Y-90919199D01*
X109714482Y-90585250D01*
X109785000Y-90230732D01*
X109785000Y-90104684D01*
X123886933Y-90104684D01*
X123933015Y-90463198D01*
X124048154Y-90805833D01*
X124167164Y-91028486D01*
X124452020Y-91148374D01*
X125550395Y-90050000D01*
X125909605Y-90050000D01*
X127007980Y-91148374D01*
X127292836Y-91028486D01*
X127453699Y-90704790D01*
X127548322Y-90355931D01*
X127573067Y-89995316D01*
X127526985Y-89636802D01*
X127411846Y-89294167D01*
X127292836Y-89071514D01*
X127007980Y-88951626D01*
X125909605Y-90050000D01*
X125550395Y-90050000D01*
X124452020Y-88951626D01*
X124167164Y-89071514D01*
X124006301Y-89395210D01*
X123911678Y-89744069D01*
X123886933Y-90104684D01*
X109785000Y-90104684D01*
X109785000Y-89869268D01*
X109714482Y-89514750D01*
X109576156Y-89180801D01*
X109375338Y-88880256D01*
X109267102Y-88772020D01*
X124631626Y-88772020D01*
X125730000Y-89870395D01*
X126828374Y-88772020D01*
X126708486Y-88487164D01*
X126384790Y-88326301D01*
X126035931Y-88231678D01*
X125675316Y-88206933D01*
X125316802Y-88253015D01*
X124974167Y-88368154D01*
X124751514Y-88487164D01*
X124631626Y-88772020D01*
X109267102Y-88772020D01*
X109119744Y-88624662D01*
X108819199Y-88423844D01*
X108485250Y-88285518D01*
X108130732Y-88215000D01*
X107769268Y-88215000D01*
X107414750Y-88285518D01*
X107080801Y-88423844D01*
X106780256Y-88624662D01*
X106524662Y-88880256D01*
X106323844Y-89180801D01*
X106185518Y-89514750D01*
X106115000Y-89869268D01*
X106115000Y-89926314D01*
X98232315Y-97809000D01*
X92650082Y-97809000D01*
X92609744Y-97768662D01*
X92309199Y-97567844D01*
X91975250Y-97429518D01*
X91620732Y-97359000D01*
X91563686Y-97359000D01*
X87253454Y-93048769D01*
X87210081Y-92995919D01*
X87085893Y-92894000D01*
X89601928Y-92894000D01*
X89614188Y-93018482D01*
X89650498Y-93138180D01*
X89709463Y-93248494D01*
X89788815Y-93345185D01*
X89885506Y-93424537D01*
X89995820Y-93483502D01*
X90115518Y-93519812D01*
X90240000Y-93532072D01*
X91154250Y-93529000D01*
X91313000Y-93370250D01*
X91313000Y-91821000D01*
X91567000Y-91821000D01*
X91567000Y-93370250D01*
X91725750Y-93529000D01*
X92640000Y-93532072D01*
X92764482Y-93519812D01*
X92884180Y-93483502D01*
X92994494Y-93424537D01*
X93091185Y-93345185D01*
X93170537Y-93248494D01*
X93229502Y-93138180D01*
X93265812Y-93018482D01*
X93278072Y-92894000D01*
X93275000Y-91979750D01*
X93116250Y-91821000D01*
X91567000Y-91821000D01*
X91313000Y-91821000D01*
X89763750Y-91821000D01*
X89605000Y-91979750D01*
X89601928Y-92894000D01*
X87085893Y-92894000D01*
X86999188Y-92822843D01*
X86758581Y-92694236D01*
X86497507Y-92615040D01*
X86294037Y-92595000D01*
X86294029Y-92595000D01*
X86226000Y-92588300D01*
X86157971Y-92595000D01*
X81964485Y-92595000D01*
X81113372Y-91743887D01*
X81118967Y-91745000D01*
X81441033Y-91745000D01*
X81756912Y-91682168D01*
X82054463Y-91558918D01*
X82322252Y-91379987D01*
X82549987Y-91152252D01*
X82728918Y-90884463D01*
X82852168Y-90586912D01*
X82870649Y-90494000D01*
X89601928Y-90494000D01*
X89605000Y-91408250D01*
X89763750Y-91567000D01*
X91313000Y-91567000D01*
X91313000Y-90017750D01*
X91567000Y-90017750D01*
X91567000Y-91567000D01*
X93116250Y-91567000D01*
X93275000Y-91408250D01*
X93278072Y-90494000D01*
X93265812Y-90369518D01*
X93229502Y-90249820D01*
X93170537Y-90139506D01*
X93091185Y-90042815D01*
X92994494Y-89963463D01*
X92884180Y-89904498D01*
X92764482Y-89868188D01*
X92640000Y-89855928D01*
X91725750Y-89859000D01*
X91567000Y-90017750D01*
X91313000Y-90017750D01*
X91154250Y-89859000D01*
X90240000Y-89855928D01*
X90115518Y-89868188D01*
X89995820Y-89904498D01*
X89885506Y-89963463D01*
X89788815Y-90042815D01*
X89709463Y-90139506D01*
X89650498Y-90249820D01*
X89614188Y-90369518D01*
X89601928Y-90494000D01*
X82870649Y-90494000D01*
X82915000Y-90271033D01*
X82915000Y-89948967D01*
X82852168Y-89633088D01*
X82728918Y-89335537D01*
X82665000Y-89239877D01*
X82665000Y-88203685D01*
X83238685Y-87630000D01*
X147681928Y-87630000D01*
X147694188Y-87754482D01*
X147730498Y-87874180D01*
X147789463Y-87984494D01*
X147868815Y-88081185D01*
X147965506Y-88160537D01*
X148075820Y-88219502D01*
X148195518Y-88255812D01*
X148320000Y-88268072D01*
X149574250Y-88265000D01*
X149733000Y-88106250D01*
X149733000Y-86487000D01*
X149987000Y-86487000D01*
X149987000Y-88106250D01*
X150145750Y-88265000D01*
X151400000Y-88268072D01*
X151524482Y-88255812D01*
X151644180Y-88219502D01*
X151754494Y-88160537D01*
X151851185Y-88081185D01*
X151930537Y-87984494D01*
X151989502Y-87874180D01*
X152025812Y-87754482D01*
X152038072Y-87630000D01*
X152035000Y-86645750D01*
X151876250Y-86487000D01*
X149987000Y-86487000D01*
X149733000Y-86487000D01*
X147843750Y-86487000D01*
X147685000Y-86645750D01*
X147681928Y-87630000D01*
X83238685Y-87630000D01*
X85778685Y-85090000D01*
X147681928Y-85090000D01*
X147685000Y-86074250D01*
X147843750Y-86233000D01*
X149733000Y-86233000D01*
X149733000Y-84613750D01*
X149987000Y-84613750D01*
X149987000Y-86233000D01*
X151876250Y-86233000D01*
X152035000Y-86074250D01*
X152038072Y-85090000D01*
X152025812Y-84965518D01*
X151989502Y-84845820D01*
X151930537Y-84735506D01*
X151851185Y-84638815D01*
X151754494Y-84559463D01*
X151644180Y-84500498D01*
X151524482Y-84464188D01*
X151400000Y-84451928D01*
X150145750Y-84455000D01*
X149987000Y-84613750D01*
X149733000Y-84613750D01*
X149574250Y-84455000D01*
X148320000Y-84451928D01*
X148195518Y-84464188D01*
X148075820Y-84500498D01*
X147965506Y-84559463D01*
X147868815Y-84638815D01*
X147789463Y-84735506D01*
X147730498Y-84845820D01*
X147694188Y-84965518D01*
X147681928Y-85090000D01*
X85778685Y-85090000D01*
X87118685Y-83750000D01*
X106111928Y-83750000D01*
X106124188Y-83874482D01*
X106160498Y-83994180D01*
X106219463Y-84104494D01*
X106298815Y-84201185D01*
X106395506Y-84280537D01*
X106505820Y-84339502D01*
X106625518Y-84375812D01*
X106750000Y-84388072D01*
X107664250Y-84385000D01*
X107823000Y-84226250D01*
X107823000Y-82677000D01*
X108077000Y-82677000D01*
X108077000Y-84226250D01*
X108235750Y-84385000D01*
X109150000Y-84388072D01*
X109274482Y-84375812D01*
X109394180Y-84339502D01*
X109504494Y-84280537D01*
X109601185Y-84201185D01*
X109680537Y-84104494D01*
X109739502Y-83994180D01*
X109775812Y-83874482D01*
X109788072Y-83750000D01*
X109785000Y-82835750D01*
X109626250Y-82677000D01*
X108077000Y-82677000D01*
X107823000Y-82677000D01*
X106273750Y-82677000D01*
X106115000Y-82835750D01*
X106111928Y-83750000D01*
X87118685Y-83750000D01*
X87291236Y-83577450D01*
X87344081Y-83534081D01*
X87517157Y-83323188D01*
X87645764Y-83082581D01*
X87710586Y-82868892D01*
X87724960Y-82821508D01*
X87728102Y-82789605D01*
X87745000Y-82618037D01*
X87745000Y-82618029D01*
X87751700Y-82550000D01*
X87745000Y-82481971D01*
X87745000Y-82183980D01*
X90341626Y-82183980D01*
X90461514Y-82468836D01*
X90785210Y-82629699D01*
X91134069Y-82724322D01*
X91494684Y-82749067D01*
X91853198Y-82702985D01*
X92195833Y-82587846D01*
X92418486Y-82468836D01*
X92538374Y-82183980D01*
X91440000Y-81085605D01*
X90341626Y-82183980D01*
X87745000Y-82183980D01*
X87745000Y-80960684D01*
X89596933Y-80960684D01*
X89643015Y-81319198D01*
X89758154Y-81661833D01*
X89877164Y-81884486D01*
X90162020Y-82004374D01*
X91260395Y-80906000D01*
X91619605Y-80906000D01*
X92717980Y-82004374D01*
X93002836Y-81884486D01*
X93163699Y-81560790D01*
X93220872Y-81350000D01*
X106111928Y-81350000D01*
X106115000Y-82264250D01*
X106273750Y-82423000D01*
X107823000Y-82423000D01*
X107823000Y-80873750D01*
X108077000Y-80873750D01*
X108077000Y-82423000D01*
X109626250Y-82423000D01*
X109785000Y-82264250D01*
X109788072Y-81350000D01*
X109775812Y-81225518D01*
X109739502Y-81105820D01*
X109680537Y-80995506D01*
X109601185Y-80898815D01*
X109504494Y-80819463D01*
X109394180Y-80760498D01*
X109274482Y-80724188D01*
X109150000Y-80711928D01*
X108235750Y-80715000D01*
X108077000Y-80873750D01*
X107823000Y-80873750D01*
X107664250Y-80715000D01*
X106750000Y-80711928D01*
X106625518Y-80724188D01*
X106505820Y-80760498D01*
X106395506Y-80819463D01*
X106298815Y-80898815D01*
X106219463Y-80995506D01*
X106160498Y-81105820D01*
X106124188Y-81225518D01*
X106111928Y-81350000D01*
X93220872Y-81350000D01*
X93258322Y-81211931D01*
X93283067Y-80851316D01*
X93236985Y-80492802D01*
X93121846Y-80150167D01*
X93002836Y-79927514D01*
X92717980Y-79807626D01*
X91619605Y-80906000D01*
X91260395Y-80906000D01*
X90162020Y-79807626D01*
X89877164Y-79927514D01*
X89716301Y-80251210D01*
X89621678Y-80600069D01*
X89596933Y-80960684D01*
X87745000Y-80960684D01*
X87745000Y-79628020D01*
X90341626Y-79628020D01*
X91440000Y-80726395D01*
X92538374Y-79628020D01*
X92418486Y-79343164D01*
X92094790Y-79182301D01*
X91745931Y-79087678D01*
X91385316Y-79062933D01*
X91026802Y-79109015D01*
X90684167Y-79224154D01*
X90461514Y-79343164D01*
X90341626Y-79628020D01*
X87745000Y-79628020D01*
X87745000Y-76359685D01*
X89313686Y-74791000D01*
X89632546Y-74791000D01*
X89650498Y-74850180D01*
X89709463Y-74960494D01*
X89788815Y-75057185D01*
X89885506Y-75136537D01*
X89995820Y-75195502D01*
X90115518Y-75231812D01*
X90240000Y-75244072D01*
X92640000Y-75244072D01*
X92764482Y-75231812D01*
X92884180Y-75195502D01*
X92994494Y-75136537D01*
X93091185Y-75057185D01*
X93170537Y-74960494D01*
X93229502Y-74850180D01*
X93247454Y-74791000D01*
X93566315Y-74791000D01*
X98446550Y-79671236D01*
X98489919Y-79724081D01*
X98542764Y-79767450D01*
X98542766Y-79767452D01*
X98621923Y-79832414D01*
X98700812Y-79897157D01*
X98941419Y-80025764D01*
X99202493Y-80104960D01*
X99405963Y-80125000D01*
X99405972Y-80125000D01*
X99473999Y-80131700D01*
X99542026Y-80125000D01*
X119146315Y-80125000D01*
X122502548Y-83481234D01*
X122545919Y-83534081D01*
X122598764Y-83577450D01*
X122598766Y-83577452D01*
X122677221Y-83641838D01*
X122756812Y-83707157D01*
X122997419Y-83835764D01*
X123258493Y-83914960D01*
X123461963Y-83935000D01*
X123461971Y-83935000D01*
X123530000Y-83941700D01*
X123598029Y-83935000D01*
X123922546Y-83935000D01*
X123940498Y-83994180D01*
X123999463Y-84104494D01*
X124078815Y-84201185D01*
X124175506Y-84280537D01*
X124285820Y-84339502D01*
X124405518Y-84375812D01*
X124530000Y-84388072D01*
X126930000Y-84388072D01*
X127054482Y-84375812D01*
X127174180Y-84339502D01*
X127284494Y-84280537D01*
X127381185Y-84201185D01*
X127460537Y-84104494D01*
X127519502Y-83994180D01*
X127555812Y-83874482D01*
X127568072Y-83750000D01*
X127568072Y-81350000D01*
X127555812Y-81225518D01*
X127519502Y-81105820D01*
X127460537Y-80995506D01*
X127381185Y-80898815D01*
X127284494Y-80819463D01*
X127174180Y-80760498D01*
X127054482Y-80724188D01*
X126930000Y-80711928D01*
X124530000Y-80711928D01*
X124405518Y-80724188D01*
X124285820Y-80760498D01*
X124175506Y-80819463D01*
X124078815Y-80898815D01*
X123999463Y-80995506D01*
X123976727Y-81038041D01*
X120747454Y-77808769D01*
X120704081Y-77755919D01*
X120493188Y-77582843D01*
X120252581Y-77454236D01*
X119991507Y-77375040D01*
X119788037Y-77355000D01*
X119788029Y-77355000D01*
X119720000Y-77348300D01*
X119651971Y-77355000D01*
X100047686Y-77355000D01*
X95167454Y-72474769D01*
X95124081Y-72421919D01*
X94913188Y-72248843D01*
X94672581Y-72120236D01*
X94411507Y-72041040D01*
X94208037Y-72021000D01*
X94208029Y-72021000D01*
X94140000Y-72014300D01*
X94071971Y-72021000D01*
X93247454Y-72021000D01*
X93229502Y-71961820D01*
X93170537Y-71851506D01*
X93091185Y-71754815D01*
X92994494Y-71675463D01*
X92884180Y-71616498D01*
X92825000Y-71598546D01*
X92825000Y-68648026D01*
X92831700Y-68579999D01*
X92825000Y-68511972D01*
X92825000Y-68511963D01*
X92804960Y-68308493D01*
X92725764Y-68047419D01*
X92597157Y-67806812D01*
X92424081Y-67595919D01*
X92371231Y-67552546D01*
X90285000Y-65466315D01*
X90285000Y-59577239D01*
X90397748Y-59689987D01*
X90665537Y-59868918D01*
X90963088Y-59992168D01*
X91278967Y-60055000D01*
X91601033Y-60055000D01*
X91916912Y-59992168D01*
X92214463Y-59868918D01*
X92424809Y-59728370D01*
X92449463Y-59774494D01*
X92528815Y-59871185D01*
X92595000Y-59925502D01*
X92595001Y-64701961D01*
X92588300Y-64770000D01*
X92615040Y-65041507D01*
X92694236Y-65302580D01*
X92822844Y-65543188D01*
X92952548Y-65701233D01*
X92952551Y-65701236D01*
X92995920Y-65754081D01*
X93048765Y-65797450D01*
X95492546Y-68241231D01*
X95535919Y-68294081D01*
X95746812Y-68467157D01*
X95987419Y-68595764D01*
X96248493Y-68674960D01*
X96451963Y-68695000D01*
X96451972Y-68695000D01*
X96519999Y-68701700D01*
X96588026Y-68695000D01*
X111591314Y-68695000D01*
X110828764Y-69457551D01*
X110775920Y-69500919D01*
X110732551Y-69553764D01*
X110732548Y-69553767D01*
X110602844Y-69711812D01*
X110474236Y-69952420D01*
X110395040Y-70213493D01*
X110368300Y-70485000D01*
X110375001Y-70553039D01*
X110375000Y-72607397D01*
X110370498Y-72615820D01*
X110334188Y-72735518D01*
X110321928Y-72860000D01*
X110321928Y-74460000D01*
X110334188Y-74584482D01*
X110370498Y-74704180D01*
X110429463Y-74814494D01*
X110508815Y-74911185D01*
X110605506Y-74990537D01*
X110715820Y-75049502D01*
X110835518Y-75085812D01*
X110960000Y-75098072D01*
X112560000Y-75098072D01*
X112684482Y-75085812D01*
X112804180Y-75049502D01*
X112914494Y-74990537D01*
X113011185Y-74911185D01*
X113090537Y-74814494D01*
X113149502Y-74704180D01*
X113165117Y-74652702D01*
X113446903Y-74652702D01*
X113518486Y-74896671D01*
X113773996Y-75017571D01*
X114048184Y-75086300D01*
X114330512Y-75100217D01*
X114610130Y-75058787D01*
X114876292Y-74963603D01*
X115001514Y-74896671D01*
X115073097Y-74652702D01*
X118606903Y-74652702D01*
X118678486Y-74896671D01*
X118933996Y-75017571D01*
X119208184Y-75086300D01*
X119490512Y-75100217D01*
X119770130Y-75058787D01*
X120036292Y-74963603D01*
X120161514Y-74896671D01*
X120233097Y-74652702D01*
X119420000Y-73839605D01*
X118606903Y-74652702D01*
X115073097Y-74652702D01*
X114260000Y-73839605D01*
X113446903Y-74652702D01*
X113165117Y-74652702D01*
X113185812Y-74584482D01*
X113198072Y-74460000D01*
X113198072Y-74452785D01*
X113267298Y-74473097D01*
X114080395Y-73660000D01*
X114439605Y-73660000D01*
X115252702Y-74473097D01*
X115496671Y-74401514D01*
X115617571Y-74146004D01*
X115686300Y-73871816D01*
X115693265Y-73730512D01*
X117979783Y-73730512D01*
X118021213Y-74010130D01*
X118116397Y-74276292D01*
X118183329Y-74401514D01*
X118427298Y-74473097D01*
X119240395Y-73660000D01*
X119599605Y-73660000D01*
X120412702Y-74473097D01*
X120481928Y-74452785D01*
X120481928Y-74460000D01*
X120494188Y-74584482D01*
X120530498Y-74704180D01*
X120589463Y-74814494D01*
X120668815Y-74911185D01*
X120765506Y-74990537D01*
X120875820Y-75049502D01*
X120995518Y-75085812D01*
X121120000Y-75098072D01*
X122720000Y-75098072D01*
X122844482Y-75085812D01*
X122964180Y-75049502D01*
X122972603Y-75045000D01*
X127566964Y-75045000D01*
X127635000Y-75051701D01*
X127703037Y-75045000D01*
X130316315Y-75045000D01*
X131965000Y-76693686D01*
X131965001Y-78780294D01*
X131958300Y-78848333D01*
X131985040Y-79119840D01*
X132064236Y-79380913D01*
X132192844Y-79621521D01*
X132322548Y-79779566D01*
X132322551Y-79779569D01*
X132365920Y-79832414D01*
X132418764Y-79875782D01*
X135713690Y-83170709D01*
X135804701Y-83390428D01*
X135972688Y-83641838D01*
X136186495Y-83855645D01*
X136437905Y-84023632D01*
X136717257Y-84139344D01*
X137013816Y-84198333D01*
X137316184Y-84198333D01*
X137612743Y-84139344D01*
X137892095Y-84023632D01*
X138143505Y-83855645D01*
X138209944Y-83789206D01*
X138215498Y-83807513D01*
X138274463Y-83917827D01*
X138353815Y-84014518D01*
X138450506Y-84093870D01*
X138560820Y-84152835D01*
X138680518Y-84189145D01*
X138805000Y-84201405D01*
X140605000Y-84201405D01*
X140729482Y-84189145D01*
X140849180Y-84152835D01*
X140959494Y-84093870D01*
X141056185Y-84014518D01*
X141135537Y-83917827D01*
X141194502Y-83807513D01*
X141230812Y-83687815D01*
X141243072Y-83563333D01*
X141243072Y-82550000D01*
X147681928Y-82550000D01*
X147694188Y-82674482D01*
X147730498Y-82794180D01*
X147789463Y-82904494D01*
X147868815Y-83001185D01*
X147965506Y-83080537D01*
X148075820Y-83139502D01*
X148195518Y-83175812D01*
X148320000Y-83188072D01*
X149574250Y-83185000D01*
X149733000Y-83026250D01*
X149733000Y-81407000D01*
X149987000Y-81407000D01*
X149987000Y-83026250D01*
X150145750Y-83185000D01*
X151400000Y-83188072D01*
X151524482Y-83175812D01*
X151644180Y-83139502D01*
X151754494Y-83080537D01*
X151851185Y-83001185D01*
X151930537Y-82904494D01*
X151989502Y-82794180D01*
X152025812Y-82674482D01*
X152038072Y-82550000D01*
X152035000Y-81565750D01*
X151876250Y-81407000D01*
X149987000Y-81407000D01*
X149733000Y-81407000D01*
X147843750Y-81407000D01*
X147685000Y-81565750D01*
X147681928Y-82550000D01*
X141243072Y-82550000D01*
X141243072Y-81763333D01*
X141230812Y-81638851D01*
X141194502Y-81519153D01*
X141135537Y-81408839D01*
X141090000Y-81353352D01*
X141090000Y-80010000D01*
X147681928Y-80010000D01*
X147685000Y-80994250D01*
X147843750Y-81153000D01*
X149733000Y-81153000D01*
X149733000Y-79533750D01*
X149987000Y-79533750D01*
X149987000Y-81153000D01*
X151876250Y-81153000D01*
X152035000Y-80994250D01*
X152038072Y-80010000D01*
X152025812Y-79885518D01*
X151989502Y-79765820D01*
X151930537Y-79655506D01*
X151851185Y-79558815D01*
X151754494Y-79479463D01*
X151644180Y-79420498D01*
X151524482Y-79384188D01*
X151400000Y-79371928D01*
X150145750Y-79375000D01*
X149987000Y-79533750D01*
X149733000Y-79533750D01*
X149574250Y-79375000D01*
X148320000Y-79371928D01*
X148195518Y-79384188D01*
X148075820Y-79420498D01*
X147965506Y-79479463D01*
X147868815Y-79558815D01*
X147789463Y-79655506D01*
X147730498Y-79765820D01*
X147694188Y-79885518D01*
X147681928Y-80010000D01*
X141090000Y-80010000D01*
X141090000Y-78813026D01*
X141096700Y-78744999D01*
X141090000Y-78676972D01*
X141090000Y-78676963D01*
X141069960Y-78473493D01*
X140990764Y-78212419D01*
X140862157Y-77971812D01*
X140793845Y-77888574D01*
X140732452Y-77813766D01*
X140732445Y-77813759D01*
X140689080Y-77760919D01*
X140636241Y-77717555D01*
X139687024Y-76768339D01*
X139544637Y-76555241D01*
X139344759Y-76355363D01*
X139109727Y-76198320D01*
X138848574Y-76090147D01*
X138571335Y-76035000D01*
X138288665Y-76035000D01*
X138011426Y-76090147D01*
X137750273Y-76198320D01*
X137515241Y-76355363D01*
X137315363Y-76555241D01*
X137158320Y-76790273D01*
X137050147Y-77051426D01*
X136995000Y-77328665D01*
X136995000Y-77611335D01*
X137050147Y-77888574D01*
X137158320Y-78149727D01*
X137315363Y-78384759D01*
X137515241Y-78584637D01*
X137728339Y-78727024D01*
X138320000Y-79318686D01*
X138320001Y-81353351D01*
X138274463Y-81408839D01*
X138215498Y-81519153D01*
X138209944Y-81537460D01*
X138143505Y-81471021D01*
X137892095Y-81303034D01*
X137672376Y-81212023D01*
X134735000Y-78274648D01*
X134735000Y-76512699D01*
X134785000Y-76261335D01*
X134785000Y-75978665D01*
X134729853Y-75701426D01*
X134621680Y-75440273D01*
X134464637Y-75205241D01*
X134264759Y-75005363D01*
X134051663Y-74862977D01*
X131917454Y-72728769D01*
X131874081Y-72675919D01*
X131663188Y-72502843D01*
X131422581Y-72374236D01*
X131161507Y-72295040D01*
X130958037Y-72275000D01*
X130958029Y-72275000D01*
X130890000Y-72268300D01*
X130821971Y-72275000D01*
X129020000Y-72275000D01*
X129020000Y-70978665D01*
X131915000Y-70978665D01*
X131915000Y-71261335D01*
X131970147Y-71538574D01*
X132078320Y-71799727D01*
X132235363Y-72034759D01*
X132435241Y-72234637D01*
X132648340Y-72377025D01*
X134862546Y-74591231D01*
X134905919Y-74644081D01*
X135116812Y-74817157D01*
X135357419Y-74945764D01*
X135618493Y-75024960D01*
X135821963Y-75045000D01*
X135821972Y-75045000D01*
X135889999Y-75051700D01*
X135958026Y-75045000D01*
X147931538Y-75045000D01*
X148054802Y-75195198D01*
X148247719Y-75353521D01*
X148467816Y-75471165D01*
X148706636Y-75543610D01*
X148955000Y-75568072D01*
X150765000Y-75568072D01*
X151013364Y-75543610D01*
X151252184Y-75471165D01*
X151472281Y-75353521D01*
X151665198Y-75195198D01*
X151823521Y-75002281D01*
X151941165Y-74782184D01*
X152013610Y-74543364D01*
X152038072Y-74295000D01*
X152038072Y-73025000D01*
X152013610Y-72776636D01*
X151941165Y-72537816D01*
X151823521Y-72317719D01*
X151665198Y-72124802D01*
X151472281Y-71966479D01*
X151252184Y-71848835D01*
X151245000Y-71846656D01*
X151245000Y-70393344D01*
X151252184Y-70391165D01*
X151472281Y-70273521D01*
X151665198Y-70115198D01*
X151823521Y-69922281D01*
X151941165Y-69702184D01*
X152013610Y-69463364D01*
X152038072Y-69215000D01*
X152038072Y-67945000D01*
X152013610Y-67696636D01*
X151941165Y-67457816D01*
X151823521Y-67237719D01*
X151665198Y-67044802D01*
X151472281Y-66886479D01*
X151252184Y-66768835D01*
X151245000Y-66766656D01*
X151245000Y-65313344D01*
X151252184Y-65311165D01*
X151472281Y-65193521D01*
X151665198Y-65035198D01*
X151823521Y-64842281D01*
X151941165Y-64622184D01*
X152013610Y-64383364D01*
X152038072Y-64135000D01*
X152038072Y-62865000D01*
X152013610Y-62616636D01*
X151941165Y-62377816D01*
X151823521Y-62157719D01*
X151665198Y-61964802D01*
X151472281Y-61806479D01*
X151252184Y-61688835D01*
X151013364Y-61616390D01*
X150765000Y-61591928D01*
X148955000Y-61591928D01*
X148706636Y-61616390D01*
X148467816Y-61688835D01*
X148247719Y-61806479D01*
X148054802Y-61964802D01*
X147896479Y-62157719D01*
X147778835Y-62377816D01*
X147706390Y-62616636D01*
X147681928Y-62865000D01*
X147681928Y-64135000D01*
X147706390Y-64383364D01*
X147778835Y-64622184D01*
X147896479Y-64842281D01*
X148054802Y-65035198D01*
X148247719Y-65193521D01*
X148467816Y-65311165D01*
X148475000Y-65313344D01*
X148475001Y-66766656D01*
X148467816Y-66768835D01*
X148247719Y-66886479D01*
X148054802Y-67044802D01*
X147896479Y-67237719D01*
X147778835Y-67457816D01*
X147706390Y-67696636D01*
X147681928Y-67945000D01*
X147681928Y-69215000D01*
X147706390Y-69463364D01*
X147778835Y-69702184D01*
X147896479Y-69922281D01*
X148054802Y-70115198D01*
X148247719Y-70273521D01*
X148467816Y-70391165D01*
X148475000Y-70393344D01*
X148475001Y-71846656D01*
X148467816Y-71848835D01*
X148247719Y-71966479D01*
X148054802Y-72124802D01*
X147931538Y-72275000D01*
X136463685Y-72275000D01*
X134607025Y-70418340D01*
X134464637Y-70205241D01*
X134458436Y-70199040D01*
X137038091Y-70199040D01*
X137132930Y-70463881D01*
X137277615Y-70705131D01*
X137466586Y-70913519D01*
X137692580Y-71081037D01*
X137946913Y-71201246D01*
X138080961Y-71241904D01*
X138303000Y-71119915D01*
X138303000Y-69977000D01*
X138557000Y-69977000D01*
X138557000Y-71119915D01*
X138779039Y-71241904D01*
X138913087Y-71201246D01*
X139167420Y-71081037D01*
X139393414Y-70913519D01*
X139582385Y-70705131D01*
X139727070Y-70463881D01*
X139821909Y-70199040D01*
X139700624Y-69977000D01*
X138557000Y-69977000D01*
X138303000Y-69977000D01*
X137159376Y-69977000D01*
X137038091Y-70199040D01*
X134458436Y-70199040D01*
X134264759Y-70005363D01*
X134029727Y-69848320D01*
X133768574Y-69740147D01*
X133491335Y-69685000D01*
X133208665Y-69685000D01*
X132931426Y-69740147D01*
X132670273Y-69848320D01*
X132435241Y-70005363D01*
X132235363Y-70205241D01*
X132078320Y-70440273D01*
X131970147Y-70701426D01*
X131915000Y-70978665D01*
X129020000Y-70978665D01*
X129020000Y-69788685D01*
X129307725Y-69500960D01*
X137038091Y-69500960D01*
X137159376Y-69723000D01*
X138303000Y-69723000D01*
X138303000Y-68580085D01*
X138557000Y-68580085D01*
X138557000Y-69723000D01*
X139700624Y-69723000D01*
X139821909Y-69500960D01*
X139727070Y-69236119D01*
X139582385Y-68994869D01*
X139393414Y-68786481D01*
X139167420Y-68618963D01*
X138913087Y-68498754D01*
X138779039Y-68458096D01*
X138557000Y-68580085D01*
X138303000Y-68580085D01*
X138080961Y-68458096D01*
X137946913Y-68498754D01*
X137692580Y-68618963D01*
X137466586Y-68786481D01*
X137277615Y-68994869D01*
X137132930Y-69236119D01*
X137038091Y-69500960D01*
X129307725Y-69500960D01*
X130113686Y-68695000D01*
X132139918Y-68695000D01*
X132180256Y-68735338D01*
X132480801Y-68936156D01*
X132814750Y-69074482D01*
X133169268Y-69145000D01*
X133530732Y-69145000D01*
X133885250Y-69074482D01*
X134219199Y-68936156D01*
X134519744Y-68735338D01*
X134775338Y-68479744D01*
X134976156Y-68179199D01*
X135114482Y-67845250D01*
X135185000Y-67490732D01*
X135185000Y-67129268D01*
X135114482Y-66774750D01*
X134976156Y-66440801D01*
X134775338Y-66140256D01*
X134519744Y-65884662D01*
X134219199Y-65683844D01*
X133885250Y-65545518D01*
X133530732Y-65475000D01*
X133169268Y-65475000D01*
X132814750Y-65545518D01*
X132480801Y-65683844D01*
X132180256Y-65884662D01*
X132139918Y-65925000D01*
X129608029Y-65925000D01*
X129540000Y-65918300D01*
X129471971Y-65925000D01*
X129471963Y-65925000D01*
X129268493Y-65945040D01*
X129007419Y-66024236D01*
X128766812Y-66152843D01*
X128608766Y-66282548D01*
X128608764Y-66282550D01*
X128555919Y-66325919D01*
X128512550Y-66378764D01*
X126703767Y-68187548D01*
X126650919Y-68230920D01*
X126607550Y-68283765D01*
X126607548Y-68283767D01*
X126563491Y-68337451D01*
X126477843Y-68441813D01*
X126349236Y-68682420D01*
X126270040Y-68943494D01*
X126250000Y-69146964D01*
X126250000Y-69146971D01*
X126243300Y-69215000D01*
X126250000Y-69283029D01*
X126250001Y-72275000D01*
X122972603Y-72275000D01*
X122964180Y-72270498D01*
X122844482Y-72234188D01*
X122720000Y-72221928D01*
X121120000Y-72221928D01*
X120995518Y-72234188D01*
X120875820Y-72270498D01*
X120765506Y-72329463D01*
X120668815Y-72408815D01*
X120589463Y-72505506D01*
X120530498Y-72615820D01*
X120494188Y-72735518D01*
X120481928Y-72860000D01*
X120481928Y-72867215D01*
X120412702Y-72846903D01*
X119599605Y-73660000D01*
X119240395Y-73660000D01*
X118427298Y-72846903D01*
X118183329Y-72918486D01*
X118062429Y-73173996D01*
X117993700Y-73448184D01*
X117979783Y-73730512D01*
X115693265Y-73730512D01*
X115700217Y-73589488D01*
X115658787Y-73309870D01*
X115563603Y-73043708D01*
X115496671Y-72918486D01*
X115252702Y-72846903D01*
X114439605Y-73660000D01*
X114080395Y-73660000D01*
X113267298Y-72846903D01*
X113198072Y-72867215D01*
X113198072Y-72860000D01*
X113185812Y-72735518D01*
X113165118Y-72667298D01*
X113446903Y-72667298D01*
X114260000Y-73480395D01*
X115073097Y-72667298D01*
X118606903Y-72667298D01*
X119420000Y-73480395D01*
X120233097Y-72667298D01*
X120161514Y-72423329D01*
X119906004Y-72302429D01*
X119631816Y-72233700D01*
X119349488Y-72219783D01*
X119069870Y-72261213D01*
X118803708Y-72356397D01*
X118678486Y-72423329D01*
X118606903Y-72667298D01*
X115073097Y-72667298D01*
X115001514Y-72423329D01*
X114746004Y-72302429D01*
X114471816Y-72233700D01*
X114189488Y-72219783D01*
X113909870Y-72261213D01*
X113643708Y-72356397D01*
X113518486Y-72423329D01*
X113446903Y-72667298D01*
X113165118Y-72667298D01*
X113149502Y-72615820D01*
X113145000Y-72607397D01*
X113145000Y-71058685D01*
X113961241Y-70242445D01*
X114014080Y-70199081D01*
X114057445Y-70146241D01*
X114057452Y-70146234D01*
X114187156Y-69988189D01*
X114187157Y-69988188D01*
X114315764Y-69747581D01*
X114394960Y-69486507D01*
X114415000Y-69283037D01*
X114415000Y-69283028D01*
X114421700Y-69215001D01*
X114415000Y-69146974D01*
X114415000Y-68695000D01*
X116905100Y-68695000D01*
X117085596Y-68843129D01*
X117404378Y-69013521D01*
X117750277Y-69118448D01*
X118019861Y-69145000D01*
X118200139Y-69145000D01*
X118469723Y-69118448D01*
X118815622Y-69013521D01*
X119134404Y-68843129D01*
X119413819Y-68613819D01*
X119643129Y-68334404D01*
X119813521Y-68015622D01*
X119918448Y-67669723D01*
X119953878Y-67310000D01*
X119918448Y-66950277D01*
X119813521Y-66604378D01*
X119643129Y-66285596D01*
X119413819Y-66006181D01*
X119134404Y-65776871D01*
X118815622Y-65606479D01*
X118469723Y-65501552D01*
X118200139Y-65475000D01*
X118019861Y-65475000D01*
X117750277Y-65501552D01*
X117404378Y-65606479D01*
X117085596Y-65776871D01*
X116905100Y-65925000D01*
X114415000Y-65925000D01*
X114415000Y-64701963D01*
X114394960Y-64498493D01*
X114315764Y-64237419D01*
X114187157Y-63996812D01*
X114014080Y-63785919D01*
X113805815Y-63615000D01*
X116899918Y-63615000D01*
X116940256Y-63655338D01*
X117240801Y-63856156D01*
X117574750Y-63994482D01*
X117929268Y-64065000D01*
X118290732Y-64065000D01*
X118645250Y-63994482D01*
X118979199Y-63856156D01*
X119279744Y-63655338D01*
X119535338Y-63399744D01*
X119736156Y-63099199D01*
X119874482Y-62765250D01*
X119899036Y-62641805D01*
X131561805Y-62641805D01*
X131634379Y-62881066D01*
X131794361Y-63203257D01*
X132014125Y-63488046D01*
X132285226Y-63724489D01*
X132597246Y-63903500D01*
X132938194Y-64018199D01*
X133223000Y-63901854D01*
X133223000Y-62357000D01*
X133477000Y-62357000D01*
X133477000Y-63901854D01*
X133761806Y-64018199D01*
X134102754Y-63903500D01*
X134414774Y-63724489D01*
X134685875Y-63488046D01*
X134905639Y-63203257D01*
X134926282Y-63161682D01*
X136265000Y-63161682D01*
X136265000Y-63838318D01*
X136397006Y-64501952D01*
X136655943Y-65127082D01*
X137031862Y-65689685D01*
X137510315Y-66168138D01*
X138072918Y-66544057D01*
X138698048Y-66802994D01*
X139361682Y-66935000D01*
X140038318Y-66935000D01*
X140701952Y-66802994D01*
X141327082Y-66544057D01*
X141889685Y-66168138D01*
X142368138Y-65689685D01*
X142744057Y-65127082D01*
X143002994Y-64501952D01*
X143135000Y-63838318D01*
X143135000Y-63161682D01*
X143002994Y-62498048D01*
X142744057Y-61872918D01*
X142368138Y-61310315D01*
X141889685Y-60831862D01*
X141327082Y-60455943D01*
X140701952Y-60197006D01*
X140038318Y-60065000D01*
X139361682Y-60065000D01*
X138698048Y-60197006D01*
X138072918Y-60455943D01*
X137510315Y-60831862D01*
X137031862Y-61310315D01*
X136655943Y-61872918D01*
X136397006Y-62498048D01*
X136265000Y-63161682D01*
X134926282Y-63161682D01*
X135065621Y-62881066D01*
X135138195Y-62641805D01*
X135021432Y-62357000D01*
X133477000Y-62357000D01*
X133223000Y-62357000D01*
X131678568Y-62357000D01*
X131561805Y-62641805D01*
X119899036Y-62641805D01*
X119945000Y-62410732D01*
X119945000Y-62049268D01*
X119899037Y-61818195D01*
X131561805Y-61818195D01*
X131678568Y-62103000D01*
X133223000Y-62103000D01*
X133223000Y-60558146D01*
X133477000Y-60558146D01*
X133477000Y-62103000D01*
X135021432Y-62103000D01*
X135138195Y-61818195D01*
X135065621Y-61578934D01*
X134905639Y-61256743D01*
X134685875Y-60971954D01*
X134414774Y-60735511D01*
X134102754Y-60556500D01*
X133761806Y-60441801D01*
X133477000Y-60558146D01*
X133223000Y-60558146D01*
X132938194Y-60441801D01*
X132597246Y-60556500D01*
X132285226Y-60735511D01*
X132014125Y-60971954D01*
X131794361Y-61256743D01*
X131634379Y-61578934D01*
X131561805Y-61818195D01*
X119899037Y-61818195D01*
X119874482Y-61694750D01*
X119736156Y-61360801D01*
X119535338Y-61060256D01*
X119279744Y-60804662D01*
X118979199Y-60603844D01*
X118645250Y-60465518D01*
X118290732Y-60395000D01*
X117929268Y-60395000D01*
X117574750Y-60465518D01*
X117240801Y-60603844D01*
X116940256Y-60804662D01*
X116899918Y-60845000D01*
X112961963Y-60845000D01*
X112758493Y-60865040D01*
X112497419Y-60944236D01*
X112256812Y-61072843D01*
X112045919Y-61245919D01*
X111872843Y-61456812D01*
X111744236Y-61697419D01*
X111665040Y-61958493D01*
X111638299Y-62230000D01*
X111665040Y-62501507D01*
X111744236Y-62762581D01*
X111872843Y-63003188D01*
X112045919Y-63214081D01*
X112256812Y-63387157D01*
X112467927Y-63500000D01*
X112256812Y-63612843D01*
X112045919Y-63785920D01*
X111872843Y-63996813D01*
X111744236Y-64237420D01*
X111665040Y-64498494D01*
X111645000Y-64701964D01*
X111645000Y-65925000D01*
X97093685Y-65925000D01*
X95365000Y-64196315D01*
X95365000Y-61970475D01*
X101505000Y-61970475D01*
X101505000Y-62489525D01*
X101606261Y-62998601D01*
X101804893Y-63478141D01*
X102093262Y-63909715D01*
X102460285Y-64276738D01*
X102891859Y-64565107D01*
X103371399Y-64763739D01*
X103880475Y-64865000D01*
X104399525Y-64865000D01*
X104908601Y-64763739D01*
X105388141Y-64565107D01*
X105819715Y-64276738D01*
X106186738Y-63909715D01*
X106475107Y-63478141D01*
X106673739Y-62998601D01*
X106775000Y-62489525D01*
X106775000Y-61970475D01*
X106673739Y-61461399D01*
X106475107Y-60981859D01*
X106186738Y-60550285D01*
X105819715Y-60183262D01*
X105388141Y-59894893D01*
X104908601Y-59696261D01*
X104399525Y-59595000D01*
X103880475Y-59595000D01*
X103371399Y-59696261D01*
X102891859Y-59894893D01*
X102460285Y-60183262D01*
X102093262Y-60550285D01*
X101804893Y-60981859D01*
X101606261Y-61461399D01*
X101505000Y-61970475D01*
X95365000Y-61970475D01*
X95365000Y-59925501D01*
X95431185Y-59871185D01*
X95510537Y-59774494D01*
X95569502Y-59664180D01*
X95605812Y-59544482D01*
X95618072Y-59420000D01*
X95618072Y-57420000D01*
X95605812Y-57295518D01*
X95569502Y-57175820D01*
X95510537Y-57065506D01*
X95431185Y-56968815D01*
X95334494Y-56889463D01*
X95224180Y-56830498D01*
X95104482Y-56794188D01*
X94980000Y-56781928D01*
X92980000Y-56781928D01*
X92855518Y-56794188D01*
X92735820Y-56830498D01*
X92625506Y-56889463D01*
X92528815Y-56968815D01*
X92449463Y-57065506D01*
X92424809Y-57111630D01*
X92214463Y-56971082D01*
X91916912Y-56847832D01*
X91601033Y-56785000D01*
X91278967Y-56785000D01*
X90963088Y-56847832D01*
X90665537Y-56971082D01*
X90397748Y-57150013D01*
X90170013Y-57377748D01*
X90170000Y-57377767D01*
X90169987Y-57377748D01*
X89942252Y-57150013D01*
X89674463Y-56971082D01*
X89376912Y-56847832D01*
X89061033Y-56785000D01*
X88738967Y-56785000D01*
X88423088Y-56847832D01*
X88125537Y-56971082D01*
X87857748Y-57150013D01*
X87630013Y-57377748D01*
X87451082Y-57645537D01*
X87327832Y-57943088D01*
X87265000Y-58258967D01*
X87265000Y-58581033D01*
X87327832Y-58896912D01*
X87451082Y-59194463D01*
X87515001Y-59290124D01*
X87515000Y-62136563D01*
X87515000Y-62136564D01*
X87515001Y-65971961D01*
X87508300Y-66040000D01*
X87535040Y-66311507D01*
X87614236Y-66572580D01*
X87742844Y-66813188D01*
X87872548Y-66971233D01*
X87872551Y-66971236D01*
X87915920Y-67024081D01*
X87968765Y-67067450D01*
X90055001Y-69153686D01*
X90055000Y-71598546D01*
X89995820Y-71616498D01*
X89885506Y-71675463D01*
X89788815Y-71754815D01*
X89709463Y-71851506D01*
X89650498Y-71961820D01*
X89632546Y-72021000D01*
X88808026Y-72021000D01*
X88739999Y-72014300D01*
X88671972Y-72021000D01*
X88671963Y-72021000D01*
X88468493Y-72041040D01*
X88207419Y-72120236D01*
X87966812Y-72248843D01*
X87966810Y-72248844D01*
X87966811Y-72248844D01*
X87808766Y-72378548D01*
X87808764Y-72378550D01*
X87755919Y-72421919D01*
X87712550Y-72474764D01*
X85428765Y-74758550D01*
X85375919Y-74801920D01*
X85332550Y-74854765D01*
X85332548Y-74854767D01*
X85286247Y-74911185D01*
X85202843Y-75012813D01*
X85117322Y-75172812D01*
X85074236Y-75253420D01*
X85008184Y-75471165D01*
X84995040Y-75514494D01*
X84975000Y-75717964D01*
X84975000Y-75717971D01*
X84968300Y-75786000D01*
X84975000Y-75854029D01*
X84975001Y-81976313D01*
X81280000Y-85671315D01*
X81037454Y-85428769D01*
X80994081Y-85375919D01*
X80783188Y-85202843D01*
X80542581Y-85074236D01*
X80281507Y-84995040D01*
X80078037Y-84975000D01*
X80078029Y-84975000D01*
X80010000Y-84968300D01*
X79941971Y-84975000D01*
X75503686Y-84975000D01*
X74274099Y-83745413D01*
X76564992Y-83745413D01*
X76660756Y-84009814D01*
X76950371Y-84150704D01*
X77261908Y-84232384D01*
X77583395Y-84251718D01*
X77902475Y-84207961D01*
X78206888Y-84102795D01*
X78380844Y-84009814D01*
X78476608Y-83745413D01*
X80324192Y-83745413D01*
X80419956Y-84009814D01*
X80709571Y-84150704D01*
X81021108Y-84232384D01*
X81342595Y-84251718D01*
X81661675Y-84207961D01*
X81966088Y-84102795D01*
X82140044Y-84009814D01*
X82235808Y-83745413D01*
X81280000Y-82789605D01*
X80324192Y-83745413D01*
X78476608Y-83745413D01*
X77520800Y-82789605D01*
X76564992Y-83745413D01*
X74274099Y-83745413D01*
X73201281Y-82672595D01*
X75879082Y-82672595D01*
X75922839Y-82991675D01*
X76028005Y-83296088D01*
X76120986Y-83470044D01*
X76385387Y-83565808D01*
X77341195Y-82610000D01*
X77700405Y-82610000D01*
X78656213Y-83565808D01*
X78920614Y-83470044D01*
X79061504Y-83180429D01*
X79143184Y-82868892D01*
X79154989Y-82672595D01*
X79638282Y-82672595D01*
X79682039Y-82991675D01*
X79787205Y-83296088D01*
X79880186Y-83470044D01*
X80144587Y-83565808D01*
X81100395Y-82610000D01*
X81459605Y-82610000D01*
X82415413Y-83565808D01*
X82679814Y-83470044D01*
X82820704Y-83180429D01*
X82902384Y-82868892D01*
X82921718Y-82547405D01*
X82877961Y-82228325D01*
X82772795Y-81923912D01*
X82679814Y-81749956D01*
X82415413Y-81654192D01*
X81459605Y-82610000D01*
X81100395Y-82610000D01*
X80144587Y-81654192D01*
X79880186Y-81749956D01*
X79739296Y-82039571D01*
X79657616Y-82351108D01*
X79638282Y-82672595D01*
X79154989Y-82672595D01*
X79162518Y-82547405D01*
X79118761Y-82228325D01*
X79013595Y-81923912D01*
X78920614Y-81749956D01*
X78656213Y-81654192D01*
X77700405Y-82610000D01*
X77341195Y-82610000D01*
X76385387Y-81654192D01*
X76120986Y-81749956D01*
X75980096Y-82039571D01*
X75898416Y-82351108D01*
X75879082Y-82672595D01*
X73201281Y-82672595D01*
X72028072Y-81499387D01*
X72028072Y-81474587D01*
X76564992Y-81474587D01*
X77520800Y-82430395D01*
X78476608Y-81474587D01*
X80324192Y-81474587D01*
X81280000Y-82430395D01*
X82235808Y-81474587D01*
X82140044Y-81210186D01*
X81850429Y-81069296D01*
X81538892Y-80987616D01*
X81217405Y-80968282D01*
X80898325Y-81012039D01*
X80593912Y-81117205D01*
X80419956Y-81210186D01*
X80324192Y-81474587D01*
X78476608Y-81474587D01*
X78380844Y-81210186D01*
X78091229Y-81069296D01*
X77779692Y-80987616D01*
X77458205Y-80968282D01*
X77139125Y-81012039D01*
X76834712Y-81117205D01*
X76660756Y-81210186D01*
X76564992Y-81474587D01*
X72028072Y-81474587D01*
X72028072Y-80645000D01*
X72003610Y-80396636D01*
X71931165Y-80157816D01*
X71813521Y-79937719D01*
X71655198Y-79744802D01*
X71462281Y-79586479D01*
X71242184Y-79468835D01*
X71235000Y-79466656D01*
X71235000Y-76014026D01*
X71241700Y-75945999D01*
X71235000Y-75877972D01*
X71235000Y-75877963D01*
X71214960Y-75674493D01*
X71135764Y-75413419D01*
X71007157Y-75172812D01*
X70834081Y-74961919D01*
X70781231Y-74918546D01*
X69268685Y-73406000D01*
X78166122Y-73406000D01*
X78201552Y-73765723D01*
X78306479Y-74111622D01*
X78476871Y-74430404D01*
X78706181Y-74709819D01*
X78985596Y-74939129D01*
X79304378Y-75109521D01*
X79650277Y-75214448D01*
X79919861Y-75241000D01*
X80100139Y-75241000D01*
X80369723Y-75214448D01*
X80715622Y-75109521D01*
X81034404Y-74939129D01*
X81313819Y-74709819D01*
X81543129Y-74430404D01*
X81713521Y-74111622D01*
X81818448Y-73765723D01*
X81853878Y-73406000D01*
X81818448Y-73046277D01*
X81713521Y-72700378D01*
X81543129Y-72381596D01*
X81313819Y-72102181D01*
X81034404Y-71872871D01*
X80715622Y-71702479D01*
X80369723Y-71597552D01*
X80100139Y-71571000D01*
X79919861Y-71571000D01*
X79650277Y-71597552D01*
X79304378Y-71702479D01*
X78985596Y-71872871D01*
X78706181Y-72102181D01*
X78476871Y-72381596D01*
X78306479Y-72700378D01*
X78201552Y-73046277D01*
X78166122Y-73406000D01*
X69268685Y-73406000D01*
X69148072Y-73285387D01*
X69148072Y-72206000D01*
X69135812Y-72081518D01*
X69099502Y-71961820D01*
X69040537Y-71851506D01*
X68961185Y-71754815D01*
X68864494Y-71675463D01*
X68754180Y-71616498D01*
X68634482Y-71580188D01*
X68510000Y-71567928D01*
X66110000Y-71567928D01*
X65985518Y-71580188D01*
X65865820Y-71616498D01*
X65755506Y-71675463D01*
X65658815Y-71754815D01*
X65579463Y-71851506D01*
X65520498Y-71961820D01*
X65484188Y-72081518D01*
X65471928Y-72206000D01*
X65471928Y-74606000D01*
X65484188Y-74730482D01*
X65520498Y-74850180D01*
X65579463Y-74960494D01*
X65658815Y-75057185D01*
X65755506Y-75136537D01*
X65865820Y-75195502D01*
X65985518Y-75231812D01*
X66110000Y-75244072D01*
X67189387Y-75244072D01*
X68465001Y-76519686D01*
X68465000Y-79466656D01*
X68457816Y-79468835D01*
X68237719Y-79586479D01*
X68044802Y-79744802D01*
X67886479Y-79937719D01*
X67768835Y-80157816D01*
X67696390Y-80396636D01*
X67671928Y-80645000D01*
X67671928Y-81915000D01*
X67696390Y-82163364D01*
X67768835Y-82402184D01*
X67886479Y-82622281D01*
X68044802Y-82815198D01*
X68237719Y-82973521D01*
X68457816Y-83091165D01*
X68696636Y-83163610D01*
X68945000Y-83188072D01*
X69799387Y-83188072D01*
X71064041Y-84452726D01*
X70135750Y-84455000D01*
X69977000Y-84613750D01*
X69977000Y-86233000D01*
X71866250Y-86233000D01*
X72025000Y-86074250D01*
X72027055Y-85415741D01*
X73902550Y-87291236D01*
X73945919Y-87344081D01*
X73998764Y-87387450D01*
X73998766Y-87387452D01*
X74047108Y-87427125D01*
X74156812Y-87517157D01*
X74367925Y-87629999D01*
X74397419Y-87645764D01*
X74658492Y-87724960D01*
X74681892Y-87727265D01*
X74861963Y-87745000D01*
X74861971Y-87745000D01*
X74930000Y-87751700D01*
X74998029Y-87745000D01*
X79436315Y-87745000D01*
X79895000Y-88203686D01*
X79895001Y-89239876D01*
X79831082Y-89335537D01*
X79707832Y-89633088D01*
X79645000Y-89948967D01*
X79645000Y-90271033D01*
X79646113Y-90276628D01*
X79115413Y-89745928D01*
X79092968Y-89633088D01*
X78969718Y-89335537D01*
X78790787Y-89067748D01*
X78563052Y-88840013D01*
X78295263Y-88661082D01*
X77997712Y-88537832D01*
X77681833Y-88475000D01*
X77359767Y-88475000D01*
X77043888Y-88537832D01*
X76746337Y-88661082D01*
X76478548Y-88840013D01*
X76250813Y-89067748D01*
X76071882Y-89335537D01*
X75948632Y-89633088D01*
X75926187Y-89745928D01*
X75617115Y-90055000D01*
X71778462Y-90055000D01*
X71655198Y-89904802D01*
X71462281Y-89746479D01*
X71242184Y-89628835D01*
X71003364Y-89556390D01*
X70755000Y-89531928D01*
X68945000Y-89531928D01*
X68696636Y-89556390D01*
X68457816Y-89628835D01*
X68237719Y-89746479D01*
X68044802Y-89904802D01*
X67886479Y-90097719D01*
X67768835Y-90317816D01*
X67696390Y-90556636D01*
X67671928Y-90805000D01*
X67671928Y-92075000D01*
X67696390Y-92323364D01*
X67768835Y-92562184D01*
X67886479Y-92782281D01*
X68044802Y-92975198D01*
X68237719Y-93133521D01*
X68457816Y-93251165D01*
X68465000Y-93253344D01*
X68465001Y-96200314D01*
X67182650Y-97482665D01*
X66950277Y-97505552D01*
X66604378Y-97610479D01*
X66285596Y-97780871D01*
X66006181Y-98010181D01*
X65776871Y-98289596D01*
X65606479Y-98608378D01*
X65501552Y-98954277D01*
X65466122Y-99314000D01*
X65501552Y-99673723D01*
X65606479Y-100019622D01*
X65776871Y-100338404D01*
X66006181Y-100617819D01*
X66285596Y-100847129D01*
X66604378Y-101017521D01*
X66950277Y-101122448D01*
X67219861Y-101149000D01*
X67400139Y-101149000D01*
X67669723Y-101122448D01*
X68015622Y-101017521D01*
X68334404Y-100847129D01*
X68613819Y-100617819D01*
X68843129Y-100338404D01*
X69013521Y-100019622D01*
X69118448Y-99673723D01*
X69141335Y-99441350D01*
X70468685Y-98114000D01*
X78171928Y-98114000D01*
X78171928Y-100514000D01*
X78184188Y-100638482D01*
X78220498Y-100758180D01*
X78279463Y-100868494D01*
X78358815Y-100965185D01*
X78455506Y-101044537D01*
X78565820Y-101103502D01*
X78685518Y-101139812D01*
X78810000Y-101152072D01*
X81210000Y-101152072D01*
X81334482Y-101139812D01*
X81454180Y-101103502D01*
X81564494Y-101044537D01*
X81661185Y-100965185D01*
X81740537Y-100868494D01*
X81799502Y-100758180D01*
X81835812Y-100638482D01*
X81848072Y-100514000D01*
X81848072Y-98114000D01*
X81835812Y-97989518D01*
X81799502Y-97869820D01*
X81740537Y-97759506D01*
X81661185Y-97662815D01*
X81564494Y-97583463D01*
X81454180Y-97524498D01*
X81334482Y-97488188D01*
X81210000Y-97475928D01*
X78810000Y-97475928D01*
X78685518Y-97488188D01*
X78565820Y-97524498D01*
X78455506Y-97583463D01*
X78358815Y-97662815D01*
X78279463Y-97759506D01*
X78220498Y-97869820D01*
X78184188Y-97989518D01*
X78171928Y-98114000D01*
X70468685Y-98114000D01*
X70781231Y-97801454D01*
X70834081Y-97758081D01*
X71007157Y-97547188D01*
X71135764Y-97306581D01*
X71214960Y-97045507D01*
X71235000Y-96842037D01*
X71235000Y-96842028D01*
X71241700Y-96774001D01*
X71235000Y-96705974D01*
X71235000Y-93253344D01*
X71242184Y-93251165D01*
X71462281Y-93133521D01*
X71655198Y-92975198D01*
X71778462Y-92825000D01*
X76122771Y-92825000D01*
X76190800Y-92831700D01*
X76258829Y-92825000D01*
X76258837Y-92825000D01*
X76462307Y-92804960D01*
X76723381Y-92725764D01*
X76963988Y-92597157D01*
X77174881Y-92424081D01*
X77218254Y-92371231D01*
X77520800Y-92068685D01*
X80363346Y-94911231D01*
X80406719Y-94964081D01*
X80617612Y-95137157D01*
X80858219Y-95265764D01*
X81119293Y-95344960D01*
X81322763Y-95365000D01*
X81322772Y-95365000D01*
X81390799Y-95371700D01*
X81458826Y-95365000D01*
X85652315Y-95365000D01*
X89481314Y-99194000D01*
X84158764Y-104516551D01*
X84105920Y-104559919D01*
X84062551Y-104612764D01*
X84062548Y-104612767D01*
X83932844Y-104770812D01*
X83804236Y-105011420D01*
X83725040Y-105272493D01*
X83698300Y-105544000D01*
X83705001Y-105612039D01*
X83705000Y-115501971D01*
X83698300Y-115570000D01*
X83705000Y-115638029D01*
X83705000Y-115638036D01*
X83715921Y-115748918D01*
X83725040Y-115841507D01*
X83771320Y-115994070D01*
X83804236Y-116102580D01*
X83927242Y-116332707D01*
X83932844Y-116343188D01*
X84012411Y-116440140D01*
X84105919Y-116554080D01*
X84158765Y-116597450D01*
X84961314Y-117400000D01*
X66074720Y-117400000D01*
X65685216Y-117361809D01*
X65343937Y-117258771D01*
X65029175Y-117091409D01*
X64752917Y-116866097D01*
X64525683Y-116591418D01*
X64356131Y-116277838D01*
X64250713Y-115937288D01*
X64210000Y-115549928D01*
X64210000Y-108881682D01*
X65145000Y-108881682D01*
X65145000Y-109558318D01*
X65277006Y-110221952D01*
X65535943Y-110847082D01*
X65911862Y-111409685D01*
X66390315Y-111888138D01*
X66952918Y-112264057D01*
X67578048Y-112522994D01*
X68241682Y-112655000D01*
X68918318Y-112655000D01*
X69581952Y-112522994D01*
X70207082Y-112264057D01*
X70769685Y-111888138D01*
X71248138Y-111409685D01*
X71624057Y-110847082D01*
X71879463Y-110230475D01*
X76105000Y-110230475D01*
X76105000Y-110749525D01*
X76206261Y-111258601D01*
X76404893Y-111738141D01*
X76693262Y-112169715D01*
X77060285Y-112536738D01*
X77491859Y-112825107D01*
X77971399Y-113023739D01*
X78480475Y-113125000D01*
X78999525Y-113125000D01*
X79508601Y-113023739D01*
X79988141Y-112825107D01*
X80419715Y-112536738D01*
X80786738Y-112169715D01*
X81075107Y-111738141D01*
X81273739Y-111258601D01*
X81375000Y-110749525D01*
X81375000Y-110230475D01*
X81273739Y-109721399D01*
X81075107Y-109241859D01*
X80786738Y-108810285D01*
X80419715Y-108443262D01*
X79988141Y-108154893D01*
X79508601Y-107956261D01*
X78999525Y-107855000D01*
X78480475Y-107855000D01*
X77971399Y-107956261D01*
X77491859Y-108154893D01*
X77060285Y-108443262D01*
X76693262Y-108810285D01*
X76404893Y-109241859D01*
X76206261Y-109721399D01*
X76105000Y-110230475D01*
X71879463Y-110230475D01*
X71882994Y-110221952D01*
X72015000Y-109558318D01*
X72015000Y-108881682D01*
X71882994Y-108218048D01*
X71624057Y-107592918D01*
X71248138Y-107030315D01*
X70769685Y-106551862D01*
X70207082Y-106175943D01*
X69581952Y-105917006D01*
X68918318Y-105785000D01*
X68241682Y-105785000D01*
X67578048Y-105917006D01*
X66952918Y-106175943D01*
X66390315Y-106551862D01*
X65911862Y-107030315D01*
X65535943Y-107592918D01*
X65277006Y-108218048D01*
X65145000Y-108881682D01*
X64210000Y-108881682D01*
X64210000Y-87630000D01*
X67671928Y-87630000D01*
X67684188Y-87754482D01*
X67720498Y-87874180D01*
X67779463Y-87984494D01*
X67858815Y-88081185D01*
X67955506Y-88160537D01*
X68065820Y-88219502D01*
X68185518Y-88255812D01*
X68310000Y-88268072D01*
X69564250Y-88265000D01*
X69723000Y-88106250D01*
X69723000Y-86487000D01*
X69977000Y-86487000D01*
X69977000Y-88106250D01*
X70135750Y-88265000D01*
X71390000Y-88268072D01*
X71514482Y-88255812D01*
X71634180Y-88219502D01*
X71744494Y-88160537D01*
X71841185Y-88081185D01*
X71920537Y-87984494D01*
X71979502Y-87874180D01*
X72015812Y-87754482D01*
X72028072Y-87630000D01*
X72025000Y-86645750D01*
X71866250Y-86487000D01*
X69977000Y-86487000D01*
X69723000Y-86487000D01*
X67833750Y-86487000D01*
X67675000Y-86645750D01*
X67671928Y-87630000D01*
X64210000Y-87630000D01*
X64210000Y-85090000D01*
X67671928Y-85090000D01*
X67675000Y-86074250D01*
X67833750Y-86233000D01*
X69723000Y-86233000D01*
X69723000Y-84613750D01*
X69564250Y-84455000D01*
X68310000Y-84451928D01*
X68185518Y-84464188D01*
X68065820Y-84500498D01*
X67955506Y-84559463D01*
X67858815Y-84638815D01*
X67779463Y-84735506D01*
X67720498Y-84845820D01*
X67684188Y-84965518D01*
X67671928Y-85090000D01*
X64210000Y-85090000D01*
X64210000Y-64431682D01*
X65145000Y-64431682D01*
X65145000Y-65108318D01*
X65277006Y-65771952D01*
X65535943Y-66397082D01*
X65911862Y-66959685D01*
X66390315Y-67438138D01*
X66952918Y-67814057D01*
X67578048Y-68072994D01*
X68241682Y-68205000D01*
X68918318Y-68205000D01*
X69581952Y-68072994D01*
X70207082Y-67814057D01*
X70769685Y-67438138D01*
X71248138Y-66959685D01*
X71624057Y-66397082D01*
X71882994Y-65771952D01*
X72015000Y-65108318D01*
X72015000Y-64431682D01*
X71882994Y-63768048D01*
X71624057Y-63142918D01*
X71248138Y-62580315D01*
X70769685Y-62101862D01*
X70573051Y-61970475D01*
X76105000Y-61970475D01*
X76105000Y-62489525D01*
X76206261Y-62998601D01*
X76404893Y-63478141D01*
X76693262Y-63909715D01*
X77060285Y-64276738D01*
X77491859Y-64565107D01*
X77971399Y-64763739D01*
X78480475Y-64865000D01*
X78999525Y-64865000D01*
X79508601Y-64763739D01*
X79988141Y-64565107D01*
X80419715Y-64276738D01*
X80786738Y-63909715D01*
X81075107Y-63478141D01*
X81273739Y-62998601D01*
X81375000Y-62489525D01*
X81375000Y-61970475D01*
X81273739Y-61461399D01*
X81075107Y-60981859D01*
X80786738Y-60550285D01*
X80419715Y-60183262D01*
X79988141Y-59894893D01*
X79508601Y-59696261D01*
X78999525Y-59595000D01*
X78480475Y-59595000D01*
X77971399Y-59696261D01*
X77491859Y-59894893D01*
X77060285Y-60183262D01*
X76693262Y-60550285D01*
X76404893Y-60981859D01*
X76206261Y-61461399D01*
X76105000Y-61970475D01*
X70573051Y-61970475D01*
X70207082Y-61725943D01*
X69581952Y-61467006D01*
X68918318Y-61335000D01*
X68241682Y-61335000D01*
X67578048Y-61467006D01*
X66952918Y-61725943D01*
X66390315Y-62101862D01*
X65911862Y-62580315D01*
X65535943Y-63142918D01*
X65277006Y-63768048D01*
X65145000Y-64431682D01*
X64210000Y-64431682D01*
X64210000Y-58454720D01*
X64248191Y-58065215D01*
X64351228Y-57723940D01*
X64518590Y-57409178D01*
X64743903Y-57132917D01*
X65018582Y-56905683D01*
X65332164Y-56736130D01*
X65672708Y-56630714D01*
X66060072Y-56590000D01*
X153635280Y-56590000D01*
X154024785Y-56628191D01*
X154024785Y-56628191D01*
G37*
X154024785Y-56628191D02*
X154366060Y-56731228D01*
X154680822Y-56898590D01*
X154957083Y-57123903D01*
X155184317Y-57398582D01*
X155353870Y-57712164D01*
X155459286Y-58052708D01*
X155500001Y-58440082D01*
X155500000Y-115535280D01*
X155461809Y-115924784D01*
X155358771Y-116266063D01*
X155191409Y-116580825D01*
X154966097Y-116857083D01*
X154691418Y-117084317D01*
X154377838Y-117253869D01*
X154037288Y-117359287D01*
X153649928Y-117400000D01*
X92076685Y-117400000D01*
X92371231Y-117105454D01*
X92424081Y-117062081D01*
X92597157Y-116851188D01*
X92725764Y-116610581D01*
X92804960Y-116349507D01*
X92825000Y-116146037D01*
X92825000Y-116146029D01*
X92831700Y-116078000D01*
X92825000Y-116009971D01*
X92825000Y-115457239D01*
X92937748Y-115569987D01*
X93205537Y-115748918D01*
X93503088Y-115872168D01*
X93818967Y-115935000D01*
X94141033Y-115935000D01*
X94456912Y-115872168D01*
X94754463Y-115748918D01*
X95022252Y-115569987D01*
X95249987Y-115342252D01*
X95428918Y-115074463D01*
X95552168Y-114776912D01*
X95615000Y-114461033D01*
X95615000Y-114138967D01*
X95552168Y-113823088D01*
X95428918Y-113525537D01*
X95249987Y-113257748D01*
X95022252Y-113030013D01*
X94754463Y-112851082D01*
X94456912Y-112727832D01*
X94141033Y-112665000D01*
X93818967Y-112665000D01*
X93503088Y-112727832D01*
X93205537Y-112851082D01*
X92937748Y-113030013D01*
X92710013Y-113257748D01*
X92710000Y-113257767D01*
X92709987Y-113257748D01*
X92482252Y-113030013D01*
X92214463Y-112851082D01*
X91916912Y-112727832D01*
X91601033Y-112665000D01*
X91278967Y-112665000D01*
X90963088Y-112727832D01*
X90665537Y-112851082D01*
X90455191Y-112991630D01*
X90430537Y-112945506D01*
X90351185Y-112848815D01*
X90285000Y-112794499D01*
X90285000Y-111103685D01*
X91158210Y-110230475D01*
X101505000Y-110230475D01*
X101505000Y-110749525D01*
X101606261Y-111258601D01*
X101804893Y-111738141D01*
X102093262Y-112169715D01*
X102460285Y-112536738D01*
X102891859Y-112825107D01*
X103371399Y-113023739D01*
X103880475Y-113125000D01*
X104399525Y-113125000D01*
X104908601Y-113023739D01*
X105388141Y-112825107D01*
X105819715Y-112536738D01*
X106186738Y-112169715D01*
X106475107Y-111738141D01*
X106673739Y-111258601D01*
X106775000Y-110749525D01*
X106775000Y-110230475D01*
X106673739Y-109721399D01*
X106475107Y-109241859D01*
X106186738Y-108810285D01*
X105819715Y-108443262D01*
X105388141Y-108154893D01*
X104908601Y-107956261D01*
X104399525Y-107855000D01*
X103880475Y-107855000D01*
X103371399Y-107956261D01*
X102891859Y-108154893D01*
X102460285Y-108443262D01*
X102093262Y-108810285D01*
X101804893Y-109241859D01*
X101606261Y-109721399D01*
X101505000Y-110230475D01*
X91158210Y-110230475D01*
X95863686Y-105525000D01*
X107835001Y-105525000D01*
X107835001Y-105976961D01*
X107828300Y-106045000D01*
X107855040Y-106316507D01*
X107934236Y-106577580D01*
X108062844Y-106818188D01*
X108192548Y-106976233D01*
X108192551Y-106976236D01*
X108235920Y-107029081D01*
X108288764Y-107072449D01*
X110097550Y-108881236D01*
X110140919Y-108934081D01*
X110193764Y-108977450D01*
X110193766Y-108977452D01*
X110300032Y-109064662D01*
X110351812Y-109107157D01*
X110592419Y-109235764D01*
X110853493Y-109314960D01*
X111056963Y-109335000D01*
X111056971Y-109335000D01*
X111125000Y-109341700D01*
X111193029Y-109335000D01*
X111645000Y-109335000D01*
X111645000Y-110421963D01*
X111638299Y-110490000D01*
X111665040Y-110761507D01*
X111744236Y-111022581D01*
X111872843Y-111263188D01*
X112045919Y-111474081D01*
X112147507Y-111557452D01*
X112256812Y-111647157D01*
X112497419Y-111775764D01*
X112758493Y-111854960D01*
X113030000Y-111881701D01*
X113098036Y-111875000D01*
X116899918Y-111875000D01*
X116940256Y-111915338D01*
X117240801Y-112116156D01*
X117574750Y-112254482D01*
X117929268Y-112325000D01*
X118290732Y-112325000D01*
X118645250Y-112254482D01*
X118979199Y-112116156D01*
X119279744Y-111915338D01*
X119535338Y-111659744D01*
X119736156Y-111359199D01*
X119874482Y-111025250D01*
X119945000Y-110670732D01*
X119945000Y-110309268D01*
X119874482Y-109954750D01*
X119736156Y-109620801D01*
X119535338Y-109320256D01*
X119279744Y-109064662D01*
X118979199Y-108863844D01*
X118645250Y-108725518D01*
X118290732Y-108655000D01*
X117929268Y-108655000D01*
X117574750Y-108725518D01*
X117240801Y-108863844D01*
X116940256Y-109064662D01*
X116899918Y-109105000D01*
X114415000Y-109105000D01*
X114415000Y-108018037D01*
X114421701Y-107950000D01*
X114394960Y-107678493D01*
X114315764Y-107417419D01*
X114187157Y-107176812D01*
X114014081Y-106965919D01*
X113805816Y-106795000D01*
X116905100Y-106795000D01*
X117085596Y-106943129D01*
X117404378Y-107113521D01*
X117750277Y-107218448D01*
X118019861Y-107245000D01*
X118200139Y-107245000D01*
X118469723Y-107218448D01*
X118815622Y-107113521D01*
X119134404Y-106943129D01*
X119413819Y-106713819D01*
X119643129Y-106434404D01*
X119813521Y-106115622D01*
X119918448Y-105769723D01*
X119953878Y-105410000D01*
X119918448Y-105050277D01*
X119813521Y-104704378D01*
X119643129Y-104385596D01*
X119413819Y-104106181D01*
X119134404Y-103876871D01*
X118815622Y-103706479D01*
X118469723Y-103601552D01*
X118200139Y-103575000D01*
X118019861Y-103575000D01*
X117750277Y-103601552D01*
X117404378Y-103706479D01*
X117085596Y-103876871D01*
X116905100Y-104025000D01*
X112961963Y-104025000D01*
X112758493Y-104045040D01*
X112497419Y-104124236D01*
X112256812Y-104252843D01*
X112045919Y-104425919D01*
X111872843Y-104636812D01*
X111744236Y-104877419D01*
X111665040Y-105138493D01*
X111638299Y-105410000D01*
X111665040Y-105681507D01*
X111744236Y-105942581D01*
X111872843Y-106183188D01*
X112045919Y-106394081D01*
X112254184Y-106565000D01*
X111698686Y-106565000D01*
X110605000Y-105471315D01*
X110605000Y-104208037D01*
X110611701Y-104140000D01*
X110605000Y-104071963D01*
X110605000Y-101082315D01*
X111242316Y-100445000D01*
X111407301Y-100445000D01*
X111658665Y-100495000D01*
X111941335Y-100495000D01*
X112218574Y-100439853D01*
X112479727Y-100331680D01*
X112714759Y-100174637D01*
X112881339Y-100008057D01*
X112910498Y-100104180D01*
X112969463Y-100214494D01*
X113048815Y-100311185D01*
X113145506Y-100390537D01*
X113255820Y-100449502D01*
X113375518Y-100485812D01*
X113500000Y-100498072D01*
X114014250Y-100495000D01*
X114173000Y-100336250D01*
X114173000Y-99187000D01*
X114427000Y-99187000D01*
X114427000Y-100336250D01*
X114585750Y-100495000D01*
X115100000Y-100498072D01*
X115224482Y-100485812D01*
X115344180Y-100449502D01*
X115454494Y-100390537D01*
X115551185Y-100311185D01*
X115630537Y-100214494D01*
X115689502Y-100104180D01*
X115725812Y-99984482D01*
X115738072Y-99860000D01*
X119211928Y-99860000D01*
X119224188Y-99984482D01*
X119260498Y-100104180D01*
X119319463Y-100214494D01*
X119398815Y-100311185D01*
X119495506Y-100390537D01*
X119605820Y-100449502D01*
X119725518Y-100485812D01*
X119850000Y-100498072D01*
X120364250Y-100495000D01*
X120523000Y-100336250D01*
X120523000Y-99187000D01*
X119373750Y-99187000D01*
X119215000Y-99345750D01*
X119211928Y-99860000D01*
X115738072Y-99860000D01*
X115735000Y-99345750D01*
X115576250Y-99187000D01*
X114427000Y-99187000D01*
X114173000Y-99187000D01*
X114153000Y-99187000D01*
X114153000Y-98933000D01*
X114173000Y-98933000D01*
X114173000Y-97783750D01*
X114427000Y-97783750D01*
X114427000Y-98933000D01*
X115576250Y-98933000D01*
X115735000Y-98774250D01*
X115738072Y-98260000D01*
X119211928Y-98260000D01*
X119215000Y-98774250D01*
X119373750Y-98933000D01*
X120523000Y-98933000D01*
X120523000Y-97783750D01*
X120777000Y-97783750D01*
X120777000Y-98933000D01*
X120797000Y-98933000D01*
X120797000Y-99187000D01*
X120777000Y-99187000D01*
X120777000Y-100336250D01*
X120935750Y-100495000D01*
X121450000Y-100498072D01*
X121574482Y-100485812D01*
X121694180Y-100449502D01*
X121804494Y-100390537D01*
X121901185Y-100311185D01*
X121980537Y-100214494D01*
X122039502Y-100104180D01*
X122068661Y-100008057D01*
X122235241Y-100174637D01*
X122470273Y-100331680D01*
X122731426Y-100439853D01*
X123008665Y-100495000D01*
X123291335Y-100495000D01*
X123542699Y-100445000D01*
X126250001Y-100445000D01*
X126250000Y-104706971D01*
X126243300Y-104775000D01*
X126250000Y-104843029D01*
X126250000Y-104843036D01*
X126265145Y-104996802D01*
X126270040Y-105046507D01*
X126293572Y-105124081D01*
X126349236Y-105307580D01*
X126475315Y-105543456D01*
X126477844Y-105548188D01*
X126582079Y-105675198D01*
X126650919Y-105759080D01*
X126703765Y-105802450D01*
X131518665Y-110617351D01*
X131541552Y-110849723D01*
X131646479Y-111195622D01*
X131816871Y-111514404D01*
X132046181Y-111793819D01*
X132325596Y-112023129D01*
X132644378Y-112193521D01*
X132990277Y-112298448D01*
X133259861Y-112325000D01*
X133440139Y-112325000D01*
X133709723Y-112298448D01*
X134055622Y-112193521D01*
X134374404Y-112023129D01*
X134653819Y-111793819D01*
X134883129Y-111514404D01*
X135053521Y-111195622D01*
X135158448Y-110849723D01*
X135193878Y-110490000D01*
X135158448Y-110130277D01*
X135053521Y-109784378D01*
X134883129Y-109465596D01*
X134653819Y-109186181D01*
X134374404Y-108956871D01*
X134233735Y-108881682D01*
X136265000Y-108881682D01*
X136265000Y-109558318D01*
X136397006Y-110221952D01*
X136655943Y-110847082D01*
X137031862Y-111409685D01*
X137510315Y-111888138D01*
X138072918Y-112264057D01*
X138698048Y-112522994D01*
X139361682Y-112655000D01*
X140038318Y-112655000D01*
X140701952Y-112522994D01*
X141327082Y-112264057D01*
X141889685Y-111888138D01*
X142368138Y-111409685D01*
X142744057Y-110847082D01*
X143002994Y-110221952D01*
X143135000Y-109558318D01*
X143135000Y-108881682D01*
X143002994Y-108218048D01*
X142744057Y-107592918D01*
X142368138Y-107030315D01*
X141889685Y-106551862D01*
X141327082Y-106175943D01*
X140701952Y-105917006D01*
X140038318Y-105785000D01*
X139361682Y-105785000D01*
X138698048Y-105917006D01*
X138072918Y-106175943D01*
X137510315Y-106551862D01*
X137031862Y-107030315D01*
X136655943Y-107592918D01*
X136397006Y-108218048D01*
X136265000Y-108881682D01*
X134233735Y-108881682D01*
X134055622Y-108786479D01*
X133709723Y-108681552D01*
X133477351Y-108658665D01*
X131506666Y-106687980D01*
X132251626Y-106687980D01*
X132371514Y-106972836D01*
X132695210Y-107133699D01*
X133044069Y-107228322D01*
X133404684Y-107253067D01*
X133763198Y-107206985D01*
X134105833Y-107091846D01*
X134328486Y-106972836D01*
X134448374Y-106687980D01*
X133350000Y-105589605D01*
X132251626Y-106687980D01*
X131506666Y-106687980D01*
X130283370Y-105464684D01*
X131506933Y-105464684D01*
X131553015Y-105823198D01*
X131668154Y-106165833D01*
X131787164Y-106388486D01*
X132072020Y-106508374D01*
X133170395Y-105410000D01*
X133529605Y-105410000D01*
X134627980Y-106508374D01*
X134912836Y-106388486D01*
X135073699Y-106064790D01*
X135168322Y-105715931D01*
X135193067Y-105355316D01*
X135146985Y-104996802D01*
X135031846Y-104654167D01*
X134912836Y-104431514D01*
X134627980Y-104311626D01*
X133529605Y-105410000D01*
X133170395Y-105410000D01*
X132072020Y-104311626D01*
X131787164Y-104431514D01*
X131626301Y-104755210D01*
X131531678Y-105104069D01*
X131506933Y-105464684D01*
X130283370Y-105464684D01*
X129020000Y-104201315D01*
X129020000Y-104132020D01*
X132251626Y-104132020D01*
X133350000Y-105230395D01*
X134448374Y-104132020D01*
X134335026Y-103862702D01*
X137616903Y-103862702D01*
X137688486Y-104106671D01*
X137943996Y-104227571D01*
X138218184Y-104296300D01*
X138500512Y-104310217D01*
X138780130Y-104268787D01*
X139046292Y-104173603D01*
X139171514Y-104106671D01*
X139243097Y-103862702D01*
X138430000Y-103049605D01*
X137616903Y-103862702D01*
X134335026Y-103862702D01*
X134328486Y-103847164D01*
X134004790Y-103686301D01*
X133655931Y-103591678D01*
X133295316Y-103566933D01*
X132936802Y-103613015D01*
X132594167Y-103728154D01*
X132371514Y-103847164D01*
X132251626Y-104132020D01*
X129020000Y-104132020D01*
X129020000Y-101458665D01*
X131915000Y-101458665D01*
X131915000Y-101741335D01*
X131970147Y-102018574D01*
X132078320Y-102279727D01*
X132235363Y-102514759D01*
X132435241Y-102714637D01*
X132670273Y-102871680D01*
X132931426Y-102979853D01*
X133208665Y-103035000D01*
X133491335Y-103035000D01*
X133768574Y-102979853D01*
X133863551Y-102940512D01*
X136989783Y-102940512D01*
X137031213Y-103220130D01*
X137126397Y-103486292D01*
X137193329Y-103611514D01*
X137437298Y-103683097D01*
X138250395Y-102870000D01*
X138609605Y-102870000D01*
X139422702Y-103683097D01*
X139666671Y-103611514D01*
X139787571Y-103356004D01*
X139856300Y-103081816D01*
X139870217Y-102799488D01*
X139828787Y-102519870D01*
X139733603Y-102253708D01*
X139666671Y-102128486D01*
X139422702Y-102056903D01*
X138609605Y-102870000D01*
X138250395Y-102870000D01*
X137437298Y-102056903D01*
X137193329Y-102128486D01*
X137072429Y-102383996D01*
X137003700Y-102658184D01*
X136989783Y-102940512D01*
X133863551Y-102940512D01*
X134029727Y-102871680D01*
X134264759Y-102714637D01*
X134464637Y-102514759D01*
X134607025Y-102301660D01*
X135031387Y-101877298D01*
X137616903Y-101877298D01*
X138430000Y-102690395D01*
X139243097Y-101877298D01*
X139171514Y-101633329D01*
X138916004Y-101512429D01*
X138641816Y-101443700D01*
X138359488Y-101429783D01*
X138079870Y-101471213D01*
X137813708Y-101566397D01*
X137688486Y-101633329D01*
X137616903Y-101877298D01*
X135031387Y-101877298D01*
X136463685Y-100445000D01*
X147931538Y-100445000D01*
X148054802Y-100595198D01*
X148247719Y-100753521D01*
X148467816Y-100871165D01*
X148475000Y-100873344D01*
X148475001Y-102326656D01*
X148467816Y-102328835D01*
X148247719Y-102446479D01*
X148054802Y-102604802D01*
X147896479Y-102797719D01*
X147778835Y-103017816D01*
X147706390Y-103256636D01*
X147681928Y-103505000D01*
X147681928Y-104775000D01*
X147706390Y-105023364D01*
X147778835Y-105262184D01*
X147896479Y-105482281D01*
X148054802Y-105675198D01*
X148247719Y-105833521D01*
X148467816Y-105951165D01*
X148475000Y-105953344D01*
X148475001Y-107406656D01*
X148467816Y-107408835D01*
X148247719Y-107526479D01*
X148054802Y-107684802D01*
X147896479Y-107877719D01*
X147778835Y-108097816D01*
X147706390Y-108336636D01*
X147681928Y-108585000D01*
X147681928Y-109855000D01*
X147706390Y-110103364D01*
X147778835Y-110342184D01*
X147896479Y-110562281D01*
X148054802Y-110755198D01*
X148247719Y-110913521D01*
X148467816Y-111031165D01*
X148706636Y-111103610D01*
X148955000Y-111128072D01*
X150765000Y-111128072D01*
X151013364Y-111103610D01*
X151252184Y-111031165D01*
X151472281Y-110913521D01*
X151665198Y-110755198D01*
X151823521Y-110562281D01*
X151941165Y-110342184D01*
X152013610Y-110103364D01*
X152038072Y-109855000D01*
X152038072Y-108585000D01*
X152013610Y-108336636D01*
X151941165Y-108097816D01*
X151823521Y-107877719D01*
X151665198Y-107684802D01*
X151472281Y-107526479D01*
X151252184Y-107408835D01*
X151245000Y-107406656D01*
X151245000Y-105953344D01*
X151252184Y-105951165D01*
X151472281Y-105833521D01*
X151665198Y-105675198D01*
X151823521Y-105482281D01*
X151941165Y-105262184D01*
X152013610Y-105023364D01*
X152038072Y-104775000D01*
X152038072Y-103505000D01*
X152013610Y-103256636D01*
X151941165Y-103017816D01*
X151823521Y-102797719D01*
X151665198Y-102604802D01*
X151472281Y-102446479D01*
X151252184Y-102328835D01*
X151245000Y-102326656D01*
X151245000Y-100873344D01*
X151252184Y-100871165D01*
X151472281Y-100753521D01*
X151665198Y-100595198D01*
X151823521Y-100402281D01*
X151941165Y-100182184D01*
X152013610Y-99943364D01*
X152038072Y-99695000D01*
X152038072Y-98425000D01*
X152013610Y-98176636D01*
X151941165Y-97937816D01*
X151823521Y-97717719D01*
X151665198Y-97524802D01*
X151472281Y-97366479D01*
X151252184Y-97248835D01*
X151013364Y-97176390D01*
X150765000Y-97151928D01*
X148955000Y-97151928D01*
X148706636Y-97176390D01*
X148467816Y-97248835D01*
X148247719Y-97366479D01*
X148054802Y-97524802D01*
X147931538Y-97675000D01*
X135958026Y-97675000D01*
X135889999Y-97668300D01*
X135821972Y-97675000D01*
X135821963Y-97675000D01*
X135618493Y-97695040D01*
X135357419Y-97774236D01*
X135116812Y-97902843D01*
X134905919Y-98075919D01*
X134862548Y-98128767D01*
X132648340Y-100342975D01*
X132435241Y-100485363D01*
X132235363Y-100685241D01*
X132078320Y-100920273D01*
X131970147Y-101181426D01*
X131915000Y-101458665D01*
X129020000Y-101458665D01*
X129020000Y-100445000D01*
X130821971Y-100445000D01*
X130890000Y-100451700D01*
X130958029Y-100445000D01*
X130958037Y-100445000D01*
X131161507Y-100424960D01*
X131422581Y-100345764D01*
X131663188Y-100217157D01*
X131874081Y-100044081D01*
X131917454Y-99991231D01*
X134051663Y-97857023D01*
X134264759Y-97714637D01*
X134464637Y-97514759D01*
X134621680Y-97279727D01*
X134729853Y-97018574D01*
X134785000Y-96741335D01*
X134785000Y-96458665D01*
X134735000Y-96207301D01*
X134735000Y-94435351D01*
X137575614Y-91594738D01*
X138055000Y-91594738D01*
X138179482Y-91582478D01*
X138299180Y-91546168D01*
X138310000Y-91540384D01*
X138310001Y-93411313D01*
X137717726Y-94003589D01*
X137628899Y-94051068D01*
X137410392Y-94230392D01*
X137231068Y-94448899D01*
X137097818Y-94698192D01*
X137015764Y-94968691D01*
X136988057Y-95250000D01*
X137015764Y-95531309D01*
X137097818Y-95801808D01*
X137231068Y-96051101D01*
X137410392Y-96269608D01*
X137628899Y-96448932D01*
X137878192Y-96582182D01*
X138148691Y-96664236D01*
X138359508Y-96685000D01*
X138500492Y-96685000D01*
X138711309Y-96664236D01*
X138981808Y-96582182D01*
X139231101Y-96448932D01*
X139449608Y-96269608D01*
X139628932Y-96051101D01*
X139676411Y-95962274D01*
X140626236Y-95012450D01*
X140679081Y-94969081D01*
X140852157Y-94758188D01*
X140980764Y-94517581D01*
X141059960Y-94256507D01*
X141080000Y-94053037D01*
X141080000Y-94053028D01*
X141086700Y-93985001D01*
X141080000Y-93916974D01*
X141080000Y-92710000D01*
X147681928Y-92710000D01*
X147694188Y-92834482D01*
X147730498Y-92954180D01*
X147789463Y-93064494D01*
X147868815Y-93161185D01*
X147965506Y-93240537D01*
X148075820Y-93299502D01*
X148195518Y-93335812D01*
X148320000Y-93348072D01*
X149574250Y-93345000D01*
X149733000Y-93186250D01*
X149733000Y-91567000D01*
X149987000Y-91567000D01*
X149987000Y-93186250D01*
X150145750Y-93345000D01*
X151400000Y-93348072D01*
X151524482Y-93335812D01*
X151644180Y-93299502D01*
X151754494Y-93240537D01*
X151851185Y-93161185D01*
X151930537Y-93064494D01*
X151989502Y-92954180D01*
X152025812Y-92834482D01*
X152038072Y-92710000D01*
X152035000Y-91725750D01*
X151876250Y-91567000D01*
X149987000Y-91567000D01*
X149733000Y-91567000D01*
X147843750Y-91567000D01*
X147685000Y-91725750D01*
X147681928Y-92710000D01*
X141080000Y-92710000D01*
X141080000Y-90724128D01*
X141171011Y-90504409D01*
X141230000Y-90207850D01*
X141230000Y-90170000D01*
X147681928Y-90170000D01*
X147685000Y-91154250D01*
X147843750Y-91313000D01*
X149733000Y-91313000D01*
X149733000Y-89693750D01*
X149987000Y-89693750D01*
X149987000Y-91313000D01*
X151876250Y-91313000D01*
X152035000Y-91154250D01*
X152038072Y-90170000D01*
X152025812Y-90045518D01*
X151989502Y-89925820D01*
X151930537Y-89815506D01*
X151851185Y-89718815D01*
X151754494Y-89639463D01*
X151644180Y-89580498D01*
X151524482Y-89544188D01*
X151400000Y-89531928D01*
X150145750Y-89535000D01*
X149987000Y-89693750D01*
X149733000Y-89693750D01*
X149574250Y-89535000D01*
X148320000Y-89531928D01*
X148195518Y-89544188D01*
X148075820Y-89580498D01*
X147965506Y-89639463D01*
X147868815Y-89718815D01*
X147789463Y-89815506D01*
X147730498Y-89925820D01*
X147694188Y-90045518D01*
X147681928Y-90170000D01*
X141230000Y-90170000D01*
X141230000Y-89905482D01*
X141171011Y-89608923D01*
X141055299Y-89329571D01*
X140887312Y-89078161D01*
X140673505Y-88864354D01*
X140422095Y-88696367D01*
X140142743Y-88580655D01*
X139846184Y-88521666D01*
X139543816Y-88521666D01*
X139247257Y-88580655D01*
X138967905Y-88696367D01*
X138716495Y-88864354D01*
X138650056Y-88930793D01*
X138644502Y-88912486D01*
X138585537Y-88802172D01*
X138506185Y-88705481D01*
X138409494Y-88626129D01*
X138299180Y-88567164D01*
X138179482Y-88530854D01*
X138055000Y-88518594D01*
X136255000Y-88518594D01*
X136130518Y-88530854D01*
X136010820Y-88567164D01*
X135900506Y-88626129D01*
X135803815Y-88705481D01*
X135724463Y-88802172D01*
X135665498Y-88912486D01*
X135629188Y-89032184D01*
X135616928Y-89156666D01*
X135616928Y-89636052D01*
X132418764Y-92834217D01*
X132365920Y-92877585D01*
X132322551Y-92930430D01*
X132322548Y-92930433D01*
X132192844Y-93088478D01*
X132064236Y-93329086D01*
X131985040Y-93590159D01*
X131958300Y-93861666D01*
X131965001Y-93929705D01*
X131965000Y-96026314D01*
X130316315Y-97675000D01*
X127703037Y-97675000D01*
X127635000Y-97668299D01*
X127566964Y-97675000D01*
X123542699Y-97675000D01*
X123291335Y-97625000D01*
X123008665Y-97625000D01*
X122731426Y-97680147D01*
X122470273Y-97788320D01*
X122235241Y-97945363D01*
X122068661Y-98111943D01*
X122039502Y-98015820D01*
X121980537Y-97905506D01*
X121901185Y-97808815D01*
X121804494Y-97729463D01*
X121694180Y-97670498D01*
X121574482Y-97634188D01*
X121450000Y-97621928D01*
X120935750Y-97625000D01*
X120777000Y-97783750D01*
X120523000Y-97783750D01*
X120364250Y-97625000D01*
X119850000Y-97621928D01*
X119725518Y-97634188D01*
X119605820Y-97670498D01*
X119495506Y-97729463D01*
X119398815Y-97808815D01*
X119319463Y-97905506D01*
X119260498Y-98015820D01*
X119224188Y-98135518D01*
X119211928Y-98260000D01*
X115738072Y-98260000D01*
X115725812Y-98135518D01*
X115689502Y-98015820D01*
X115630537Y-97905506D01*
X115551185Y-97808815D01*
X115454494Y-97729463D01*
X115344180Y-97670498D01*
X115224482Y-97634188D01*
X115100000Y-97621928D01*
X114585750Y-97625000D01*
X114427000Y-97783750D01*
X114173000Y-97783750D01*
X114014250Y-97625000D01*
X113500000Y-97621928D01*
X113375518Y-97634188D01*
X113255820Y-97670498D01*
X113145506Y-97729463D01*
X113048815Y-97808815D01*
X112969463Y-97905506D01*
X112910498Y-98015820D01*
X112881339Y-98111943D01*
X112714759Y-97945363D01*
X112479727Y-97788320D01*
X112218574Y-97680147D01*
X111941335Y-97625000D01*
X111658665Y-97625000D01*
X111407301Y-97675000D01*
X110736656Y-97675000D01*
X110668629Y-97668300D01*
X110600602Y-97675000D01*
X110600593Y-97675000D01*
X110397123Y-97695040D01*
X110136049Y-97774236D01*
X109895442Y-97902843D01*
X109860941Y-97931157D01*
X109737396Y-98032548D01*
X109737395Y-98032549D01*
X109684549Y-98075919D01*
X109641180Y-98128764D01*
X108288765Y-99481180D01*
X108235919Y-99524550D01*
X108192550Y-99577395D01*
X108192548Y-99577397D01*
X108180088Y-99592580D01*
X108062843Y-99735443D01*
X108010597Y-99833189D01*
X107934236Y-99976050D01*
X107861905Y-100214494D01*
X107855040Y-100237124D01*
X107835000Y-100440594D01*
X107835000Y-100440601D01*
X107828300Y-100508630D01*
X107835000Y-100576659D01*
X107835001Y-102755000D01*
X95358029Y-102755000D01*
X95290000Y-102748300D01*
X95221971Y-102755000D01*
X95221963Y-102755000D01*
X95018493Y-102775040D01*
X94757419Y-102854236D01*
X94516812Y-102982843D01*
X94358766Y-103112548D01*
X94358764Y-103112550D01*
X94305919Y-103155919D01*
X94262550Y-103208764D01*
X87968764Y-109502551D01*
X87915920Y-109545919D01*
X87872551Y-109598764D01*
X87872548Y-109598767D01*
X87742844Y-109756812D01*
X87614236Y-109997420D01*
X87535040Y-110258493D01*
X87508300Y-110530000D01*
X87515001Y-110598039D01*
X87515000Y-112794498D01*
X87448815Y-112848815D01*
X87369463Y-112945506D01*
X87310498Y-113055820D01*
X87274188Y-113175518D01*
X87261928Y-113300000D01*
X87261928Y-115300000D01*
X87271776Y-115399990D01*
X86878676Y-115399990D01*
X86475000Y-114996315D01*
X86475000Y-106117685D01*
X91563686Y-101029000D01*
X91620732Y-101029000D01*
X91975250Y-100958482D01*
X92309199Y-100820156D01*
X92609744Y-100619338D01*
X92650082Y-100579000D01*
X98737971Y-100579000D01*
X98806000Y-100585700D01*
X98874029Y-100579000D01*
X98874037Y-100579000D01*
X99077507Y-100558960D01*
X99338581Y-100479764D01*
X99579188Y-100351157D01*
X99790081Y-100178081D01*
X99833454Y-100125231D01*
X108073686Y-91885000D01*
X108130732Y-91885000D01*
X108485250Y-91814482D01*
X108819199Y-91676156D01*
X109119744Y-91475338D01*
X109267102Y-91327980D01*
X124631626Y-91327980D01*
X124751514Y-91612836D01*
X125075210Y-91773699D01*
X125424069Y-91868322D01*
X125784684Y-91893067D01*
X126143198Y-91846985D01*
X126485833Y-91731846D01*
X126708486Y-91612836D01*
X126828374Y-91327980D01*
X125730000Y-90229605D01*
X124631626Y-91327980D01*
X109267102Y-91327980D01*
X109375338Y-91219744D01*
X109576156Y-90919199D01*
X109714482Y-90585250D01*
X109785000Y-90230732D01*
X109785000Y-90104684D01*
X123886933Y-90104684D01*
X123933015Y-90463198D01*
X124048154Y-90805833D01*
X124167164Y-91028486D01*
X124452020Y-91148374D01*
X125550395Y-90050000D01*
X125909605Y-90050000D01*
X127007980Y-91148374D01*
X127292836Y-91028486D01*
X127453699Y-90704790D01*
X127548322Y-90355931D01*
X127573067Y-89995316D01*
X127526985Y-89636802D01*
X127411846Y-89294167D01*
X127292836Y-89071514D01*
X127007980Y-88951626D01*
X125909605Y-90050000D01*
X125550395Y-90050000D01*
X124452020Y-88951626D01*
X124167164Y-89071514D01*
X124006301Y-89395210D01*
X123911678Y-89744069D01*
X123886933Y-90104684D01*
X109785000Y-90104684D01*
X109785000Y-89869268D01*
X109714482Y-89514750D01*
X109576156Y-89180801D01*
X109375338Y-88880256D01*
X109267102Y-88772020D01*
X124631626Y-88772020D01*
X125730000Y-89870395D01*
X126828374Y-88772020D01*
X126708486Y-88487164D01*
X126384790Y-88326301D01*
X126035931Y-88231678D01*
X125675316Y-88206933D01*
X125316802Y-88253015D01*
X124974167Y-88368154D01*
X124751514Y-88487164D01*
X124631626Y-88772020D01*
X109267102Y-88772020D01*
X109119744Y-88624662D01*
X108819199Y-88423844D01*
X108485250Y-88285518D01*
X108130732Y-88215000D01*
X107769268Y-88215000D01*
X107414750Y-88285518D01*
X107080801Y-88423844D01*
X106780256Y-88624662D01*
X106524662Y-88880256D01*
X106323844Y-89180801D01*
X106185518Y-89514750D01*
X106115000Y-89869268D01*
X106115000Y-89926314D01*
X98232315Y-97809000D01*
X92650082Y-97809000D01*
X92609744Y-97768662D01*
X92309199Y-97567844D01*
X91975250Y-97429518D01*
X91620732Y-97359000D01*
X91563686Y-97359000D01*
X87253454Y-93048769D01*
X87210081Y-92995919D01*
X87085893Y-92894000D01*
X89601928Y-92894000D01*
X89614188Y-93018482D01*
X89650498Y-93138180D01*
X89709463Y-93248494D01*
X89788815Y-93345185D01*
X89885506Y-93424537D01*
X89995820Y-93483502D01*
X90115518Y-93519812D01*
X90240000Y-93532072D01*
X91154250Y-93529000D01*
X91313000Y-93370250D01*
X91313000Y-91821000D01*
X91567000Y-91821000D01*
X91567000Y-93370250D01*
X91725750Y-93529000D01*
X92640000Y-93532072D01*
X92764482Y-93519812D01*
X92884180Y-93483502D01*
X92994494Y-93424537D01*
X93091185Y-93345185D01*
X93170537Y-93248494D01*
X93229502Y-93138180D01*
X93265812Y-93018482D01*
X93278072Y-92894000D01*
X93275000Y-91979750D01*
X93116250Y-91821000D01*
X91567000Y-91821000D01*
X91313000Y-91821000D01*
X89763750Y-91821000D01*
X89605000Y-91979750D01*
X89601928Y-92894000D01*
X87085893Y-92894000D01*
X86999188Y-92822843D01*
X86758581Y-92694236D01*
X86497507Y-92615040D01*
X86294037Y-92595000D01*
X86294029Y-92595000D01*
X86226000Y-92588300D01*
X86157971Y-92595000D01*
X81964485Y-92595000D01*
X81113372Y-91743887D01*
X81118967Y-91745000D01*
X81441033Y-91745000D01*
X81756912Y-91682168D01*
X82054463Y-91558918D01*
X82322252Y-91379987D01*
X82549987Y-91152252D01*
X82728918Y-90884463D01*
X82852168Y-90586912D01*
X82870649Y-90494000D01*
X89601928Y-90494000D01*
X89605000Y-91408250D01*
X89763750Y-91567000D01*
X91313000Y-91567000D01*
X91313000Y-90017750D01*
X91567000Y-90017750D01*
X91567000Y-91567000D01*
X93116250Y-91567000D01*
X93275000Y-91408250D01*
X93278072Y-90494000D01*
X93265812Y-90369518D01*
X93229502Y-90249820D01*
X93170537Y-90139506D01*
X93091185Y-90042815D01*
X92994494Y-89963463D01*
X92884180Y-89904498D01*
X92764482Y-89868188D01*
X92640000Y-89855928D01*
X91725750Y-89859000D01*
X91567000Y-90017750D01*
X91313000Y-90017750D01*
X91154250Y-89859000D01*
X90240000Y-89855928D01*
X90115518Y-89868188D01*
X89995820Y-89904498D01*
X89885506Y-89963463D01*
X89788815Y-90042815D01*
X89709463Y-90139506D01*
X89650498Y-90249820D01*
X89614188Y-90369518D01*
X89601928Y-90494000D01*
X82870649Y-90494000D01*
X82915000Y-90271033D01*
X82915000Y-89948967D01*
X82852168Y-89633088D01*
X82728918Y-89335537D01*
X82665000Y-89239877D01*
X82665000Y-88203685D01*
X83238685Y-87630000D01*
X147681928Y-87630000D01*
X147694188Y-87754482D01*
X147730498Y-87874180D01*
X147789463Y-87984494D01*
X147868815Y-88081185D01*
X147965506Y-88160537D01*
X148075820Y-88219502D01*
X148195518Y-88255812D01*
X148320000Y-88268072D01*
X149574250Y-88265000D01*
X149733000Y-88106250D01*
X149733000Y-86487000D01*
X149987000Y-86487000D01*
X149987000Y-88106250D01*
X150145750Y-88265000D01*
X151400000Y-88268072D01*
X151524482Y-88255812D01*
X151644180Y-88219502D01*
X151754494Y-88160537D01*
X151851185Y-88081185D01*
X151930537Y-87984494D01*
X151989502Y-87874180D01*
X152025812Y-87754482D01*
X152038072Y-87630000D01*
X152035000Y-86645750D01*
X151876250Y-86487000D01*
X149987000Y-86487000D01*
X149733000Y-86487000D01*
X147843750Y-86487000D01*
X147685000Y-86645750D01*
X147681928Y-87630000D01*
X83238685Y-87630000D01*
X85778685Y-85090000D01*
X147681928Y-85090000D01*
X147685000Y-86074250D01*
X147843750Y-86233000D01*
X149733000Y-86233000D01*
X149733000Y-84613750D01*
X149987000Y-84613750D01*
X149987000Y-86233000D01*
X151876250Y-86233000D01*
X152035000Y-86074250D01*
X152038072Y-85090000D01*
X152025812Y-84965518D01*
X151989502Y-84845820D01*
X151930537Y-84735506D01*
X151851185Y-84638815D01*
X151754494Y-84559463D01*
X151644180Y-84500498D01*
X151524482Y-84464188D01*
X151400000Y-84451928D01*
X150145750Y-84455000D01*
X149987000Y-84613750D01*
X149733000Y-84613750D01*
X149574250Y-84455000D01*
X148320000Y-84451928D01*
X148195518Y-84464188D01*
X148075820Y-84500498D01*
X147965506Y-84559463D01*
X147868815Y-84638815D01*
X147789463Y-84735506D01*
X147730498Y-84845820D01*
X147694188Y-84965518D01*
X147681928Y-85090000D01*
X85778685Y-85090000D01*
X87118685Y-83750000D01*
X106111928Y-83750000D01*
X106124188Y-83874482D01*
X106160498Y-83994180D01*
X106219463Y-84104494D01*
X106298815Y-84201185D01*
X106395506Y-84280537D01*
X106505820Y-84339502D01*
X106625518Y-84375812D01*
X106750000Y-84388072D01*
X107664250Y-84385000D01*
X107823000Y-84226250D01*
X107823000Y-82677000D01*
X108077000Y-82677000D01*
X108077000Y-84226250D01*
X108235750Y-84385000D01*
X109150000Y-84388072D01*
X109274482Y-84375812D01*
X109394180Y-84339502D01*
X109504494Y-84280537D01*
X109601185Y-84201185D01*
X109680537Y-84104494D01*
X109739502Y-83994180D01*
X109775812Y-83874482D01*
X109788072Y-83750000D01*
X109785000Y-82835750D01*
X109626250Y-82677000D01*
X108077000Y-82677000D01*
X107823000Y-82677000D01*
X106273750Y-82677000D01*
X106115000Y-82835750D01*
X106111928Y-83750000D01*
X87118685Y-83750000D01*
X87291236Y-83577450D01*
X87344081Y-83534081D01*
X87517157Y-83323188D01*
X87645764Y-83082581D01*
X87710586Y-82868892D01*
X87724960Y-82821508D01*
X87728102Y-82789605D01*
X87745000Y-82618037D01*
X87745000Y-82618029D01*
X87751700Y-82550000D01*
X87745000Y-82481971D01*
X87745000Y-82183980D01*
X90341626Y-82183980D01*
X90461514Y-82468836D01*
X90785210Y-82629699D01*
X91134069Y-82724322D01*
X91494684Y-82749067D01*
X91853198Y-82702985D01*
X92195833Y-82587846D01*
X92418486Y-82468836D01*
X92538374Y-82183980D01*
X91440000Y-81085605D01*
X90341626Y-82183980D01*
X87745000Y-82183980D01*
X87745000Y-80960684D01*
X89596933Y-80960684D01*
X89643015Y-81319198D01*
X89758154Y-81661833D01*
X89877164Y-81884486D01*
X90162020Y-82004374D01*
X91260395Y-80906000D01*
X91619605Y-80906000D01*
X92717980Y-82004374D01*
X93002836Y-81884486D01*
X93163699Y-81560790D01*
X93220872Y-81350000D01*
X106111928Y-81350000D01*
X106115000Y-82264250D01*
X106273750Y-82423000D01*
X107823000Y-82423000D01*
X107823000Y-80873750D01*
X108077000Y-80873750D01*
X108077000Y-82423000D01*
X109626250Y-82423000D01*
X109785000Y-82264250D01*
X109788072Y-81350000D01*
X109775812Y-81225518D01*
X109739502Y-81105820D01*
X109680537Y-80995506D01*
X109601185Y-80898815D01*
X109504494Y-80819463D01*
X109394180Y-80760498D01*
X109274482Y-80724188D01*
X109150000Y-80711928D01*
X108235750Y-80715000D01*
X108077000Y-80873750D01*
X107823000Y-80873750D01*
X107664250Y-80715000D01*
X106750000Y-80711928D01*
X106625518Y-80724188D01*
X106505820Y-80760498D01*
X106395506Y-80819463D01*
X106298815Y-80898815D01*
X106219463Y-80995506D01*
X106160498Y-81105820D01*
X106124188Y-81225518D01*
X106111928Y-81350000D01*
X93220872Y-81350000D01*
X93258322Y-81211931D01*
X93283067Y-80851316D01*
X93236985Y-80492802D01*
X93121846Y-80150167D01*
X93002836Y-79927514D01*
X92717980Y-79807626D01*
X91619605Y-80906000D01*
X91260395Y-80906000D01*
X90162020Y-79807626D01*
X89877164Y-79927514D01*
X89716301Y-80251210D01*
X89621678Y-80600069D01*
X89596933Y-80960684D01*
X87745000Y-80960684D01*
X87745000Y-79628020D01*
X90341626Y-79628020D01*
X91440000Y-80726395D01*
X92538374Y-79628020D01*
X92418486Y-79343164D01*
X92094790Y-79182301D01*
X91745931Y-79087678D01*
X91385316Y-79062933D01*
X91026802Y-79109015D01*
X90684167Y-79224154D01*
X90461514Y-79343164D01*
X90341626Y-79628020D01*
X87745000Y-79628020D01*
X87745000Y-76359685D01*
X89313686Y-74791000D01*
X89632546Y-74791000D01*
X89650498Y-74850180D01*
X89709463Y-74960494D01*
X89788815Y-75057185D01*
X89885506Y-75136537D01*
X89995820Y-75195502D01*
X90115518Y-75231812D01*
X90240000Y-75244072D01*
X92640000Y-75244072D01*
X92764482Y-75231812D01*
X92884180Y-75195502D01*
X92994494Y-75136537D01*
X93091185Y-75057185D01*
X93170537Y-74960494D01*
X93229502Y-74850180D01*
X93247454Y-74791000D01*
X93566315Y-74791000D01*
X98446550Y-79671236D01*
X98489919Y-79724081D01*
X98542764Y-79767450D01*
X98542766Y-79767452D01*
X98621923Y-79832414D01*
X98700812Y-79897157D01*
X98941419Y-80025764D01*
X99202493Y-80104960D01*
X99405963Y-80125000D01*
X99405972Y-80125000D01*
X99473999Y-80131700D01*
X99542026Y-80125000D01*
X119146315Y-80125000D01*
X122502548Y-83481234D01*
X122545919Y-83534081D01*
X122598764Y-83577450D01*
X122598766Y-83577452D01*
X122677221Y-83641838D01*
X122756812Y-83707157D01*
X122997419Y-83835764D01*
X123258493Y-83914960D01*
X123461963Y-83935000D01*
X123461971Y-83935000D01*
X123530000Y-83941700D01*
X123598029Y-83935000D01*
X123922546Y-83935000D01*
X123940498Y-83994180D01*
X123999463Y-84104494D01*
X124078815Y-84201185D01*
X124175506Y-84280537D01*
X124285820Y-84339502D01*
X124405518Y-84375812D01*
X124530000Y-84388072D01*
X126930000Y-84388072D01*
X127054482Y-84375812D01*
X127174180Y-84339502D01*
X127284494Y-84280537D01*
X127381185Y-84201185D01*
X127460537Y-84104494D01*
X127519502Y-83994180D01*
X127555812Y-83874482D01*
X127568072Y-83750000D01*
X127568072Y-81350000D01*
X127555812Y-81225518D01*
X127519502Y-81105820D01*
X127460537Y-80995506D01*
X127381185Y-80898815D01*
X127284494Y-80819463D01*
X127174180Y-80760498D01*
X127054482Y-80724188D01*
X126930000Y-80711928D01*
X124530000Y-80711928D01*
X124405518Y-80724188D01*
X124285820Y-80760498D01*
X124175506Y-80819463D01*
X124078815Y-80898815D01*
X123999463Y-80995506D01*
X123976727Y-81038041D01*
X120747454Y-77808769D01*
X120704081Y-77755919D01*
X120493188Y-77582843D01*
X120252581Y-77454236D01*
X119991507Y-77375040D01*
X119788037Y-77355000D01*
X119788029Y-77355000D01*
X119720000Y-77348300D01*
X119651971Y-77355000D01*
X100047686Y-77355000D01*
X95167454Y-72474769D01*
X95124081Y-72421919D01*
X94913188Y-72248843D01*
X94672581Y-72120236D01*
X94411507Y-72041040D01*
X94208037Y-72021000D01*
X94208029Y-72021000D01*
X94140000Y-72014300D01*
X94071971Y-72021000D01*
X93247454Y-72021000D01*
X93229502Y-71961820D01*
X93170537Y-71851506D01*
X93091185Y-71754815D01*
X92994494Y-71675463D01*
X92884180Y-71616498D01*
X92825000Y-71598546D01*
X92825000Y-68648026D01*
X92831700Y-68579999D01*
X92825000Y-68511972D01*
X92825000Y-68511963D01*
X92804960Y-68308493D01*
X92725764Y-68047419D01*
X92597157Y-67806812D01*
X92424081Y-67595919D01*
X92371231Y-67552546D01*
X90285000Y-65466315D01*
X90285000Y-59577239D01*
X90397748Y-59689987D01*
X90665537Y-59868918D01*
X90963088Y-59992168D01*
X91278967Y-60055000D01*
X91601033Y-60055000D01*
X91916912Y-59992168D01*
X92214463Y-59868918D01*
X92424809Y-59728370D01*
X92449463Y-59774494D01*
X92528815Y-59871185D01*
X92595000Y-59925502D01*
X92595001Y-64701961D01*
X92588300Y-64770000D01*
X92615040Y-65041507D01*
X92694236Y-65302580D01*
X92822844Y-65543188D01*
X92952548Y-65701233D01*
X92952551Y-65701236D01*
X92995920Y-65754081D01*
X93048765Y-65797450D01*
X95492546Y-68241231D01*
X95535919Y-68294081D01*
X95746812Y-68467157D01*
X95987419Y-68595764D01*
X96248493Y-68674960D01*
X96451963Y-68695000D01*
X96451972Y-68695000D01*
X96519999Y-68701700D01*
X96588026Y-68695000D01*
X111591314Y-68695000D01*
X110828764Y-69457551D01*
X110775920Y-69500919D01*
X110732551Y-69553764D01*
X110732548Y-69553767D01*
X110602844Y-69711812D01*
X110474236Y-69952420D01*
X110395040Y-70213493D01*
X110368300Y-70485000D01*
X110375001Y-70553039D01*
X110375000Y-72607397D01*
X110370498Y-72615820D01*
X110334188Y-72735518D01*
X110321928Y-72860000D01*
X110321928Y-74460000D01*
X110334188Y-74584482D01*
X110370498Y-74704180D01*
X110429463Y-74814494D01*
X110508815Y-74911185D01*
X110605506Y-74990537D01*
X110715820Y-75049502D01*
X110835518Y-75085812D01*
X110960000Y-75098072D01*
X112560000Y-75098072D01*
X112684482Y-75085812D01*
X112804180Y-75049502D01*
X112914494Y-74990537D01*
X113011185Y-74911185D01*
X113090537Y-74814494D01*
X113149502Y-74704180D01*
X113165117Y-74652702D01*
X113446903Y-74652702D01*
X113518486Y-74896671D01*
X113773996Y-75017571D01*
X114048184Y-75086300D01*
X114330512Y-75100217D01*
X114610130Y-75058787D01*
X114876292Y-74963603D01*
X115001514Y-74896671D01*
X115073097Y-74652702D01*
X118606903Y-74652702D01*
X118678486Y-74896671D01*
X118933996Y-75017571D01*
X119208184Y-75086300D01*
X119490512Y-75100217D01*
X119770130Y-75058787D01*
X120036292Y-74963603D01*
X120161514Y-74896671D01*
X120233097Y-74652702D01*
X119420000Y-73839605D01*
X118606903Y-74652702D01*
X115073097Y-74652702D01*
X114260000Y-73839605D01*
X113446903Y-74652702D01*
X113165117Y-74652702D01*
X113185812Y-74584482D01*
X113198072Y-74460000D01*
X113198072Y-74452785D01*
X113267298Y-74473097D01*
X114080395Y-73660000D01*
X114439605Y-73660000D01*
X115252702Y-74473097D01*
X115496671Y-74401514D01*
X115617571Y-74146004D01*
X115686300Y-73871816D01*
X115693265Y-73730512D01*
X117979783Y-73730512D01*
X118021213Y-74010130D01*
X118116397Y-74276292D01*
X118183329Y-74401514D01*
X118427298Y-74473097D01*
X119240395Y-73660000D01*
X119599605Y-73660000D01*
X120412702Y-74473097D01*
X120481928Y-74452785D01*
X120481928Y-74460000D01*
X120494188Y-74584482D01*
X120530498Y-74704180D01*
X120589463Y-74814494D01*
X120668815Y-74911185D01*
X120765506Y-74990537D01*
X120875820Y-75049502D01*
X120995518Y-75085812D01*
X121120000Y-75098072D01*
X122720000Y-75098072D01*
X122844482Y-75085812D01*
X122964180Y-75049502D01*
X122972603Y-75045000D01*
X127566964Y-75045000D01*
X127635000Y-75051701D01*
X127703037Y-75045000D01*
X130316315Y-75045000D01*
X131965000Y-76693686D01*
X131965001Y-78780294D01*
X131958300Y-78848333D01*
X131985040Y-79119840D01*
X132064236Y-79380913D01*
X132192844Y-79621521D01*
X132322548Y-79779566D01*
X132322551Y-79779569D01*
X132365920Y-79832414D01*
X132418764Y-79875782D01*
X135713690Y-83170709D01*
X135804701Y-83390428D01*
X135972688Y-83641838D01*
X136186495Y-83855645D01*
X136437905Y-84023632D01*
X136717257Y-84139344D01*
X137013816Y-84198333D01*
X137316184Y-84198333D01*
X137612743Y-84139344D01*
X137892095Y-84023632D01*
X138143505Y-83855645D01*
X138209944Y-83789206D01*
X138215498Y-83807513D01*
X138274463Y-83917827D01*
X138353815Y-84014518D01*
X138450506Y-84093870D01*
X138560820Y-84152835D01*
X138680518Y-84189145D01*
X138805000Y-84201405D01*
X140605000Y-84201405D01*
X140729482Y-84189145D01*
X140849180Y-84152835D01*
X140959494Y-84093870D01*
X141056185Y-84014518D01*
X141135537Y-83917827D01*
X141194502Y-83807513D01*
X141230812Y-83687815D01*
X141243072Y-83563333D01*
X141243072Y-82550000D01*
X147681928Y-82550000D01*
X147694188Y-82674482D01*
X147730498Y-82794180D01*
X147789463Y-82904494D01*
X147868815Y-83001185D01*
X147965506Y-83080537D01*
X148075820Y-83139502D01*
X148195518Y-83175812D01*
X148320000Y-83188072D01*
X149574250Y-83185000D01*
X149733000Y-83026250D01*
X149733000Y-81407000D01*
X149987000Y-81407000D01*
X149987000Y-83026250D01*
X150145750Y-83185000D01*
X151400000Y-83188072D01*
X151524482Y-83175812D01*
X151644180Y-83139502D01*
X151754494Y-83080537D01*
X151851185Y-83001185D01*
X151930537Y-82904494D01*
X151989502Y-82794180D01*
X152025812Y-82674482D01*
X152038072Y-82550000D01*
X152035000Y-81565750D01*
X151876250Y-81407000D01*
X149987000Y-81407000D01*
X149733000Y-81407000D01*
X147843750Y-81407000D01*
X147685000Y-81565750D01*
X147681928Y-82550000D01*
X141243072Y-82550000D01*
X141243072Y-81763333D01*
X141230812Y-81638851D01*
X141194502Y-81519153D01*
X141135537Y-81408839D01*
X141090000Y-81353352D01*
X141090000Y-80010000D01*
X147681928Y-80010000D01*
X147685000Y-80994250D01*
X147843750Y-81153000D01*
X149733000Y-81153000D01*
X149733000Y-79533750D01*
X149987000Y-79533750D01*
X149987000Y-81153000D01*
X151876250Y-81153000D01*
X152035000Y-80994250D01*
X152038072Y-80010000D01*
X152025812Y-79885518D01*
X151989502Y-79765820D01*
X151930537Y-79655506D01*
X151851185Y-79558815D01*
X151754494Y-79479463D01*
X151644180Y-79420498D01*
X151524482Y-79384188D01*
X151400000Y-79371928D01*
X150145750Y-79375000D01*
X149987000Y-79533750D01*
X149733000Y-79533750D01*
X149574250Y-79375000D01*
X148320000Y-79371928D01*
X148195518Y-79384188D01*
X148075820Y-79420498D01*
X147965506Y-79479463D01*
X147868815Y-79558815D01*
X147789463Y-79655506D01*
X147730498Y-79765820D01*
X147694188Y-79885518D01*
X147681928Y-80010000D01*
X141090000Y-80010000D01*
X141090000Y-78813026D01*
X141096700Y-78744999D01*
X141090000Y-78676972D01*
X141090000Y-78676963D01*
X141069960Y-78473493D01*
X140990764Y-78212419D01*
X140862157Y-77971812D01*
X140793845Y-77888574D01*
X140732452Y-77813766D01*
X140732445Y-77813759D01*
X140689080Y-77760919D01*
X140636241Y-77717555D01*
X139687024Y-76768339D01*
X139544637Y-76555241D01*
X139344759Y-76355363D01*
X139109727Y-76198320D01*
X138848574Y-76090147D01*
X138571335Y-76035000D01*
X138288665Y-76035000D01*
X138011426Y-76090147D01*
X137750273Y-76198320D01*
X137515241Y-76355363D01*
X137315363Y-76555241D01*
X137158320Y-76790273D01*
X137050147Y-77051426D01*
X136995000Y-77328665D01*
X136995000Y-77611335D01*
X137050147Y-77888574D01*
X137158320Y-78149727D01*
X137315363Y-78384759D01*
X137515241Y-78584637D01*
X137728339Y-78727024D01*
X138320000Y-79318686D01*
X138320001Y-81353351D01*
X138274463Y-81408839D01*
X138215498Y-81519153D01*
X138209944Y-81537460D01*
X138143505Y-81471021D01*
X137892095Y-81303034D01*
X137672376Y-81212023D01*
X134735000Y-78274648D01*
X134735000Y-76512699D01*
X134785000Y-76261335D01*
X134785000Y-75978665D01*
X134729853Y-75701426D01*
X134621680Y-75440273D01*
X134464637Y-75205241D01*
X134264759Y-75005363D01*
X134051663Y-74862977D01*
X131917454Y-72728769D01*
X131874081Y-72675919D01*
X131663188Y-72502843D01*
X131422581Y-72374236D01*
X131161507Y-72295040D01*
X130958037Y-72275000D01*
X130958029Y-72275000D01*
X130890000Y-72268300D01*
X130821971Y-72275000D01*
X129020000Y-72275000D01*
X129020000Y-70978665D01*
X131915000Y-70978665D01*
X131915000Y-71261335D01*
X131970147Y-71538574D01*
X132078320Y-71799727D01*
X132235363Y-72034759D01*
X132435241Y-72234637D01*
X132648340Y-72377025D01*
X134862546Y-74591231D01*
X134905919Y-74644081D01*
X135116812Y-74817157D01*
X135357419Y-74945764D01*
X135618493Y-75024960D01*
X135821963Y-75045000D01*
X135821972Y-75045000D01*
X135889999Y-75051700D01*
X135958026Y-75045000D01*
X147931538Y-75045000D01*
X148054802Y-75195198D01*
X148247719Y-75353521D01*
X148467816Y-75471165D01*
X148706636Y-75543610D01*
X148955000Y-75568072D01*
X150765000Y-75568072D01*
X151013364Y-75543610D01*
X151252184Y-75471165D01*
X151472281Y-75353521D01*
X151665198Y-75195198D01*
X151823521Y-75002281D01*
X151941165Y-74782184D01*
X152013610Y-74543364D01*
X152038072Y-74295000D01*
X152038072Y-73025000D01*
X152013610Y-72776636D01*
X151941165Y-72537816D01*
X151823521Y-72317719D01*
X151665198Y-72124802D01*
X151472281Y-71966479D01*
X151252184Y-71848835D01*
X151245000Y-71846656D01*
X151245000Y-70393344D01*
X151252184Y-70391165D01*
X151472281Y-70273521D01*
X151665198Y-70115198D01*
X151823521Y-69922281D01*
X151941165Y-69702184D01*
X152013610Y-69463364D01*
X152038072Y-69215000D01*
X152038072Y-67945000D01*
X152013610Y-67696636D01*
X151941165Y-67457816D01*
X151823521Y-67237719D01*
X151665198Y-67044802D01*
X151472281Y-66886479D01*
X151252184Y-66768835D01*
X151245000Y-66766656D01*
X151245000Y-65313344D01*
X151252184Y-65311165D01*
X151472281Y-65193521D01*
X151665198Y-65035198D01*
X151823521Y-64842281D01*
X151941165Y-64622184D01*
X152013610Y-64383364D01*
X152038072Y-64135000D01*
X152038072Y-62865000D01*
X152013610Y-62616636D01*
X151941165Y-62377816D01*
X151823521Y-62157719D01*
X151665198Y-61964802D01*
X151472281Y-61806479D01*
X151252184Y-61688835D01*
X151013364Y-61616390D01*
X150765000Y-61591928D01*
X148955000Y-61591928D01*
X148706636Y-61616390D01*
X148467816Y-61688835D01*
X148247719Y-61806479D01*
X148054802Y-61964802D01*
X147896479Y-62157719D01*
X147778835Y-62377816D01*
X147706390Y-62616636D01*
X147681928Y-62865000D01*
X147681928Y-64135000D01*
X147706390Y-64383364D01*
X147778835Y-64622184D01*
X147896479Y-64842281D01*
X148054802Y-65035198D01*
X148247719Y-65193521D01*
X148467816Y-65311165D01*
X148475000Y-65313344D01*
X148475001Y-66766656D01*
X148467816Y-66768835D01*
X148247719Y-66886479D01*
X148054802Y-67044802D01*
X147896479Y-67237719D01*
X147778835Y-67457816D01*
X147706390Y-67696636D01*
X147681928Y-67945000D01*
X147681928Y-69215000D01*
X147706390Y-69463364D01*
X147778835Y-69702184D01*
X147896479Y-69922281D01*
X148054802Y-70115198D01*
X148247719Y-70273521D01*
X148467816Y-70391165D01*
X148475000Y-70393344D01*
X148475001Y-71846656D01*
X148467816Y-71848835D01*
X148247719Y-71966479D01*
X148054802Y-72124802D01*
X147931538Y-72275000D01*
X136463685Y-72275000D01*
X134607025Y-70418340D01*
X134464637Y-70205241D01*
X134458436Y-70199040D01*
X137038091Y-70199040D01*
X137132930Y-70463881D01*
X137277615Y-70705131D01*
X137466586Y-70913519D01*
X137692580Y-71081037D01*
X137946913Y-71201246D01*
X138080961Y-71241904D01*
X138303000Y-71119915D01*
X138303000Y-69977000D01*
X138557000Y-69977000D01*
X138557000Y-71119915D01*
X138779039Y-71241904D01*
X138913087Y-71201246D01*
X139167420Y-71081037D01*
X139393414Y-70913519D01*
X139582385Y-70705131D01*
X139727070Y-70463881D01*
X139821909Y-70199040D01*
X139700624Y-69977000D01*
X138557000Y-69977000D01*
X138303000Y-69977000D01*
X137159376Y-69977000D01*
X137038091Y-70199040D01*
X134458436Y-70199040D01*
X134264759Y-70005363D01*
X134029727Y-69848320D01*
X133768574Y-69740147D01*
X133491335Y-69685000D01*
X133208665Y-69685000D01*
X132931426Y-69740147D01*
X132670273Y-69848320D01*
X132435241Y-70005363D01*
X132235363Y-70205241D01*
X132078320Y-70440273D01*
X131970147Y-70701426D01*
X131915000Y-70978665D01*
X129020000Y-70978665D01*
X129020000Y-69788685D01*
X129307725Y-69500960D01*
X137038091Y-69500960D01*
X137159376Y-69723000D01*
X138303000Y-69723000D01*
X138303000Y-68580085D01*
X138557000Y-68580085D01*
X138557000Y-69723000D01*
X139700624Y-69723000D01*
X139821909Y-69500960D01*
X139727070Y-69236119D01*
X139582385Y-68994869D01*
X139393414Y-68786481D01*
X139167420Y-68618963D01*
X138913087Y-68498754D01*
X138779039Y-68458096D01*
X138557000Y-68580085D01*
X138303000Y-68580085D01*
X138080961Y-68458096D01*
X137946913Y-68498754D01*
X137692580Y-68618963D01*
X137466586Y-68786481D01*
X137277615Y-68994869D01*
X137132930Y-69236119D01*
X137038091Y-69500960D01*
X129307725Y-69500960D01*
X130113686Y-68695000D01*
X132139918Y-68695000D01*
X132180256Y-68735338D01*
X132480801Y-68936156D01*
X132814750Y-69074482D01*
X133169268Y-69145000D01*
X133530732Y-69145000D01*
X133885250Y-69074482D01*
X134219199Y-68936156D01*
X134519744Y-68735338D01*
X134775338Y-68479744D01*
X134976156Y-68179199D01*
X135114482Y-67845250D01*
X135185000Y-67490732D01*
X135185000Y-67129268D01*
X135114482Y-66774750D01*
X134976156Y-66440801D01*
X134775338Y-66140256D01*
X134519744Y-65884662D01*
X134219199Y-65683844D01*
X133885250Y-65545518D01*
X133530732Y-65475000D01*
X133169268Y-65475000D01*
X132814750Y-65545518D01*
X132480801Y-65683844D01*
X132180256Y-65884662D01*
X132139918Y-65925000D01*
X129608029Y-65925000D01*
X129540000Y-65918300D01*
X129471971Y-65925000D01*
X129471963Y-65925000D01*
X129268493Y-65945040D01*
X129007419Y-66024236D01*
X128766812Y-66152843D01*
X128608766Y-66282548D01*
X128608764Y-66282550D01*
X128555919Y-66325919D01*
X128512550Y-66378764D01*
X126703767Y-68187548D01*
X126650919Y-68230920D01*
X126607550Y-68283765D01*
X126607548Y-68283767D01*
X126563491Y-68337451D01*
X126477843Y-68441813D01*
X126349236Y-68682420D01*
X126270040Y-68943494D01*
X126250000Y-69146964D01*
X126250000Y-69146971D01*
X126243300Y-69215000D01*
X126250000Y-69283029D01*
X126250001Y-72275000D01*
X122972603Y-72275000D01*
X122964180Y-72270498D01*
X122844482Y-72234188D01*
X122720000Y-72221928D01*
X121120000Y-72221928D01*
X120995518Y-72234188D01*
X120875820Y-72270498D01*
X120765506Y-72329463D01*
X120668815Y-72408815D01*
X120589463Y-72505506D01*
X120530498Y-72615820D01*
X120494188Y-72735518D01*
X120481928Y-72860000D01*
X120481928Y-72867215D01*
X120412702Y-72846903D01*
X119599605Y-73660000D01*
X119240395Y-73660000D01*
X118427298Y-72846903D01*
X118183329Y-72918486D01*
X118062429Y-73173996D01*
X117993700Y-73448184D01*
X117979783Y-73730512D01*
X115693265Y-73730512D01*
X115700217Y-73589488D01*
X115658787Y-73309870D01*
X115563603Y-73043708D01*
X115496671Y-72918486D01*
X115252702Y-72846903D01*
X114439605Y-73660000D01*
X114080395Y-73660000D01*
X113267298Y-72846903D01*
X113198072Y-72867215D01*
X113198072Y-72860000D01*
X113185812Y-72735518D01*
X113165118Y-72667298D01*
X113446903Y-72667298D01*
X114260000Y-73480395D01*
X115073097Y-72667298D01*
X118606903Y-72667298D01*
X119420000Y-73480395D01*
X120233097Y-72667298D01*
X120161514Y-72423329D01*
X119906004Y-72302429D01*
X119631816Y-72233700D01*
X119349488Y-72219783D01*
X119069870Y-72261213D01*
X118803708Y-72356397D01*
X118678486Y-72423329D01*
X118606903Y-72667298D01*
X115073097Y-72667298D01*
X115001514Y-72423329D01*
X114746004Y-72302429D01*
X114471816Y-72233700D01*
X114189488Y-72219783D01*
X113909870Y-72261213D01*
X113643708Y-72356397D01*
X113518486Y-72423329D01*
X113446903Y-72667298D01*
X113165118Y-72667298D01*
X113149502Y-72615820D01*
X113145000Y-72607397D01*
X113145000Y-71058685D01*
X113961241Y-70242445D01*
X114014080Y-70199081D01*
X114057445Y-70146241D01*
X114057452Y-70146234D01*
X114187156Y-69988189D01*
X114187157Y-69988188D01*
X114315764Y-69747581D01*
X114394960Y-69486507D01*
X114415000Y-69283037D01*
X114415000Y-69283028D01*
X114421700Y-69215001D01*
X114415000Y-69146974D01*
X114415000Y-68695000D01*
X116905100Y-68695000D01*
X117085596Y-68843129D01*
X117404378Y-69013521D01*
X117750277Y-69118448D01*
X118019861Y-69145000D01*
X118200139Y-69145000D01*
X118469723Y-69118448D01*
X118815622Y-69013521D01*
X119134404Y-68843129D01*
X119413819Y-68613819D01*
X119643129Y-68334404D01*
X119813521Y-68015622D01*
X119918448Y-67669723D01*
X119953878Y-67310000D01*
X119918448Y-66950277D01*
X119813521Y-66604378D01*
X119643129Y-66285596D01*
X119413819Y-66006181D01*
X119134404Y-65776871D01*
X118815622Y-65606479D01*
X118469723Y-65501552D01*
X118200139Y-65475000D01*
X118019861Y-65475000D01*
X117750277Y-65501552D01*
X117404378Y-65606479D01*
X117085596Y-65776871D01*
X116905100Y-65925000D01*
X114415000Y-65925000D01*
X114415000Y-64701963D01*
X114394960Y-64498493D01*
X114315764Y-64237419D01*
X114187157Y-63996812D01*
X114014080Y-63785919D01*
X113805815Y-63615000D01*
X116899918Y-63615000D01*
X116940256Y-63655338D01*
X117240801Y-63856156D01*
X117574750Y-63994482D01*
X117929268Y-64065000D01*
X118290732Y-64065000D01*
X118645250Y-63994482D01*
X118979199Y-63856156D01*
X119279744Y-63655338D01*
X119535338Y-63399744D01*
X119736156Y-63099199D01*
X119874482Y-62765250D01*
X119899036Y-62641805D01*
X131561805Y-62641805D01*
X131634379Y-62881066D01*
X131794361Y-63203257D01*
X132014125Y-63488046D01*
X132285226Y-63724489D01*
X132597246Y-63903500D01*
X132938194Y-64018199D01*
X133223000Y-63901854D01*
X133223000Y-62357000D01*
X133477000Y-62357000D01*
X133477000Y-63901854D01*
X133761806Y-64018199D01*
X134102754Y-63903500D01*
X134414774Y-63724489D01*
X134685875Y-63488046D01*
X134905639Y-63203257D01*
X134926282Y-63161682D01*
X136265000Y-63161682D01*
X136265000Y-63838318D01*
X136397006Y-64501952D01*
X136655943Y-65127082D01*
X137031862Y-65689685D01*
X137510315Y-66168138D01*
X138072918Y-66544057D01*
X138698048Y-66802994D01*
X139361682Y-66935000D01*
X140038318Y-66935000D01*
X140701952Y-66802994D01*
X141327082Y-66544057D01*
X141889685Y-66168138D01*
X142368138Y-65689685D01*
X142744057Y-65127082D01*
X143002994Y-64501952D01*
X143135000Y-63838318D01*
X143135000Y-63161682D01*
X143002994Y-62498048D01*
X142744057Y-61872918D01*
X142368138Y-61310315D01*
X141889685Y-60831862D01*
X141327082Y-60455943D01*
X140701952Y-60197006D01*
X140038318Y-60065000D01*
X139361682Y-60065000D01*
X138698048Y-60197006D01*
X138072918Y-60455943D01*
X137510315Y-60831862D01*
X137031862Y-61310315D01*
X136655943Y-61872918D01*
X136397006Y-62498048D01*
X136265000Y-63161682D01*
X134926282Y-63161682D01*
X135065621Y-62881066D01*
X135138195Y-62641805D01*
X135021432Y-62357000D01*
X133477000Y-62357000D01*
X133223000Y-62357000D01*
X131678568Y-62357000D01*
X131561805Y-62641805D01*
X119899036Y-62641805D01*
X119945000Y-62410732D01*
X119945000Y-62049268D01*
X119899037Y-61818195D01*
X131561805Y-61818195D01*
X131678568Y-62103000D01*
X133223000Y-62103000D01*
X133223000Y-60558146D01*
X133477000Y-60558146D01*
X133477000Y-62103000D01*
X135021432Y-62103000D01*
X135138195Y-61818195D01*
X135065621Y-61578934D01*
X134905639Y-61256743D01*
X134685875Y-60971954D01*
X134414774Y-60735511D01*
X134102754Y-60556500D01*
X133761806Y-60441801D01*
X133477000Y-60558146D01*
X133223000Y-60558146D01*
X132938194Y-60441801D01*
X132597246Y-60556500D01*
X132285226Y-60735511D01*
X132014125Y-60971954D01*
X131794361Y-61256743D01*
X131634379Y-61578934D01*
X131561805Y-61818195D01*
X119899037Y-61818195D01*
X119874482Y-61694750D01*
X119736156Y-61360801D01*
X119535338Y-61060256D01*
X119279744Y-60804662D01*
X118979199Y-60603844D01*
X118645250Y-60465518D01*
X118290732Y-60395000D01*
X117929268Y-60395000D01*
X117574750Y-60465518D01*
X117240801Y-60603844D01*
X116940256Y-60804662D01*
X116899918Y-60845000D01*
X112961963Y-60845000D01*
X112758493Y-60865040D01*
X112497419Y-60944236D01*
X112256812Y-61072843D01*
X112045919Y-61245919D01*
X111872843Y-61456812D01*
X111744236Y-61697419D01*
X111665040Y-61958493D01*
X111638299Y-62230000D01*
X111665040Y-62501507D01*
X111744236Y-62762581D01*
X111872843Y-63003188D01*
X112045919Y-63214081D01*
X112256812Y-63387157D01*
X112467927Y-63500000D01*
X112256812Y-63612843D01*
X112045919Y-63785920D01*
X111872843Y-63996813D01*
X111744236Y-64237420D01*
X111665040Y-64498494D01*
X111645000Y-64701964D01*
X111645000Y-65925000D01*
X97093685Y-65925000D01*
X95365000Y-64196315D01*
X95365000Y-61970475D01*
X101505000Y-61970475D01*
X101505000Y-62489525D01*
X101606261Y-62998601D01*
X101804893Y-63478141D01*
X102093262Y-63909715D01*
X102460285Y-64276738D01*
X102891859Y-64565107D01*
X103371399Y-64763739D01*
X103880475Y-64865000D01*
X104399525Y-64865000D01*
X104908601Y-64763739D01*
X105388141Y-64565107D01*
X105819715Y-64276738D01*
X106186738Y-63909715D01*
X106475107Y-63478141D01*
X106673739Y-62998601D01*
X106775000Y-62489525D01*
X106775000Y-61970475D01*
X106673739Y-61461399D01*
X106475107Y-60981859D01*
X106186738Y-60550285D01*
X105819715Y-60183262D01*
X105388141Y-59894893D01*
X104908601Y-59696261D01*
X104399525Y-59595000D01*
X103880475Y-59595000D01*
X103371399Y-59696261D01*
X102891859Y-59894893D01*
X102460285Y-60183262D01*
X102093262Y-60550285D01*
X101804893Y-60981859D01*
X101606261Y-61461399D01*
X101505000Y-61970475D01*
X95365000Y-61970475D01*
X95365000Y-59925501D01*
X95431185Y-59871185D01*
X95510537Y-59774494D01*
X95569502Y-59664180D01*
X95605812Y-59544482D01*
X95618072Y-59420000D01*
X95618072Y-57420000D01*
X95605812Y-57295518D01*
X95569502Y-57175820D01*
X95510537Y-57065506D01*
X95431185Y-56968815D01*
X95334494Y-56889463D01*
X95224180Y-56830498D01*
X95104482Y-56794188D01*
X94980000Y-56781928D01*
X92980000Y-56781928D01*
X92855518Y-56794188D01*
X92735820Y-56830498D01*
X92625506Y-56889463D01*
X92528815Y-56968815D01*
X92449463Y-57065506D01*
X92424809Y-57111630D01*
X92214463Y-56971082D01*
X91916912Y-56847832D01*
X91601033Y-56785000D01*
X91278967Y-56785000D01*
X90963088Y-56847832D01*
X90665537Y-56971082D01*
X90397748Y-57150013D01*
X90170013Y-57377748D01*
X90170000Y-57377767D01*
X90169987Y-57377748D01*
X89942252Y-57150013D01*
X89674463Y-56971082D01*
X89376912Y-56847832D01*
X89061033Y-56785000D01*
X88738967Y-56785000D01*
X88423088Y-56847832D01*
X88125537Y-56971082D01*
X87857748Y-57150013D01*
X87630013Y-57377748D01*
X87451082Y-57645537D01*
X87327832Y-57943088D01*
X87265000Y-58258967D01*
X87265000Y-58581033D01*
X87327832Y-58896912D01*
X87451082Y-59194463D01*
X87515001Y-59290124D01*
X87515000Y-62136563D01*
X87515000Y-62136564D01*
X87515001Y-65971961D01*
X87508300Y-66040000D01*
X87535040Y-66311507D01*
X87614236Y-66572580D01*
X87742844Y-66813188D01*
X87872548Y-66971233D01*
X87872551Y-66971236D01*
X87915920Y-67024081D01*
X87968765Y-67067450D01*
X90055001Y-69153686D01*
X90055000Y-71598546D01*
X89995820Y-71616498D01*
X89885506Y-71675463D01*
X89788815Y-71754815D01*
X89709463Y-71851506D01*
X89650498Y-71961820D01*
X89632546Y-72021000D01*
X88808026Y-72021000D01*
X88739999Y-72014300D01*
X88671972Y-72021000D01*
X88671963Y-72021000D01*
X88468493Y-72041040D01*
X88207419Y-72120236D01*
X87966812Y-72248843D01*
X87966810Y-72248844D01*
X87966811Y-72248844D01*
X87808766Y-72378548D01*
X87808764Y-72378550D01*
X87755919Y-72421919D01*
X87712550Y-72474764D01*
X85428765Y-74758550D01*
X85375919Y-74801920D01*
X85332550Y-74854765D01*
X85332548Y-74854767D01*
X85286247Y-74911185D01*
X85202843Y-75012813D01*
X85117322Y-75172812D01*
X85074236Y-75253420D01*
X85008184Y-75471165D01*
X84995040Y-75514494D01*
X84975000Y-75717964D01*
X84975000Y-75717971D01*
X84968300Y-75786000D01*
X84975000Y-75854029D01*
X84975001Y-81976313D01*
X81280000Y-85671315D01*
X81037454Y-85428769D01*
X80994081Y-85375919D01*
X80783188Y-85202843D01*
X80542581Y-85074236D01*
X80281507Y-84995040D01*
X80078037Y-84975000D01*
X80078029Y-84975000D01*
X80010000Y-84968300D01*
X79941971Y-84975000D01*
X75503686Y-84975000D01*
X74274099Y-83745413D01*
X76564992Y-83745413D01*
X76660756Y-84009814D01*
X76950371Y-84150704D01*
X77261908Y-84232384D01*
X77583395Y-84251718D01*
X77902475Y-84207961D01*
X78206888Y-84102795D01*
X78380844Y-84009814D01*
X78476608Y-83745413D01*
X80324192Y-83745413D01*
X80419956Y-84009814D01*
X80709571Y-84150704D01*
X81021108Y-84232384D01*
X81342595Y-84251718D01*
X81661675Y-84207961D01*
X81966088Y-84102795D01*
X82140044Y-84009814D01*
X82235808Y-83745413D01*
X81280000Y-82789605D01*
X80324192Y-83745413D01*
X78476608Y-83745413D01*
X77520800Y-82789605D01*
X76564992Y-83745413D01*
X74274099Y-83745413D01*
X73201281Y-82672595D01*
X75879082Y-82672595D01*
X75922839Y-82991675D01*
X76028005Y-83296088D01*
X76120986Y-83470044D01*
X76385387Y-83565808D01*
X77341195Y-82610000D01*
X77700405Y-82610000D01*
X78656213Y-83565808D01*
X78920614Y-83470044D01*
X79061504Y-83180429D01*
X79143184Y-82868892D01*
X79154989Y-82672595D01*
X79638282Y-82672595D01*
X79682039Y-82991675D01*
X79787205Y-83296088D01*
X79880186Y-83470044D01*
X80144587Y-83565808D01*
X81100395Y-82610000D01*
X81459605Y-82610000D01*
X82415413Y-83565808D01*
X82679814Y-83470044D01*
X82820704Y-83180429D01*
X82902384Y-82868892D01*
X82921718Y-82547405D01*
X82877961Y-82228325D01*
X82772795Y-81923912D01*
X82679814Y-81749956D01*
X82415413Y-81654192D01*
X81459605Y-82610000D01*
X81100395Y-82610000D01*
X80144587Y-81654192D01*
X79880186Y-81749956D01*
X79739296Y-82039571D01*
X79657616Y-82351108D01*
X79638282Y-82672595D01*
X79154989Y-82672595D01*
X79162518Y-82547405D01*
X79118761Y-82228325D01*
X79013595Y-81923912D01*
X78920614Y-81749956D01*
X78656213Y-81654192D01*
X77700405Y-82610000D01*
X77341195Y-82610000D01*
X76385387Y-81654192D01*
X76120986Y-81749956D01*
X75980096Y-82039571D01*
X75898416Y-82351108D01*
X75879082Y-82672595D01*
X73201281Y-82672595D01*
X72028072Y-81499387D01*
X72028072Y-81474587D01*
X76564992Y-81474587D01*
X77520800Y-82430395D01*
X78476608Y-81474587D01*
X80324192Y-81474587D01*
X81280000Y-82430395D01*
X82235808Y-81474587D01*
X82140044Y-81210186D01*
X81850429Y-81069296D01*
X81538892Y-80987616D01*
X81217405Y-80968282D01*
X80898325Y-81012039D01*
X80593912Y-81117205D01*
X80419956Y-81210186D01*
X80324192Y-81474587D01*
X78476608Y-81474587D01*
X78380844Y-81210186D01*
X78091229Y-81069296D01*
X77779692Y-80987616D01*
X77458205Y-80968282D01*
X77139125Y-81012039D01*
X76834712Y-81117205D01*
X76660756Y-81210186D01*
X76564992Y-81474587D01*
X72028072Y-81474587D01*
X72028072Y-80645000D01*
X72003610Y-80396636D01*
X71931165Y-80157816D01*
X71813521Y-79937719D01*
X71655198Y-79744802D01*
X71462281Y-79586479D01*
X71242184Y-79468835D01*
X71235000Y-79466656D01*
X71235000Y-76014026D01*
X71241700Y-75945999D01*
X71235000Y-75877972D01*
X71235000Y-75877963D01*
X71214960Y-75674493D01*
X71135764Y-75413419D01*
X71007157Y-75172812D01*
X70834081Y-74961919D01*
X70781231Y-74918546D01*
X69268685Y-73406000D01*
X78166122Y-73406000D01*
X78201552Y-73765723D01*
X78306479Y-74111622D01*
X78476871Y-74430404D01*
X78706181Y-74709819D01*
X78985596Y-74939129D01*
X79304378Y-75109521D01*
X79650277Y-75214448D01*
X79919861Y-75241000D01*
X80100139Y-75241000D01*
X80369723Y-75214448D01*
X80715622Y-75109521D01*
X81034404Y-74939129D01*
X81313819Y-74709819D01*
X81543129Y-74430404D01*
X81713521Y-74111622D01*
X81818448Y-73765723D01*
X81853878Y-73406000D01*
X81818448Y-73046277D01*
X81713521Y-72700378D01*
X81543129Y-72381596D01*
X81313819Y-72102181D01*
X81034404Y-71872871D01*
X80715622Y-71702479D01*
X80369723Y-71597552D01*
X80100139Y-71571000D01*
X79919861Y-71571000D01*
X79650277Y-71597552D01*
X79304378Y-71702479D01*
X78985596Y-71872871D01*
X78706181Y-72102181D01*
X78476871Y-72381596D01*
X78306479Y-72700378D01*
X78201552Y-73046277D01*
X78166122Y-73406000D01*
X69268685Y-73406000D01*
X69148072Y-73285387D01*
X69148072Y-72206000D01*
X69135812Y-72081518D01*
X69099502Y-71961820D01*
X69040537Y-71851506D01*
X68961185Y-71754815D01*
X68864494Y-71675463D01*
X68754180Y-71616498D01*
X68634482Y-71580188D01*
X68510000Y-71567928D01*
X66110000Y-71567928D01*
X65985518Y-71580188D01*
X65865820Y-71616498D01*
X65755506Y-71675463D01*
X65658815Y-71754815D01*
X65579463Y-71851506D01*
X65520498Y-71961820D01*
X65484188Y-72081518D01*
X65471928Y-72206000D01*
X65471928Y-74606000D01*
X65484188Y-74730482D01*
X65520498Y-74850180D01*
X65579463Y-74960494D01*
X65658815Y-75057185D01*
X65755506Y-75136537D01*
X65865820Y-75195502D01*
X65985518Y-75231812D01*
X66110000Y-75244072D01*
X67189387Y-75244072D01*
X68465001Y-76519686D01*
X68465000Y-79466656D01*
X68457816Y-79468835D01*
X68237719Y-79586479D01*
X68044802Y-79744802D01*
X67886479Y-79937719D01*
X67768835Y-80157816D01*
X67696390Y-80396636D01*
X67671928Y-80645000D01*
X67671928Y-81915000D01*
X67696390Y-82163364D01*
X67768835Y-82402184D01*
X67886479Y-82622281D01*
X68044802Y-82815198D01*
X68237719Y-82973521D01*
X68457816Y-83091165D01*
X68696636Y-83163610D01*
X68945000Y-83188072D01*
X69799387Y-83188072D01*
X71064041Y-84452726D01*
X70135750Y-84455000D01*
X69977000Y-84613750D01*
X69977000Y-86233000D01*
X71866250Y-86233000D01*
X72025000Y-86074250D01*
X72027055Y-85415741D01*
X73902550Y-87291236D01*
X73945919Y-87344081D01*
X73998764Y-87387450D01*
X73998766Y-87387452D01*
X74047108Y-87427125D01*
X74156812Y-87517157D01*
X74367925Y-87629999D01*
X74397419Y-87645764D01*
X74658492Y-87724960D01*
X74681892Y-87727265D01*
X74861963Y-87745000D01*
X74861971Y-87745000D01*
X74930000Y-87751700D01*
X74998029Y-87745000D01*
X79436315Y-87745000D01*
X79895000Y-88203686D01*
X79895001Y-89239876D01*
X79831082Y-89335537D01*
X79707832Y-89633088D01*
X79645000Y-89948967D01*
X79645000Y-90271033D01*
X79646113Y-90276628D01*
X79115413Y-89745928D01*
X79092968Y-89633088D01*
X78969718Y-89335537D01*
X78790787Y-89067748D01*
X78563052Y-88840013D01*
X78295263Y-88661082D01*
X77997712Y-88537832D01*
X77681833Y-88475000D01*
X77359767Y-88475000D01*
X77043888Y-88537832D01*
X76746337Y-88661082D01*
X76478548Y-88840013D01*
X76250813Y-89067748D01*
X76071882Y-89335537D01*
X75948632Y-89633088D01*
X75926187Y-89745928D01*
X75617115Y-90055000D01*
X71778462Y-90055000D01*
X71655198Y-89904802D01*
X71462281Y-89746479D01*
X71242184Y-89628835D01*
X71003364Y-89556390D01*
X70755000Y-89531928D01*
X68945000Y-89531928D01*
X68696636Y-89556390D01*
X68457816Y-89628835D01*
X68237719Y-89746479D01*
X68044802Y-89904802D01*
X67886479Y-90097719D01*
X67768835Y-90317816D01*
X67696390Y-90556636D01*
X67671928Y-90805000D01*
X67671928Y-92075000D01*
X67696390Y-92323364D01*
X67768835Y-92562184D01*
X67886479Y-92782281D01*
X68044802Y-92975198D01*
X68237719Y-93133521D01*
X68457816Y-93251165D01*
X68465000Y-93253344D01*
X68465001Y-96200314D01*
X67182650Y-97482665D01*
X66950277Y-97505552D01*
X66604378Y-97610479D01*
X66285596Y-97780871D01*
X66006181Y-98010181D01*
X65776871Y-98289596D01*
X65606479Y-98608378D01*
X65501552Y-98954277D01*
X65466122Y-99314000D01*
X65501552Y-99673723D01*
X65606479Y-100019622D01*
X65776871Y-100338404D01*
X66006181Y-100617819D01*
X66285596Y-100847129D01*
X66604378Y-101017521D01*
X66950277Y-101122448D01*
X67219861Y-101149000D01*
X67400139Y-101149000D01*
X67669723Y-101122448D01*
X68015622Y-101017521D01*
X68334404Y-100847129D01*
X68613819Y-100617819D01*
X68843129Y-100338404D01*
X69013521Y-100019622D01*
X69118448Y-99673723D01*
X69141335Y-99441350D01*
X70468685Y-98114000D01*
X78171928Y-98114000D01*
X78171928Y-100514000D01*
X78184188Y-100638482D01*
X78220498Y-100758180D01*
X78279463Y-100868494D01*
X78358815Y-100965185D01*
X78455506Y-101044537D01*
X78565820Y-101103502D01*
X78685518Y-101139812D01*
X78810000Y-101152072D01*
X81210000Y-101152072D01*
X81334482Y-101139812D01*
X81454180Y-101103502D01*
X81564494Y-101044537D01*
X81661185Y-100965185D01*
X81740537Y-100868494D01*
X81799502Y-100758180D01*
X81835812Y-100638482D01*
X81848072Y-100514000D01*
X81848072Y-98114000D01*
X81835812Y-97989518D01*
X81799502Y-97869820D01*
X81740537Y-97759506D01*
X81661185Y-97662815D01*
X81564494Y-97583463D01*
X81454180Y-97524498D01*
X81334482Y-97488188D01*
X81210000Y-97475928D01*
X78810000Y-97475928D01*
X78685518Y-97488188D01*
X78565820Y-97524498D01*
X78455506Y-97583463D01*
X78358815Y-97662815D01*
X78279463Y-97759506D01*
X78220498Y-97869820D01*
X78184188Y-97989518D01*
X78171928Y-98114000D01*
X70468685Y-98114000D01*
X70781231Y-97801454D01*
X70834081Y-97758081D01*
X71007157Y-97547188D01*
X71135764Y-97306581D01*
X71214960Y-97045507D01*
X71235000Y-96842037D01*
X71235000Y-96842028D01*
X71241700Y-96774001D01*
X71235000Y-96705974D01*
X71235000Y-93253344D01*
X71242184Y-93251165D01*
X71462281Y-93133521D01*
X71655198Y-92975198D01*
X71778462Y-92825000D01*
X76122771Y-92825000D01*
X76190800Y-92831700D01*
X76258829Y-92825000D01*
X76258837Y-92825000D01*
X76462307Y-92804960D01*
X76723381Y-92725764D01*
X76963988Y-92597157D01*
X77174881Y-92424081D01*
X77218254Y-92371231D01*
X77520800Y-92068685D01*
X80363346Y-94911231D01*
X80406719Y-94964081D01*
X80617612Y-95137157D01*
X80858219Y-95265764D01*
X81119293Y-95344960D01*
X81322763Y-95365000D01*
X81322772Y-95365000D01*
X81390799Y-95371700D01*
X81458826Y-95365000D01*
X85652315Y-95365000D01*
X89481314Y-99194000D01*
X84158764Y-104516551D01*
X84105920Y-104559919D01*
X84062551Y-104612764D01*
X84062548Y-104612767D01*
X83932844Y-104770812D01*
X83804236Y-105011420D01*
X83725040Y-105272493D01*
X83698300Y-105544000D01*
X83705001Y-105612039D01*
X83705000Y-115501971D01*
X83698300Y-115570000D01*
X83705000Y-115638029D01*
X83705000Y-115638036D01*
X83715921Y-115748918D01*
X83725040Y-115841507D01*
X83771320Y-115994070D01*
X83804236Y-116102580D01*
X83927242Y-116332707D01*
X83932844Y-116343188D01*
X84012411Y-116440140D01*
X84105919Y-116554080D01*
X84158765Y-116597450D01*
X84961314Y-117400000D01*
X66074720Y-117400000D01*
X65685216Y-117361809D01*
X65343937Y-117258771D01*
X65029175Y-117091409D01*
X64752917Y-116866097D01*
X64525683Y-116591418D01*
X64356131Y-116277838D01*
X64250713Y-115937288D01*
X64210000Y-115549928D01*
X64210000Y-108881682D01*
X65145000Y-108881682D01*
X65145000Y-109558318D01*
X65277006Y-110221952D01*
X65535943Y-110847082D01*
X65911862Y-111409685D01*
X66390315Y-111888138D01*
X66952918Y-112264057D01*
X67578048Y-112522994D01*
X68241682Y-112655000D01*
X68918318Y-112655000D01*
X69581952Y-112522994D01*
X70207082Y-112264057D01*
X70769685Y-111888138D01*
X71248138Y-111409685D01*
X71624057Y-110847082D01*
X71879463Y-110230475D01*
X76105000Y-110230475D01*
X76105000Y-110749525D01*
X76206261Y-111258601D01*
X76404893Y-111738141D01*
X76693262Y-112169715D01*
X77060285Y-112536738D01*
X77491859Y-112825107D01*
X77971399Y-113023739D01*
X78480475Y-113125000D01*
X78999525Y-113125000D01*
X79508601Y-113023739D01*
X79988141Y-112825107D01*
X80419715Y-112536738D01*
X80786738Y-112169715D01*
X81075107Y-111738141D01*
X81273739Y-111258601D01*
X81375000Y-110749525D01*
X81375000Y-110230475D01*
X81273739Y-109721399D01*
X81075107Y-109241859D01*
X80786738Y-108810285D01*
X80419715Y-108443262D01*
X79988141Y-108154893D01*
X79508601Y-107956261D01*
X78999525Y-107855000D01*
X78480475Y-107855000D01*
X77971399Y-107956261D01*
X77491859Y-108154893D01*
X77060285Y-108443262D01*
X76693262Y-108810285D01*
X76404893Y-109241859D01*
X76206261Y-109721399D01*
X76105000Y-110230475D01*
X71879463Y-110230475D01*
X71882994Y-110221952D01*
X72015000Y-109558318D01*
X72015000Y-108881682D01*
X71882994Y-108218048D01*
X71624057Y-107592918D01*
X71248138Y-107030315D01*
X70769685Y-106551862D01*
X70207082Y-106175943D01*
X69581952Y-105917006D01*
X68918318Y-105785000D01*
X68241682Y-105785000D01*
X67578048Y-105917006D01*
X66952918Y-106175943D01*
X66390315Y-106551862D01*
X65911862Y-107030315D01*
X65535943Y-107592918D01*
X65277006Y-108218048D01*
X65145000Y-108881682D01*
X64210000Y-108881682D01*
X64210000Y-87630000D01*
X67671928Y-87630000D01*
X67684188Y-87754482D01*
X67720498Y-87874180D01*
X67779463Y-87984494D01*
X67858815Y-88081185D01*
X67955506Y-88160537D01*
X68065820Y-88219502D01*
X68185518Y-88255812D01*
X68310000Y-88268072D01*
X69564250Y-88265000D01*
X69723000Y-88106250D01*
X69723000Y-86487000D01*
X69977000Y-86487000D01*
X69977000Y-88106250D01*
X70135750Y-88265000D01*
X71390000Y-88268072D01*
X71514482Y-88255812D01*
X71634180Y-88219502D01*
X71744494Y-88160537D01*
X71841185Y-88081185D01*
X71920537Y-87984494D01*
X71979502Y-87874180D01*
X72015812Y-87754482D01*
X72028072Y-87630000D01*
X72025000Y-86645750D01*
X71866250Y-86487000D01*
X69977000Y-86487000D01*
X69723000Y-86487000D01*
X67833750Y-86487000D01*
X67675000Y-86645750D01*
X67671928Y-87630000D01*
X64210000Y-87630000D01*
X64210000Y-85090000D01*
X67671928Y-85090000D01*
X67675000Y-86074250D01*
X67833750Y-86233000D01*
X69723000Y-86233000D01*
X69723000Y-84613750D01*
X69564250Y-84455000D01*
X68310000Y-84451928D01*
X68185518Y-84464188D01*
X68065820Y-84500498D01*
X67955506Y-84559463D01*
X67858815Y-84638815D01*
X67779463Y-84735506D01*
X67720498Y-84845820D01*
X67684188Y-84965518D01*
X67671928Y-85090000D01*
X64210000Y-85090000D01*
X64210000Y-64431682D01*
X65145000Y-64431682D01*
X65145000Y-65108318D01*
X65277006Y-65771952D01*
X65535943Y-66397082D01*
X65911862Y-66959685D01*
X66390315Y-67438138D01*
X66952918Y-67814057D01*
X67578048Y-68072994D01*
X68241682Y-68205000D01*
X68918318Y-68205000D01*
X69581952Y-68072994D01*
X70207082Y-67814057D01*
X70769685Y-67438138D01*
X71248138Y-66959685D01*
X71624057Y-66397082D01*
X71882994Y-65771952D01*
X72015000Y-65108318D01*
X72015000Y-64431682D01*
X71882994Y-63768048D01*
X71624057Y-63142918D01*
X71248138Y-62580315D01*
X70769685Y-62101862D01*
X70573051Y-61970475D01*
X76105000Y-61970475D01*
X76105000Y-62489525D01*
X76206261Y-62998601D01*
X76404893Y-63478141D01*
X76693262Y-63909715D01*
X77060285Y-64276738D01*
X77491859Y-64565107D01*
X77971399Y-64763739D01*
X78480475Y-64865000D01*
X78999525Y-64865000D01*
X79508601Y-64763739D01*
X79988141Y-64565107D01*
X80419715Y-64276738D01*
X80786738Y-63909715D01*
X81075107Y-63478141D01*
X81273739Y-62998601D01*
X81375000Y-62489525D01*
X81375000Y-61970475D01*
X81273739Y-61461399D01*
X81075107Y-60981859D01*
X80786738Y-60550285D01*
X80419715Y-60183262D01*
X79988141Y-59894893D01*
X79508601Y-59696261D01*
X78999525Y-59595000D01*
X78480475Y-59595000D01*
X77971399Y-59696261D01*
X77491859Y-59894893D01*
X77060285Y-60183262D01*
X76693262Y-60550285D01*
X76404893Y-60981859D01*
X76206261Y-61461399D01*
X76105000Y-61970475D01*
X70573051Y-61970475D01*
X70207082Y-61725943D01*
X69581952Y-61467006D01*
X68918318Y-61335000D01*
X68241682Y-61335000D01*
X67578048Y-61467006D01*
X66952918Y-61725943D01*
X66390315Y-62101862D01*
X65911862Y-62580315D01*
X65535943Y-63142918D01*
X65277006Y-63768048D01*
X65145000Y-64431682D01*
X64210000Y-64431682D01*
X64210000Y-58454720D01*
X64248191Y-58065215D01*
X64351228Y-57723940D01*
X64518590Y-57409178D01*
X64743903Y-57132917D01*
X65018582Y-56905683D01*
X65332164Y-56736130D01*
X65672708Y-56630714D01*
X66060072Y-56590000D01*
X153635280Y-56590000D01*
X154024785Y-56628191D01*
M02*
