G04 #@! TF.GenerationSoftware,KiCad,Pcbnew,(5.0.1)-4*
G04 #@! TF.CreationDate,2019-03-08T22:54:25+01:00*
G04 #@! TF.ProjectId,PSU - Transformer,505355202D205472616E73666F726D65,rev?*
G04 #@! TF.SameCoordinates,Original*
G04 #@! TF.FileFunction,Legend,Top*
G04 #@! TF.FilePolarity,Positive*
%FSLAX46Y46*%
G04 Gerber Fmt 4.6, Leading zero omitted, Abs format (unit mm)*
G04 Created by KiCad (PCBNEW (5.0.1)-4) date 3/8/2019 10:54:25 PM*
%MOMM*%
%LPD*%
G01*
G04 APERTURE LIST*
%ADD10C,0.250000*%
%ADD11C,0.300000*%
%ADD12C,0.150000*%
%ADD13C,0.120000*%
%ADD14C,0.500000*%
%ADD15C,0.750000*%
G04 APERTURE END LIST*
D10*
X215590428Y-122862219D02*
X215590428Y-122100314D01*
X215971380Y-121100314D02*
X215971380Y-121671742D01*
X215971380Y-121386028D02*
X214971380Y-121386028D01*
X215114238Y-121481266D01*
X215209476Y-121576504D01*
X215257095Y-121671742D01*
X215066619Y-120719361D02*
X215019000Y-120671742D01*
X214971380Y-120576504D01*
X214971380Y-120338409D01*
X215019000Y-120243171D01*
X215066619Y-120195552D01*
X215161857Y-120147933D01*
X215257095Y-120147933D01*
X215399952Y-120195552D01*
X215971380Y-120766980D01*
X215971380Y-120147933D01*
X214971380Y-119862219D02*
X215971380Y-119528885D01*
X214971380Y-119195552D01*
X215019000Y-117576504D02*
X214971380Y-117671742D01*
X214971380Y-117814600D01*
X215019000Y-117957457D01*
X215114238Y-118052695D01*
X215209476Y-118100314D01*
X215399952Y-118147933D01*
X215542809Y-118147933D01*
X215733285Y-118100314D01*
X215828523Y-118052695D01*
X215923761Y-117957457D01*
X215971380Y-117814600D01*
X215971380Y-117719361D01*
X215923761Y-117576504D01*
X215876142Y-117528885D01*
X215542809Y-117528885D01*
X215542809Y-117719361D01*
X215971380Y-117100314D02*
X214971380Y-117100314D01*
X215971380Y-116528885D01*
X214971380Y-116528885D01*
X215971380Y-116052695D02*
X214971380Y-116052695D01*
X214971380Y-115814600D01*
X215019000Y-115671742D01*
X215114238Y-115576504D01*
X215209476Y-115528885D01*
X215399952Y-115481266D01*
X215542809Y-115481266D01*
X215733285Y-115528885D01*
X215828523Y-115576504D01*
X215923761Y-115671742D01*
X215971380Y-115814600D01*
X215971380Y-116052695D01*
X215590428Y-114290790D02*
X215590428Y-113528885D01*
X215971380Y-113909838D02*
X215209476Y-113909838D01*
X215971380Y-112528885D02*
X215971380Y-113100314D01*
X215971380Y-112814600D02*
X214971380Y-112814600D01*
X215114238Y-112909838D01*
X215209476Y-113005076D01*
X215257095Y-113100314D01*
X215066619Y-112147933D02*
X215019000Y-112100314D01*
X214971380Y-112005076D01*
X214971380Y-111766980D01*
X215019000Y-111671742D01*
X215066619Y-111624123D01*
X215161857Y-111576504D01*
X215257095Y-111576504D01*
X215399952Y-111624123D01*
X215971380Y-112195552D01*
X215971380Y-111576504D01*
X214971380Y-111290790D02*
X215971380Y-110957457D01*
X214971380Y-110624123D01*
X215590428Y-100027619D02*
X215590428Y-99265714D01*
X215971380Y-98265714D02*
X215971380Y-98837142D01*
X215971380Y-98551428D02*
X214971380Y-98551428D01*
X215114238Y-98646666D01*
X215209476Y-98741904D01*
X215257095Y-98837142D01*
X215066619Y-97884761D02*
X215019000Y-97837142D01*
X214971380Y-97741904D01*
X214971380Y-97503809D01*
X215019000Y-97408571D01*
X215066619Y-97360952D01*
X215161857Y-97313333D01*
X215257095Y-97313333D01*
X215399952Y-97360952D01*
X215971380Y-97932380D01*
X215971380Y-97313333D01*
X214971380Y-97027619D02*
X215971380Y-96694285D01*
X214971380Y-96360952D01*
X215019000Y-94741904D02*
X214971380Y-94837142D01*
X214971380Y-94980000D01*
X215019000Y-95122857D01*
X215114238Y-95218095D01*
X215209476Y-95265714D01*
X215399952Y-95313333D01*
X215542809Y-95313333D01*
X215733285Y-95265714D01*
X215828523Y-95218095D01*
X215923761Y-95122857D01*
X215971380Y-94980000D01*
X215971380Y-94884761D01*
X215923761Y-94741904D01*
X215876142Y-94694285D01*
X215542809Y-94694285D01*
X215542809Y-94884761D01*
X215971380Y-94265714D02*
X214971380Y-94265714D01*
X215971380Y-93694285D01*
X214971380Y-93694285D01*
X215971380Y-93218095D02*
X214971380Y-93218095D01*
X214971380Y-92980000D01*
X215019000Y-92837142D01*
X215114238Y-92741904D01*
X215209476Y-92694285D01*
X215399952Y-92646666D01*
X215542809Y-92646666D01*
X215733285Y-92694285D01*
X215828523Y-92741904D01*
X215923761Y-92837142D01*
X215971380Y-92980000D01*
X215971380Y-93218095D01*
X215590428Y-91456190D02*
X215590428Y-90694285D01*
X215971380Y-91075238D02*
X215209476Y-91075238D01*
X215971380Y-89694285D02*
X215971380Y-90265714D01*
X215971380Y-89980000D02*
X214971380Y-89980000D01*
X215114238Y-90075238D01*
X215209476Y-90170476D01*
X215257095Y-90265714D01*
X215066619Y-89313333D02*
X215019000Y-89265714D01*
X214971380Y-89170476D01*
X214971380Y-88932380D01*
X215019000Y-88837142D01*
X215066619Y-88789523D01*
X215161857Y-88741904D01*
X215257095Y-88741904D01*
X215399952Y-88789523D01*
X215971380Y-89360952D01*
X215971380Y-88741904D01*
X214971380Y-88456190D02*
X215971380Y-88122857D01*
X214971380Y-87789523D01*
X215590428Y-77167619D02*
X215590428Y-76405714D01*
X215971380Y-75405714D02*
X215971380Y-75977142D01*
X215971380Y-75691428D02*
X214971380Y-75691428D01*
X215114238Y-75786666D01*
X215209476Y-75881904D01*
X215257095Y-75977142D01*
X215066619Y-75024761D02*
X215019000Y-74977142D01*
X214971380Y-74881904D01*
X214971380Y-74643809D01*
X215019000Y-74548571D01*
X215066619Y-74500952D01*
X215161857Y-74453333D01*
X215257095Y-74453333D01*
X215399952Y-74500952D01*
X215971380Y-75072380D01*
X215971380Y-74453333D01*
X214971380Y-74167619D02*
X215971380Y-73834285D01*
X214971380Y-73500952D01*
X215019000Y-71881904D02*
X214971380Y-71977142D01*
X214971380Y-72120000D01*
X215019000Y-72262857D01*
X215114238Y-72358095D01*
X215209476Y-72405714D01*
X215399952Y-72453333D01*
X215542809Y-72453333D01*
X215733285Y-72405714D01*
X215828523Y-72358095D01*
X215923761Y-72262857D01*
X215971380Y-72120000D01*
X215971380Y-72024761D01*
X215923761Y-71881904D01*
X215876142Y-71834285D01*
X215542809Y-71834285D01*
X215542809Y-72024761D01*
X215971380Y-71405714D02*
X214971380Y-71405714D01*
X215971380Y-70834285D01*
X214971380Y-70834285D01*
X215971380Y-70358095D02*
X214971380Y-70358095D01*
X214971380Y-70120000D01*
X215019000Y-69977142D01*
X215114238Y-69881904D01*
X215209476Y-69834285D01*
X215399952Y-69786666D01*
X215542809Y-69786666D01*
X215733285Y-69834285D01*
X215828523Y-69881904D01*
X215923761Y-69977142D01*
X215971380Y-70120000D01*
X215971380Y-70358095D01*
X215590428Y-68596190D02*
X215590428Y-67834285D01*
X215971380Y-68215238D02*
X215209476Y-68215238D01*
X215971380Y-66834285D02*
X215971380Y-67405714D01*
X215971380Y-67120000D02*
X214971380Y-67120000D01*
X215114238Y-67215238D01*
X215209476Y-67310476D01*
X215257095Y-67405714D01*
X215066619Y-66453333D02*
X215019000Y-66405714D01*
X214971380Y-66310476D01*
X214971380Y-66072380D01*
X215019000Y-65977142D01*
X215066619Y-65929523D01*
X215161857Y-65881904D01*
X215257095Y-65881904D01*
X215399952Y-65929523D01*
X215971380Y-66500952D01*
X215971380Y-65881904D01*
X214971380Y-65596190D02*
X215971380Y-65262857D01*
X214971380Y-64929523D01*
X215590428Y-54307619D02*
X215590428Y-53545714D01*
X215971380Y-52545714D02*
X215971380Y-53117142D01*
X215971380Y-52831428D02*
X214971380Y-52831428D01*
X215114238Y-52926666D01*
X215209476Y-53021904D01*
X215257095Y-53117142D01*
X215066619Y-52164761D02*
X215019000Y-52117142D01*
X214971380Y-52021904D01*
X214971380Y-51783809D01*
X215019000Y-51688571D01*
X215066619Y-51640952D01*
X215161857Y-51593333D01*
X215257095Y-51593333D01*
X215399952Y-51640952D01*
X215971380Y-52212380D01*
X215971380Y-51593333D01*
X214971380Y-51307619D02*
X215971380Y-50974285D01*
X214971380Y-50640952D01*
X215019000Y-49021904D02*
X214971380Y-49117142D01*
X214971380Y-49260000D01*
X215019000Y-49402857D01*
X215114238Y-49498095D01*
X215209476Y-49545714D01*
X215399952Y-49593333D01*
X215542809Y-49593333D01*
X215733285Y-49545714D01*
X215828523Y-49498095D01*
X215923761Y-49402857D01*
X215971380Y-49260000D01*
X215971380Y-49164761D01*
X215923761Y-49021904D01*
X215876142Y-48974285D01*
X215542809Y-48974285D01*
X215542809Y-49164761D01*
X215971380Y-48545714D02*
X214971380Y-48545714D01*
X215971380Y-47974285D01*
X214971380Y-47974285D01*
X215971380Y-47498095D02*
X214971380Y-47498095D01*
X214971380Y-47260000D01*
X215019000Y-47117142D01*
X215114238Y-47021904D01*
X215209476Y-46974285D01*
X215399952Y-46926666D01*
X215542809Y-46926666D01*
X215733285Y-46974285D01*
X215828523Y-47021904D01*
X215923761Y-47117142D01*
X215971380Y-47260000D01*
X215971380Y-47498095D01*
X215590428Y-45736190D02*
X215590428Y-44974285D01*
X215971380Y-45355238D02*
X215209476Y-45355238D01*
X215971380Y-43974285D02*
X215971380Y-44545714D01*
X215971380Y-44260000D02*
X214971380Y-44260000D01*
X215114238Y-44355238D01*
X215209476Y-44450476D01*
X215257095Y-44545714D01*
X215066619Y-43593333D02*
X215019000Y-43545714D01*
X214971380Y-43450476D01*
X214971380Y-43212380D01*
X215019000Y-43117142D01*
X215066619Y-43069523D01*
X215161857Y-43021904D01*
X215257095Y-43021904D01*
X215399952Y-43069523D01*
X215971380Y-43640952D01*
X215971380Y-43021904D01*
X214971380Y-42736190D02*
X215971380Y-42402857D01*
X214971380Y-42069523D01*
D11*
X141391428Y-74333571D02*
X141391428Y-72833571D01*
X141962857Y-72833571D01*
X142105714Y-72905000D01*
X142177142Y-72976428D01*
X142248571Y-73119285D01*
X142248571Y-73333571D01*
X142177142Y-73476428D01*
X142105714Y-73547857D01*
X141962857Y-73619285D01*
X141391428Y-73619285D01*
X142891428Y-74333571D02*
X142891428Y-73333571D01*
X142891428Y-73619285D02*
X142962857Y-73476428D01*
X143034285Y-73405000D01*
X143177142Y-73333571D01*
X143320000Y-73333571D01*
X143820000Y-74333571D02*
X143820000Y-73333571D01*
X143820000Y-72833571D02*
X143748571Y-72905000D01*
X143820000Y-72976428D01*
X143891428Y-72905000D01*
X143820000Y-72833571D01*
X143820000Y-72976428D01*
X144534285Y-74333571D02*
X144534285Y-73333571D01*
X144534285Y-73476428D02*
X144605714Y-73405000D01*
X144748571Y-73333571D01*
X144962857Y-73333571D01*
X145105714Y-73405000D01*
X145177142Y-73547857D01*
X145177142Y-74333571D01*
X145177142Y-73547857D02*
X145248571Y-73405000D01*
X145391428Y-73333571D01*
X145605714Y-73333571D01*
X145748571Y-73405000D01*
X145820000Y-73547857D01*
X145820000Y-74333571D01*
X146534285Y-74190714D02*
X146605714Y-74262142D01*
X146534285Y-74333571D01*
X146462857Y-74262142D01*
X146534285Y-74190714D01*
X146534285Y-74333571D01*
X148320000Y-72976428D02*
X148391428Y-72905000D01*
X148534285Y-72833571D01*
X148891428Y-72833571D01*
X149034285Y-72905000D01*
X149105714Y-72976428D01*
X149177142Y-73119285D01*
X149177142Y-73262142D01*
X149105714Y-73476428D01*
X148248571Y-74333571D01*
X149177142Y-74333571D01*
X149748571Y-72976428D02*
X149820000Y-72905000D01*
X149962857Y-72833571D01*
X150320000Y-72833571D01*
X150462857Y-72905000D01*
X150534285Y-72976428D01*
X150605714Y-73119285D01*
X150605714Y-73262142D01*
X150534285Y-73476428D01*
X149677142Y-74333571D01*
X150605714Y-74333571D01*
X151534285Y-72833571D02*
X151677142Y-72833571D01*
X151820000Y-72905000D01*
X151891428Y-72976428D01*
X151962857Y-73119285D01*
X152034285Y-73405000D01*
X152034285Y-73762142D01*
X151962857Y-74047857D01*
X151891428Y-74190714D01*
X151820000Y-74262142D01*
X151677142Y-74333571D01*
X151534285Y-74333571D01*
X151391428Y-74262142D01*
X151320000Y-74190714D01*
X151248571Y-74047857D01*
X151177142Y-73762142D01*
X151177142Y-73405000D01*
X151248571Y-73119285D01*
X151320000Y-72976428D01*
X151391428Y-72905000D01*
X151534285Y-72833571D01*
X152462857Y-72833571D02*
X152962857Y-74333571D01*
X153462857Y-72833571D01*
X135034285Y-76812142D02*
X135248571Y-76883571D01*
X135605714Y-76883571D01*
X135748571Y-76812142D01*
X135820000Y-76740714D01*
X135891428Y-76597857D01*
X135891428Y-76455000D01*
X135820000Y-76312142D01*
X135748571Y-76240714D01*
X135605714Y-76169285D01*
X135320000Y-76097857D01*
X135177142Y-76026428D01*
X135105714Y-75955000D01*
X135034285Y-75812142D01*
X135034285Y-75669285D01*
X135105714Y-75526428D01*
X135177142Y-75455000D01*
X135320000Y-75383571D01*
X135677142Y-75383571D01*
X135891428Y-75455000D01*
X137105714Y-76812142D02*
X136962857Y-76883571D01*
X136677142Y-76883571D01*
X136534285Y-76812142D01*
X136462857Y-76669285D01*
X136462857Y-76097857D01*
X136534285Y-75955000D01*
X136677142Y-75883571D01*
X136962857Y-75883571D01*
X137105714Y-75955000D01*
X137177142Y-76097857D01*
X137177142Y-76240714D01*
X136462857Y-76383571D01*
X138462857Y-76812142D02*
X138320000Y-76883571D01*
X138034285Y-76883571D01*
X137891428Y-76812142D01*
X137820000Y-76740714D01*
X137748571Y-76597857D01*
X137748571Y-76169285D01*
X137820000Y-76026428D01*
X137891428Y-75955000D01*
X138034285Y-75883571D01*
X138320000Y-75883571D01*
X138462857Y-75955000D01*
X139105714Y-76740714D02*
X139177142Y-76812142D01*
X139105714Y-76883571D01*
X139034285Y-76812142D01*
X139105714Y-76740714D01*
X139105714Y-76883571D01*
X140962857Y-76312142D02*
X142105714Y-76312142D01*
X141534285Y-76883571D02*
X141534285Y-75740714D01*
X143891428Y-75312142D02*
X142605714Y-77240714D01*
X144391428Y-76312142D02*
X145534285Y-76312142D01*
X148177142Y-76883571D02*
X147320000Y-76883571D01*
X147748571Y-76883571D02*
X147748571Y-75383571D01*
X147605714Y-75597857D01*
X147462857Y-75740714D01*
X147320000Y-75812142D01*
X148748571Y-75526428D02*
X148820000Y-75455000D01*
X148962857Y-75383571D01*
X149320000Y-75383571D01*
X149462857Y-75455000D01*
X149534285Y-75526428D01*
X149605714Y-75669285D01*
X149605714Y-75812142D01*
X149534285Y-76026428D01*
X148677142Y-76883571D01*
X149605714Y-76883571D01*
X150034285Y-75383571D02*
X150534285Y-76883571D01*
X151034285Y-75383571D01*
X151605714Y-76812142D02*
X151605714Y-76883571D01*
X151534285Y-77026428D01*
X151462857Y-77097857D01*
X154177142Y-76883571D02*
X153320000Y-76883571D01*
X153748571Y-76883571D02*
X153748571Y-75383571D01*
X153605714Y-75597857D01*
X153462857Y-75740714D01*
X153320000Y-75812142D01*
X155534285Y-75383571D02*
X154820000Y-75383571D01*
X154748571Y-76097857D01*
X154820000Y-76026428D01*
X154962857Y-75955000D01*
X155320000Y-75955000D01*
X155462857Y-76026428D01*
X155534285Y-76097857D01*
X155605714Y-76240714D01*
X155605714Y-76597857D01*
X155534285Y-76740714D01*
X155462857Y-76812142D01*
X155320000Y-76883571D01*
X154962857Y-76883571D01*
X154820000Y-76812142D01*
X154748571Y-76740714D01*
X156534285Y-75383571D02*
X156677142Y-75383571D01*
X156820000Y-75455000D01*
X156891428Y-75526428D01*
X156962857Y-75669285D01*
X157034285Y-75955000D01*
X157034285Y-76312142D01*
X156962857Y-76597857D01*
X156891428Y-76740714D01*
X156820000Y-76812142D01*
X156677142Y-76883571D01*
X156534285Y-76883571D01*
X156391428Y-76812142D01*
X156320000Y-76740714D01*
X156248571Y-76597857D01*
X156177142Y-76312142D01*
X156177142Y-75955000D01*
X156248571Y-75669285D01*
X156320000Y-75526428D01*
X156391428Y-75455000D01*
X156534285Y-75383571D01*
X157462857Y-75383571D02*
X157962857Y-76883571D01*
X158462857Y-75383571D01*
X158891428Y-76455000D02*
X159605714Y-76455000D01*
X158748571Y-76883571D02*
X159248571Y-75383571D01*
X159748571Y-76883571D01*
D12*
G04 #@! TO.C,D1*
X194570000Y-115580000D02*
X200370000Y-115580000D01*
X194570000Y-138980000D02*
X194570000Y-115580000D01*
X200370000Y-138980000D02*
X194570000Y-138980000D01*
X200370000Y-115580000D02*
X200370000Y-138980000D01*
G04 #@! TO.C,D2*
X207300000Y-138980000D02*
X207300000Y-115580000D01*
X207300000Y-115580000D02*
X213100000Y-115580000D01*
X213100000Y-115580000D02*
X213100000Y-138980000D01*
X213100000Y-138980000D02*
X207300000Y-138980000D01*
D13*
G04 #@! TO.C,F1*
X73700000Y-129620000D02*
X71200000Y-129620000D01*
X81200000Y-129620000D02*
X78700000Y-129620000D01*
X81200000Y-117620000D02*
X78700000Y-117620000D01*
X71200000Y-117620000D02*
X73700000Y-117620000D01*
X76200000Y-128120000D02*
X76200000Y-119120000D01*
X73700000Y-128120000D02*
X78700000Y-128120000D01*
X73700000Y-119120000D02*
X78700000Y-119120000D01*
X74300000Y-113620000D02*
X73700000Y-113620000D01*
X78100000Y-133620000D02*
X78700000Y-133620000D01*
X78700000Y-133620000D02*
X78700000Y-113620000D01*
X78700000Y-113620000D02*
X78100000Y-113620000D01*
X73700000Y-113620000D02*
X73700000Y-133620000D01*
X73700000Y-133620000D02*
X74300000Y-133620000D01*
X74300000Y-111620000D02*
X71200000Y-111620000D01*
X78100000Y-135620000D02*
X81200000Y-135620000D01*
X81200000Y-135620000D02*
X81200000Y-111620000D01*
X81200000Y-111620000D02*
X78100000Y-111620000D01*
X71200000Y-111620000D02*
X71200000Y-135620000D01*
X71200000Y-135620000D02*
X74300000Y-135620000D01*
G04 #@! TO.C,F2*
X90250000Y-135620000D02*
X93350000Y-135620000D01*
X90250000Y-111620000D02*
X90250000Y-135620000D01*
X100250000Y-111620000D02*
X97150000Y-111620000D01*
X100250000Y-135620000D02*
X100250000Y-111620000D01*
X97150000Y-135620000D02*
X100250000Y-135620000D01*
X93350000Y-111620000D02*
X90250000Y-111620000D01*
X92750000Y-133620000D02*
X93350000Y-133620000D01*
X92750000Y-113620000D02*
X92750000Y-133620000D01*
X97750000Y-113620000D02*
X97150000Y-113620000D01*
X97750000Y-133620000D02*
X97750000Y-113620000D01*
X97150000Y-133620000D02*
X97750000Y-133620000D01*
X93350000Y-113620000D02*
X92750000Y-113620000D01*
X92750000Y-119120000D02*
X97750000Y-119120000D01*
X92750000Y-128120000D02*
X97750000Y-128120000D01*
X95250000Y-128120000D02*
X95250000Y-119120000D01*
X90250000Y-117620000D02*
X92750000Y-117620000D01*
X100250000Y-117620000D02*
X97750000Y-117620000D01*
X100250000Y-129620000D02*
X97750000Y-129620000D01*
X92750000Y-129620000D02*
X90250000Y-129620000D01*
D14*
G04 #@! TO.C,J1*
X78108400Y-68133800D02*
X78108400Y-28233800D01*
X94408400Y-68133800D02*
X94408400Y-28233800D01*
D15*
X89258400Y-33933800D02*
G75*
G03X89258400Y-33933800I-3000000J0D01*
G01*
X89258400Y-62433800D02*
G75*
G03X89258400Y-62433800I-3000000J0D01*
G01*
D14*
X78108400Y-68133800D02*
X94408400Y-68133800D01*
X78108400Y-28233800D02*
X94408400Y-28233800D01*
D12*
G04 #@! TO.C,J2*
X228600000Y-40614600D02*
X218440000Y-40614600D01*
X218440000Y-40614600D02*
X218440000Y-55854600D01*
X218440000Y-55854600D02*
X228600000Y-55854600D01*
X228600000Y-55854600D02*
X228600000Y-40614600D01*
X220980000Y-40614600D02*
X220980000Y-55854600D01*
G04 #@! TO.C,J3*
X220980000Y-63449200D02*
X220980000Y-78689200D01*
X228600000Y-78689200D02*
X228600000Y-63449200D01*
X218440000Y-78689200D02*
X228600000Y-78689200D01*
X218440000Y-63449200D02*
X218440000Y-78689200D01*
X228600000Y-63449200D02*
X218440000Y-63449200D01*
G04 #@! TO.C,J4*
X228600000Y-86360000D02*
X218440000Y-86360000D01*
X218440000Y-86360000D02*
X218440000Y-101600000D01*
X218440000Y-101600000D02*
X228600000Y-101600000D01*
X228600000Y-101600000D02*
X228600000Y-86360000D01*
X220980000Y-86360000D02*
X220980000Y-101600000D01*
G04 #@! TO.C,J5*
X220954600Y-109194599D02*
X220954600Y-124434599D01*
X228574600Y-124434599D02*
X228574600Y-109194599D01*
X218414600Y-124434599D02*
X228574600Y-124434599D01*
X218414600Y-109194599D02*
X218414600Y-124434599D01*
X228574600Y-109194599D02*
X218414600Y-109194599D01*
G04 #@! TO.C,T1*
X168910000Y-80010000D02*
X184150000Y-49530000D01*
X199390000Y-86360000D02*
X168910000Y-80010000D01*
X167640000Y-95250000D02*
X199390000Y-86360000D01*
X184150000Y-123190000D02*
X167640000Y-95250000D01*
X156210000Y-106680000D02*
X184150000Y-123190000D01*
X147320000Y-138430000D02*
X156210000Y-106680000D01*
X137160000Y-106680000D02*
X147320000Y-138430000D01*
X110490000Y-123190000D02*
X137160000Y-106680000D01*
X127000000Y-95250000D02*
X110490000Y-123190000D01*
X95250000Y-86360000D02*
X127000000Y-95250000D01*
X127000000Y-77470000D02*
X95250000Y-86360000D01*
X110490000Y-49530000D02*
X127000000Y-77470000D01*
X139700000Y-66040000D02*
X110490000Y-49530000D01*
X147320000Y-34290000D02*
X139700000Y-66040000D01*
X154940000Y-66040000D02*
X147320000Y-34290000D01*
X184150000Y-49530000D02*
X154940000Y-66040000D01*
X169021770Y-86360000D02*
G75*
G03X169021770Y-86360000I-21701770J0D01*
G01*
X150014077Y-86360000D02*
G75*
G03X150014077Y-86360000I-2694077J0D01*
G01*
X199320000Y-86360000D02*
G75*
G03X199320000Y-86360000I-52000000J0D01*
G01*
G04 #@! TO.C,*
G04 #@! TO.C,D1*
X193492380Y-138078095D02*
X192492380Y-138078095D01*
X192492380Y-137840000D01*
X192540000Y-137697142D01*
X192635238Y-137601904D01*
X192730476Y-137554285D01*
X192920952Y-137506666D01*
X193063809Y-137506666D01*
X193254285Y-137554285D01*
X193349523Y-137601904D01*
X193444761Y-137697142D01*
X193492380Y-137840000D01*
X193492380Y-138078095D01*
X193492380Y-136554285D02*
X193492380Y-137125714D01*
X193492380Y-136840000D02*
X192492380Y-136840000D01*
X192635238Y-136935238D01*
X192730476Y-137030476D01*
X192778095Y-137125714D01*
G04 #@! TO.C,D2*
X206192380Y-137518095D02*
X205192380Y-137518095D01*
X205192380Y-137280000D01*
X205240000Y-137137142D01*
X205335238Y-137041904D01*
X205430476Y-136994285D01*
X205620952Y-136946666D01*
X205763809Y-136946666D01*
X205954285Y-136994285D01*
X206049523Y-137041904D01*
X206144761Y-137137142D01*
X206192380Y-137280000D01*
X206192380Y-137518095D01*
X205287619Y-136565714D02*
X205240000Y-136518095D01*
X205192380Y-136422857D01*
X205192380Y-136184761D01*
X205240000Y-136089523D01*
X205287619Y-136041904D01*
X205382857Y-135994285D01*
X205478095Y-135994285D01*
X205620952Y-136041904D01*
X206192380Y-136613333D01*
X206192380Y-135994285D01*
G04 #@! TO.C,F1*
X72318571Y-123953333D02*
X72318571Y-124286666D01*
X72842380Y-124286666D02*
X71842380Y-124286666D01*
X71842380Y-123810476D01*
X72842380Y-122905714D02*
X72842380Y-123477142D01*
X72842380Y-123191428D02*
X71842380Y-123191428D01*
X71985238Y-123286666D01*
X72080476Y-123381904D01*
X72128095Y-123477142D01*
G04 #@! TO.C,F2*
X91368571Y-123953333D02*
X91368571Y-124286666D01*
X91892380Y-124286666D02*
X90892380Y-124286666D01*
X90892380Y-123810476D01*
X90987619Y-123477142D02*
X90940000Y-123429523D01*
X90892380Y-123334285D01*
X90892380Y-123096190D01*
X90940000Y-123000952D01*
X90987619Y-122953333D01*
X91082857Y-122905714D01*
X91178095Y-122905714D01*
X91320952Y-122953333D01*
X91892380Y-123524761D01*
X91892380Y-122905714D01*
G04 #@! TO.C,J1*
X96632780Y-48517133D02*
X97347066Y-48517133D01*
X97489923Y-48564752D01*
X97585161Y-48659990D01*
X97632780Y-48802847D01*
X97632780Y-48898085D01*
X97632780Y-47517133D02*
X97632780Y-48088561D01*
X97632780Y-47802847D02*
X96632780Y-47802847D01*
X96775638Y-47898085D01*
X96870876Y-47993323D01*
X96918495Y-48088561D01*
G04 #@! TO.C,J2*
X216774780Y-48567933D02*
X217489066Y-48567933D01*
X217631923Y-48615552D01*
X217727161Y-48710790D01*
X217774780Y-48853647D01*
X217774780Y-48948885D01*
X216870019Y-48139361D02*
X216822400Y-48091742D01*
X216774780Y-47996504D01*
X216774780Y-47758409D01*
X216822400Y-47663171D01*
X216870019Y-47615552D01*
X216965257Y-47567933D01*
X217060495Y-47567933D01*
X217203352Y-47615552D01*
X217774780Y-48186980D01*
X217774780Y-47567933D01*
G04 #@! TO.C,J3*
X216774780Y-71402533D02*
X217489066Y-71402533D01*
X217631923Y-71450152D01*
X217727161Y-71545390D01*
X217774780Y-71688247D01*
X217774780Y-71783485D01*
X216774780Y-71021580D02*
X216774780Y-70402533D01*
X217155733Y-70735866D01*
X217155733Y-70593009D01*
X217203352Y-70497771D01*
X217250971Y-70450152D01*
X217346209Y-70402533D01*
X217584304Y-70402533D01*
X217679542Y-70450152D01*
X217727161Y-70497771D01*
X217774780Y-70593009D01*
X217774780Y-70878723D01*
X217727161Y-70973961D01*
X217679542Y-71021580D01*
G04 #@! TO.C,J4*
X216774780Y-94313333D02*
X217489066Y-94313333D01*
X217631923Y-94360952D01*
X217727161Y-94456190D01*
X217774780Y-94599047D01*
X217774780Y-94694285D01*
X217108114Y-93408571D02*
X217774780Y-93408571D01*
X216727161Y-93646666D02*
X217441447Y-93884761D01*
X217441447Y-93265714D01*
G04 #@! TO.C,J5*
X216774780Y-117122532D02*
X217489066Y-117122532D01*
X217631923Y-117170151D01*
X217727161Y-117265389D01*
X217774780Y-117408246D01*
X217774780Y-117503484D01*
X216774780Y-116170151D02*
X216774780Y-116646341D01*
X217250971Y-116693960D01*
X217203352Y-116646341D01*
X217155733Y-116551103D01*
X217155733Y-116313008D01*
X217203352Y-116217770D01*
X217250971Y-116170151D01*
X217346209Y-116122532D01*
X217584304Y-116122532D01*
X217679542Y-116170151D01*
X217727161Y-116217770D01*
X217774780Y-116313008D01*
X217774780Y-116551103D01*
X217727161Y-116646341D01*
X217679542Y-116693960D01*
G04 #@! TO.C,T1*
D11*
X145796190Y-97964761D02*
X146939047Y-97964761D01*
X146367619Y-99964761D02*
X146367619Y-97964761D01*
X148653333Y-99964761D02*
X147510476Y-99964761D01*
X148081904Y-99964761D02*
X148081904Y-97964761D01*
X147891428Y-98250476D01*
X147700952Y-98440952D01*
X147510476Y-98536190D01*
D14*
X92797142Y-91074285D02*
X89797142Y-91074285D01*
X89797142Y-89931428D01*
X89940000Y-89645714D01*
X90082857Y-89502857D01*
X90368571Y-89360000D01*
X90797142Y-89360000D01*
X91082857Y-89502857D01*
X91225714Y-89645714D01*
X91368571Y-89931428D01*
X91368571Y-91074285D01*
X92797142Y-86360000D02*
X91368571Y-87360000D01*
X92797142Y-88074285D02*
X89797142Y-88074285D01*
X89797142Y-86931428D01*
X89940000Y-86645714D01*
X90082857Y-86502857D01*
X90368571Y-86360000D01*
X90797142Y-86360000D01*
X91082857Y-86502857D01*
X91225714Y-86645714D01*
X91368571Y-86931428D01*
X91368571Y-88074285D01*
X92797142Y-85074285D02*
X89797142Y-85074285D01*
X92797142Y-83645714D02*
X89797142Y-83645714D01*
X91940000Y-82645714D01*
X89797142Y-81645714D01*
X92797142Y-81645714D01*
X204414285Y-82485714D02*
X204557142Y-82057142D01*
X204557142Y-81342857D01*
X204414285Y-81057142D01*
X204271428Y-80914285D01*
X203985714Y-80771428D01*
X203700000Y-80771428D01*
X203414285Y-80914285D01*
X203271428Y-81057142D01*
X203128571Y-81342857D01*
X202985714Y-81914285D01*
X202842857Y-82200000D01*
X202700000Y-82342857D01*
X202414285Y-82485714D01*
X202128571Y-82485714D01*
X201842857Y-82342857D01*
X201700000Y-82200000D01*
X201557142Y-81914285D01*
X201557142Y-81200000D01*
X201700000Y-80771428D01*
X202985714Y-79485714D02*
X202985714Y-78485714D01*
X204557142Y-78057142D02*
X204557142Y-79485714D01*
X201557142Y-79485714D01*
X201557142Y-78057142D01*
X204271428Y-75057142D02*
X204414285Y-75200000D01*
X204557142Y-75628571D01*
X204557142Y-75914285D01*
X204414285Y-76342857D01*
X204128571Y-76628571D01*
X203842857Y-76771428D01*
X203271428Y-76914285D01*
X202842857Y-76914285D01*
X202271428Y-76771428D01*
X201985714Y-76628571D01*
X201700000Y-76342857D01*
X201557142Y-75914285D01*
X201557142Y-75628571D01*
X201700000Y-75200000D01*
X201842857Y-75057142D01*
X204557142Y-69914285D02*
X204557142Y-71628571D01*
X204557142Y-70771428D02*
X201557142Y-70771428D01*
X201985714Y-71057142D01*
X202271428Y-71342857D01*
X202414285Y-71628571D01*
X204414285Y-102805714D02*
X204557142Y-102377142D01*
X204557142Y-101662857D01*
X204414285Y-101377142D01*
X204271428Y-101234285D01*
X203985714Y-101091428D01*
X203700000Y-101091428D01*
X203414285Y-101234285D01*
X203271428Y-101377142D01*
X203128571Y-101662857D01*
X202985714Y-102234285D01*
X202842857Y-102520000D01*
X202700000Y-102662857D01*
X202414285Y-102805714D01*
X202128571Y-102805714D01*
X201842857Y-102662857D01*
X201700000Y-102520000D01*
X201557142Y-102234285D01*
X201557142Y-101520000D01*
X201700000Y-101091428D01*
X202985714Y-99805714D02*
X202985714Y-98805714D01*
X204557142Y-98377142D02*
X204557142Y-99805714D01*
X201557142Y-99805714D01*
X201557142Y-98377142D01*
X204271428Y-95377142D02*
X204414285Y-95520000D01*
X204557142Y-95948571D01*
X204557142Y-96234285D01*
X204414285Y-96662857D01*
X204128571Y-96948571D01*
X203842857Y-97091428D01*
X203271428Y-97234285D01*
X202842857Y-97234285D01*
X202271428Y-97091428D01*
X201985714Y-96948571D01*
X201700000Y-96662857D01*
X201557142Y-96234285D01*
X201557142Y-95948571D01*
X201700000Y-95520000D01*
X201842857Y-95377142D01*
X201842857Y-91948571D02*
X201700000Y-91805714D01*
X201557142Y-91520000D01*
X201557142Y-90805714D01*
X201700000Y-90520000D01*
X201842857Y-90377142D01*
X202128571Y-90234285D01*
X202414285Y-90234285D01*
X202842857Y-90377142D01*
X204557142Y-92091428D01*
X204557142Y-90234285D01*
G04 #@! TD*
M02*
