G04 #@! TF.GenerationSoftware,KiCad,Pcbnew,(5.1.0)-1*
G04 #@! TF.CreationDate,2019-07-24T12:11:53+02:00*
G04 #@! TF.ProjectId,PSU - Filter,50535520-2d20-4466-996c-7465722e6b69,rev?*
G04 #@! TF.SameCoordinates,Original*
G04 #@! TF.FileFunction,Soldermask,Top*
G04 #@! TF.FilePolarity,Negative*
%FSLAX46Y46*%
G04 Gerber Fmt 4.6, Leading zero omitted, Abs format (unit mm)*
G04 Created by KiCad (PCBNEW (5.1.0)-1) date 2019-07-24 12:11:53*
%MOMM*%
%LPD*%
G04 APERTURE LIST*
%ADD10C,0.100000*%
G04 APERTURE END LIST*
D10*
G36*
X90100000Y-113770883D02*
G01*
X90102402Y-113795269D01*
X90109515Y-113818718D01*
X90121066Y-113840329D01*
X90136611Y-113859271D01*
X90155553Y-113874816D01*
X90177164Y-113886367D01*
X90200613Y-113893480D01*
X90224999Y-113895882D01*
X90249385Y-113893480D01*
X90272834Y-113886367D01*
X90294445Y-113874816D01*
X90313387Y-113859271D01*
X90328932Y-113840329D01*
X90340483Y-113818718D01*
X90376573Y-113731588D01*
X90507899Y-113535045D01*
X90675045Y-113367899D01*
X90871587Y-113236574D01*
X90871589Y-113236573D01*
X91089974Y-113146115D01*
X91321809Y-113100000D01*
X91558191Y-113100000D01*
X91790026Y-113146115D01*
X92008411Y-113236573D01*
X92008413Y-113236574D01*
X92204955Y-113367899D01*
X92372101Y-113535045D01*
X92503427Y-113731589D01*
X92594516Y-113951497D01*
X92606067Y-113973108D01*
X92621612Y-113992050D01*
X92640554Y-114007595D01*
X92662165Y-114019146D01*
X92685614Y-114026259D01*
X92710000Y-114028661D01*
X92734386Y-114026259D01*
X92757835Y-114019146D01*
X92779446Y-114007595D01*
X92798388Y-113992050D01*
X92813933Y-113973108D01*
X92825484Y-113951497D01*
X92916573Y-113731589D01*
X93047899Y-113535045D01*
X93215045Y-113367899D01*
X93411587Y-113236574D01*
X93411589Y-113236573D01*
X93629974Y-113146115D01*
X93861809Y-113100000D01*
X94098191Y-113100000D01*
X94330026Y-113146115D01*
X94548411Y-113236573D01*
X94548413Y-113236574D01*
X94744955Y-113367899D01*
X94912101Y-113535045D01*
X95043427Y-113731589D01*
X95133885Y-113949974D01*
X95180000Y-114181809D01*
X95180000Y-114418191D01*
X95133885Y-114650026D01*
X95079517Y-114781282D01*
X95043426Y-114868413D01*
X94912101Y-115064955D01*
X94744955Y-115232101D01*
X94548413Y-115363426D01*
X94548412Y-115363427D01*
X94548411Y-115363427D01*
X94330026Y-115453885D01*
X94098191Y-115500000D01*
X93861809Y-115500000D01*
X93629974Y-115453885D01*
X93411589Y-115363427D01*
X93411588Y-115363427D01*
X93411587Y-115363426D01*
X93215045Y-115232101D01*
X93047899Y-115064955D01*
X92916574Y-114868413D01*
X92880483Y-114781282D01*
X92825484Y-114648503D01*
X92813933Y-114626892D01*
X92798388Y-114607950D01*
X92779446Y-114592405D01*
X92757835Y-114580854D01*
X92734386Y-114573741D01*
X92710000Y-114571339D01*
X92685614Y-114573741D01*
X92662165Y-114580854D01*
X92640554Y-114592405D01*
X92621612Y-114607950D01*
X92606067Y-114626892D01*
X92594516Y-114648503D01*
X92539517Y-114781282D01*
X92503426Y-114868413D01*
X92372101Y-115064955D01*
X92204955Y-115232101D01*
X92008413Y-115363426D01*
X92008412Y-115363427D01*
X92008411Y-115363427D01*
X91790026Y-115453885D01*
X91558191Y-115500000D01*
X91321809Y-115500000D01*
X91089974Y-115453885D01*
X90871589Y-115363427D01*
X90871588Y-115363427D01*
X90871587Y-115363426D01*
X90675045Y-115232101D01*
X90507899Y-115064955D01*
X90376574Y-114868413D01*
X90376573Y-114868412D01*
X90340483Y-114781282D01*
X90328932Y-114759671D01*
X90313387Y-114740729D01*
X90294445Y-114725184D01*
X90272834Y-114713633D01*
X90249385Y-114706520D01*
X90224999Y-114704118D01*
X90200613Y-114706520D01*
X90177164Y-114713633D01*
X90155553Y-114725184D01*
X90136611Y-114740729D01*
X90121066Y-114759671D01*
X90109515Y-114781282D01*
X90102402Y-114804731D01*
X90100000Y-114829117D01*
X90100000Y-115500000D01*
X87700000Y-115500000D01*
X87700000Y-113100000D01*
X90100000Y-113100000D01*
X90100000Y-113770883D01*
X90100000Y-113770883D01*
G37*
G36*
X104781715Y-108374544D02*
G01*
X105172625Y-108536464D01*
X105182091Y-108540385D01*
X105542418Y-108781148D01*
X105848852Y-109087582D01*
X106059306Y-109402548D01*
X106089616Y-109447911D01*
X106255456Y-109848285D01*
X106340000Y-110273318D01*
X106340000Y-110706682D01*
X106255456Y-111131715D01*
X106154831Y-111374645D01*
X106089615Y-111532091D01*
X105848852Y-111892418D01*
X105542418Y-112198852D01*
X105182091Y-112439615D01*
X105182090Y-112439616D01*
X105182089Y-112439616D01*
X104781715Y-112605456D01*
X104356682Y-112690000D01*
X103923318Y-112690000D01*
X103498285Y-112605456D01*
X103097911Y-112439616D01*
X103097910Y-112439616D01*
X103097909Y-112439615D01*
X102737582Y-112198852D01*
X102431148Y-111892418D01*
X102190385Y-111532091D01*
X102125169Y-111374645D01*
X102024544Y-111131715D01*
X101940000Y-110706682D01*
X101940000Y-110273318D01*
X102024544Y-109848285D01*
X102190384Y-109447911D01*
X102220695Y-109402548D01*
X102431148Y-109087582D01*
X102737582Y-108781148D01*
X103097909Y-108540385D01*
X103107375Y-108536464D01*
X103498285Y-108374544D01*
X103923318Y-108290000D01*
X104356682Y-108290000D01*
X104781715Y-108374544D01*
X104781715Y-108374544D01*
G37*
G36*
X79381715Y-108374544D02*
G01*
X79772625Y-108536464D01*
X79782091Y-108540385D01*
X80142418Y-108781148D01*
X80448852Y-109087582D01*
X80659306Y-109402548D01*
X80689616Y-109447911D01*
X80855456Y-109848285D01*
X80940000Y-110273318D01*
X80940000Y-110706682D01*
X80855456Y-111131715D01*
X80754831Y-111374645D01*
X80689615Y-111532091D01*
X80448852Y-111892418D01*
X80142418Y-112198852D01*
X79782091Y-112439615D01*
X79782090Y-112439616D01*
X79782089Y-112439616D01*
X79381715Y-112605456D01*
X78956682Y-112690000D01*
X78523318Y-112690000D01*
X78098285Y-112605456D01*
X77697911Y-112439616D01*
X77697910Y-112439616D01*
X77697909Y-112439615D01*
X77337582Y-112198852D01*
X77031148Y-111892418D01*
X76790385Y-111532091D01*
X76725169Y-111374645D01*
X76624544Y-111131715D01*
X76540000Y-110706682D01*
X76540000Y-110273318D01*
X76624544Y-109848285D01*
X76790384Y-109447911D01*
X76820695Y-109402548D01*
X77031148Y-109087582D01*
X77337582Y-108781148D01*
X77697909Y-108540385D01*
X77707375Y-108536464D01*
X78098285Y-108374544D01*
X78523318Y-108290000D01*
X78956682Y-108290000D01*
X79381715Y-108374544D01*
X79381715Y-108374544D01*
G37*
G36*
X140370736Y-106294644D02*
G01*
X140575068Y-106335288D01*
X141121033Y-106561434D01*
X141612389Y-106889748D01*
X142030252Y-107307611D01*
X142358566Y-107798967D01*
X142584712Y-108344932D01*
X142592838Y-108385783D01*
X142700000Y-108924524D01*
X142700000Y-109515476D01*
X142638063Y-109826853D01*
X142584712Y-110095068D01*
X142478241Y-110352111D01*
X142364011Y-110627889D01*
X142358566Y-110641033D01*
X142193295Y-110888378D01*
X142030253Y-111132388D01*
X141612388Y-111550253D01*
X141448604Y-111659690D01*
X141121033Y-111878566D01*
X141121032Y-111878567D01*
X141121031Y-111878567D01*
X140961122Y-111944803D01*
X140575068Y-112104712D01*
X140381870Y-112143141D01*
X139995476Y-112220000D01*
X139404524Y-112220000D01*
X139018130Y-112143141D01*
X138824932Y-112104712D01*
X138438878Y-111944803D01*
X138278969Y-111878567D01*
X138278968Y-111878567D01*
X138278967Y-111878566D01*
X137951396Y-111659690D01*
X137787612Y-111550253D01*
X137369747Y-111132388D01*
X137206705Y-110888378D01*
X137041434Y-110641033D01*
X137035990Y-110627889D01*
X136921759Y-110352111D01*
X136815288Y-110095068D01*
X136761937Y-109826853D01*
X136700000Y-109515476D01*
X136700000Y-108924524D01*
X136807162Y-108385783D01*
X136815288Y-108344932D01*
X137041434Y-107798967D01*
X137369748Y-107307611D01*
X137787611Y-106889748D01*
X138278967Y-106561434D01*
X138824932Y-106335288D01*
X139029264Y-106294644D01*
X139404524Y-106220000D01*
X139995476Y-106220000D01*
X140370736Y-106294644D01*
X140370736Y-106294644D01*
G37*
G36*
X69250736Y-106294644D02*
G01*
X69455068Y-106335288D01*
X70001033Y-106561434D01*
X70492389Y-106889748D01*
X70910252Y-107307611D01*
X71238566Y-107798967D01*
X71464712Y-108344932D01*
X71472838Y-108385783D01*
X71580000Y-108924524D01*
X71580000Y-109515476D01*
X71518063Y-109826853D01*
X71464712Y-110095068D01*
X71358241Y-110352111D01*
X71244011Y-110627889D01*
X71238566Y-110641033D01*
X71073295Y-110888378D01*
X70910253Y-111132388D01*
X70492388Y-111550253D01*
X70328604Y-111659690D01*
X70001033Y-111878566D01*
X70001032Y-111878567D01*
X70001031Y-111878567D01*
X69841122Y-111944803D01*
X69455068Y-112104712D01*
X69261870Y-112143141D01*
X68875476Y-112220000D01*
X68284524Y-112220000D01*
X67898130Y-112143141D01*
X67704932Y-112104712D01*
X67318878Y-111944803D01*
X67158969Y-111878567D01*
X67158968Y-111878567D01*
X67158967Y-111878566D01*
X66831396Y-111659690D01*
X66667612Y-111550253D01*
X66249747Y-111132388D01*
X66086705Y-110888378D01*
X65921434Y-110641033D01*
X65915990Y-110627889D01*
X65801759Y-110352111D01*
X65695288Y-110095068D01*
X65641937Y-109826853D01*
X65580000Y-109515476D01*
X65580000Y-108924524D01*
X65687162Y-108385783D01*
X65695288Y-108344932D01*
X65921434Y-107798967D01*
X66249748Y-107307611D01*
X66667611Y-106889748D01*
X67158967Y-106561434D01*
X67704932Y-106335288D01*
X67909264Y-106294644D01*
X68284524Y-106220000D01*
X68875476Y-106220000D01*
X69250736Y-106294644D01*
X69250736Y-106294644D01*
G37*
G36*
X133624448Y-109110257D02*
G01*
X133888349Y-109190310D01*
X134131562Y-109320310D01*
X134344739Y-109495261D01*
X134519690Y-109708438D01*
X134649690Y-109951651D01*
X134729743Y-110215552D01*
X134756774Y-110490000D01*
X134729743Y-110764448D01*
X134649690Y-111028349D01*
X134519690Y-111271562D01*
X134344739Y-111484739D01*
X134131562Y-111659690D01*
X133888349Y-111789690D01*
X133624448Y-111869743D01*
X133418777Y-111890000D01*
X133281223Y-111890000D01*
X133075552Y-111869743D01*
X132811651Y-111789690D01*
X132568438Y-111659690D01*
X132355261Y-111484739D01*
X132180310Y-111271562D01*
X132050310Y-111028349D01*
X131970257Y-110764448D01*
X131943226Y-110490000D01*
X131970257Y-110215552D01*
X132050310Y-109951651D01*
X132180310Y-109708438D01*
X132355261Y-109495261D01*
X132568438Y-109320310D01*
X132811651Y-109190310D01*
X133075552Y-109110257D01*
X133281223Y-109090000D01*
X133418777Y-109090000D01*
X133624448Y-109110257D01*
X133624448Y-109110257D01*
G37*
G36*
X118349727Y-109110257D02*
G01*
X118518365Y-109143801D01*
X118773149Y-109249336D01*
X119002448Y-109402549D01*
X119197451Y-109597552D01*
X119350664Y-109826851D01*
X119444843Y-110054218D01*
X119456199Y-110081636D01*
X119510000Y-110352111D01*
X119510000Y-110627889D01*
X119497645Y-110690000D01*
X119456199Y-110898365D01*
X119444842Y-110925783D01*
X119359264Y-111132388D01*
X119350664Y-111153149D01*
X119197451Y-111382448D01*
X119002448Y-111577451D01*
X118773149Y-111730664D01*
X118518365Y-111836199D01*
X118383126Y-111863100D01*
X118247889Y-111890000D01*
X117972111Y-111890000D01*
X117836874Y-111863100D01*
X117701635Y-111836199D01*
X117446851Y-111730664D01*
X117217552Y-111577451D01*
X117022549Y-111382448D01*
X116869336Y-111153149D01*
X116860737Y-111132388D01*
X116775158Y-110925783D01*
X116763801Y-110898365D01*
X116722355Y-110690000D01*
X116710000Y-110627889D01*
X116710000Y-110352111D01*
X116763801Y-110081636D01*
X116775158Y-110054218D01*
X116869336Y-109826851D01*
X117022549Y-109597552D01*
X117217552Y-109402549D01*
X117446851Y-109249336D01*
X117701635Y-109143801D01*
X117870273Y-109110257D01*
X117972111Y-109090000D01*
X118247889Y-109090000D01*
X118349727Y-109110257D01*
X118349727Y-109110257D01*
G37*
G36*
X113298353Y-109605355D02*
G01*
X113465782Y-109674706D01*
X113465783Y-109674707D01*
X113616466Y-109775390D01*
X113744610Y-109903534D01*
X113744611Y-109903536D01*
X113845294Y-110054218D01*
X113914645Y-110221647D01*
X113950000Y-110399387D01*
X113950000Y-110580613D01*
X113914645Y-110758353D01*
X113845294Y-110925782D01*
X113845293Y-110925783D01*
X113744610Y-111076466D01*
X113616466Y-111204610D01*
X113540612Y-111255294D01*
X113465782Y-111305294D01*
X113298353Y-111374645D01*
X113120613Y-111410000D01*
X112939387Y-111410000D01*
X112761647Y-111374645D01*
X112594218Y-111305294D01*
X112519388Y-111255294D01*
X112443534Y-111204610D01*
X112315390Y-111076466D01*
X112214707Y-110925783D01*
X112214706Y-110925782D01*
X112145355Y-110758353D01*
X112110000Y-110580613D01*
X112110000Y-110399387D01*
X112145355Y-110221647D01*
X112214706Y-110054218D01*
X112315389Y-109903536D01*
X112315390Y-109903534D01*
X112443534Y-109775390D01*
X112594217Y-109674707D01*
X112594218Y-109674706D01*
X112761647Y-109605355D01*
X112939387Y-109570000D01*
X113120613Y-109570000D01*
X113298353Y-109605355D01*
X113298353Y-109605355D01*
G37*
G36*
X151058578Y-107763515D02*
G01*
X151184626Y-107801751D01*
X151300781Y-107863837D01*
X151402601Y-107947399D01*
X151486163Y-108049219D01*
X151548249Y-108165374D01*
X151586485Y-108291422D01*
X151600000Y-108428640D01*
X151600000Y-110011360D01*
X151586485Y-110148578D01*
X151548249Y-110274626D01*
X151486163Y-110390781D01*
X151402601Y-110492601D01*
X151300781Y-110576163D01*
X151184626Y-110638249D01*
X151058578Y-110676485D01*
X150921360Y-110690000D01*
X148798640Y-110690000D01*
X148661422Y-110676485D01*
X148535374Y-110638249D01*
X148419219Y-110576163D01*
X148317399Y-110492601D01*
X148233837Y-110390781D01*
X148171751Y-110274626D01*
X148133515Y-110148578D01*
X148120000Y-110011360D01*
X148120000Y-108428640D01*
X148133515Y-108291422D01*
X148171751Y-108165374D01*
X148233837Y-108049219D01*
X148317399Y-107947399D01*
X148419219Y-107863837D01*
X148535374Y-107801751D01*
X148661422Y-107763515D01*
X148798640Y-107750000D01*
X150921360Y-107750000D01*
X151058578Y-107763515D01*
X151058578Y-107763515D01*
G37*
G36*
X113298353Y-107065355D02*
G01*
X113465782Y-107134706D01*
X113465783Y-107134707D01*
X113616466Y-107235390D01*
X113744610Y-107363534D01*
X113744611Y-107363536D01*
X113845294Y-107514218D01*
X113914645Y-107681647D01*
X113950000Y-107859387D01*
X113950000Y-108040613D01*
X113914645Y-108218353D01*
X113845294Y-108385782D01*
X113845293Y-108385783D01*
X113744610Y-108536466D01*
X113616466Y-108664610D01*
X113540612Y-108715294D01*
X113465782Y-108765294D01*
X113298353Y-108834645D01*
X113120613Y-108870000D01*
X112939387Y-108870000D01*
X112761647Y-108834645D01*
X112594218Y-108765294D01*
X112519388Y-108715294D01*
X112443534Y-108664610D01*
X112315390Y-108536466D01*
X112214707Y-108385783D01*
X112214706Y-108385782D01*
X112145355Y-108218353D01*
X112110000Y-108040613D01*
X112110000Y-107859387D01*
X112145355Y-107681647D01*
X112214706Y-107514218D01*
X112315389Y-107363536D01*
X112315390Y-107363534D01*
X112443534Y-107235390D01*
X112594217Y-107134707D01*
X112594218Y-107134706D01*
X112761647Y-107065355D01*
X112939387Y-107030000D01*
X113120613Y-107030000D01*
X113298353Y-107065355D01*
X113298353Y-107065355D01*
G37*
G36*
X118384448Y-104030257D02*
G01*
X118648349Y-104110310D01*
X118891562Y-104240310D01*
X119104739Y-104415261D01*
X119279690Y-104628438D01*
X119409690Y-104871651D01*
X119489743Y-105135552D01*
X119516774Y-105410000D01*
X119489743Y-105684448D01*
X119409690Y-105948349D01*
X119279690Y-106191562D01*
X119104739Y-106404739D01*
X118891562Y-106579690D01*
X118648349Y-106709690D01*
X118384448Y-106789743D01*
X118178777Y-106810000D01*
X118041223Y-106810000D01*
X117835552Y-106789743D01*
X117571651Y-106709690D01*
X117328438Y-106579690D01*
X117115261Y-106404739D01*
X116940310Y-106191562D01*
X116810310Y-105948349D01*
X116730257Y-105684448D01*
X116703226Y-105410000D01*
X116730257Y-105135552D01*
X116810310Y-104871651D01*
X116940310Y-104628438D01*
X117115261Y-104415261D01*
X117328438Y-104240310D01*
X117571651Y-104110310D01*
X117835552Y-104030257D01*
X118041223Y-104010000D01*
X118178777Y-104010000D01*
X118384448Y-104030257D01*
X118384448Y-104030257D01*
G37*
G36*
X133589727Y-104030257D02*
G01*
X133758365Y-104063801D01*
X134013149Y-104169336D01*
X134242448Y-104322549D01*
X134437451Y-104517552D01*
X134590664Y-104746851D01*
X134684843Y-104974218D01*
X134696199Y-105001636D01*
X134750000Y-105272111D01*
X134750000Y-105547889D01*
X134737645Y-105610000D01*
X134696199Y-105818365D01*
X134590664Y-106073149D01*
X134437451Y-106302448D01*
X134242448Y-106497451D01*
X134013149Y-106650664D01*
X133758365Y-106756199D01*
X133623127Y-106783099D01*
X133487889Y-106810000D01*
X133212111Y-106810000D01*
X133076873Y-106783099D01*
X132941635Y-106756199D01*
X132686851Y-106650664D01*
X132457552Y-106497451D01*
X132262549Y-106302448D01*
X132109336Y-106073149D01*
X132003801Y-105818365D01*
X131962355Y-105610000D01*
X131950000Y-105547889D01*
X131950000Y-105272111D01*
X132003801Y-105001636D01*
X132015158Y-104974218D01*
X132109336Y-104746851D01*
X132262549Y-104517552D01*
X132457552Y-104322549D01*
X132686851Y-104169336D01*
X132941635Y-104063801D01*
X133110273Y-104030257D01*
X133212111Y-104010000D01*
X133487889Y-104010000D01*
X133589727Y-104030257D01*
X133589727Y-104030257D01*
G37*
G36*
X113298353Y-104525355D02*
G01*
X113465782Y-104594706D01*
X113465783Y-104594707D01*
X113616466Y-104695390D01*
X113744610Y-104823534D01*
X113744611Y-104823536D01*
X113845294Y-104974218D01*
X113914645Y-105141647D01*
X113950000Y-105319387D01*
X113950000Y-105500613D01*
X113914645Y-105678353D01*
X113845294Y-105845782D01*
X113845293Y-105845783D01*
X113744610Y-105996466D01*
X113616466Y-106124610D01*
X113540612Y-106175294D01*
X113465782Y-106225294D01*
X113298353Y-106294645D01*
X113120613Y-106330000D01*
X112939387Y-106330000D01*
X112761647Y-106294645D01*
X112594218Y-106225294D01*
X112519388Y-106175294D01*
X112443534Y-106124610D01*
X112315390Y-105996466D01*
X112214707Y-105845783D01*
X112214706Y-105845782D01*
X112145355Y-105678353D01*
X112110000Y-105500613D01*
X112110000Y-105319387D01*
X112145355Y-105141647D01*
X112214706Y-104974218D01*
X112315389Y-104823536D01*
X112315390Y-104823534D01*
X112443534Y-104695390D01*
X112594217Y-104594707D01*
X112594218Y-104594706D01*
X112761647Y-104525355D01*
X112939387Y-104490000D01*
X113120613Y-104490000D01*
X113298353Y-104525355D01*
X113298353Y-104525355D01*
G37*
G36*
X151058578Y-102683515D02*
G01*
X151184626Y-102721751D01*
X151300781Y-102783837D01*
X151402601Y-102867399D01*
X151486163Y-102969219D01*
X151548249Y-103085374D01*
X151586485Y-103211422D01*
X151600000Y-103348640D01*
X151600000Y-104931360D01*
X151586485Y-105068578D01*
X151548249Y-105194626D01*
X151486163Y-105310781D01*
X151402601Y-105412601D01*
X151300781Y-105496163D01*
X151184626Y-105558249D01*
X151058578Y-105596485D01*
X150921360Y-105610000D01*
X148798640Y-105610000D01*
X148661422Y-105596485D01*
X148535374Y-105558249D01*
X148419219Y-105496163D01*
X148317399Y-105412601D01*
X148233837Y-105310781D01*
X148171751Y-105194626D01*
X148133515Y-105068578D01*
X148120000Y-104931360D01*
X148120000Y-103348640D01*
X148133515Y-103211422D01*
X148171751Y-103085374D01*
X148233837Y-102969219D01*
X148317399Y-102867399D01*
X148419219Y-102783837D01*
X148535374Y-102721751D01*
X148661422Y-102683515D01*
X148798640Y-102670000D01*
X150921360Y-102670000D01*
X151058578Y-102683515D01*
X151058578Y-102683515D01*
G37*
G36*
X138657290Y-101895619D02*
G01*
X138721689Y-101908429D01*
X138903678Y-101983811D01*
X139067463Y-102093249D01*
X139206751Y-102232537D01*
X139316189Y-102396322D01*
X139384637Y-102561571D01*
X139391571Y-102578312D01*
X139430000Y-102771507D01*
X139430000Y-102968493D01*
X139424398Y-102996656D01*
X139391571Y-103161689D01*
X139316189Y-103343678D01*
X139206751Y-103507463D01*
X139067463Y-103646751D01*
X138903678Y-103756189D01*
X138721689Y-103831571D01*
X138657290Y-103844381D01*
X138528493Y-103870000D01*
X138331507Y-103870000D01*
X138202710Y-103844381D01*
X138138311Y-103831571D01*
X137956322Y-103756189D01*
X137792537Y-103646751D01*
X137653249Y-103507463D01*
X137543811Y-103343678D01*
X137468429Y-103161689D01*
X137435602Y-102996656D01*
X137430000Y-102968493D01*
X137430000Y-102771507D01*
X137468429Y-102578312D01*
X137475363Y-102561571D01*
X137543811Y-102396322D01*
X137653249Y-102232537D01*
X137792537Y-102093249D01*
X137956322Y-101983811D01*
X138138311Y-101908429D01*
X138202710Y-101895619D01*
X138331507Y-101870000D01*
X138528493Y-101870000D01*
X138657290Y-101895619D01*
X138657290Y-101895619D01*
G37*
G36*
X133577290Y-100625619D02*
G01*
X133641689Y-100638429D01*
X133823678Y-100713811D01*
X133987463Y-100823249D01*
X134126751Y-100962537D01*
X134236189Y-101126322D01*
X134311571Y-101308311D01*
X134350000Y-101501509D01*
X134350000Y-101698491D01*
X134311571Y-101891689D01*
X134236189Y-102073678D01*
X134126751Y-102237463D01*
X133987463Y-102376751D01*
X133823678Y-102486189D01*
X133641689Y-102561571D01*
X133577290Y-102574381D01*
X133448493Y-102600000D01*
X133251507Y-102600000D01*
X133122710Y-102574381D01*
X133058311Y-102561571D01*
X132876322Y-102486189D01*
X132712537Y-102376751D01*
X132573249Y-102237463D01*
X132463811Y-102073678D01*
X132388429Y-101891689D01*
X132350000Y-101698491D01*
X132350000Y-101501509D01*
X132388429Y-101308311D01*
X132463811Y-101126322D01*
X132573249Y-100962537D01*
X132712537Y-100823249D01*
X132876322Y-100713811D01*
X133058311Y-100638429D01*
X133122710Y-100625619D01*
X133251507Y-100600000D01*
X133448493Y-100600000D01*
X133577290Y-100625619D01*
X133577290Y-100625619D01*
G37*
G36*
X81410000Y-100714000D02*
G01*
X78610000Y-100714000D01*
X78610000Y-97914000D01*
X81410000Y-97914000D01*
X81410000Y-100714000D01*
X81410000Y-100714000D01*
G37*
G36*
X67584448Y-97934257D02*
G01*
X67848349Y-98014310D01*
X68091562Y-98144310D01*
X68304739Y-98319261D01*
X68479690Y-98532438D01*
X68609690Y-98775651D01*
X68689743Y-99039552D01*
X68716774Y-99314000D01*
X68689743Y-99588448D01*
X68609690Y-99852349D01*
X68479690Y-100095562D01*
X68304739Y-100308739D01*
X68091562Y-100483690D01*
X67848349Y-100613690D01*
X67584448Y-100693743D01*
X67378777Y-100714000D01*
X67241223Y-100714000D01*
X67035552Y-100693743D01*
X66771651Y-100613690D01*
X66528438Y-100483690D01*
X66315261Y-100308739D01*
X66140310Y-100095562D01*
X66010310Y-99852349D01*
X65930257Y-99588448D01*
X65903226Y-99314000D01*
X65930257Y-99039552D01*
X66010310Y-98775651D01*
X66140310Y-98532438D01*
X66315261Y-98319261D01*
X66528438Y-98144310D01*
X66771651Y-98014310D01*
X67035552Y-97934257D01*
X67241223Y-97914000D01*
X67378777Y-97914000D01*
X67584448Y-97934257D01*
X67584448Y-97934257D01*
G37*
G36*
X91634582Y-97805277D02*
G01*
X91848365Y-97847801D01*
X92103149Y-97953336D01*
X92332448Y-98106549D01*
X92527451Y-98301552D01*
X92608292Y-98422539D01*
X92680665Y-98530853D01*
X92681322Y-98532439D01*
X92782063Y-98775649D01*
X92786199Y-98785636D01*
X92840000Y-99056111D01*
X92840000Y-99331889D01*
X92813099Y-99467127D01*
X92788968Y-99588446D01*
X92786199Y-99602364D01*
X92682652Y-99852351D01*
X92680664Y-99857149D01*
X92527451Y-100086448D01*
X92332448Y-100281451D01*
X92103149Y-100434664D01*
X91848365Y-100540199D01*
X91713126Y-100567100D01*
X91577889Y-100594000D01*
X91302111Y-100594000D01*
X91166874Y-100567100D01*
X91031635Y-100540199D01*
X90776851Y-100434664D01*
X90547552Y-100281451D01*
X90352549Y-100086448D01*
X90199336Y-99857149D01*
X90197349Y-99852351D01*
X90093801Y-99602364D01*
X90091033Y-99588446D01*
X90066901Y-99467127D01*
X90040000Y-99331889D01*
X90040000Y-99056111D01*
X90093801Y-98785636D01*
X90097938Y-98775649D01*
X90198678Y-98532439D01*
X90199335Y-98530853D01*
X90271708Y-98422539D01*
X90352549Y-98301552D01*
X90547552Y-98106549D01*
X90776851Y-97953336D01*
X91031635Y-97847801D01*
X91245418Y-97805277D01*
X91302111Y-97794000D01*
X91577889Y-97794000D01*
X91634582Y-97805277D01*
X91634582Y-97805277D01*
G37*
G36*
X151058578Y-97603515D02*
G01*
X151184626Y-97641751D01*
X151300781Y-97703837D01*
X151402601Y-97787399D01*
X151486163Y-97889219D01*
X151548249Y-98005374D01*
X151586485Y-98131422D01*
X151600000Y-98268640D01*
X151600000Y-99851360D01*
X151586485Y-99988578D01*
X151548249Y-100114626D01*
X151486163Y-100230781D01*
X151402601Y-100332601D01*
X151300781Y-100416163D01*
X151184626Y-100478249D01*
X151058578Y-100516485D01*
X150921360Y-100530000D01*
X148798640Y-100530000D01*
X148661422Y-100516485D01*
X148535374Y-100478249D01*
X148419219Y-100416163D01*
X148317399Y-100332601D01*
X148233837Y-100230781D01*
X148171751Y-100114626D01*
X148133515Y-99988578D01*
X148120000Y-99851360D01*
X148120000Y-98268640D01*
X148133515Y-98131422D01*
X148171751Y-98005374D01*
X148233837Y-97889219D01*
X148317399Y-97787399D01*
X148419219Y-97703837D01*
X148535374Y-97641751D01*
X148661422Y-97603515D01*
X148798640Y-97590000D01*
X150921360Y-97590000D01*
X151058578Y-97603515D01*
X151058578Y-97603515D01*
G37*
G36*
X121650000Y-100060000D02*
G01*
X119650000Y-100060000D01*
X119650000Y-98060000D01*
X121650000Y-98060000D01*
X121650000Y-100060000D01*
X121650000Y-100060000D01*
G37*
G36*
X115300000Y-100060000D02*
G01*
X113300000Y-100060000D01*
X113300000Y-98060000D01*
X115300000Y-98060000D01*
X115300000Y-100060000D01*
X115300000Y-100060000D01*
G37*
G36*
X112027290Y-98085619D02*
G01*
X112091689Y-98098429D01*
X112273678Y-98173811D01*
X112437463Y-98283249D01*
X112576751Y-98422537D01*
X112686189Y-98586322D01*
X112761571Y-98768311D01*
X112800000Y-98961509D01*
X112800000Y-99158491D01*
X112761571Y-99351689D01*
X112686189Y-99533678D01*
X112576751Y-99697463D01*
X112437463Y-99836751D01*
X112273678Y-99946189D01*
X112091689Y-100021571D01*
X112027290Y-100034381D01*
X111898493Y-100060000D01*
X111701507Y-100060000D01*
X111572710Y-100034381D01*
X111508311Y-100021571D01*
X111326322Y-99946189D01*
X111162537Y-99836751D01*
X111023249Y-99697463D01*
X110913811Y-99533678D01*
X110838429Y-99351689D01*
X110800000Y-99158491D01*
X110800000Y-98961509D01*
X110838429Y-98768311D01*
X110913811Y-98586322D01*
X111023249Y-98422537D01*
X111162537Y-98283249D01*
X111326322Y-98173811D01*
X111508311Y-98098429D01*
X111572710Y-98085619D01*
X111701507Y-98060000D01*
X111898493Y-98060000D01*
X112027290Y-98085619D01*
X112027290Y-98085619D01*
G37*
G36*
X123377290Y-98085619D02*
G01*
X123441689Y-98098429D01*
X123623678Y-98173811D01*
X123787463Y-98283249D01*
X123926751Y-98422537D01*
X124036189Y-98586322D01*
X124111571Y-98768311D01*
X124150000Y-98961509D01*
X124150000Y-99158491D01*
X124111571Y-99351689D01*
X124036189Y-99533678D01*
X123926751Y-99697463D01*
X123787463Y-99836751D01*
X123623678Y-99946189D01*
X123441689Y-100021571D01*
X123377290Y-100034381D01*
X123248493Y-100060000D01*
X123051507Y-100060000D01*
X122922710Y-100034381D01*
X122858311Y-100021571D01*
X122676322Y-99946189D01*
X122512537Y-99836751D01*
X122373249Y-99697463D01*
X122263811Y-99533678D01*
X122188429Y-99351689D01*
X122150000Y-99158491D01*
X122150000Y-98961509D01*
X122188429Y-98768311D01*
X122263811Y-98586322D01*
X122373249Y-98422537D01*
X122512537Y-98283249D01*
X122676322Y-98173811D01*
X122858311Y-98098429D01*
X122922710Y-98085619D01*
X123051507Y-98060000D01*
X123248493Y-98060000D01*
X123377290Y-98085619D01*
X123377290Y-98085619D01*
G37*
G36*
X133577290Y-95625619D02*
G01*
X133641689Y-95638429D01*
X133823678Y-95713811D01*
X133987463Y-95823249D01*
X134126751Y-95962537D01*
X134236189Y-96126322D01*
X134311571Y-96308311D01*
X134350000Y-96501509D01*
X134350000Y-96698491D01*
X134311571Y-96891689D01*
X134236189Y-97073678D01*
X134126751Y-97237463D01*
X133987463Y-97376751D01*
X133823678Y-97486189D01*
X133641689Y-97561571D01*
X133577290Y-97574381D01*
X133448493Y-97600000D01*
X133251507Y-97600000D01*
X133122710Y-97574381D01*
X133058311Y-97561571D01*
X132876322Y-97486189D01*
X132712537Y-97376751D01*
X132573249Y-97237463D01*
X132463811Y-97073678D01*
X132388429Y-96891689D01*
X132350000Y-96698491D01*
X132350000Y-96501509D01*
X132388429Y-96308311D01*
X132463811Y-96126322D01*
X132573249Y-95962537D01*
X132712537Y-95823249D01*
X132876322Y-95713811D01*
X133058311Y-95638429D01*
X133122710Y-95625619D01*
X133251507Y-95600000D01*
X133448493Y-95600000D01*
X133577290Y-95625619D01*
X133577290Y-95625619D01*
G37*
G36*
X138626032Y-94264469D02*
G01*
X138720284Y-94293060D01*
X138814535Y-94321651D01*
X138814537Y-94321652D01*
X138988258Y-94414507D01*
X139140528Y-94539472D01*
X139265493Y-94691742D01*
X139358348Y-94865463D01*
X139415531Y-95053968D01*
X139434838Y-95250000D01*
X139415531Y-95446032D01*
X139358348Y-95634537D01*
X139265493Y-95808258D01*
X139140528Y-95960528D01*
X138988258Y-96085493D01*
X138814537Y-96178348D01*
X138814535Y-96178349D01*
X138720285Y-96206939D01*
X138626032Y-96235531D01*
X138479124Y-96250000D01*
X138380876Y-96250000D01*
X138233968Y-96235531D01*
X138139715Y-96206939D01*
X138045465Y-96178349D01*
X138045463Y-96178348D01*
X137871742Y-96085493D01*
X137719472Y-95960528D01*
X137594507Y-95808258D01*
X137501652Y-95634537D01*
X137444469Y-95446032D01*
X137425162Y-95250000D01*
X137444469Y-95053968D01*
X137501652Y-94865463D01*
X137594507Y-94691742D01*
X137719472Y-94539472D01*
X137871742Y-94414507D01*
X138045463Y-94321652D01*
X138045465Y-94321651D01*
X138139716Y-94293060D01*
X138233968Y-94264469D01*
X138380876Y-94250000D01*
X138479124Y-94250000D01*
X138626032Y-94264469D01*
X138626032Y-94264469D01*
G37*
G36*
X92840000Y-93094000D02*
G01*
X90040000Y-93094000D01*
X90040000Y-90294000D01*
X92840000Y-90294000D01*
X92840000Y-93094000D01*
X92840000Y-93094000D01*
G37*
G36*
X71048578Y-89983515D02*
G01*
X71174626Y-90021751D01*
X71290781Y-90083837D01*
X71392601Y-90167399D01*
X71476163Y-90269219D01*
X71538249Y-90385374D01*
X71576485Y-90511422D01*
X71590000Y-90648640D01*
X71590000Y-92231360D01*
X71576485Y-92368578D01*
X71538249Y-92494626D01*
X71476163Y-92610781D01*
X71392601Y-92712601D01*
X71290781Y-92796163D01*
X71174626Y-92858249D01*
X71048578Y-92896485D01*
X70911360Y-92910000D01*
X68788640Y-92910000D01*
X68651422Y-92896485D01*
X68525374Y-92858249D01*
X68409219Y-92796163D01*
X68307399Y-92712601D01*
X68223837Y-92610781D01*
X68161751Y-92494626D01*
X68123515Y-92368578D01*
X68110000Y-92231360D01*
X68110000Y-90648640D01*
X68123515Y-90511422D01*
X68161751Y-90385374D01*
X68223837Y-90269219D01*
X68307399Y-90167399D01*
X68409219Y-90083837D01*
X68525374Y-90021751D01*
X68651422Y-89983515D01*
X68788640Y-89970000D01*
X70911360Y-89970000D01*
X71048578Y-89983515D01*
X71048578Y-89983515D01*
G37*
G36*
X151058578Y-89983515D02*
G01*
X151184626Y-90021751D01*
X151300781Y-90083837D01*
X151402601Y-90167399D01*
X151486163Y-90269219D01*
X151548249Y-90385374D01*
X151586485Y-90511422D01*
X151600000Y-90648640D01*
X151600000Y-92231360D01*
X151586485Y-92368578D01*
X151548249Y-92494626D01*
X151486163Y-92610781D01*
X151402601Y-92712601D01*
X151300781Y-92796163D01*
X151184626Y-92858249D01*
X151058578Y-92896485D01*
X150921360Y-92910000D01*
X148798640Y-92910000D01*
X148661422Y-92896485D01*
X148535374Y-92858249D01*
X148419219Y-92796163D01*
X148317399Y-92712601D01*
X148233837Y-92610781D01*
X148171751Y-92494626D01*
X148133515Y-92368578D01*
X148120000Y-92231360D01*
X148120000Y-90648640D01*
X148133515Y-90511422D01*
X148171751Y-90385374D01*
X148233837Y-90269219D01*
X148317399Y-90167399D01*
X148419219Y-90083837D01*
X148535374Y-90021751D01*
X148661422Y-89983515D01*
X148798640Y-89970000D01*
X150921360Y-89970000D01*
X151058578Y-89983515D01*
X151058578Y-89983515D01*
G37*
G36*
X126003127Y-88676901D02*
G01*
X126138365Y-88703801D01*
X126393149Y-88809336D01*
X126622448Y-88962549D01*
X126817451Y-89157552D01*
X126970664Y-89386851D01*
X127034759Y-89541589D01*
X127076199Y-89641636D01*
X127130000Y-89912111D01*
X127130000Y-90187889D01*
X127121983Y-90228191D01*
X127076199Y-90458365D01*
X127054222Y-90511422D01*
X126974040Y-90705000D01*
X126970664Y-90713149D01*
X126817451Y-90942448D01*
X126622448Y-91137451D01*
X126393149Y-91290664D01*
X126138365Y-91396199D01*
X126003126Y-91423100D01*
X125867889Y-91450000D01*
X125592111Y-91450000D01*
X125456873Y-91423099D01*
X125321635Y-91396199D01*
X125066851Y-91290664D01*
X124837552Y-91137451D01*
X124642549Y-90942448D01*
X124489336Y-90713149D01*
X124485961Y-90705000D01*
X124405778Y-90511422D01*
X124383801Y-90458365D01*
X124338017Y-90228191D01*
X124330000Y-90187889D01*
X124330000Y-89912111D01*
X124383801Y-89641636D01*
X124425242Y-89541589D01*
X124489336Y-89386851D01*
X124642549Y-89157552D01*
X124837552Y-88962549D01*
X125066851Y-88809336D01*
X125321635Y-88703801D01*
X125456873Y-88676901D01*
X125592111Y-88650000D01*
X125867889Y-88650000D01*
X126003127Y-88676901D01*
X126003127Y-88676901D01*
G37*
G36*
X108223127Y-88676901D02*
G01*
X108358365Y-88703801D01*
X108613149Y-88809336D01*
X108842448Y-88962549D01*
X109037451Y-89157552D01*
X109190664Y-89386851D01*
X109254759Y-89541589D01*
X109296199Y-89641636D01*
X109350000Y-89912111D01*
X109350000Y-90187889D01*
X109341983Y-90228191D01*
X109296199Y-90458365D01*
X109274222Y-90511422D01*
X109194040Y-90705000D01*
X109190664Y-90713149D01*
X109037451Y-90942448D01*
X108842448Y-91137451D01*
X108613149Y-91290664D01*
X108358365Y-91396199D01*
X108223126Y-91423100D01*
X108087889Y-91450000D01*
X107812111Y-91450000D01*
X107676873Y-91423099D01*
X107541635Y-91396199D01*
X107286851Y-91290664D01*
X107057552Y-91137451D01*
X106862549Y-90942448D01*
X106709336Y-90713149D01*
X106705961Y-90705000D01*
X106625778Y-90511422D01*
X106603801Y-90458365D01*
X106558017Y-90228191D01*
X106550000Y-90187889D01*
X106550000Y-89912111D01*
X106603801Y-89641636D01*
X106645242Y-89541589D01*
X106709336Y-89386851D01*
X106862549Y-89157552D01*
X107057552Y-88962549D01*
X107286851Y-88809336D01*
X107541635Y-88703801D01*
X107676873Y-88676901D01*
X107812111Y-88650000D01*
X108087889Y-88650000D01*
X108223127Y-88676901D01*
X108223127Y-88676901D01*
G37*
G36*
X77870826Y-88956115D02*
G01*
X78089211Y-89046573D01*
X78089213Y-89046574D01*
X78285755Y-89177899D01*
X78452901Y-89345045D01*
X78580240Y-89535621D01*
X78584227Y-89541589D01*
X78674685Y-89759974D01*
X78720800Y-89991809D01*
X78720800Y-90228191D01*
X78674685Y-90460026D01*
X78584227Y-90678411D01*
X78584226Y-90678413D01*
X78452901Y-90874955D01*
X78285755Y-91042101D01*
X78089213Y-91173426D01*
X78089212Y-91173427D01*
X78089211Y-91173427D01*
X77870826Y-91263885D01*
X77638991Y-91310000D01*
X77402609Y-91310000D01*
X77170774Y-91263885D01*
X76952389Y-91173427D01*
X76952388Y-91173427D01*
X76952387Y-91173426D01*
X76755845Y-91042101D01*
X76588699Y-90874955D01*
X76457374Y-90678413D01*
X76457373Y-90678411D01*
X76366915Y-90460026D01*
X76320800Y-90228191D01*
X76320800Y-89991809D01*
X76366915Y-89759974D01*
X76457373Y-89541589D01*
X76461361Y-89535621D01*
X76588699Y-89345045D01*
X76755845Y-89177899D01*
X76952387Y-89046574D01*
X76952389Y-89046573D01*
X77170774Y-88956115D01*
X77402609Y-88910000D01*
X77638991Y-88910000D01*
X77870826Y-88956115D01*
X77870826Y-88956115D01*
G37*
G36*
X81630026Y-88956115D02*
G01*
X81848411Y-89046573D01*
X81848413Y-89046574D01*
X82044955Y-89177899D01*
X82212101Y-89345045D01*
X82339440Y-89535621D01*
X82343427Y-89541589D01*
X82433885Y-89759974D01*
X82480000Y-89991809D01*
X82480000Y-90228191D01*
X82433885Y-90460026D01*
X82343427Y-90678411D01*
X82343426Y-90678413D01*
X82212101Y-90874955D01*
X82044955Y-91042101D01*
X81848413Y-91173426D01*
X81848412Y-91173427D01*
X81848411Y-91173427D01*
X81630026Y-91263885D01*
X81398191Y-91310000D01*
X81161809Y-91310000D01*
X80929974Y-91263885D01*
X80711589Y-91173427D01*
X80711588Y-91173427D01*
X80711587Y-91173426D01*
X80515045Y-91042101D01*
X80347899Y-90874955D01*
X80216574Y-90678413D01*
X80216573Y-90678411D01*
X80126115Y-90460026D01*
X80080000Y-90228191D01*
X80080000Y-89991809D01*
X80126115Y-89759974D01*
X80216573Y-89541589D01*
X80220561Y-89535621D01*
X80347899Y-89345045D01*
X80515045Y-89177899D01*
X80711587Y-89046574D01*
X80711589Y-89046573D01*
X80929974Y-88956115D01*
X81161809Y-88910000D01*
X81398191Y-88910000D01*
X81630026Y-88956115D01*
X81630026Y-88956115D01*
G37*
G36*
X140015857Y-88998938D02*
G01*
X140216043Y-89081858D01*
X140216045Y-89081859D01*
X140306738Y-89142458D01*
X140396208Y-89202240D01*
X140549426Y-89355458D01*
X140669808Y-89535623D01*
X140752728Y-89735809D01*
X140795000Y-89948324D01*
X140795000Y-90165008D01*
X140752728Y-90377523D01*
X140669808Y-90577709D01*
X140579312Y-90713147D01*
X140549425Y-90757875D01*
X140396209Y-90911091D01*
X140216045Y-91031473D01*
X140216044Y-91031474D01*
X140216043Y-91031474D01*
X140015857Y-91114394D01*
X139803342Y-91156666D01*
X139586658Y-91156666D01*
X139374143Y-91114394D01*
X139173957Y-91031474D01*
X139173956Y-91031474D01*
X139173955Y-91031473D01*
X138993791Y-90911091D01*
X138840575Y-90757875D01*
X138810689Y-90713147D01*
X138720192Y-90577709D01*
X138637272Y-90377523D01*
X138595000Y-90165008D01*
X138595000Y-89948324D01*
X138637272Y-89735809D01*
X138720192Y-89535623D01*
X138840574Y-89355458D01*
X138993792Y-89202240D01*
X139083262Y-89142458D01*
X139173955Y-89081859D01*
X139173957Y-89081858D01*
X139374143Y-88998938D01*
X139586658Y-88956666D01*
X139803342Y-88956666D01*
X140015857Y-88998938D01*
X140015857Y-88998938D01*
G37*
G36*
X138255000Y-91156666D02*
G01*
X136055000Y-91156666D01*
X136055000Y-88956666D01*
X138255000Y-88956666D01*
X138255000Y-91156666D01*
X138255000Y-91156666D01*
G37*
G36*
X71048578Y-84903515D02*
G01*
X71174626Y-84941751D01*
X71290781Y-85003837D01*
X71392601Y-85087399D01*
X71476163Y-85189219D01*
X71538249Y-85305374D01*
X71576485Y-85431422D01*
X71590000Y-85568640D01*
X71590000Y-87151360D01*
X71576485Y-87288578D01*
X71538249Y-87414626D01*
X71476163Y-87530781D01*
X71392601Y-87632601D01*
X71290781Y-87716163D01*
X71174626Y-87778249D01*
X71048578Y-87816485D01*
X70911360Y-87830000D01*
X68788640Y-87830000D01*
X68651422Y-87816485D01*
X68525374Y-87778249D01*
X68409219Y-87716163D01*
X68307399Y-87632601D01*
X68223837Y-87530781D01*
X68161751Y-87414626D01*
X68123515Y-87288578D01*
X68110000Y-87151360D01*
X68110000Y-85568640D01*
X68123515Y-85431422D01*
X68161751Y-85305374D01*
X68223837Y-85189219D01*
X68307399Y-85087399D01*
X68409219Y-85003837D01*
X68525374Y-84941751D01*
X68651422Y-84903515D01*
X68788640Y-84890000D01*
X70911360Y-84890000D01*
X71048578Y-84903515D01*
X71048578Y-84903515D01*
G37*
G36*
X151058578Y-84903515D02*
G01*
X151184626Y-84941751D01*
X151300781Y-85003837D01*
X151402601Y-85087399D01*
X151486163Y-85189219D01*
X151548249Y-85305374D01*
X151586485Y-85431422D01*
X151600000Y-85568640D01*
X151600000Y-87151360D01*
X151586485Y-87288578D01*
X151548249Y-87414626D01*
X151486163Y-87530781D01*
X151402601Y-87632601D01*
X151300781Y-87716163D01*
X151184626Y-87778249D01*
X151058578Y-87816485D01*
X150921360Y-87830000D01*
X148798640Y-87830000D01*
X148661422Y-87816485D01*
X148535374Y-87778249D01*
X148419219Y-87716163D01*
X148317399Y-87632601D01*
X148233837Y-87530781D01*
X148171751Y-87414626D01*
X148133515Y-87288578D01*
X148120000Y-87151360D01*
X148120000Y-85568640D01*
X148133515Y-85431422D01*
X148171751Y-85305374D01*
X148233837Y-85189219D01*
X148317399Y-85087399D01*
X148419219Y-85003837D01*
X148535374Y-84941751D01*
X148661422Y-84903515D01*
X148798640Y-84890000D01*
X150921360Y-84890000D01*
X151058578Y-84903515D01*
X151058578Y-84903515D01*
G37*
G36*
X109350000Y-83950000D02*
G01*
X106550000Y-83950000D01*
X106550000Y-81150000D01*
X109350000Y-81150000D01*
X109350000Y-83950000D01*
X109350000Y-83950000D01*
G37*
G36*
X127130000Y-83950000D02*
G01*
X124330000Y-83950000D01*
X124330000Y-81150000D01*
X127130000Y-81150000D01*
X127130000Y-83950000D01*
X127130000Y-83950000D01*
G37*
G36*
X81630026Y-81456115D02*
G01*
X81848411Y-81546573D01*
X81848413Y-81546574D01*
X82044955Y-81677899D01*
X82212101Y-81845045D01*
X82311263Y-81993451D01*
X82343427Y-82041589D01*
X82433885Y-82259974D01*
X82480000Y-82491809D01*
X82480000Y-82728191D01*
X82433885Y-82960026D01*
X82343427Y-83178411D01*
X82343426Y-83178413D01*
X82212101Y-83374955D01*
X82044955Y-83542101D01*
X81848413Y-83673426D01*
X81848412Y-83673427D01*
X81848411Y-83673427D01*
X81630026Y-83763885D01*
X81398191Y-83810000D01*
X81161809Y-83810000D01*
X80929974Y-83763885D01*
X80711589Y-83673427D01*
X80711588Y-83673427D01*
X80711587Y-83673426D01*
X80515045Y-83542101D01*
X80347899Y-83374955D01*
X80216574Y-83178413D01*
X80216573Y-83178411D01*
X80126115Y-82960026D01*
X80080000Y-82728191D01*
X80080000Y-82491809D01*
X80126115Y-82259974D01*
X80216573Y-82041589D01*
X80248738Y-81993451D01*
X80347899Y-81845045D01*
X80515045Y-81677899D01*
X80711587Y-81546574D01*
X80711589Y-81546573D01*
X80929974Y-81456115D01*
X81161809Y-81410000D01*
X81398191Y-81410000D01*
X81630026Y-81456115D01*
X81630026Y-81456115D01*
G37*
G36*
X77870826Y-81456115D02*
G01*
X78089211Y-81546573D01*
X78089213Y-81546574D01*
X78285755Y-81677899D01*
X78452901Y-81845045D01*
X78552063Y-81993451D01*
X78584227Y-82041589D01*
X78674685Y-82259974D01*
X78720800Y-82491809D01*
X78720800Y-82728191D01*
X78674685Y-82960026D01*
X78584227Y-83178411D01*
X78584226Y-83178413D01*
X78452901Y-83374955D01*
X78285755Y-83542101D01*
X78089213Y-83673426D01*
X78089212Y-83673427D01*
X78089211Y-83673427D01*
X77870826Y-83763885D01*
X77638991Y-83810000D01*
X77402609Y-83810000D01*
X77170774Y-83763885D01*
X76952389Y-83673427D01*
X76952388Y-83673427D01*
X76952387Y-83673426D01*
X76755845Y-83542101D01*
X76588699Y-83374955D01*
X76457374Y-83178413D01*
X76457373Y-83178411D01*
X76366915Y-82960026D01*
X76320800Y-82728191D01*
X76320800Y-82491809D01*
X76366915Y-82259974D01*
X76457373Y-82041589D01*
X76489538Y-81993451D01*
X76588699Y-81845045D01*
X76755845Y-81677899D01*
X76952387Y-81546574D01*
X76952389Y-81546573D01*
X77170774Y-81456115D01*
X77402609Y-81410000D01*
X77638991Y-81410000D01*
X77870826Y-81456115D01*
X77870826Y-81456115D01*
G37*
G36*
X137485857Y-81605605D02*
G01*
X137686043Y-81688525D01*
X137686045Y-81688526D01*
X137776738Y-81749125D01*
X137866208Y-81808907D01*
X138019426Y-81962125D01*
X138139808Y-82142290D01*
X138222728Y-82342476D01*
X138265000Y-82554991D01*
X138265000Y-82771675D01*
X138222728Y-82984190D01*
X138139808Y-83184376D01*
X138019426Y-83364541D01*
X137866208Y-83517759D01*
X137776738Y-83577541D01*
X137686045Y-83638140D01*
X137686044Y-83638141D01*
X137686043Y-83638141D01*
X137485857Y-83721061D01*
X137273342Y-83763333D01*
X137056658Y-83763333D01*
X136844143Y-83721061D01*
X136643957Y-83638141D01*
X136643956Y-83638141D01*
X136643955Y-83638140D01*
X136553262Y-83577541D01*
X136463792Y-83517759D01*
X136310574Y-83364541D01*
X136190192Y-83184376D01*
X136107272Y-82984190D01*
X136065000Y-82771675D01*
X136065000Y-82554991D01*
X136107272Y-82342476D01*
X136190192Y-82142290D01*
X136310574Y-81962125D01*
X136463792Y-81808907D01*
X136553262Y-81749125D01*
X136643955Y-81688526D01*
X136643957Y-81688525D01*
X136844143Y-81605605D01*
X137056658Y-81563333D01*
X137273342Y-81563333D01*
X137485857Y-81605605D01*
X137485857Y-81605605D01*
G37*
G36*
X140805000Y-83763333D02*
G01*
X138605000Y-83763333D01*
X138605000Y-81563333D01*
X140805000Y-81563333D01*
X140805000Y-83763333D01*
X140805000Y-83763333D01*
G37*
G36*
X151058578Y-79823515D02*
G01*
X151184626Y-79861751D01*
X151300781Y-79923837D01*
X151402601Y-80007399D01*
X151486163Y-80109219D01*
X151548249Y-80225374D01*
X151586485Y-80351422D01*
X151600000Y-80488640D01*
X151600000Y-82071360D01*
X151586485Y-82208578D01*
X151548249Y-82334626D01*
X151486163Y-82450781D01*
X151402601Y-82552601D01*
X151300781Y-82636163D01*
X151184626Y-82698249D01*
X151058578Y-82736485D01*
X150921360Y-82750000D01*
X148798640Y-82750000D01*
X148661422Y-82736485D01*
X148535374Y-82698249D01*
X148419219Y-82636163D01*
X148317399Y-82552601D01*
X148233837Y-82450781D01*
X148171751Y-82334626D01*
X148133515Y-82208578D01*
X148120000Y-82071360D01*
X148120000Y-80488640D01*
X148133515Y-80351422D01*
X148171751Y-80225374D01*
X148233837Y-80109219D01*
X148317399Y-80007399D01*
X148419219Y-79923837D01*
X148535374Y-79861751D01*
X148661422Y-79823515D01*
X148798640Y-79810000D01*
X150921360Y-79810000D01*
X151058578Y-79823515D01*
X151058578Y-79823515D01*
G37*
G36*
X71048578Y-79823515D02*
G01*
X71174626Y-79861751D01*
X71290781Y-79923837D01*
X71392601Y-80007399D01*
X71476163Y-80109219D01*
X71538249Y-80225374D01*
X71576485Y-80351422D01*
X71590000Y-80488640D01*
X71590000Y-82071360D01*
X71576485Y-82208578D01*
X71538249Y-82334626D01*
X71476163Y-82450781D01*
X71392601Y-82552601D01*
X71290781Y-82636163D01*
X71174626Y-82698249D01*
X71048578Y-82736485D01*
X70911360Y-82750000D01*
X68788640Y-82750000D01*
X68651422Y-82736485D01*
X68525374Y-82698249D01*
X68409219Y-82636163D01*
X68307399Y-82552601D01*
X68223837Y-82450781D01*
X68161751Y-82334626D01*
X68123515Y-82208578D01*
X68110000Y-82071360D01*
X68110000Y-80488640D01*
X68123515Y-80351422D01*
X68161751Y-80225374D01*
X68223837Y-80109219D01*
X68307399Y-80007399D01*
X68409219Y-79923837D01*
X68525374Y-79861751D01*
X68651422Y-79823515D01*
X68788640Y-79810000D01*
X70911360Y-79810000D01*
X71048578Y-79823515D01*
X71048578Y-79823515D01*
G37*
G36*
X91713127Y-79532901D02*
G01*
X91848365Y-79559801D01*
X92103149Y-79665336D01*
X92332448Y-79818549D01*
X92527451Y-80013552D01*
X92680664Y-80242851D01*
X92786199Y-80497635D01*
X92840000Y-80768112D01*
X92840000Y-81043888D01*
X92786199Y-81314365D01*
X92680664Y-81569149D01*
X92527451Y-81798448D01*
X92332448Y-81993451D01*
X92103149Y-82146664D01*
X91848365Y-82252199D01*
X91809282Y-82259973D01*
X91577889Y-82306000D01*
X91302111Y-82306000D01*
X91070718Y-82259973D01*
X91031635Y-82252199D01*
X90776851Y-82146664D01*
X90547552Y-81993451D01*
X90352549Y-81798448D01*
X90199336Y-81569149D01*
X90093801Y-81314365D01*
X90040000Y-81043888D01*
X90040000Y-80768112D01*
X90093801Y-80497635D01*
X90199336Y-80242851D01*
X90352549Y-80013552D01*
X90547552Y-79818549D01*
X90776851Y-79665336D01*
X91031635Y-79559801D01*
X91166873Y-79532901D01*
X91302111Y-79506000D01*
X91577889Y-79506000D01*
X91713127Y-79532901D01*
X91713127Y-79532901D01*
G37*
G36*
X138657290Y-76495619D02*
G01*
X138721689Y-76508429D01*
X138903678Y-76583811D01*
X139067463Y-76693249D01*
X139206751Y-76832537D01*
X139316189Y-76996322D01*
X139391571Y-77178311D01*
X139430000Y-77371509D01*
X139430000Y-77568491D01*
X139391571Y-77761689D01*
X139316189Y-77943678D01*
X139206751Y-78107463D01*
X139067463Y-78246751D01*
X138903678Y-78356189D01*
X138721689Y-78431571D01*
X138657290Y-78444381D01*
X138528493Y-78470000D01*
X138331507Y-78470000D01*
X138202710Y-78444381D01*
X138138311Y-78431571D01*
X137956322Y-78356189D01*
X137792537Y-78246751D01*
X137653249Y-78107463D01*
X137543811Y-77943678D01*
X137468429Y-77761689D01*
X137430000Y-77568491D01*
X137430000Y-77371509D01*
X137468429Y-77178311D01*
X137543811Y-76996322D01*
X137653249Y-76832537D01*
X137792537Y-76693249D01*
X137956322Y-76583811D01*
X138138311Y-76508429D01*
X138202710Y-76495619D01*
X138331507Y-76470000D01*
X138528493Y-76470000D01*
X138657290Y-76495619D01*
X138657290Y-76495619D01*
G37*
G36*
X133577290Y-75145619D02*
G01*
X133641689Y-75158429D01*
X133823678Y-75233811D01*
X133987463Y-75343249D01*
X134126751Y-75482537D01*
X134236189Y-75646322D01*
X134311571Y-75828311D01*
X134350000Y-76021509D01*
X134350000Y-76218491D01*
X134311571Y-76411689D01*
X134236189Y-76593678D01*
X134126751Y-76757463D01*
X133987463Y-76896751D01*
X133823678Y-77006189D01*
X133641689Y-77081571D01*
X133577290Y-77094381D01*
X133448493Y-77120000D01*
X133251507Y-77120000D01*
X133122710Y-77094381D01*
X133058311Y-77081571D01*
X132876322Y-77006189D01*
X132712537Y-76896751D01*
X132573249Y-76757463D01*
X132463811Y-76593678D01*
X132388429Y-76411689D01*
X132350000Y-76218491D01*
X132350000Y-76021509D01*
X132388429Y-75828311D01*
X132463811Y-75646322D01*
X132573249Y-75482537D01*
X132712537Y-75343249D01*
X132876322Y-75233811D01*
X133058311Y-75158429D01*
X133122710Y-75145619D01*
X133251507Y-75120000D01*
X133448493Y-75120000D01*
X133577290Y-75145619D01*
X133577290Y-75145619D01*
G37*
G36*
X151058578Y-72203515D02*
G01*
X151184626Y-72241751D01*
X151300781Y-72303837D01*
X151402601Y-72387399D01*
X151486163Y-72489219D01*
X151548249Y-72605374D01*
X151586485Y-72731422D01*
X151600000Y-72868640D01*
X151600000Y-74451360D01*
X151586485Y-74588578D01*
X151548249Y-74714626D01*
X151486163Y-74830781D01*
X151402601Y-74932601D01*
X151300781Y-75016163D01*
X151184626Y-75078249D01*
X151058578Y-75116485D01*
X150921360Y-75130000D01*
X148798640Y-75130000D01*
X148661422Y-75116485D01*
X148535374Y-75078249D01*
X148419219Y-75016163D01*
X148317399Y-74932601D01*
X148233837Y-74830781D01*
X148171751Y-74714626D01*
X148133515Y-74588578D01*
X148120000Y-74451360D01*
X148120000Y-72868640D01*
X148133515Y-72731422D01*
X148171751Y-72605374D01*
X148233837Y-72489219D01*
X148317399Y-72387399D01*
X148419219Y-72303837D01*
X148535374Y-72241751D01*
X148661422Y-72203515D01*
X148798640Y-72190000D01*
X150921360Y-72190000D01*
X151058578Y-72203515D01*
X151058578Y-72203515D01*
G37*
G36*
X80284448Y-72026257D02*
G01*
X80548349Y-72106310D01*
X80791562Y-72236310D01*
X81004739Y-72411261D01*
X81179690Y-72624438D01*
X81309690Y-72867651D01*
X81389743Y-73131552D01*
X81416774Y-73406000D01*
X81389743Y-73680448D01*
X81309690Y-73944349D01*
X81179690Y-74187562D01*
X81004739Y-74400739D01*
X80791562Y-74575690D01*
X80548349Y-74705690D01*
X80284448Y-74785743D01*
X80078777Y-74806000D01*
X79941223Y-74806000D01*
X79735552Y-74785743D01*
X79471651Y-74705690D01*
X79228438Y-74575690D01*
X79015261Y-74400739D01*
X78840310Y-74187562D01*
X78710310Y-73944349D01*
X78630257Y-73680448D01*
X78603226Y-73406000D01*
X78630257Y-73131552D01*
X78710310Y-72867651D01*
X78840310Y-72624438D01*
X79015261Y-72411261D01*
X79228438Y-72236310D01*
X79471651Y-72106310D01*
X79735552Y-72026257D01*
X79941223Y-72006000D01*
X80078777Y-72006000D01*
X80284448Y-72026257D01*
X80284448Y-72026257D01*
G37*
G36*
X68710000Y-74806000D02*
G01*
X65910000Y-74806000D01*
X65910000Y-72006000D01*
X68710000Y-72006000D01*
X68710000Y-74806000D01*
X68710000Y-74806000D01*
G37*
G36*
X92840000Y-74806000D02*
G01*
X90040000Y-74806000D01*
X90040000Y-72006000D01*
X92840000Y-72006000D01*
X92840000Y-74806000D01*
X92840000Y-74806000D01*
G37*
G36*
X119647290Y-72685619D02*
G01*
X119711689Y-72698429D01*
X119893678Y-72773811D01*
X120057463Y-72883249D01*
X120196751Y-73022537D01*
X120306189Y-73186322D01*
X120381571Y-73368311D01*
X120420000Y-73561509D01*
X120420000Y-73758491D01*
X120381571Y-73951689D01*
X120306189Y-74133678D01*
X120196751Y-74297463D01*
X120057463Y-74436751D01*
X119893678Y-74546189D01*
X119711689Y-74621571D01*
X119647290Y-74634381D01*
X119518493Y-74660000D01*
X119321507Y-74660000D01*
X119192710Y-74634381D01*
X119128311Y-74621571D01*
X118946322Y-74546189D01*
X118782537Y-74436751D01*
X118643249Y-74297463D01*
X118533811Y-74133678D01*
X118458429Y-73951689D01*
X118420000Y-73758491D01*
X118420000Y-73561509D01*
X118458429Y-73368311D01*
X118533811Y-73186322D01*
X118643249Y-73022537D01*
X118782537Y-72883249D01*
X118946322Y-72773811D01*
X119128311Y-72698429D01*
X119192710Y-72685619D01*
X119321507Y-72660000D01*
X119518493Y-72660000D01*
X119647290Y-72685619D01*
X119647290Y-72685619D01*
G37*
G36*
X112760000Y-74660000D02*
G01*
X110760000Y-74660000D01*
X110760000Y-72660000D01*
X112760000Y-72660000D01*
X112760000Y-74660000D01*
X112760000Y-74660000D01*
G37*
G36*
X114487290Y-72685619D02*
G01*
X114551689Y-72698429D01*
X114733678Y-72773811D01*
X114897463Y-72883249D01*
X115036751Y-73022537D01*
X115146189Y-73186322D01*
X115221571Y-73368311D01*
X115260000Y-73561509D01*
X115260000Y-73758491D01*
X115221571Y-73951689D01*
X115146189Y-74133678D01*
X115036751Y-74297463D01*
X114897463Y-74436751D01*
X114733678Y-74546189D01*
X114551689Y-74621571D01*
X114487290Y-74634381D01*
X114358493Y-74660000D01*
X114161507Y-74660000D01*
X114032710Y-74634381D01*
X113968311Y-74621571D01*
X113786322Y-74546189D01*
X113622537Y-74436751D01*
X113483249Y-74297463D01*
X113373811Y-74133678D01*
X113298429Y-73951689D01*
X113260000Y-73758491D01*
X113260000Y-73561509D01*
X113298429Y-73368311D01*
X113373811Y-73186322D01*
X113483249Y-73022537D01*
X113622537Y-72883249D01*
X113786322Y-72773811D01*
X113968311Y-72698429D01*
X114032710Y-72685619D01*
X114161507Y-72660000D01*
X114358493Y-72660000D01*
X114487290Y-72685619D01*
X114487290Y-72685619D01*
G37*
G36*
X122920000Y-74660000D02*
G01*
X120920000Y-74660000D01*
X120920000Y-72660000D01*
X122920000Y-72660000D01*
X122920000Y-74660000D01*
X122920000Y-74660000D01*
G37*
G36*
X133577290Y-70145619D02*
G01*
X133641689Y-70158429D01*
X133823678Y-70233811D01*
X133987463Y-70343249D01*
X134126751Y-70482537D01*
X134236189Y-70646322D01*
X134311571Y-70828311D01*
X134350000Y-71021509D01*
X134350000Y-71218491D01*
X134311571Y-71411689D01*
X134236189Y-71593678D01*
X134126751Y-71757463D01*
X133987463Y-71896751D01*
X133823678Y-72006189D01*
X133641689Y-72081571D01*
X133577290Y-72094381D01*
X133448493Y-72120000D01*
X133251507Y-72120000D01*
X133122710Y-72094381D01*
X133058311Y-72081571D01*
X132876322Y-72006189D01*
X132712537Y-71896751D01*
X132573249Y-71757463D01*
X132463811Y-71593678D01*
X132388429Y-71411689D01*
X132350000Y-71218491D01*
X132350000Y-71021509D01*
X132388429Y-70828311D01*
X132463811Y-70646322D01*
X132573249Y-70482537D01*
X132712537Y-70343249D01*
X132876322Y-70233811D01*
X133058311Y-70158429D01*
X133122710Y-70145619D01*
X133251507Y-70120000D01*
X133448493Y-70120000D01*
X133577290Y-70145619D01*
X133577290Y-70145619D01*
G37*
G36*
X138626032Y-68864469D02*
G01*
X138720284Y-68893060D01*
X138814535Y-68921651D01*
X138814537Y-68921652D01*
X138988258Y-69014507D01*
X139140528Y-69139472D01*
X139265493Y-69291742D01*
X139358348Y-69465463D01*
X139415531Y-69653968D01*
X139434838Y-69850000D01*
X139415531Y-70046032D01*
X139415530Y-70046034D01*
X139358569Y-70233811D01*
X139358348Y-70234537D01*
X139265493Y-70408258D01*
X139140528Y-70560528D01*
X138988258Y-70685493D01*
X138814537Y-70778348D01*
X138814535Y-70778349D01*
X138720285Y-70806939D01*
X138626032Y-70835531D01*
X138479124Y-70850000D01*
X138380876Y-70850000D01*
X138233968Y-70835531D01*
X138139715Y-70806939D01*
X138045465Y-70778349D01*
X138045463Y-70778348D01*
X137871742Y-70685493D01*
X137719472Y-70560528D01*
X137594507Y-70408258D01*
X137501652Y-70234537D01*
X137501432Y-70233811D01*
X137444470Y-70046034D01*
X137444469Y-70046032D01*
X137425162Y-69850000D01*
X137444469Y-69653968D01*
X137501652Y-69465463D01*
X137594507Y-69291742D01*
X137719472Y-69139472D01*
X137871742Y-69014507D01*
X138045463Y-68921652D01*
X138045465Y-68921651D01*
X138139716Y-68893060D01*
X138233968Y-68864469D01*
X138380876Y-68850000D01*
X138479124Y-68850000D01*
X138626032Y-68864469D01*
X138626032Y-68864469D01*
G37*
G36*
X151058578Y-67123515D02*
G01*
X151184626Y-67161751D01*
X151300781Y-67223837D01*
X151402601Y-67307399D01*
X151486163Y-67409219D01*
X151548249Y-67525374D01*
X151586485Y-67651422D01*
X151600000Y-67788640D01*
X151600000Y-69371360D01*
X151586485Y-69508578D01*
X151548249Y-69634626D01*
X151486163Y-69750781D01*
X151402601Y-69852601D01*
X151300781Y-69936163D01*
X151184626Y-69998249D01*
X151058578Y-70036485D01*
X150921360Y-70050000D01*
X148798640Y-70050000D01*
X148661422Y-70036485D01*
X148535374Y-69998249D01*
X148419219Y-69936163D01*
X148317399Y-69852601D01*
X148233837Y-69750781D01*
X148171751Y-69634626D01*
X148133515Y-69508578D01*
X148120000Y-69371360D01*
X148120000Y-67788640D01*
X148133515Y-67651422D01*
X148171751Y-67525374D01*
X148233837Y-67409219D01*
X148317399Y-67307399D01*
X148419219Y-67223837D01*
X148535374Y-67161751D01*
X148661422Y-67123515D01*
X148798640Y-67110000D01*
X150921360Y-67110000D01*
X151058578Y-67123515D01*
X151058578Y-67123515D01*
G37*
G36*
X133589727Y-65930257D02*
G01*
X133758365Y-65963801D01*
X134013149Y-66069336D01*
X134242448Y-66222549D01*
X134437451Y-66417552D01*
X134590664Y-66646851D01*
X134684843Y-66874218D01*
X134696199Y-66901636D01*
X134740455Y-67124123D01*
X134750000Y-67172112D01*
X134750000Y-67447888D01*
X134696199Y-67718365D01*
X134590664Y-67973149D01*
X134437451Y-68202448D01*
X134242448Y-68397451D01*
X134013149Y-68550664D01*
X133758365Y-68656199D01*
X133623127Y-68683099D01*
X133487889Y-68710000D01*
X133212111Y-68710000D01*
X133076873Y-68683099D01*
X132941635Y-68656199D01*
X132686851Y-68550664D01*
X132457552Y-68397451D01*
X132262549Y-68202448D01*
X132109336Y-67973149D01*
X132003801Y-67718365D01*
X131950000Y-67447888D01*
X131950000Y-67172112D01*
X131959546Y-67124123D01*
X132003801Y-66901636D01*
X132015158Y-66874218D01*
X132109336Y-66646851D01*
X132262549Y-66417552D01*
X132457552Y-66222549D01*
X132686851Y-66069336D01*
X132941635Y-65963801D01*
X133110273Y-65930257D01*
X133212111Y-65910000D01*
X133487889Y-65910000D01*
X133589727Y-65930257D01*
X133589727Y-65930257D01*
G37*
G36*
X118384448Y-65930257D02*
G01*
X118648349Y-66010310D01*
X118891562Y-66140310D01*
X119104739Y-66315261D01*
X119279690Y-66528438D01*
X119409690Y-66771651D01*
X119489743Y-67035552D01*
X119516774Y-67310000D01*
X119489743Y-67584448D01*
X119409690Y-67848349D01*
X119279690Y-68091562D01*
X119104739Y-68304739D01*
X118891562Y-68479690D01*
X118648349Y-68609690D01*
X118384448Y-68689743D01*
X118178777Y-68710000D01*
X118041223Y-68710000D01*
X117835552Y-68689743D01*
X117571651Y-68609690D01*
X117328438Y-68479690D01*
X117115261Y-68304739D01*
X116940310Y-68091562D01*
X116810310Y-67848349D01*
X116730257Y-67584448D01*
X116703226Y-67310000D01*
X116730257Y-67035552D01*
X116810310Y-66771651D01*
X116940310Y-66528438D01*
X117115261Y-66315261D01*
X117328438Y-66140310D01*
X117571651Y-66010310D01*
X117835552Y-65930257D01*
X118041223Y-65910000D01*
X118178777Y-65910000D01*
X118384448Y-65930257D01*
X118384448Y-65930257D01*
G37*
G36*
X113298353Y-66425355D02*
G01*
X113465782Y-66494706D01*
X113465783Y-66494707D01*
X113616466Y-66595390D01*
X113744610Y-66723534D01*
X113744611Y-66723536D01*
X113845294Y-66874218D01*
X113914645Y-67041647D01*
X113950000Y-67219387D01*
X113950000Y-67400613D01*
X113914645Y-67578353D01*
X113845294Y-67745782D01*
X113845293Y-67745783D01*
X113744610Y-67896466D01*
X113616466Y-68024610D01*
X113540612Y-68075294D01*
X113465782Y-68125294D01*
X113298353Y-68194645D01*
X113120613Y-68230000D01*
X112939387Y-68230000D01*
X112761647Y-68194645D01*
X112594218Y-68125294D01*
X112519388Y-68075294D01*
X112443534Y-68024610D01*
X112315390Y-67896466D01*
X112214707Y-67745783D01*
X112214706Y-67745782D01*
X112145355Y-67578353D01*
X112110000Y-67400613D01*
X112110000Y-67219387D01*
X112145355Y-67041647D01*
X112214706Y-66874218D01*
X112315389Y-66723536D01*
X112315390Y-66723534D01*
X112443534Y-66595390D01*
X112594217Y-66494707D01*
X112594218Y-66494706D01*
X112761647Y-66425355D01*
X112939387Y-66390000D01*
X113120613Y-66390000D01*
X113298353Y-66425355D01*
X113298353Y-66425355D01*
G37*
G36*
X69135062Y-61821635D02*
G01*
X69455068Y-61885288D01*
X70001033Y-62111434D01*
X70042869Y-62139388D01*
X70492388Y-62439747D01*
X70910253Y-62857612D01*
X70933998Y-62893149D01*
X71238566Y-63348967D01*
X71446101Y-63850000D01*
X71464712Y-63894933D01*
X71571144Y-64430000D01*
X71580000Y-64474526D01*
X71580000Y-65065474D01*
X71464712Y-65645068D01*
X71238566Y-66191033D01*
X71155559Y-66315261D01*
X70910253Y-66682388D01*
X70492388Y-67100253D01*
X70394067Y-67165949D01*
X70001033Y-67428566D01*
X69455068Y-67654712D01*
X69261870Y-67693141D01*
X68875476Y-67770000D01*
X68284524Y-67770000D01*
X67898130Y-67693141D01*
X67704932Y-67654712D01*
X67158967Y-67428566D01*
X66765933Y-67165949D01*
X66667612Y-67100253D01*
X66249747Y-66682388D01*
X66004441Y-66315261D01*
X65921434Y-66191033D01*
X65695288Y-65645068D01*
X65580000Y-65065474D01*
X65580000Y-64474526D01*
X65588857Y-64430000D01*
X65695288Y-63894933D01*
X65713900Y-63850000D01*
X65921434Y-63348967D01*
X66226002Y-62893149D01*
X66249747Y-62857612D01*
X66667612Y-62439747D01*
X67117131Y-62139388D01*
X67158967Y-62111434D01*
X67704932Y-61885288D01*
X68024938Y-61821635D01*
X68284524Y-61770000D01*
X68875476Y-61770000D01*
X69135062Y-61821635D01*
X69135062Y-61821635D01*
G37*
G36*
X140381870Y-60576859D02*
G01*
X140575068Y-60615288D01*
X140961122Y-60775197D01*
X141087592Y-60827582D01*
X141121033Y-60841434D01*
X141254045Y-60930310D01*
X141612388Y-61169747D01*
X142030253Y-61587612D01*
X142152121Y-61770000D01*
X142334878Y-62043515D01*
X142358567Y-62078969D01*
X142364011Y-62092112D01*
X142584712Y-62624932D01*
X142592838Y-62665783D01*
X142700000Y-63204524D01*
X142700000Y-63795476D01*
X142668327Y-63954706D01*
X142584712Y-64375068D01*
X142358566Y-64921033D01*
X142030252Y-65412389D01*
X141612389Y-65830252D01*
X141121033Y-66158566D01*
X140575068Y-66384712D01*
X140381870Y-66423141D01*
X139995476Y-66500000D01*
X139404524Y-66500000D01*
X139018130Y-66423141D01*
X138824932Y-66384712D01*
X138278967Y-66158566D01*
X137787611Y-65830252D01*
X137369748Y-65412389D01*
X137041434Y-64921033D01*
X136815288Y-64375068D01*
X136731673Y-63954706D01*
X136700000Y-63795476D01*
X136700000Y-63204524D01*
X136807162Y-62665783D01*
X136815288Y-62624932D01*
X137035989Y-62092112D01*
X137041433Y-62078969D01*
X137065123Y-62043515D01*
X137247879Y-61770000D01*
X137369747Y-61587612D01*
X137787612Y-61169747D01*
X138145955Y-60930310D01*
X138278967Y-60841434D01*
X138312409Y-60827582D01*
X138438878Y-60775197D01*
X138824932Y-60615288D01*
X139018130Y-60576859D01*
X139404524Y-60500000D01*
X139995476Y-60500000D01*
X140381870Y-60576859D01*
X140381870Y-60576859D01*
G37*
G36*
X113298353Y-63885355D02*
G01*
X113465782Y-63954706D01*
X113465783Y-63954707D01*
X113616466Y-64055390D01*
X113744610Y-64183534D01*
X113744611Y-64183536D01*
X113845294Y-64334218D01*
X113914645Y-64501647D01*
X113950000Y-64679387D01*
X113950000Y-64860613D01*
X113914645Y-65038353D01*
X113845294Y-65205782D01*
X113845293Y-65205783D01*
X113744610Y-65356466D01*
X113616466Y-65484610D01*
X113540612Y-65535294D01*
X113465782Y-65585294D01*
X113298353Y-65654645D01*
X113120613Y-65690000D01*
X112939387Y-65690000D01*
X112761647Y-65654645D01*
X112594218Y-65585294D01*
X112519388Y-65535294D01*
X112443534Y-65484610D01*
X112315390Y-65356466D01*
X112214707Y-65205783D01*
X112214706Y-65205782D01*
X112145355Y-65038353D01*
X112110000Y-64860613D01*
X112110000Y-64679387D01*
X112145355Y-64501647D01*
X112214706Y-64334218D01*
X112315389Y-64183536D01*
X112315390Y-64183534D01*
X112443534Y-64055390D01*
X112594217Y-63954707D01*
X112594218Y-63954706D01*
X112761647Y-63885355D01*
X112939387Y-63850000D01*
X113120613Y-63850000D01*
X113298353Y-63885355D01*
X113298353Y-63885355D01*
G37*
G36*
X151058578Y-62043515D02*
G01*
X151184626Y-62081751D01*
X151300781Y-62143837D01*
X151402601Y-62227399D01*
X151486163Y-62329219D01*
X151548249Y-62445374D01*
X151586485Y-62571422D01*
X151600000Y-62708640D01*
X151600000Y-64291360D01*
X151586485Y-64428578D01*
X151548249Y-64554626D01*
X151486163Y-64670781D01*
X151402601Y-64772601D01*
X151300781Y-64856163D01*
X151184626Y-64918249D01*
X151058578Y-64956485D01*
X150921360Y-64970000D01*
X148798640Y-64970000D01*
X148661422Y-64956485D01*
X148535374Y-64918249D01*
X148419219Y-64856163D01*
X148317399Y-64772601D01*
X148233837Y-64670781D01*
X148171751Y-64554626D01*
X148133515Y-64428578D01*
X148120000Y-64291360D01*
X148120000Y-62708640D01*
X148133515Y-62571422D01*
X148171751Y-62445374D01*
X148233837Y-62329219D01*
X148317399Y-62227399D01*
X148419219Y-62143837D01*
X148535374Y-62081751D01*
X148661422Y-62043515D01*
X148798640Y-62030000D01*
X150921360Y-62030000D01*
X151058578Y-62043515D01*
X151058578Y-62043515D01*
G37*
G36*
X79381715Y-60114544D02*
G01*
X79782089Y-60280384D01*
X79782091Y-60280385D01*
X80142418Y-60521148D01*
X80448852Y-60827582D01*
X80677480Y-61169747D01*
X80689616Y-61187911D01*
X80855456Y-61588285D01*
X80940000Y-62013318D01*
X80940000Y-62446682D01*
X80855456Y-62871715D01*
X80754831Y-63114645D01*
X80689615Y-63272091D01*
X80448852Y-63632418D01*
X80142418Y-63938852D01*
X79782091Y-64179615D01*
X79782090Y-64179616D01*
X79782089Y-64179616D01*
X79381715Y-64345456D01*
X78956682Y-64430000D01*
X78523318Y-64430000D01*
X78098285Y-64345456D01*
X77697911Y-64179616D01*
X77697910Y-64179616D01*
X77697909Y-64179615D01*
X77337582Y-63938852D01*
X77031148Y-63632418D01*
X76790385Y-63272091D01*
X76725169Y-63114645D01*
X76624544Y-62871715D01*
X76540000Y-62446682D01*
X76540000Y-62013318D01*
X76624544Y-61588285D01*
X76790384Y-61187911D01*
X76802521Y-61169747D01*
X77031148Y-60827582D01*
X77337582Y-60521148D01*
X77697909Y-60280385D01*
X77697911Y-60280384D01*
X78098285Y-60114544D01*
X78523318Y-60030000D01*
X78956682Y-60030000D01*
X79381715Y-60114544D01*
X79381715Y-60114544D01*
G37*
G36*
X104781715Y-60114544D02*
G01*
X105182089Y-60280384D01*
X105182091Y-60280385D01*
X105542418Y-60521148D01*
X105848852Y-60827582D01*
X106077480Y-61169747D01*
X106089616Y-61187911D01*
X106255456Y-61588285D01*
X106340000Y-62013318D01*
X106340000Y-62446682D01*
X106255456Y-62871715D01*
X106154831Y-63114645D01*
X106089615Y-63272091D01*
X105848852Y-63632418D01*
X105542418Y-63938852D01*
X105182091Y-64179615D01*
X105182090Y-64179616D01*
X105182089Y-64179616D01*
X104781715Y-64345456D01*
X104356682Y-64430000D01*
X103923318Y-64430000D01*
X103498285Y-64345456D01*
X103097911Y-64179616D01*
X103097910Y-64179616D01*
X103097909Y-64179615D01*
X102737582Y-63938852D01*
X102431148Y-63632418D01*
X102190385Y-63272091D01*
X102125169Y-63114645D01*
X102024544Y-62871715D01*
X101940000Y-62446682D01*
X101940000Y-62013318D01*
X102024544Y-61588285D01*
X102190384Y-61187911D01*
X102202521Y-61169747D01*
X102431148Y-60827582D01*
X102737582Y-60521148D01*
X103097909Y-60280385D01*
X103097911Y-60280384D01*
X103498285Y-60114544D01*
X103923318Y-60030000D01*
X104356682Y-60030000D01*
X104781715Y-60114544D01*
X104781715Y-60114544D01*
G37*
G36*
X118305366Y-60841433D02*
G01*
X118518365Y-60883801D01*
X118773149Y-60989336D01*
X119002448Y-61142549D01*
X119197451Y-61337552D01*
X119350664Y-61566851D01*
X119350665Y-61566853D01*
X119359542Y-61588284D01*
X119444843Y-61794218D01*
X119456199Y-61821636D01*
X119510000Y-62092111D01*
X119510000Y-62367889D01*
X119495706Y-62439748D01*
X119456199Y-62638365D01*
X119350664Y-62893149D01*
X119197451Y-63122448D01*
X119002448Y-63317451D01*
X118773149Y-63470664D01*
X118518365Y-63576199D01*
X118383127Y-63603099D01*
X118247889Y-63630000D01*
X117972111Y-63630000D01*
X117836873Y-63603099D01*
X117701635Y-63576199D01*
X117446851Y-63470664D01*
X117217552Y-63317451D01*
X117022549Y-63122448D01*
X116869336Y-62893149D01*
X116763801Y-62638365D01*
X116724294Y-62439748D01*
X116710000Y-62367889D01*
X116710000Y-62092111D01*
X116763801Y-61821636D01*
X116775158Y-61794218D01*
X116860458Y-61588284D01*
X116869335Y-61566853D01*
X116869336Y-61566851D01*
X117022549Y-61337552D01*
X117217552Y-61142549D01*
X117446851Y-60989336D01*
X117701635Y-60883801D01*
X117914634Y-60841433D01*
X117972111Y-60830000D01*
X118247889Y-60830000D01*
X118305366Y-60841433D01*
X118305366Y-60841433D01*
G37*
G36*
X133624448Y-60850257D02*
G01*
X133888349Y-60930310D01*
X134131562Y-61060310D01*
X134344739Y-61235261D01*
X134519690Y-61448438D01*
X134649690Y-61691651D01*
X134729743Y-61955552D01*
X134756774Y-62230000D01*
X134729743Y-62504448D01*
X134649690Y-62768349D01*
X134519690Y-63011562D01*
X134344739Y-63224739D01*
X134131562Y-63399690D01*
X133888349Y-63529690D01*
X133624448Y-63609743D01*
X133418777Y-63630000D01*
X133281223Y-63630000D01*
X133075552Y-63609743D01*
X132811651Y-63529690D01*
X132568438Y-63399690D01*
X132355261Y-63224739D01*
X132180310Y-63011562D01*
X132050310Y-62768349D01*
X131970257Y-62504448D01*
X131943226Y-62230000D01*
X131970257Y-61955552D01*
X132050310Y-61691651D01*
X132180310Y-61448438D01*
X132355261Y-61235261D01*
X132568438Y-61060310D01*
X132811651Y-60930310D01*
X133075552Y-60850257D01*
X133281223Y-60830000D01*
X133418777Y-60830000D01*
X133624448Y-60850257D01*
X133624448Y-60850257D01*
G37*
G36*
X113298353Y-61345355D02*
G01*
X113465782Y-61414706D01*
X113465783Y-61414707D01*
X113616466Y-61515390D01*
X113744610Y-61643534D01*
X113744611Y-61643536D01*
X113845294Y-61794218D01*
X113914645Y-61961647D01*
X113950000Y-62139387D01*
X113950000Y-62320613D01*
X113914645Y-62498353D01*
X113845294Y-62665782D01*
X113845293Y-62665783D01*
X113744610Y-62816466D01*
X113616466Y-62944610D01*
X113540612Y-62995294D01*
X113465782Y-63045294D01*
X113298353Y-63114645D01*
X113120613Y-63150000D01*
X112939387Y-63150000D01*
X112761647Y-63114645D01*
X112594218Y-63045294D01*
X112519388Y-62995294D01*
X112443534Y-62944610D01*
X112315390Y-62816466D01*
X112214707Y-62665783D01*
X112214706Y-62665782D01*
X112145355Y-62498353D01*
X112110000Y-62320613D01*
X112110000Y-62139387D01*
X112145355Y-61961647D01*
X112214706Y-61794218D01*
X112315389Y-61643536D01*
X112315390Y-61643534D01*
X112443534Y-61515390D01*
X112594217Y-61414707D01*
X112594218Y-61414706D01*
X112761647Y-61345355D01*
X112939387Y-61310000D01*
X113120613Y-61310000D01*
X113298353Y-61345355D01*
X113298353Y-61345355D01*
G37*
G36*
X89250026Y-57266115D02*
G01*
X89468411Y-57356573D01*
X89468413Y-57356574D01*
X89664955Y-57487899D01*
X89832101Y-57655045D01*
X89963427Y-57851589D01*
X90054516Y-58071497D01*
X90066067Y-58093108D01*
X90081612Y-58112050D01*
X90100554Y-58127595D01*
X90122165Y-58139146D01*
X90145614Y-58146259D01*
X90170000Y-58148661D01*
X90194386Y-58146259D01*
X90217835Y-58139146D01*
X90239446Y-58127595D01*
X90258388Y-58112050D01*
X90273933Y-58093108D01*
X90285484Y-58071497D01*
X90376573Y-57851589D01*
X90507899Y-57655045D01*
X90675045Y-57487899D01*
X90871587Y-57356574D01*
X90871589Y-57356573D01*
X91089974Y-57266115D01*
X91321809Y-57220000D01*
X91558191Y-57220000D01*
X91790026Y-57266115D01*
X92008411Y-57356573D01*
X92008413Y-57356574D01*
X92204955Y-57487899D01*
X92372101Y-57655045D01*
X92503427Y-57851588D01*
X92539517Y-57938718D01*
X92551068Y-57960329D01*
X92566613Y-57979271D01*
X92585555Y-57994816D01*
X92607166Y-58006367D01*
X92630615Y-58013480D01*
X92655001Y-58015882D01*
X92679387Y-58013480D01*
X92702836Y-58006367D01*
X92724447Y-57994816D01*
X92743389Y-57979271D01*
X92758934Y-57960329D01*
X92770485Y-57938718D01*
X92777598Y-57915269D01*
X92780000Y-57890883D01*
X92780000Y-57220000D01*
X95180000Y-57220000D01*
X95180000Y-59620000D01*
X92780000Y-59620000D01*
X92780000Y-58949117D01*
X92777598Y-58924731D01*
X92770485Y-58901282D01*
X92758934Y-58879671D01*
X92743389Y-58860729D01*
X92724447Y-58845184D01*
X92702836Y-58833633D01*
X92679387Y-58826520D01*
X92655001Y-58824118D01*
X92630615Y-58826520D01*
X92607166Y-58833633D01*
X92585555Y-58845184D01*
X92566613Y-58860729D01*
X92551068Y-58879671D01*
X92539517Y-58901282D01*
X92503427Y-58988412D01*
X92503426Y-58988413D01*
X92372101Y-59184955D01*
X92204955Y-59352101D01*
X92008413Y-59483426D01*
X92008412Y-59483427D01*
X92008411Y-59483427D01*
X91790026Y-59573885D01*
X91558191Y-59620000D01*
X91321809Y-59620000D01*
X91089974Y-59573885D01*
X90871589Y-59483427D01*
X90871588Y-59483427D01*
X90871587Y-59483426D01*
X90675045Y-59352101D01*
X90507899Y-59184955D01*
X90376574Y-58988413D01*
X90340483Y-58901282D01*
X90285484Y-58768503D01*
X90273933Y-58746892D01*
X90258388Y-58727950D01*
X90239446Y-58712405D01*
X90217835Y-58700854D01*
X90194386Y-58693741D01*
X90170000Y-58691339D01*
X90145614Y-58693741D01*
X90122165Y-58700854D01*
X90100554Y-58712405D01*
X90081612Y-58727950D01*
X90066067Y-58746892D01*
X90054516Y-58768503D01*
X89999517Y-58901282D01*
X89963426Y-58988413D01*
X89832101Y-59184955D01*
X89664955Y-59352101D01*
X89468413Y-59483426D01*
X89468412Y-59483427D01*
X89468411Y-59483427D01*
X89250026Y-59573885D01*
X89018191Y-59620000D01*
X88781809Y-59620000D01*
X88549974Y-59573885D01*
X88331589Y-59483427D01*
X88331588Y-59483427D01*
X88331587Y-59483426D01*
X88135045Y-59352101D01*
X87967899Y-59184955D01*
X87836574Y-58988413D01*
X87800483Y-58901282D01*
X87746115Y-58770026D01*
X87700000Y-58538191D01*
X87700000Y-58301809D01*
X87746115Y-58069974D01*
X87836573Y-57851589D01*
X87967899Y-57655045D01*
X88135045Y-57487899D01*
X88331587Y-57356574D01*
X88331589Y-57356573D01*
X88549974Y-57266115D01*
X88781809Y-57220000D01*
X89018191Y-57220000D01*
X89250026Y-57266115D01*
X89250026Y-57266115D01*
G37*
M02*
