G04 #@! TF.GenerationSoftware,KiCad,Pcbnew,(5.1.0)-1*
G04 #@! TF.CreationDate,2019-07-24T12:11:53+02:00*
G04 #@! TF.ProjectId,PSU - Filter,50535520-2d20-4466-996c-7465722e6b69,rev?*
G04 #@! TF.SameCoordinates,Original*
G04 #@! TF.FileFunction,Legend,Bot*
G04 #@! TF.FilePolarity,Positive*
%FSLAX46Y46*%
G04 Gerber Fmt 4.6, Leading zero omitted, Abs format (unit mm)*
G04 Created by KiCad (PCBNEW (5.1.0)-1) date 2019-07-24 12:11:53*
%MOMM*%
%LPD*%
G04 APERTURE LIST*
%ADD10C,0.300000*%
G04 APERTURE END LIST*
D10*
X144056571Y-79538572D02*
X142556571Y-79538572D01*
X144056571Y-80395715D02*
X143199428Y-79752858D01*
X142556571Y-80395715D02*
X143413714Y-79538572D01*
X144056571Y-81038572D02*
X143056571Y-81038572D01*
X143342285Y-81038572D02*
X143199428Y-81110001D01*
X143128000Y-81181429D01*
X143056571Y-81324286D01*
X143056571Y-81467143D01*
X144056571Y-82610001D02*
X143270857Y-82610001D01*
X143128000Y-82538572D01*
X143056571Y-82395715D01*
X143056571Y-82110001D01*
X143128000Y-81967143D01*
X143985142Y-82610001D02*
X144056571Y-82467143D01*
X144056571Y-82110001D01*
X143985142Y-81967143D01*
X143842285Y-81895715D01*
X143699428Y-81895715D01*
X143556571Y-81967143D01*
X143485142Y-82110001D01*
X143485142Y-82467143D01*
X143413714Y-82610001D01*
X144056571Y-83967143D02*
X143270857Y-83967143D01*
X143128000Y-83895715D01*
X143056571Y-83752858D01*
X143056571Y-83467143D01*
X143128000Y-83324286D01*
X143985142Y-83967143D02*
X144056571Y-83824286D01*
X144056571Y-83467143D01*
X143985142Y-83324286D01*
X143842285Y-83252858D01*
X143699428Y-83252858D01*
X143556571Y-83324286D01*
X143485142Y-83467143D01*
X143485142Y-83824286D01*
X143413714Y-83967143D01*
X144056571Y-84681429D02*
X142556571Y-84681429D01*
X143485142Y-84824286D02*
X144056571Y-85252858D01*
X143056571Y-85252858D02*
X143628000Y-84681429D01*
X143985142Y-86467143D02*
X144056571Y-86324286D01*
X144056571Y-86038572D01*
X143985142Y-85895715D01*
X143842285Y-85824286D01*
X143270857Y-85824286D01*
X143128000Y-85895715D01*
X143056571Y-86038572D01*
X143056571Y-86324286D01*
X143128000Y-86467143D01*
X143270857Y-86538572D01*
X143413714Y-86538572D01*
X143556571Y-85824286D01*
X143056571Y-87181429D02*
X144056571Y-87181429D01*
X143199428Y-87181429D02*
X143128000Y-87252858D01*
X143056571Y-87395715D01*
X143056571Y-87610001D01*
X143128000Y-87752858D01*
X143270857Y-87824286D01*
X144056571Y-87824286D01*
X143985142Y-88467143D02*
X144056571Y-88681429D01*
X144056571Y-89038572D01*
X143985142Y-89181429D01*
X143913714Y-89252858D01*
X143770857Y-89324286D01*
X143628000Y-89324286D01*
X143485142Y-89252858D01*
X143413714Y-89181429D01*
X143342285Y-89038572D01*
X143270857Y-88752858D01*
X143199428Y-88610001D01*
X143128000Y-88538572D01*
X142985142Y-88467143D01*
X142842285Y-88467143D01*
X142699428Y-88538572D01*
X142628000Y-88610001D01*
X142556571Y-88752858D01*
X142556571Y-89110001D01*
X142628000Y-89324286D01*
X143056571Y-89752858D02*
X143056571Y-90324286D01*
X142556571Y-89967143D02*
X143842285Y-89967143D01*
X143985142Y-90038572D01*
X144056571Y-90181429D01*
X144056571Y-90324286D01*
X143056571Y-91467143D02*
X144056571Y-91467143D01*
X143056571Y-90824286D02*
X143842285Y-90824286D01*
X143985142Y-90895715D01*
X144056571Y-91038572D01*
X144056571Y-91252858D01*
X143985142Y-91395715D01*
X143913714Y-91467143D01*
X143056571Y-91967143D02*
X143056571Y-92538572D01*
X144056571Y-92181429D02*
X142770857Y-92181429D01*
X142628000Y-92252858D01*
X142556571Y-92395715D01*
X142556571Y-92538572D01*
X143056571Y-92824286D02*
X143056571Y-93395715D01*
X144056571Y-93038572D02*
X142770857Y-93038572D01*
X142628000Y-93110001D01*
X142556571Y-93252858D01*
X142556571Y-93395715D01*
X146606571Y-73145715D02*
X145106571Y-73145715D01*
X145106571Y-73717143D01*
X145178000Y-73860001D01*
X145249428Y-73931429D01*
X145392285Y-74002858D01*
X145606571Y-74002858D01*
X145749428Y-73931429D01*
X145820857Y-73860001D01*
X145892285Y-73717143D01*
X145892285Y-73145715D01*
X146535142Y-74574286D02*
X146606571Y-74788572D01*
X146606571Y-75145715D01*
X146535142Y-75288572D01*
X146463714Y-75360001D01*
X146320857Y-75431429D01*
X146178000Y-75431429D01*
X146035142Y-75360001D01*
X145963714Y-75288572D01*
X145892285Y-75145715D01*
X145820857Y-74860001D01*
X145749428Y-74717143D01*
X145678000Y-74645715D01*
X145535142Y-74574286D01*
X145392285Y-74574286D01*
X145249428Y-74645715D01*
X145178000Y-74717143D01*
X145106571Y-74860001D01*
X145106571Y-75217143D01*
X145178000Y-75431429D01*
X145106571Y-76074286D02*
X146320857Y-76074286D01*
X146463714Y-76145715D01*
X146535142Y-76217143D01*
X146606571Y-76360001D01*
X146606571Y-76645715D01*
X146535142Y-76788572D01*
X146463714Y-76860001D01*
X146320857Y-76931429D01*
X145106571Y-76931429D01*
X147178000Y-79217143D02*
X147106571Y-79145715D01*
X146892285Y-79002858D01*
X146749428Y-78931429D01*
X146535142Y-78860001D01*
X146178000Y-78788572D01*
X145892285Y-78788572D01*
X145535142Y-78860001D01*
X145320857Y-78931429D01*
X145178000Y-79002858D01*
X144963714Y-79145715D01*
X144892285Y-79217143D01*
X145606571Y-79574286D02*
X145606571Y-80145715D01*
X146606571Y-79788572D02*
X145320857Y-79788572D01*
X145178000Y-79860001D01*
X145106571Y-80002858D01*
X145106571Y-80145715D01*
X146606571Y-80645715D02*
X145606571Y-80645715D01*
X145106571Y-80645715D02*
X145178000Y-80574286D01*
X145249428Y-80645715D01*
X145178000Y-80717143D01*
X145106571Y-80645715D01*
X145249428Y-80645715D01*
X146606571Y-81574286D02*
X146535142Y-81431429D01*
X146392285Y-81360001D01*
X145106571Y-81360001D01*
X145606571Y-81931429D02*
X145606571Y-82502858D01*
X145106571Y-82145715D02*
X146392285Y-82145715D01*
X146535142Y-82217143D01*
X146606571Y-82360001D01*
X146606571Y-82502858D01*
X146535142Y-83574286D02*
X146606571Y-83431429D01*
X146606571Y-83145715D01*
X146535142Y-83002858D01*
X146392285Y-82931429D01*
X145820857Y-82931429D01*
X145678000Y-83002858D01*
X145606571Y-83145715D01*
X145606571Y-83431429D01*
X145678000Y-83574286D01*
X145820857Y-83645715D01*
X145963714Y-83645715D01*
X146106571Y-82931429D01*
X146606571Y-84288572D02*
X145606571Y-84288572D01*
X145892285Y-84288572D02*
X145749428Y-84360001D01*
X145678000Y-84431429D01*
X145606571Y-84574286D01*
X145606571Y-84717143D01*
X146606571Y-86360001D02*
X145106571Y-86360001D01*
X145678000Y-86360001D02*
X145606571Y-86502858D01*
X145606571Y-86788572D01*
X145678000Y-86931429D01*
X145749428Y-87002858D01*
X145892285Y-87074286D01*
X146320857Y-87074286D01*
X146463714Y-87002858D01*
X146535142Y-86931429D01*
X146606571Y-86788572D01*
X146606571Y-86502858D01*
X146535142Y-86360001D01*
X146606571Y-87931429D02*
X146535142Y-87788572D01*
X146463714Y-87717143D01*
X146320857Y-87645715D01*
X145892285Y-87645715D01*
X145749428Y-87717143D01*
X145678000Y-87788572D01*
X145606571Y-87931429D01*
X145606571Y-88145715D01*
X145678000Y-88288572D01*
X145749428Y-88360001D01*
X145892285Y-88431429D01*
X146320857Y-88431429D01*
X146463714Y-88360001D01*
X146535142Y-88288572D01*
X146606571Y-88145715D01*
X146606571Y-87931429D01*
X146606571Y-89717143D02*
X145820857Y-89717143D01*
X145678000Y-89645715D01*
X145606571Y-89502858D01*
X145606571Y-89217143D01*
X145678000Y-89074286D01*
X146535142Y-89717143D02*
X146606571Y-89574286D01*
X146606571Y-89217143D01*
X146535142Y-89074286D01*
X146392285Y-89002858D01*
X146249428Y-89002858D01*
X146106571Y-89074286D01*
X146035142Y-89217143D01*
X146035142Y-89574286D01*
X145963714Y-89717143D01*
X146606571Y-90431429D02*
X145606571Y-90431429D01*
X145892285Y-90431429D02*
X145749428Y-90502858D01*
X145678000Y-90574286D01*
X145606571Y-90717143D01*
X145606571Y-90860001D01*
X146606571Y-92002858D02*
X145106571Y-92002858D01*
X146535142Y-92002858D02*
X146606571Y-91860001D01*
X146606571Y-91574286D01*
X146535142Y-91431429D01*
X146463714Y-91360001D01*
X146320857Y-91288572D01*
X145892285Y-91288572D01*
X145749428Y-91360001D01*
X145678000Y-91431429D01*
X145606571Y-91574286D01*
X145606571Y-91860001D01*
X145678000Y-92002858D01*
X147178000Y-92574286D02*
X147106571Y-92645715D01*
X146892285Y-92788572D01*
X146749428Y-92860001D01*
X146535142Y-92931429D01*
X146178000Y-93002858D01*
X145892285Y-93002858D01*
X145535142Y-92931429D01*
X145320857Y-92860001D01*
X145178000Y-92788572D01*
X144963714Y-92645715D01*
X144892285Y-92574286D01*
X145606571Y-94717143D02*
X146606571Y-95074286D01*
X145606571Y-95431429D01*
X146463714Y-96002858D02*
X146535142Y-96074286D01*
X146606571Y-96002858D01*
X146535142Y-95931429D01*
X146463714Y-96002858D01*
X146606571Y-96002858D01*
X145106571Y-97002858D02*
X145106571Y-97145715D01*
X145178000Y-97288572D01*
X145249428Y-97360001D01*
X145392285Y-97431429D01*
X145678000Y-97502858D01*
X146035142Y-97502858D01*
X146320857Y-97431429D01*
X146463714Y-97360001D01*
X146535142Y-97288572D01*
X146606571Y-97145715D01*
X146606571Y-97002858D01*
X146535142Y-96860001D01*
X146463714Y-96788572D01*
X146320857Y-96717143D01*
X146035142Y-96645715D01*
X145678000Y-96645715D01*
X145392285Y-96717143D01*
X145249428Y-96788572D01*
X145178000Y-96860001D01*
X145106571Y-97002858D01*
X146463714Y-98145715D02*
X146535142Y-98217143D01*
X146606571Y-98145715D01*
X146535142Y-98074286D01*
X146463714Y-98145715D01*
X146606571Y-98145715D01*
X145106571Y-98717143D02*
X145106571Y-99645715D01*
X145678000Y-99145715D01*
X145678000Y-99360001D01*
X145749428Y-99502858D01*
X145820857Y-99574286D01*
X145963714Y-99645715D01*
X146320857Y-99645715D01*
X146463714Y-99574286D01*
X146535142Y-99502858D01*
X146606571Y-99360001D01*
X146606571Y-98931429D01*
X146535142Y-98788572D01*
X146463714Y-98717143D01*
M02*
